<svg width="48" height="48" viewBox="0 0 48 48" fill="none" xmlns="http://www.w3.org/2000/svg">
<path d="M35 1.5C36.3807 1.5 37.5 2.61929 37.5 4L37.5 44C37.5 45.3807 36.3807 46.5 35 46.5L14 46.5C12.6193 46.5 11.5 45.3807 11.5 44L11.5 4C11.5 2.61929 12.6193 1.5 14 1.5L35 1.5Z" stroke="#152C5B" stroke-width="3"/>
<path d="M20.5 3C20.5 2.17157 19.8284 1.5 19 1.5C18.1716 1.5 17.5 2.17157 17.5 3L20.5 3ZM17.5 46C17.5 46.8284 18.1716 47.5 19 47.5C19.8284 47.5 20.5 46.8284 20.5 46L17.5 46ZM17.5 3C17.5 3.05533 17.5 3.1106 17.5 3.16581C17.5 3.22102 17.5 3.27616 17.5 3.33125C17.5 3.38633 17.5 3.44135 17.5 3.49631C17.5 3.55127 17.5 3.60617 17.5 3.66101C17.5 3.71585 17.5 3.77062 17.5 3.82534C17.5 3.88005 17.5 3.9347 17.5 3.9893C17.5 4.04389 17.5 4.09842 17.5 4.15289C17.5 4.20736 17.5 4.26176 17.5 4.31611C17.5 4.37046 17.5 4.42474 17.5 4.47896C17.5 4.53319 17.5 4.58735 17.5 4.64145C17.5 4.69555 17.5 4.74959 17.5 4.80357C17.5 4.85755 17.5 4.91146 17.5 4.96532C17.5 5.01918 17.5 5.07297 17.5 5.1267C17.5 5.18044 17.5 5.23411 17.5 5.28772C17.5 5.34133 17.5 5.39488 17.5 5.44837C17.5 5.50186 17.5 5.55529 17.5 5.60866C17.5 5.66203 17.5 5.71533 17.5 5.76858C17.5 5.82182 17.5 5.875 17.5 5.92813C17.5 5.98125 17.5 6.03432 17.5 6.08732C17.5 6.14032 17.5 6.19326 17.5 6.24614C17.5 6.29902 17.5 6.35184 17.5 6.4046C17.5 6.45736 17.5 6.51006 17.5 6.56269C17.5 6.61533 17.5 6.66791 17.5 6.72042C17.5 6.77294 17.5 6.8254 17.5 6.87779C17.5 6.93019 17.5 6.98252 17.5 7.03479C17.5 7.08707 17.5 7.13928 17.5 7.19143C17.5 7.24359 17.5 7.29568 17.5 7.34771C17.5 7.39974 17.5 7.45171 17.5 7.50363C17.5 7.55554 17.5 7.60739 17.5 7.65918C17.5 7.71097 17.5 7.7627 17.5 7.81437C17.5 7.86604 17.5 7.91765 17.5 7.9692C17.5 8.02075 17.5 8.07224 17.5 8.12366C17.5 8.17509 17.5 8.22646 17.5 8.27777C17.5 8.32908 17.5 8.38033 17.5 8.43151C17.5 8.4827 17.5 8.53383 17.5 8.5849C17.5 8.63597 17.5 8.68698 17.5 8.73793C17.5 8.78887 17.5 8.83976 17.5 8.89059C17.5 8.94142 17.5 8.99219 17.5 9.0429C17.5 9.0936 17.5 9.14425 17.5 9.19484C17.5 9.24543 17.5 9.29596 17.5 9.34643C17.5 9.3969 17.5 9.4473 17.5 9.49765C17.5 9.548 17.5 9.59829 17.5 9.64853C17.5 9.69875 17.5 9.74892 17.5 9.79903C17.5 9.84914 17.5 9.8992 17.5 9.94919C17.5 9.99918 17.5 10.0491 17.5 10.099C17.5 10.1489 17.5 10.1987 17.5 10.2484C17.5 10.2982 17.5 10.3479 17.5 10.3975C17.5 10.4471 17.5 10.4967 17.5 10.5462C17.5 10.5957 17.5 10.6452 17.5 10.6946C17.5 10.744 17.5 10.7933 17.5 10.8426C17.5 10.8919 17.5 10.9411 17.5 10.9903C17.5 11.0394 17.5 11.0885 17.5 11.1376C17.5 11.1866 17.5 11.2356 17.5 11.2845C17.5 11.3334 17.5 11.3823 17.5 11.4311C17.5 11.4799 17.5 11.5287 17.5 11.5773C17.5 11.626 17.5 11.6747 17.5 11.7232C17.5 11.7718 17.5 11.8203 17.5 11.8687C17.5 11.9172 17.5 11.9656 17.5 12.0139C17.5 12.0623 17.5 12.1105 17.5 12.1587C17.5 12.207 17.5 12.2551 17.5 12.3032C17.5 12.3513 17.5 12.3993 17.5 12.4473C17.5 12.4953 17.5 12.5432 17.5 12.5911C17.5 12.6389 17.5 12.6867 17.5 12.7345C17.5 12.7822 17.5 12.8299 17.5 12.8776C17.5 12.9252 17.5 12.9727 17.5 13.0203C17.5 13.0678 17.5 13.1152 17.5 13.1626C17.5 13.21 17.5 13.2573 17.5 13.3046C17.5 13.3519 17.5 13.3991 17.5 13.4463C17.5 13.4934 17.5 13.5405 17.5 13.5876C17.5 13.6346 17.5 13.6816 17.5 13.7285C17.5 13.7754 17.5 13.8223 17.5 13.8691C17.5 13.9159 17.5 13.9627 17.5 14.0094C17.5 14.0561 17.5 14.1027 17.5 14.1493C17.5 14.1959 17.5 14.2424 17.5 14.2888C17.5 14.3353 17.5 14.3817 17.5 14.428C17.5 14.4744 17.5 14.5207 17.5 14.5669C17.5 14.6131 17.5 14.6593 17.5 14.7054C17.5 14.7515 17.5 14.7976 17.5 14.8436C17.5 14.8896 17.5 14.9355 17.5 14.9814C17.5 15.0273 17.5 15.0731 17.5 15.1188C17.5 15.1646 17.5 15.2103 17.5 15.256C17.5 15.3016 17.5 15.3472 17.5 15.3927C17.5 15.4383 17.5 15.4837 17.5 15.5292C17.5 15.5746 17.5 15.6199 17.5 15.6652C17.5 15.7105 17.5 15.7558 17.5 15.801C17.5 15.8462 17.5 15.8913 17.5 15.9364C17.5 15.9814 17.5 16.0264 17.5 16.0714C17.5 16.1164 17.5 16.1613 17.5 16.2061C17.5 16.2509 17.5 16.2957 17.5 16.3404C17.5 16.3852 17.5 16.4298 17.5 16.4745C17.5 16.5191 17.5 16.5636 17.5 16.6081C17.5 16.6526 17.5 16.6971 17.5 16.7414C17.5 16.7858 17.5 16.8301 17.5 16.8744C17.5 16.9187 17.5 16.9629 17.5 17.0071C17.5 17.0512 17.5 17.0953 17.5 17.1393C17.5 17.1834 17.5 17.2274 17.5 17.2713C17.5 17.3152 17.5 17.3591 17.5 17.4029C17.5 17.4467 17.5 17.4905 17.5 17.5342C17.5 17.5779 17.5 17.6215 17.5 17.6651C17.5 17.7087 17.5 17.7522 17.5 17.7957C17.5 17.8391 17.5 17.8826 17.5 17.9259C17.5 17.9693 17.5 18.0126 17.5 18.0558C17.5 18.099 17.5 18.1422 17.5 18.1854C17.5 18.2285 17.5 18.2716 17.5 18.3146C17.5 18.3576 17.5 18.4006 17.5 18.4435C17.5 18.4864 17.5 18.5292 17.5 18.572C17.5 18.6148 17.5 18.6575 17.5 18.7002C17.5 18.7429 17.5 18.7855 17.5 18.8281C17.5 18.8706 17.5 18.9131 17.5 18.9556C17.5 18.998 17.5 19.0404 17.5 19.0828C17.5 19.1251 17.5 19.1674 17.5 19.2096C17.5 19.2518 17.5 19.294 17.5 19.3361C17.5 19.3782 17.5 19.4203 17.5 19.4623C17.5 19.5043 17.5 19.5462 17.5 19.5881C17.5 19.63 17.5 19.6718 17.5 19.7136C17.5 19.7554 17.5 19.7971 17.5 19.8388C17.5 19.8804 17.5 19.922 17.5 19.9636C17.5 20.0051 17.5 20.0466 17.5 20.0881C17.5 20.1295 17.5 20.1709 17.5 20.2122C17.5 20.2536 17.5 20.2948 17.5 20.336C17.5 20.3773 17.5 20.4184 17.5 20.4595C17.5 20.5006 17.5 20.5417 17.5 20.5827C17.5 20.6237 17.5 20.6646 17.5 20.7055C17.5 20.7464 17.5 20.7872 17.5 20.828C17.5 20.8687 17.5 20.9094 17.5 20.9501C17.5 20.9908 17.5 21.0314 17.5 21.0719C17.5 21.1125 17.5 21.1529 17.5 21.1934C17.5 21.2338 17.5 21.2742 17.5 21.3145C17.5 21.3548 17.5 21.3951 17.5 21.4353C17.5 21.4755 17.5 21.5157 17.5 21.5558C17.5 21.5959 17.5 21.636 17.5 21.6759C17.5 21.7159 17.5 21.7559 17.5 21.7958C17.5 21.8356 17.5 21.8755 17.5 21.9152C17.5 21.955 17.5 21.9947 17.5 22.0344C17.5 22.074 17.5 22.1137 17.5 22.1532C17.5 22.1928 17.5 22.2323 17.5 22.2717C17.5 22.3111 17.5 22.3505 17.5 22.3898C17.5 22.4292 17.5 22.4685 17.5 22.5077C17.5 22.5469 17.5 22.5861 17.5 22.6252C17.5 22.6643 17.5 22.7033 17.5 22.7423C17.5 22.7813 17.5 22.8203 17.5 22.8592C17.5 22.8981 17.5 22.9369 17.5 22.9757C17.5 23.0145 17.5 23.0532 17.5 23.0919C17.5 23.1305 17.5 23.1691 17.5 23.2077C17.5 23.2463 17.5 23.2848 17.5 23.3232C17.5 23.3617 17.5 23.4001 17.5 23.4384C17.5 23.4768 17.5 23.5151 17.5 23.5533C17.5 23.5915 17.5 23.6297 17.5 23.6678C17.5 23.706 17.5 23.744 17.5 23.782C17.5 23.8201 17.5 23.858 17.5 23.8959C17.5 23.9338 17.5 23.9717 17.5 24.0095C17.5 24.0473 17.5 24.085 17.5 24.1227C17.5 24.1604 17.5 24.198 17.5 24.2356C17.5 24.2732 17.5 24.3107 17.5 24.3482C17.5 24.3857 17.5 24.4231 17.5 24.4605C17.5 24.4978 17.5 24.5351 17.5 24.5724C17.5 24.6096 17.5 24.6469 17.5 24.684C17.5 24.7211 17.5 24.7582 17.5 24.7953C17.5 24.8323 17.5 24.8693 17.5 24.9062C17.5 24.9432 17.5 24.9801 17.5 25.0169C17.5 25.0537 17.5 25.0905 17.5 25.1272C17.5 25.1639 17.5 25.2006 17.5 25.2372C17.5 25.2738 17.5 25.3103 17.5 25.3468C17.5 25.3833 17.5 25.4198 17.5 25.4562C17.5 25.4926 17.5 25.5289 17.5 25.5652C17.5 25.6015 17.5 25.6377 17.5 25.6739C17.5 25.7101 17.5 25.7462 17.5 25.7823C17.5 25.8183 17.5 25.8544 17.5 25.8903C17.5 25.9263 17.5 25.9622 17.5 25.9981C17.5 26.0339 17.5 26.0697 17.5 26.1055C17.5 26.1412 17.5 26.1769 17.5 26.2126C17.5 26.2482 17.5 26.2838 17.5 26.3193C17.5 26.3549 17.5 26.3904 17.5 26.4258C17.5 26.4612 17.5 26.4966 17.5 26.5319C17.5 26.5672 17.5 26.6025 17.5 26.6377C17.5 26.673 17.5 26.7081 17.5 26.7432C17.5 26.7783 17.5 26.8134 17.5 26.8484C17.5 26.8834 17.5 26.9184 17.5 26.9533C17.5 26.9882 17.5 27.023 17.5 27.0578C17.5 27.0926 17.5 27.1273 17.5 27.162C17.5 27.1967 17.5 27.2313 17.5 27.2659C17.5 27.3005 17.5 27.335 17.5 27.3695C17.5 27.404 17.5 27.4384 17.5 27.4728C17.5 27.5072 17.5 27.5415 17.5 27.5757C17.5 27.61 17.5 27.6442 17.5 27.6784C17.5 27.7125 17.5 27.7466 17.5 27.7807C17.5 27.8147 17.5 27.8487 17.5 27.8827C17.5 27.9166 17.5 27.9505 17.5 27.9844C17.5 28.0182 17.5 28.052 17.5 28.0858C17.5 28.1195 17.5 28.1532 17.5 28.1868C17.5 28.2204 17.5 28.254 17.5 28.2876C17.5 28.3211 17.5 28.3546 17.5 28.388C17.5 28.4214 17.5 28.4548 17.5 28.4881C17.5 28.5214 17.5 28.5547 17.5 28.5879C17.5 28.6211 17.5 28.6543 17.5 28.6874C17.5 28.7205 17.5 28.7536 17.5 28.7866C17.5 28.8196 17.5 28.8525 17.5 28.8854C17.5 28.9183 17.5 28.9512 17.5 28.984C17.5 29.0168 17.5 29.0495 17.5 29.0822C17.5 29.1149 17.5 29.1475 17.5 29.1801C17.5 29.2127 17.5 29.2453 17.5 29.2777C17.5 29.3102 17.5 29.3427 17.5 29.375C17.5 29.4074 17.5 29.4398 17.5 29.472C17.5 29.5043 17.5 29.5365 17.5 29.5687C17.5 29.6009 17.5 29.633 17.5 29.6651C17.5 29.6972 17.5 29.7292 17.5 29.7611C17.5 29.7931 17.5 29.825 17.5 29.8569C17.5 29.8888 17.5 29.9206 17.5 29.9523C17.5 29.9841 17.5 30.0158 17.5 30.0475C17.5 30.0791 17.5 30.1107 17.5 30.1423C17.5 30.1738 17.5 30.2053 17.5 30.2368C17.5 30.2682 17.5 30.2996 17.5 30.331C17.5 30.3623 17.5 30.3936 17.5 30.4249C17.5 30.4561 17.5 30.4873 17.5 30.5185C17.5 30.5496 17.5 30.5807 17.5 30.6118C17.5 30.6428 17.5 30.6738 17.5 30.7047C17.5 30.7357 17.5 30.7666 17.5 30.7974C17.5 30.8282 17.5 30.859 17.5 30.8898C17.5 30.9205 17.5 30.9512 17.5 30.9818C17.5 31.0124 17.5 31.043 17.5 31.0736C17.5 31.1041 17.5 31.1346 17.5 31.165C17.5 31.1954 17.5 31.2258 17.5 31.2561C17.5 31.2865 17.5 31.3167 17.5 31.347C17.5 31.3772 17.5 31.4074 17.5 31.4375C17.5 31.4676 17.5 31.4977 17.5 31.5277C17.5 31.5577 17.5 31.5877 17.5 31.6176C17.5 31.6475 17.5 31.6774 17.5 31.7072C17.5 31.737 17.5 31.7668 17.5 31.7965C17.5 31.8263 17.5 31.8559 17.5 31.8855C17.5 31.9152 17.5 31.9447 17.5 31.9742C17.5 32.0038 17.5 32.0332 17.5 32.0626C17.5 32.0921 17.5 32.1214 17.5 32.1507C17.5 32.18 17.5 32.2093 17.5 32.2385C17.5 32.2677 17.5 32.2969 17.5 32.326C17.5 32.3551 17.5 32.3842 17.5 32.4132C17.5 32.4422 17.5 32.4712 17.5 32.5001C17.5 32.529 17.5 32.5579 17.5 32.5867C17.5 32.6155 17.5 32.6443 17.5 32.673C17.5 32.7017 17.5 32.7303 17.5 32.759C17.5 32.7876 17.5 32.8161 17.5 32.8446C17.5 32.8731 17.5 32.9016 17.5 32.93C17.5 32.9584 17.5 32.9868 17.5 33.0151C17.5 33.0434 17.5 33.0717 17.5 33.0999C17.5 33.1281 17.5 33.1563 17.5 33.1844C17.5 33.2125 17.5 33.2406 17.5 33.2686C17.5 33.2966 17.5 33.3245 17.5 33.3525C17.5 33.3804 17.5 33.4082 17.5 33.436C17.5 33.4639 17.5 33.4916 17.5 33.5193C17.5 33.5471 17.5 33.5747 17.5 33.6023C17.5 33.63 17.5 33.6575 17.5 33.685C17.5 33.7126 17.5 33.74 17.5 33.7674C17.5 33.7949 17.5 33.8222 17.5 33.8495C17.5 33.8769 17.5 33.9041 17.5 33.9314C17.5 33.9586 17.5 33.9857 17.5 34.0129C17.5 34.04 17.5 34.0671 17.5 34.0941C17.5 34.1211 17.5 34.1481 17.5 34.175C17.5 34.2019 17.5 34.2288 17.5 34.2556C17.5 34.2825 17.5 34.3092 17.5 34.336C17.5 34.3627 17.5 34.3894 17.5 34.416C17.5 34.4426 17.5 34.4692 17.5 34.4957C17.5 34.5223 17.5 34.5487 17.5 34.5752C17.5 34.6016 17.5 34.628 17.5 34.6543C17.5 34.6807 17.5 34.707 17.5 34.7332C17.5 34.7594 17.5 34.7856 17.5 34.8118C17.5 34.8379 17.5 34.864 17.5 34.89C17.5 34.9161 17.5 34.9421 17.5 34.968C17.5 34.994 17.5 35.0199 17.5 35.0457C17.5 35.0716 17.5 35.0974 17.5 35.1231C17.5 35.1489 17.5 35.1746 17.5 35.2002C17.5 35.2259 17.5 35.2515 17.5 35.277C17.5 35.3026 17.5 35.3281 17.5 35.3535C17.5 35.379 17.5 35.4044 17.5 35.4298C17.5 35.4551 17.5 35.4805 17.5 35.5057C17.5 35.531 17.5 35.5562 17.5 35.5814C17.5 35.6065 17.5 35.6317 17.5 35.6567C17.5 35.6818 17.5 35.7068 17.5 35.7318C17.5 35.7568 17.5 35.7817 17.5 35.8066C17.5 35.8315 17.5 35.8563 17.5 35.8811C17.5 35.9059 17.5 35.9306 17.5 35.9553C17.5 35.98 17.5 36.0046 17.5 36.0292C17.5 36.0538 17.5 36.0783 17.5 36.1028C17.5 36.1273 17.5 36.1518 17.5 36.1762C17.5 36.2006 17.5 36.2249 17.5 36.2492C17.5 36.2735 17.5 36.2978 17.5 36.322C17.5 36.3462 17.5 36.3704 17.5 36.3945C17.5 36.4186 17.5 36.4426 17.5 36.4667C17.5 36.4907 17.5 36.5146 17.5 36.5386C17.5 36.5625 17.5 36.5864 17.5 36.6102C17.5 36.634 17.5 36.6578 17.5 36.6815C17.5 36.7052 17.5 36.7289 17.5 36.7526C17.5 36.7762 17.5 36.7998 17.5 36.8233C17.5 36.8469 17.5 36.8703 17.5 36.8938C17.5 36.9172 17.5 36.9406 17.5 36.964C17.5 36.9873 17.5 37.0106 17.5 37.0339C17.5 37.0571 17.5 37.0804 17.5 37.1035C17.5 37.1267 17.5 37.1498 17.5 37.1729C17.5 37.1959 17.5 37.2189 17.5 37.2419C17.5 37.2649 17.5 37.2878 17.5 37.3107C17.5 37.3336 17.5 37.3564 17.5 37.3792C17.5 37.402 17.5 37.4247 17.5 37.4474C17.5 37.4701 17.5 37.4927 17.5 37.5153C17.5 37.5379 17.5 37.5605 17.5 37.583C17.5 37.6055 17.5 37.6279 17.5 37.6503C17.5 37.6727 17.5 37.6951 17.5 37.7174C17.5 37.7397 17.5 37.762 17.5 37.7842C17.5 37.8064 17.5 37.8286 17.5 37.8507C17.5 37.8728 17.5 37.8949 17.5 37.917C17.5 37.939 17.5 37.961 17.5 37.9829C17.5 38.0048 17.5 38.0267 17.5 38.0486C17.5 38.0704 17.5 38.0922 17.5 38.114C17.5 38.1357 17.5 38.1574 17.5 38.1791C17.5 38.2008 17.5 38.2224 17.5 38.2439C17.5 38.2655 17.5 38.287 17.5 38.3085C17.5 38.33 17.5 38.3514 17.5 38.3728C17.5 38.3942 17.5 38.4155 17.5 38.4368C17.5 38.4581 17.5 38.4793 17.5 38.5005C17.5 38.5217 17.5 38.5429 17.5 38.564C17.5 38.5851 17.5 38.6061 17.5 38.6271C17.5 38.6481 17.5 38.6691 17.5 38.69C17.5 38.7109 17.5 38.7318 17.5 38.7526C17.5 38.7735 17.5 38.7942 17.5 38.815C17.5 38.8357 17.5 38.8564 17.5 38.877C17.5 38.8977 17.5 38.9183 17.5 38.9388C17.5 38.9594 17.5 38.9799 17.5 39.0003C17.5 39.0208 17.5 39.0412 17.5 39.0616C17.5 39.082 17.5 39.1023 17.5 39.1225C17.5 39.1428 17.5 39.1631 17.5 39.1832C17.5 39.2034 17.5 39.2236 17.5 39.2437C17.5 39.2637 17.5 39.2838 17.5 39.3038C17.5 39.3238 17.5 39.3437 17.5 39.3637C17.5 39.3836 17.5 39.4034 17.5 39.4233C17.5 39.4431 17.5 39.4628 17.5 39.4826C17.5 39.5023 17.5 39.522 17.5 39.5416C17.5 39.5613 17.5 39.5808 17.5 39.6004C17.5 39.6199 17.5 39.6394 17.5 39.6589C17.5 39.6783 17.5 39.6978 17.5 39.7171C17.5 39.7365 17.5 39.7558 17.5 39.7751C17.5 39.7944 17.5 39.8136 17.5 39.8328C17.5 39.8519 17.5 39.8711 17.5 39.8902C17.5 39.9093 17.5 39.9283 17.5 39.9473C17.5 39.9663 17.5 39.9853 17.5 40.0042C17.5 40.0231 17.5 40.042 17.5 40.0608C17.5 40.0796 17.5 40.0984 17.5 40.1171C17.5 40.1359 17.5 40.1546 17.5 40.1732C17.5 40.1918 17.5 40.2104 17.5 40.229C17.5 40.2475 17.5 40.2661 17.5 40.2845C17.5 40.303 17.5 40.3214 17.5 40.3398C17.5 40.3581 17.5 40.3765 17.5 40.3948C17.5 40.413 17.5 40.4313 17.5 40.4495C17.5 40.4677 17.5 40.4858 17.5 40.5039C17.5 40.522 17.5 40.5401 17.5 40.5581C17.5 40.5761 17.5 40.5941 17.5 40.612C17.5 40.63 17.5 40.6478 17.5 40.6657C17.5 40.6835 17.5 40.7013 17.5 40.7191C17.5 40.7368 17.5 40.7545 17.5 40.7722C17.5 40.7898 17.5 40.8075 17.5 40.825C17.5 40.8426 17.5 40.8601 17.5 40.8776C17.5 40.8951 17.5 40.9125 17.5 40.9299C17.5 40.9473 17.5 40.9647 17.5 40.982C17.5 40.9993 17.5 41.0166 17.5 41.0338C17.5 41.051 17.5 41.0682 17.5 41.0853C17.5 41.1024 17.5 41.1195 17.5 41.1366C17.5 41.1536 17.5 41.1706 17.5 41.1876C17.5 41.2045 17.5 41.2214 17.5 41.2383C17.5 41.2552 17.5 41.272 17.5 41.2888C17.5 41.3055 17.5 41.3223 17.5 41.339C17.5 41.3557 17.5 41.3723 17.5 41.3889C17.5 41.4055 17.5 41.4221 17.5 41.4386C17.5 41.4551 17.5 41.4716 17.5 41.488C17.5 41.5044 17.5 41.5208 17.5 41.5372C17.5 41.5535 17.5 41.5698 17.5 41.586C17.5 41.6023 17.5 41.6185 17.5 41.6347C17.5 41.6508 17.5 41.667 17.5 41.6831C17.5 41.6991 17.5 41.7152 17.5 41.7312C17.5 41.7472 17.5 41.7631 17.5 41.779C17.5 41.7949 17.5 41.8108 17.5 41.8266C17.5 41.8424 17.5 41.8582 17.5 41.8739C17.5 41.8897 17.5 41.9054 17.5 41.921C17.5 41.9366 17.5 41.9522 17.5 41.9678C17.5 41.9834 17.5 41.9989 17.5 42.0144C17.5 42.0298 17.5 42.0453 17.5 42.0607C17.5 42.076 17.5 42.0914 17.5 42.1067C17.5 42.122 17.5 42.1372 17.5 42.1525C17.5 42.1677 17.5 42.1828 17.5 42.198C17.5 42.2131 17.5 42.2282 17.5 42.2432C17.5 42.2583 17.5 42.2733 17.5 42.2882C17.5 42.3032 17.5 42.3181 17.5 42.333C17.5 42.3479 17.5 42.3627 17.5 42.3775C17.5 42.3923 17.5 42.407 17.5 42.4217C17.5 42.4364 17.5 42.4511 17.5 42.4657C17.5 42.4803 17.5 42.4949 17.5 42.5094C17.5 42.5239 17.5 42.5384 17.5 42.5529C17.5 42.5673 17.5 42.5817 17.5 42.5961C17.5 42.6104 17.5 42.6248 17.5 42.639C17.5 42.6533 17.5 42.6675 17.5 42.6817C17.5 42.6959 17.5 42.7101 17.5 42.7242C17.5 42.7383 17.5 42.7523 17.5 42.7664C17.5 42.7804 17.5 42.7944 17.5 42.8083C17.5 42.8222 17.5 42.8361 17.5 42.85C17.5 42.8638 17.5 42.8777 17.5 42.8914C17.5 42.9052 17.5 42.9189 17.5 42.9326C17.5 42.9463 17.5 42.9599 17.5 42.9735C17.5 42.9871 17.5 43.0007 17.5 43.0142C17.5 43.0277 17.5 43.0412 17.5 43.0546C17.5 43.068 17.5 43.0814 17.5 43.0948C17.5 43.1081 17.5 43.1214 17.5 43.1347C17.5 43.148 17.5 43.1612 17.5 43.1744C17.5 43.1876 17.5 43.2007 17.5 43.2138C17.5 43.2269 17.5 43.2399 17.5 43.253C17.5 43.266 17.5 43.2789 17.5 43.2919C17.5 43.3048 17.5 43.3177 17.5 43.3305C17.5 43.3434 17.5 43.3562 17.5 43.3689C17.5 43.3817 17.5 43.3944 17.5 43.4071C17.5 43.4198 17.5 43.4324 17.5 43.445C17.5 43.4576 17.5 43.4702 17.5 43.4827C17.5 43.4952 17.5 43.5077 17.5 43.5201C17.5 43.5325 17.5 43.5449 17.5 43.5573C17.5 43.5696 17.5 43.5819 17.5 43.5942C17.5 43.6065 17.5 43.6187 17.5 43.6309C17.5 43.6431 17.5 43.6552 17.5 43.6673C17.5 43.6794 17.5 43.6915 17.5 43.7035C17.5 43.7155 17.5 43.7275 17.5 43.7394C17.5 43.7514 17.5 43.7633 17.5 43.7751C17.5 43.787 17.5 43.7988 17.5 43.8106C17.5 43.8223 17.5 43.8341 17.5 43.8458C17.5 43.8574 17.5 43.8691 17.5 43.8807C17.5 43.8923 17.5 43.9039 17.5 43.9154C17.5 43.9269 17.5 43.9384 17.5 43.9499C17.5 43.9613 17.5 43.9727 17.5 43.9841C17.5 43.9954 17.5 44.0068 17.5 44.0181C17.5 44.0293 17.5 44.0406 17.5 44.0518C17.5 44.063 17.5 44.0741 17.5 44.0853C17.5 44.0964 17.5 44.1075 17.5 44.1185C17.5 44.1295 17.5 44.1405 17.5 44.1515C17.5 44.1625 17.5 44.1734 17.5 44.1843C17.5 44.1951 17.5 44.206 17.5 44.2168C17.5 44.2276 17.5 44.2383 17.5 44.249C17.5 44.2597 17.5 44.2704 17.5 44.2811C17.5 44.2917 17.5 44.3023 17.5 44.3128C17.5 44.3234 17.5 44.3339 17.5 44.3444C17.5 44.3549 17.5 44.3653 17.5 44.3757C17.5 44.3861 17.5 44.3964 17.5 44.4067C17.5 44.4171 17.5 44.4273 17.5 44.4376C17.5 44.4478 17.5 44.458 17.5 44.4682C17.5 44.4783 17.5 44.4884 17.5 44.4985C17.5 44.5086 17.5 44.5186 17.5 44.5286C17.5 44.5386 17.5 44.5485 17.5 44.5585C17.5 44.5684 17.5 44.5782 17.5 44.5881C17.5 44.5979 17.5 44.6077 17.5 44.6175C17.5 44.6272 17.5 44.6369 17.5 44.6466C17.5 44.6563 17.5 44.6659 17.5 44.6755C17.5 44.6851 17.5 44.6947 17.5 44.7042C17.5 44.7137 17.5 44.7232 17.5 44.7326C17.5 44.742 17.5 44.7514 17.5 44.7608C17.5 44.7702 17.5 44.7795 17.5 44.7888C17.5 44.798 17.5 44.8073 17.5 44.8165C17.5 44.8257 17.5 44.8348 17.5 44.844C17.5 44.8531 17.5 44.8622 17.5 44.8712C17.5 44.8803 17.5 44.8893 17.5 44.8982C17.5 44.9072 17.5 44.9161 17.5 44.925C17.5 44.9339 17.5 44.9427 17.5 44.9515C17.5 44.9603 17.5 44.9691 17.5 44.9778C17.5 44.9866 17.5 44.9953 17.5 45.0039C17.5 45.0126 17.5 45.0212 17.5 45.0297C17.5 45.0383 17.5 45.0469 17.5 45.0554C17.5 45.0638 17.5 45.0723 17.5 45.0807C17.5 45.0891 17.5 45.0975 17.5 45.1059C17.5 45.1142 17.5 45.1225 17.5 45.1308C17.5 45.139 17.5 45.1472 17.5 45.1554C17.5 45.1636 17.5 45.1718 17.5 45.1799C17.5 45.188 17.5 45.196 17.5 45.2041C17.5 45.2121 17.5 45.2201 17.5 45.228C17.5 45.236 17.5 45.2439 17.5 45.2518C17.5 45.2597 17.5 45.2675 17.5 45.2753C17.5 45.2831 17.5 45.2908 17.5 45.2986C17.5 45.3063 17.5 45.314 17.5 45.3216C17.5 45.3293 17.5 45.3369 17.5 45.3444C17.5 45.352 17.5 45.3595 17.5 45.367C17.5 45.3745 17.5 45.382 17.5 45.3894C17.5 45.3968 17.5 45.4042 17.5 45.4115C17.5 45.4188 17.5 45.4261 17.5 45.4334C17.5 45.4406 17.5 45.4479 17.5 45.4551C17.5 45.4622 17.5 45.4694 17.5 45.4765C17.5 45.4836 17.5 45.4907 17.5 45.4977C17.5 45.5047 17.5 45.5117 17.5 45.5187C17.5 45.5256 17.5 45.5326 17.5 45.5394C17.5 45.5463 17.5 45.5532 17.5 45.56C17.5 45.5668 17.5 45.5735 17.5 45.5803C17.5 45.587 17.5 45.5937 17.5 45.6003C17.5 45.607 17.5 45.6136 17.5 45.6202C17.5 45.6268 17.5 45.6333 17.5 45.6398C17.5 45.6463 17.5 45.6528 17.5 45.6592C17.5 45.6656 17.5 45.672 17.5 45.6784C17.5 45.6847 17.5 45.691 17.5 45.6973C17.5 45.7036 17.5 45.7098 17.5 45.716C17.5 45.7222 17.5 45.7284 17.5 45.7345C17.5 45.7406 17.5 45.7467 17.5 45.7528C17.5 45.7588 17.5 45.7648 17.5 45.7708C17.5 45.7768 17.5 45.7827 17.5 45.7886C17.5 45.7945 17.5 45.8004 17.5 45.8062C17.5 45.8121 17.5 45.8178 17.5 45.8236C17.5 45.8293 17.5 45.8351 17.5 45.8407C17.5 45.8464 17.5 45.8521 17.5 45.8577C17.5 45.8633 17.5 45.8688 17.5 45.8744C17.5 45.8799 17.5 45.8854 17.5 45.8908C17.5 45.8963 17.5 45.9017 17.5 45.9071C17.5 45.9125 17.5 45.9178 17.5 45.9231C17.5 45.9284 17.5 45.9337 17.5 45.939C17.5 45.9442 17.5 45.9494 17.5 45.9545C17.5 45.9597 17.5 45.9648 17.5 45.9699C17.5 45.975 17.5 45.9801 17.5 45.9851C17.5 45.9901 17.5 45.9951 17.5 46L20.5 46C20.5 45.9951 20.5 45.9901 20.5 45.9851C20.5 45.9801 20.5 45.975 20.5 45.9699C20.5 45.9648 20.5 45.9597 20.5 45.9545C20.5 45.9494 20.5 45.9442 20.5 45.939C20.5 45.9337 20.5 45.9284 20.5 45.9231C20.5 45.9178 20.5 45.9125 20.5 45.9071C20.5 45.9017 20.5 45.8963 20.5 45.8908C20.5 45.8854 20.5 45.8799 20.5 45.8744C20.5 45.8688 20.5 45.8633 20.5 45.8577C20.5 45.8521 20.5 45.8464 20.5 45.8407C20.5 45.8351 20.5 45.8293 20.5 45.8236C20.5 45.8178 20.5 45.8121 20.5 45.8062C20.5 45.8004 20.5 45.7945 20.5 45.7886C20.5 45.7827 20.5 45.7768 20.5 45.7708C20.5 45.7648 20.5 45.7588 20.5 45.7528C20.5 45.7467 20.5 45.7406 20.5 45.7345C20.5 45.7284 20.5 45.7222 20.5 45.716C20.5 45.7098 20.5 45.7036 20.5 45.6973C20.5 45.691 20.5 45.6847 20.5 45.6784C20.5 45.672 20.5 45.6656 20.5 45.6592C20.5 45.6528 20.5 45.6463 20.5 45.6398C20.5 45.6333 20.5 45.6268 20.5 45.6202C20.5 45.6136 20.5 45.607 20.5 45.6003C20.5 45.5937 20.5 45.587 20.5 45.5803C20.5 45.5735 20.5 45.5668 20.5 45.56C20.5 45.5532 20.5 45.5463 20.5 45.5394C20.5 45.5326 20.5 45.5256 20.5 45.5187C20.5 45.5117 20.5 45.5047 20.5 45.4977C20.5 45.4907 20.5 45.4836 20.5 45.4765C20.5 45.4694 20.5 45.4622 20.5 45.4551C20.5 45.4479 20.5 45.4406 20.5 45.4334C20.5 45.4261 20.5 45.4188 20.5 45.4115C20.5 45.4042 20.5 45.3968 20.5 45.3894C20.5 45.382 20.5 45.3745 20.5 45.367C20.5 45.3595 20.5 45.352 20.5 45.3444C20.5 45.3369 20.5 45.3293 20.5 45.3216C20.5 45.314 20.5 45.3063 20.5 45.2986C20.5 45.2908 20.5 45.2831 20.5 45.2753C20.5 45.2675 20.5 45.2597 20.5 45.2518C20.5 45.2439 20.5 45.236 20.5 45.228C20.5 45.2201 20.5 45.2121 20.5 45.2041C20.5 45.196 20.5 45.188 20.5 45.1799C20.5 45.1718 20.5 45.1636 20.5 45.1554C20.5 45.1472 20.5 45.139 20.5 45.1308C20.5 45.1225 20.5 45.1142 20.5 45.1059C20.5 45.0975 20.5 45.0891 20.5 45.0807C20.5 45.0723 20.5 45.0638 20.5 45.0554C20.5 45.0469 20.5 45.0383 20.5 45.0297C20.5 45.0212 20.5 45.0126 20.5 45.0039C20.5 44.9953 20.5 44.9866 20.5 44.9778C20.5 44.9691 20.5 44.9603 20.5 44.9515C20.5 44.9427 20.5 44.9339 20.5 44.925C20.5 44.9161 20.5 44.9072 20.5 44.8982C20.5 44.8893 20.5 44.8803 20.5 44.8712C20.5 44.8622 20.5 44.8531 20.5 44.844C20.5 44.8348 20.5 44.8257 20.5 44.8165C20.5 44.8073 20.5 44.798 20.5 44.7888C20.5 44.7795 20.5 44.7702 20.5 44.7608C20.5 44.7514 20.5 44.742 20.5 44.7326C20.5 44.7232 20.5 44.7137 20.5 44.7042C20.5 44.6947 20.5 44.6851 20.5 44.6755C20.5 44.6659 20.5 44.6563 20.5 44.6466C20.5 44.6369 20.5 44.6272 20.5 44.6175C20.5 44.6077 20.5 44.5979 20.5 44.5881C20.5 44.5782 20.5 44.5684 20.5 44.5585C20.5 44.5485 20.5 44.5386 20.5 44.5286C20.5 44.5186 20.5 44.5086 20.5 44.4985C20.5 44.4884 20.5 44.4783 20.5 44.4682C20.5 44.458 20.5 44.4478 20.5 44.4376C20.5 44.4273 20.5 44.4171 20.5 44.4067C20.5 44.3964 20.5 44.3861 20.5 44.3757C20.5 44.3653 20.5 44.3549 20.5 44.3444C20.5 44.3339 20.5 44.3234 20.5 44.3128C20.5 44.3023 20.5 44.2917 20.5 44.2811C20.5 44.2704 20.5 44.2597 20.5 44.249C20.5 44.2383 20.5 44.2276 20.5 44.2168C20.5 44.206 20.5 44.1951 20.5 44.1843C20.5 44.1734 20.5 44.1625 20.5 44.1515C20.5 44.1405 20.5 44.1295 20.5 44.1185C20.5 44.1075 20.5 44.0964 20.5 44.0853C20.5 44.0741 20.5 44.063 20.5 44.0518C20.5 44.0406 20.5 44.0293 20.5 44.0181C20.5 44.0068 20.5 43.9954 20.5 43.9841C20.5 43.9727 20.5 43.9613 20.5 43.9499C20.5 43.9384 20.5 43.9269 20.5 43.9154C20.5 43.9039 20.5 43.8923 20.5 43.8807C20.5 43.8691 20.5 43.8574 20.5 43.8458C20.5 43.8341 20.5 43.8223 20.5 43.8106C20.5 43.7988 20.5 43.787 20.5 43.7751C20.5 43.7633 20.5 43.7514 20.5 43.7394C20.5 43.7275 20.5 43.7155 20.5 43.7035C20.5 43.6915 20.5 43.6794 20.5 43.6673C20.5 43.6552 20.5 43.6431 20.5 43.6309C20.5 43.6187 20.5 43.6065 20.5 43.5942C20.5 43.5819 20.5 43.5696 20.5 43.5573C20.5 43.5449 20.5 43.5325 20.5 43.5201C20.5 43.5077 20.5 43.4952 20.5 43.4827C20.5 43.4702 20.5 43.4576 20.5 43.445C20.5 43.4324 20.5 43.4198 20.5 43.4071C20.5 43.3944 20.5 43.3817 20.5 43.3689C20.5 43.3562 20.5 43.3434 20.5 43.3305C20.5 43.3177 20.5 43.3048 20.5 43.2919C20.5 43.2789 20.5 43.266 20.5 43.253C20.5 43.2399 20.5 43.2269 20.5 43.2138C20.5 43.2007 20.5 43.1876 20.5 43.1744C20.5 43.1612 20.5 43.148 20.5 43.1347C20.5 43.1214 20.5 43.1081 20.5 43.0948C20.5 43.0814 20.5 43.068 20.5 43.0546C20.5 43.0412 20.5 43.0277 20.5 43.0142C20.5 43.0007 20.5 42.9871 20.5 42.9735C20.5 42.9599 20.5 42.9463 20.5 42.9326C20.5 42.9189 20.5 42.9052 20.5 42.8914C20.5 42.8777 20.5 42.8638 20.5 42.85C20.5 42.8361 20.5 42.8222 20.5 42.8083C20.5 42.7944 20.5 42.7804 20.5 42.7664C20.5 42.7523 20.5 42.7383 20.5 42.7242C20.5 42.7101 20.5 42.6959 20.5 42.6817C20.5 42.6675 20.5 42.6533 20.5 42.639C20.5 42.6248 20.5 42.6104 20.5 42.5961C20.5 42.5817 20.5 42.5673 20.5 42.5529C20.5 42.5384 20.5 42.5239 20.5 42.5094C20.5 42.4949 20.5 42.4803 20.5 42.4657C20.5 42.4511 20.5 42.4364 20.5 42.4217C20.5 42.407 20.5 42.3923 20.5 42.3775C20.5 42.3627 20.5 42.3479 20.5 42.333C20.5 42.3181 20.5 42.3032 20.5 42.2882C20.5 42.2733 20.5 42.2583 20.5 42.2432C20.5 42.2282 20.5 42.2131 20.5 42.198C20.5 42.1828 20.5 42.1677 20.5 42.1525C20.5 42.1372 20.5 42.122 20.5 42.1067C20.5 42.0914 20.5 42.076 20.5 42.0607C20.5 42.0453 20.5 42.0298 20.5 42.0144C20.5 41.9989 20.5 41.9834 20.5 41.9678C20.5 41.9522 20.5 41.9366 20.5 41.921C20.5 41.9054 20.5 41.8897 20.5 41.8739C20.5 41.8582 20.5 41.8424 20.5 41.8266C20.5 41.8108 20.5 41.7949 20.5 41.779C20.5 41.7631 20.5 41.7472 20.5 41.7312C20.5 41.7152 20.5 41.6991 20.5 41.6831C20.5 41.667 20.5 41.6508 20.5 41.6347C20.5 41.6185 20.5 41.6023 20.5 41.586C20.5 41.5698 20.5 41.5535 20.5 41.5372C20.5 41.5208 20.5 41.5044 20.5 41.488C20.5 41.4716 20.5 41.4551 20.5 41.4386C20.5 41.4221 20.5 41.4055 20.5 41.3889C20.5 41.3723 20.5 41.3557 20.5 41.339C20.5 41.3223 20.5 41.3055 20.5 41.2888C20.5 41.272 20.5 41.2552 20.5 41.2383C20.5 41.2214 20.5 41.2045 20.5 41.1876C20.5 41.1706 20.5 41.1536 20.5 41.1366C20.5 41.1195 20.5 41.1024 20.5 41.0853C20.5 41.0682 20.5 41.051 20.5 41.0338C20.5 41.0166 20.5 40.9993 20.5 40.982C20.5 40.9647 20.5 40.9473 20.5 40.9299C20.5 40.9125 20.5 40.8951 20.5 40.8776C20.5 40.8601 20.5 40.8426 20.5 40.825C20.5 40.8075 20.5 40.7898 20.5 40.7722C20.5 40.7545 20.5 40.7368 20.5 40.7191C20.5 40.7013 20.5 40.6835 20.5 40.6657C20.5 40.6478 20.5 40.63 20.5 40.612C20.5 40.5941 20.5 40.5761 20.5 40.5581C20.5 40.5401 20.5 40.522 20.5 40.5039C20.5 40.4858 20.5 40.4677 20.5 40.4495C20.5 40.4313 20.5 40.413 20.5 40.3948C20.5 40.3765 20.5 40.3581 20.5 40.3398C20.5 40.3214 20.5 40.303 20.5 40.2845C20.5 40.2661 20.5 40.2475 20.5 40.229C20.5 40.2104 20.5 40.1918 20.5 40.1732C20.5 40.1546 20.5 40.1359 20.5 40.1171C20.5 40.0984 20.5 40.0796 20.5 40.0608C20.5 40.042 20.5 40.0231 20.5 40.0042C20.5 39.9853 20.5 39.9663 20.5 39.9473C20.5 39.9283 20.5 39.9093 20.5 39.8902C20.5 39.8711 20.5 39.8519 20.5 39.8328C20.5 39.8136 20.5 39.7944 20.5 39.7751C20.5 39.7558 20.5 39.7365 20.5 39.7171C20.5 39.6978 20.5 39.6783 20.5 39.6589C20.5 39.6394 20.5 39.6199 20.5 39.6004C20.5 39.5808 20.5 39.5613 20.5 39.5416C20.5 39.522 20.5 39.5023 20.5 39.4826C20.5 39.4628 20.5 39.4431 20.5 39.4233C20.5 39.4034 20.5 39.3836 20.5 39.3637C20.5 39.3437 20.5 39.3238 20.5 39.3038C20.5 39.2838 20.5 39.2637 20.5 39.2437C20.5 39.2236 20.5 39.2034 20.5 39.1832C20.5 39.1631 20.5 39.1428 20.5 39.1226C20.5 39.1023 20.5 39.082 20.5 39.0616C20.5 39.0412 20.5 39.0208 20.5 39.0003C20.5 38.9799 20.5 38.9594 20.5 38.9388C20.5 38.9183 20.5 38.8977 20.5 38.877C20.5 38.8564 20.5 38.8357 20.5 38.815C20.5 38.7942 20.5 38.7735 20.5 38.7526C20.5 38.7318 20.5 38.7109 20.5 38.69C20.5 38.6691 20.5 38.6481 20.5 38.6271C20.5 38.6061 20.5 38.5851 20.5 38.564C20.5 38.5429 20.5 38.5217 20.5 38.5005C20.5 38.4793 20.5 38.4581 20.5 38.4368C20.5 38.4155 20.5 38.3942 20.5 38.3728C20.5 38.3514 20.5 38.33 20.5 38.3085C20.5 38.287 20.5 38.2655 20.5 38.2439C20.5 38.2224 20.5 38.2008 20.5 38.1791C20.5 38.1574 20.5 38.1357 20.5 38.114C20.5 38.0922 20.5 38.0704 20.5 38.0486C20.5 38.0267 20.5 38.0048 20.5 37.9829C20.5 37.961 20.5 37.939 20.5 37.917C20.5 37.8949 20.5 37.8728 20.5 37.8507C20.5 37.8286 20.5 37.8064 20.5 37.7842C20.5 37.762 20.5 37.7397 20.5 37.7174C20.5 37.6951 20.5 37.6727 20.5 37.6503C20.5 37.6279 20.5 37.6055 20.5 37.583C20.5 37.5605 20.5 37.5379 20.5 37.5153C20.5 37.4927 20.5 37.4701 20.5 37.4474C20.5 37.4247 20.5 37.402 20.5 37.3792C20.5 37.3564 20.5 37.3336 20.5 37.3107C20.5 37.2878 20.5 37.2649 20.5 37.2419C20.5 37.2189 20.5 37.1959 20.5 37.1729C20.5 37.1498 20.5 37.1267 20.5 37.1035C20.5 37.0804 20.5 37.0571 20.5 37.0339C20.5 37.0106 20.5 36.9873 20.5 36.964C20.5 36.9406 20.5 36.9172 20.5 36.8938C20.5 36.8703 20.5 36.8469 20.5 36.8233C20.5 36.7998 20.5 36.7762 20.5 36.7526C20.5 36.7289 20.5 36.7052 20.5 36.6815C20.5 36.6578 20.5 36.634 20.5 36.6102C20.5 36.5864 20.5 36.5625 20.5 36.5386C20.5 36.5146 20.5 36.4907 20.5 36.4667C20.5 36.4426 20.5 36.4186 20.5 36.3945C20.5 36.3704 20.5 36.3462 20.5 36.322C20.5 36.2978 20.5 36.2735 20.5 36.2492C20.5 36.2249 20.5 36.2006 20.5 36.1762C20.5 36.1518 20.5 36.1273 20.5 36.1028C20.5 36.0783 20.5 36.0538 20.5 36.0292C20.5 36.0046 20.5 35.98 20.5 35.9553C20.5 35.9306 20.5 35.9059 20.5 35.8811C20.5 35.8563 20.5 35.8315 20.5 35.8066C20.5 35.7817 20.5 35.7568 20.5 35.7318C20.5 35.7068 20.5 35.6818 20.5 35.6567C20.5 35.6317 20.5 35.6065 20.5 35.5814C20.5 35.5562 20.5 35.531 20.5 35.5057C20.5 35.4805 20.5 35.4551 20.5 35.4298C20.5 35.4044 20.5 35.379 20.5 35.3535C20.5 35.3281 20.5 35.3026 20.5 35.277C20.5 35.2515 20.5 35.2259 20.5 35.2002C20.5 35.1746 20.5 35.1489 20.5 35.1231C20.5 35.0974 20.5 35.0716 20.5 35.0457C20.5 35.0199 20.5 34.994 20.5 34.968C20.5 34.9421 20.5 34.9161 20.5 34.89C20.5 34.864 20.5 34.8379 20.5 34.8118C20.5 34.7856 20.5 34.7594 20.5 34.7332C20.5 34.707 20.5 34.6807 20.5 34.6543C20.5 34.628 20.5 34.6016 20.5 34.5752C20.5 34.5487 20.5 34.5223 20.5 34.4957C20.5 34.4692 20.5 34.4426 20.5 34.416C20.5 34.3894 20.5 34.3627 20.5 34.336C20.5 34.3092 20.5 34.2825 20.5 34.2556C20.5 34.2288 20.5 34.2019 20.5 34.175C20.5 34.1481 20.5 34.1211 20.5 34.0941C20.5 34.0671 20.5 34.04 20.5 34.0129C20.5 33.9857 20.5 33.9586 20.5 33.9314C20.5 33.9041 20.5 33.8769 20.5 33.8495C20.5 33.8222 20.5 33.7949 20.5 33.7674C20.5 33.74 20.5 33.7126 20.5 33.685C20.5 33.6575 20.5 33.63 20.5 33.6023C20.5 33.5747 20.5 33.5471 20.5 33.5193C20.5 33.4916 20.5 33.4639 20.5 33.436C20.5 33.4082 20.5 33.3804 20.5 33.3525C20.5 33.3245 20.5 33.2966 20.5 33.2686C20.5 33.2406 20.5 33.2125 20.5 33.1844C20.5 33.1563 20.5 33.1281 20.5 33.0999C20.5 33.0717 20.5 33.0434 20.5 33.0151C20.5 32.9868 20.5 32.9584 20.5 32.93C20.5 32.9016 20.5 32.8731 20.5 32.8446C20.5 32.8161 20.5 32.7876 20.5 32.759C20.5 32.7303 20.5 32.7017 20.5 32.673C20.5 32.6443 20.5 32.6155 20.5 32.5867C20.5 32.5579 20.5 32.529 20.5 32.5001C20.5 32.4712 20.5 32.4422 20.5 32.4132C20.5 32.3842 20.5 32.3551 20.5 32.326C20.5 32.2969 20.5 32.2677 20.5 32.2385C20.5 32.2093 20.5 32.18 20.5 32.1507C20.5 32.1214 20.5 32.0921 20.5 32.0626C20.5 32.0332 20.5 32.0038 20.5 31.9742C20.5 31.9447 20.5 31.9152 20.5 31.8855C20.5 31.8559 20.5 31.8263 20.5 31.7965C20.5 31.7668 20.5 31.737 20.5 31.7072C20.5 31.6774 20.5 31.6475 20.5 31.6176C20.5 31.5877 20.5 31.5577 20.5 31.5277C20.5 31.4977 20.5 31.4676 20.5 31.4375C20.5 31.4074 20.5 31.3772 20.5 31.347C20.5 31.3167 20.5 31.2865 20.5 31.2561C20.5 31.2258 20.5 31.1954 20.5 31.165C20.5 31.1346 20.5 31.1041 20.5 31.0736C20.5 31.043 20.5 31.0124 20.5 30.9818C20.5 30.9512 20.5 30.9205 20.5 30.8898C20.5 30.859 20.5 30.8282 20.5 30.7974C20.5 30.7666 20.5 30.7357 20.5 30.7047C20.5 30.6738 20.5 30.6428 20.5 30.6118C20.5 30.5807 20.5 30.5496 20.5 30.5185C20.5 30.4873 20.5 30.4561 20.5 30.4249C20.5 30.3936 20.5 30.3623 20.5 30.331C20.5 30.2996 20.5 30.2682 20.5 30.2368C20.5 30.2053 20.5 30.1738 20.5 30.1423C20.5 30.1107 20.5 30.0791 20.5 30.0475C20.5 30.0158 20.5 29.9841 20.5 29.9523C20.5 29.9206 20.5 29.8888 20.5 29.8569C20.5 29.825 20.5 29.7931 20.5 29.7611C20.5 29.7292 20.5 29.6972 20.5 29.6651C20.5 29.633 20.5 29.6009 20.5 29.5687C20.5 29.5365 20.5 29.5043 20.5 29.472C20.5 29.4398 20.5 29.4074 20.5 29.375C20.5 29.3427 20.5 29.3102 20.5 29.2777C20.5 29.2453 20.5 29.2127 20.5 29.1801C20.5 29.1475 20.5 29.1149 20.5 29.0822C20.5 29.0495 20.5 29.0168 20.5 28.984C20.5 28.9512 20.5 28.9183 20.5 28.8854C20.5 28.8525 20.5 28.8196 20.5 28.7866C20.5 28.7536 20.5 28.7205 20.5 28.6874C20.5 28.6543 20.5 28.6211 20.5 28.5879C20.5 28.5547 20.5 28.5214 20.5 28.4881C20.5 28.4548 20.5 28.4214 20.5 28.388C20.5 28.3546 20.5 28.3211 20.5 28.2876C20.5 28.254 20.5 28.2204 20.5 28.1868C20.5 28.1532 20.5 28.1195 20.5 28.0858C20.5 28.052 20.5 28.0182 20.5 27.9844C20.5 27.9505 20.5 27.9166 20.5 27.8827C20.5 27.8487 20.5 27.8147 20.5 27.7807C20.5 27.7466 20.5 27.7125 20.5 27.6784C20.5 27.6442 20.5 27.61 20.5 27.5757C20.5 27.5415 20.5 27.5072 20.5 27.4728C20.5 27.4384 20.5 27.404 20.5 27.3695C20.5 27.335 20.5 27.3005 20.5 27.2659C20.5 27.2313 20.5 27.1967 20.5 27.162C20.5 27.1273 20.5 27.0926 20.5 27.0578C20.5 27.023 20.5 26.9882 20.5 26.9533C20.5 26.9184 20.5 26.8834 20.5 26.8484C20.5 26.8134 20.5 26.7783 20.5 26.7432C20.5 26.7081 20.5 26.673 20.5 26.6377C20.5 26.6025 20.5 26.5672 20.5 26.5319C20.5 26.4966 20.5 26.4612 20.5 26.4258C20.5 26.3904 20.5 26.3549 20.5 26.3193C20.5 26.2838 20.5 26.2482 20.5 26.2126C20.5 26.1769 20.5 26.1412 20.5 26.1055C20.5 26.0697 20.5 26.0339 20.5 25.9981C20.5 25.9622 20.5 25.9263 20.5 25.8903C20.5 25.8544 20.5 25.8183 20.5 25.7823C20.5 25.7462 20.5 25.7101 20.5 25.6739C20.5 25.6377 20.5 25.6015 20.5 25.5652C20.5 25.5289 20.5 25.4926 20.5 25.4562C20.5 25.4198 20.5 25.3833 20.5 25.3468C20.5 25.3103 20.5 25.2738 20.5 25.2372C20.5 25.2006 20.5 25.1639 20.5 25.1272C20.5 25.0905 20.5 25.0537 20.5 25.0169C20.5 24.9801 20.5 24.9432 20.5 24.9062C20.5 24.8693 20.5 24.8323 20.5 24.7953C20.5 24.7582 20.5 24.7211 20.5 24.684C20.5 24.6469 20.5 24.6096 20.5 24.5724C20.5 24.5351 20.5 24.4978 20.5 24.4605C20.5 24.4231 20.5 24.3857 20.5 24.3482C20.5 24.3107 20.5 24.2732 20.5 24.2356C20.5 24.198 20.5 24.1604 20.5 24.1227C20.5 24.085 20.5 24.0473 20.5 24.0095C20.5 23.9717 20.5 23.9338 20.5 23.8959C20.5 23.858 20.5 23.8201 20.5 23.782C20.5 23.744 20.5 23.706 20.5 23.6678C20.5 23.6297 20.5 23.5915 20.5 23.5533C20.5 23.5151 20.5 23.4768 20.5 23.4384C20.5 23.4001 20.5 23.3617 20.5 23.3232C20.5 23.2848 20.5 23.2463 20.5 23.2077C20.5 23.1691 20.5 23.1305 20.5 23.0919C20.5 23.0532 20.5 23.0145 20.5 22.9757C20.5 22.9369 20.5 22.8981 20.5 22.8592C20.5 22.8203 20.5 22.7813 20.5 22.7423C20.5 22.7033 20.5 22.6643 20.5 22.6252C20.5 22.5861 20.5 22.5469 20.5 22.5077C20.5 22.4685 20.5 22.4292 20.5 22.3898C20.5 22.3505 20.5 22.3111 20.5 22.2717C20.5 22.2323 20.5 22.1928 20.5 22.1532C20.5 22.1137 20.5 22.074 20.5 22.0344C20.5 21.9947 20.5 21.955 20.5 21.9152C20.5 21.8755 20.5 21.8356 20.5 21.7958C20.5 21.7559 20.5 21.7159 20.5 21.6759C20.5 21.636 20.5 21.5959 20.5 21.5558C20.5 21.5157 20.5 21.4755 20.5 21.4353C20.5 21.3951 20.5 21.3548 20.5 21.3145C20.5 21.2742 20.5 21.2338 20.5 21.1934C20.5 21.1529 20.5 21.1125 20.5 21.0719C20.5 21.0314 20.5 20.9908 20.5 20.9501C20.5 20.9094 20.5 20.8687 20.5 20.828C20.5 20.7872 20.5 20.7464 20.5 20.7055C20.5 20.6646 20.5 20.6237 20.5 20.5827C20.5 20.5417 20.5 20.5006 20.5 20.4595C20.5 20.4184 20.5 20.3773 20.5 20.336C20.5 20.2948 20.5 20.2536 20.5 20.2122C20.5 20.1709 20.5 20.1295 20.5 20.0881C20.5 20.0466 20.5 20.0051 20.5 19.9636C20.5 19.922 20.5 19.8804 20.5 19.8388C20.5 19.7971 20.5 19.7554 20.5 19.7136C20.5 19.6718 20.5 19.63 20.5 19.5881C20.5 19.5462 20.5 19.5043 20.5 19.4623C20.5 19.4203 20.5 19.3782 20.5 19.3361C20.5 19.294 20.5 19.2518 20.5 19.2096C20.5 19.1674 20.5 19.1251 20.5 19.0828C20.5 19.0404 20.5 18.998 20.5 18.9556C20.5 18.9131 20.5 18.8706 20.5 18.8281C20.5 18.7855 20.5 18.7429 20.5 18.7002C20.5 18.6575 20.5 18.6148 20.5 18.572C20.5 18.5292 20.5 18.4864 20.5 18.4435C20.5 18.4006 20.5 18.3576 20.5 18.3146C20.5 18.2716 20.5 18.2285 20.5 18.1854C20.5 18.1422 20.5 18.099 20.5 18.0558C20.5 18.0126 20.5 17.9693 20.5 17.9259C20.5 17.8826 20.5 17.8391 20.5 17.7957C20.5 17.7522 20.5 17.7087 20.5 17.6651C20.5 17.6215 20.5 17.5779 20.5 17.5342C20.5 17.4905 20.5 17.4467 20.5 17.4029C20.5 17.3591 20.5 17.3152 20.5 17.2713C20.5 17.2274 20.5 17.1834 20.5 17.1393C20.5 17.0953 20.5 17.0512 20.5 17.0071C20.5 16.9629 20.5 16.9187 20.5 16.8744C20.5 16.8301 20.5 16.7858 20.5 16.7414C20.5 16.6971 20.5 16.6526 20.5 16.6081C20.5 16.5636 20.5 16.5191 20.5 16.4745C20.5 16.4298 20.5 16.3852 20.5 16.3404C20.5 16.2957 20.5 16.2509 20.5 16.2061C20.5 16.1613 20.5 16.1164 20.5 16.0714C20.5 16.0264 20.5 15.9814 20.5 15.9364C20.5 15.8913 20.5 15.8462 20.5 15.801C20.5 15.7558 20.5 15.7105 20.5 15.6652C20.5 15.6199 20.5 15.5746 20.5 15.5292C20.5 15.4837 20.5 15.4383 20.5 15.3927C20.5 15.3472 20.5 15.3016 20.5 15.256C20.5 15.2103 20.5 15.1646 20.5 15.1188C20.5 15.0731 20.5 15.0273 20.5 14.9814C20.5 14.9355 20.5 14.8896 20.5 14.8436C20.5 14.7976 20.5 14.7515 20.5 14.7054C20.5 14.6593 20.5 14.6131 20.5 14.5669C20.5 14.5207 20.5 14.4744 20.5 14.428C20.5 14.3817 20.5 14.3353 20.5 14.2888C20.5 14.2424 20.5 14.1959 20.5 14.1493C20.5 14.1027 20.5 14.0561 20.5 14.0094C20.5 13.9627 20.5 13.9159 20.5 13.8691C20.5 13.8223 20.5 13.7754 20.5 13.7285C20.5 13.6816 20.5 13.6346 20.5 13.5876C20.5 13.5405 20.5 13.4934 20.5 13.4463C20.5 13.3991 20.5 13.3519 20.5 13.3046C20.5 13.2573 20.5 13.21 20.5 13.1626C20.5 13.1152 20.5 13.0678 20.5 13.0203C20.5 12.9727 20.5 12.9252 20.5 12.8776C20.5 12.8299 20.5 12.7822 20.5 12.7345C20.5 12.6867 20.5 12.6389 20.5 12.5911C20.5 12.5432 20.5 12.4953 20.5 12.4473C20.5 12.3993 20.5 12.3513 20.5 12.3032C20.5 12.2551 20.5 12.207 20.5 12.1587C20.5 12.1105 20.5 12.0623 20.5 12.0139C20.5 11.9656 20.5 11.9172 20.5 11.8687C20.5 11.8203 20.5 11.7718 20.5 11.7232C20.5 11.6747 20.5 11.626 20.5 11.5773C20.5 11.5287 20.5 11.4799 20.5 11.4311C20.5 11.3823 20.5 11.3334 20.5 11.2845C20.5 11.2356 20.5 11.1866 20.5 11.1376C20.5 11.0885 20.5 11.0394 20.5 10.9903C20.5 10.9411 20.5 10.8919 20.5 10.8426C20.5 10.7933 20.5 10.744 20.5 10.6946C20.5 10.6452 20.5 10.5957 20.5 10.5462C20.5 10.4967 20.5 10.4471 20.5 10.3975C20.5 10.3479 20.5 10.2982 20.5 10.2484C20.5 10.1987 20.5 10.1489 20.5 10.099C20.5 10.0491 20.5 9.99918 20.5 9.94919C20.5 9.8992 20.5 9.84914 20.5 9.79903C20.5 9.74892 20.5 9.69875 20.5 9.64853C20.5 9.59829 20.5 9.548 20.5 9.49765C20.5 9.4473 20.5 9.3969 20.5 9.34643C20.5 9.29596 20.5 9.24543 20.5 9.19484C20.5 9.14425 20.5 9.0936 20.5 9.0429C20.5 8.99219 20.5 8.94142 20.5 8.89059C20.5 8.83976 20.5 8.78887 20.5 8.73793C20.5 8.68698 20.5 8.63597 20.5 8.5849C20.5 8.53383 20.5 8.4827 20.5 8.43151C20.5 8.38033 20.5 8.32908 20.5 8.27777C20.5 8.22646 20.5 8.17509 20.5 8.12366C20.5 8.07224 20.5 8.02075 20.5 7.9692C20.5 7.91765 20.5 7.86604 20.5 7.81437C20.5 7.7627 20.5 7.71097 20.5 7.65918C20.5 7.60739 20.5 7.55554 20.5 7.50363C20.5 7.45171 20.5 7.39974 20.5 7.34771C20.5 7.29568 20.5 7.24359 20.5 7.19143C20.5 7.13928 20.5 7.08707 20.5 7.03479C20.5 6.98252 20.5 6.93019 20.5 6.87779C20.5 6.8254 20.5 6.77294 20.5 6.72042C20.5 6.66791 20.5 6.61533 20.5 6.56269C20.5 6.51006 20.5 6.45736 20.5 6.4046C20.5 6.35184 20.5 6.29902 20.5 6.24614C20.5 6.19326 20.5 6.14032 20.5 6.08732C20.5 6.03432 20.5 5.98125 20.5 5.92813C20.5 5.875 20.5 5.82182 20.5 5.76858C20.5 5.71533 20.5 5.66203 20.5 5.60866C20.5 5.55529 20.5 5.50186 20.5 5.44837C20.5 5.39488 20.5 5.34133 20.5 5.28772C20.5 5.23411 20.5 5.18044 20.5 5.1267C20.5 5.07297 20.5 5.01918 20.5 4.96532C20.5 4.91146 20.5 4.85755 20.5 4.80357C20.5 4.74959 20.5 4.69555 20.5 4.64145C20.5 4.58735 20.5 4.53319 20.5 4.47896C20.5 4.42474 20.5 4.37046 20.5 4.31611C20.5 4.26176 20.5 4.20736 20.5 4.15289C20.5 4.09842 20.5 4.04389 20.5 3.9893C20.5 3.9347 20.5 3.88005 20.5 3.82534C20.5 3.77062 20.5 3.71585 20.5 3.66101C20.5 3.60617 20.5 3.55127 20.5 3.49631C20.5 3.44135 20.5 3.38633 20.5 3.33125C20.5 3.27616 20.5 3.22102 20.5 3.16581C20.5 3.1106 20.5 3.05533 20.5 3L17.5 3Z" fill="#152C5B"/>
<path d="M32.5 20C32.5 19.1716 31.8284 18.5 31 18.5C30.1716 18.5 29.5 19.1716 29.5 20L32.5 20ZM29.5 28C29.5 28.8284 30.1716 29.5 31 29.5C31.8284 29.5 32.5 28.8284 32.5 28L29.5 28ZM29.5 20C29.5 24 29.5 27.5294 29.5 28L32.5 28C32.5 27.5294 32.5 24 32.5 20L29.5 20Z" fill="#FF498B"/>
</svg>
