<svg width="48" height="48" viewBox="0 0 48 48" fill="none" xmlns="http://www.w3.org/2000/svg">
<path d="M1.5 6C1.5 4.61929 2.61929 3.5 4 3.5H44C45.3807 3.5 46.5 4.61929 46.5 6V20C46.5 21.3807 45.3807 22.5 44 22.5H4C2.61929 22.5 1.5 21.3807 1.5 20V6Z" stroke="#152C5B" stroke-width="3"/>
<path d="M3 15.5C2.17157 15.5 1.5 16.1716 1.5 17C1.5 17.8284 2.17157 18.5 3 18.5V15.5ZM46 18.5C46.8284 18.5 47.5 17.8284 47.5 17C47.5 16.1716 46.8284 15.5 46 15.5V18.5ZM3 18.5C3.05533 18.5 3.1106 18.5 3.16581 18.5C3.22102 18.5 3.27616 18.5 3.33125 18.5C3.38633 18.5 3.44135 18.5 3.49631 18.5C3.55127 18.5 3.60617 18.5 3.66101 18.5C3.71585 18.5 3.77062 18.5 3.82534 18.5C3.88005 18.5 3.9347 18.5 3.9893 18.5C4.04389 18.5 4.09842 18.5 4.15289 18.5C4.20736 18.5 4.26176 18.5 4.31611 18.5C4.37046 18.5 4.42474 18.5 4.47896 18.5C4.53319 18.5 4.58735 18.5 4.64145 18.5C4.69555 18.5 4.74959 18.5 4.80357 18.5C4.85755 18.5 4.91146 18.5 4.96532 18.5C5.01918 18.5 5.07297 18.5 5.1267 18.5C5.18044 18.5 5.23411 18.5 5.28772 18.5C5.34133 18.5 5.39488 18.5 5.44837 18.5C5.50186 18.5 5.55529 18.5 5.60866 18.5C5.66203 18.5 5.71533 18.5 5.76858 18.5C5.82182 18.5 5.875 18.5 5.92813 18.5C5.98125 18.5 6.03432 18.5 6.08732 18.5C6.14032 18.5 6.19326 18.5 6.24614 18.5C6.29902 18.5 6.35184 18.5 6.4046 18.5C6.45736 18.5 6.51006 18.5 6.56269 18.5C6.61533 18.5 6.66791 18.5 6.72042 18.5C6.77294 18.5 6.8254 18.5 6.87779 18.5C6.93019 18.5 6.98252 18.5 7.03479 18.5C7.08707 18.5 7.13928 18.5 7.19143 18.5C7.24359 18.5 7.29568 18.5 7.34771 18.5C7.39974 18.5 7.45171 18.5 7.50363 18.5C7.55554 18.5 7.60739 18.5 7.65918 18.5C7.71097 18.5 7.7627 18.5 7.81437 18.5C7.86604 18.5 7.91765 18.5 7.9692 18.5C8.02075 18.5 8.07224 18.5 8.12366 18.5C8.17509 18.5 8.22646 18.5 8.27777 18.5C8.32908 18.5 8.38033 18.5 8.43151 18.5C8.4827 18.5 8.53383 18.5 8.5849 18.5C8.63597 18.5 8.68698 18.5 8.73793 18.5C8.78887 18.5 8.83976 18.5 8.89059 18.5C8.94142 18.5 8.99219 18.5 9.0429 18.5C9.0936 18.5 9.14425 18.5 9.19484 18.5C9.24543 18.5 9.29596 18.5 9.34643 18.5C9.3969 18.5 9.4473 18.5 9.49765 18.5C9.548 18.5 9.59829 18.5 9.64853 18.5C9.69875 18.5 9.74892 18.5 9.79903 18.5C9.84914 18.5 9.8992 18.5 9.94919 18.5C9.99918 18.5 10.0491 18.5 10.099 18.5C10.1489 18.5 10.1987 18.5 10.2484 18.5C10.2982 18.5 10.3479 18.5 10.3975 18.5C10.4471 18.5 10.4967 18.5 10.5462 18.5C10.5957 18.5 10.6452 18.5 10.6946 18.5C10.744 18.5 10.7933 18.5 10.8426 18.5C10.8919 18.5 10.9411 18.5 10.9903 18.5C11.0394 18.5 11.0885 18.5 11.1376 18.5C11.1866 18.5 11.2356 18.5 11.2845 18.5C11.3334 18.5 11.3823 18.5 11.4311 18.5C11.4799 18.5 11.5287 18.5 11.5773 18.5C11.626 18.5 11.6747 18.5 11.7232 18.5C11.7718 18.5 11.8203 18.5 11.8687 18.5C11.9172 18.5 11.9656 18.5 12.0139 18.5C12.0623 18.5 12.1105 18.5 12.1587 18.5C12.207 18.5 12.2551 18.5 12.3032 18.5C12.3513 18.5 12.3993 18.5 12.4473 18.5C12.4953 18.5 12.5432 18.5 12.5911 18.5C12.6389 18.5 12.6867 18.5 12.7345 18.5C12.7822 18.5 12.8299 18.5 12.8776 18.5C12.9252 18.5 12.9727 18.5 13.0203 18.5C13.0678 18.5 13.1152 18.5 13.1626 18.5C13.21 18.5 13.2573 18.5 13.3046 18.5C13.3519 18.5 13.3991 18.5 13.4463 18.5C13.4934 18.5 13.5405 18.5 13.5876 18.5C13.6346 18.5 13.6816 18.5 13.7285 18.5C13.7754 18.5 13.8223 18.5 13.8691 18.5C13.9159 18.5 13.9627 18.5 14.0094 18.5C14.0561 18.5 14.1027 18.5 14.1493 18.5C14.1959 18.5 14.2424 18.5 14.2888 18.5C14.3353 18.5 14.3817 18.5 14.428 18.5C14.4744 18.5 14.5207 18.5 14.5669 18.5C14.6131 18.5 14.6593 18.5 14.7054 18.5C14.7515 18.5 14.7976 18.5 14.8436 18.5C14.8896 18.5 14.9355 18.5 14.9814 18.5C15.0273 18.5 15.0731 18.5 15.1188 18.5C15.1646 18.5 15.2103 18.5 15.256 18.5C15.3016 18.5 15.3472 18.5 15.3927 18.5C15.4383 18.5 15.4837 18.5 15.5292 18.5C15.5746 18.5 15.6199 18.5 15.6652 18.5C15.7105 18.5 15.7558 18.5 15.801 18.5C15.8462 18.5 15.8913 18.5 15.9364 18.5C15.9814 18.5 16.0264 18.5 16.0714 18.5C16.1164 18.5 16.1613 18.5 16.2061 18.5C16.2509 18.5 16.2957 18.5 16.3404 18.5C16.3852 18.5 16.4298 18.5 16.4745 18.5C16.5191 18.5 16.5636 18.5 16.6081 18.5C16.6526 18.5 16.6971 18.5 16.7414 18.5C16.7858 18.5 16.8301 18.5 16.8744 18.5C16.9187 18.5 16.9629 18.5 17.0071 18.5C17.0512 18.5 17.0953 18.5 17.1393 18.5C17.1834 18.5 17.2274 18.5 17.2713 18.5C17.3152 18.5 17.3591 18.5 17.4029 18.5C17.4467 18.5 17.4905 18.5 17.5342 18.5C17.5779 18.5 17.6215 18.5 17.6651 18.5C17.7087 18.5 17.7522 18.5 17.7957 18.5C17.8391 18.5 17.8826 18.5 17.9259 18.5C17.9693 18.5 18.0126 18.5 18.0558 18.5C18.099 18.5 18.1422 18.5 18.1854 18.5C18.2285 18.5 18.2716 18.5 18.3146 18.5C18.3576 18.5 18.4006 18.5 18.4435 18.5C18.4864 18.5 18.5292 18.5 18.572 18.5C18.6148 18.5 18.6575 18.5 18.7002 18.5C18.7429 18.5 18.7855 18.5 18.8281 18.5C18.8706 18.5 18.9131 18.5 18.9556 18.5C18.998 18.5 19.0404 18.5 19.0828 18.5C19.1251 18.5 19.1674 18.5 19.2096 18.5C19.2518 18.5 19.294 18.5 19.3361 18.5C19.3782 18.5 19.4203 18.5 19.4623 18.5C19.5043 18.5 19.5462 18.5 19.5881 18.5C19.63 18.5 19.6718 18.5 19.7136 18.5C19.7554 18.5 19.7971 18.5 19.8388 18.5C19.8804 18.5 19.922 18.5 19.9636 18.5C20.0051 18.5 20.0466 18.5 20.0881 18.5C20.1295 18.5 20.1709 18.5 20.2122 18.5C20.2536 18.5 20.2948 18.5 20.336 18.5C20.3773 18.5 20.4184 18.5 20.4595 18.5C20.5006 18.5 20.5417 18.5 20.5827 18.5C20.6237 18.5 20.6646 18.5 20.7055 18.5C20.7464 18.5 20.7872 18.5 20.828 18.5C20.8687 18.5 20.9094 18.5 20.9501 18.5C20.9908 18.5 21.0314 18.5 21.0719 18.5C21.1125 18.5 21.1529 18.5 21.1934 18.5C21.2338 18.5 21.2742 18.5 21.3145 18.5C21.3548 18.5 21.3951 18.5 21.4353 18.5C21.4755 18.5 21.5157 18.5 21.5558 18.5C21.5959 18.5 21.636 18.5 21.6759 18.5C21.7159 18.5 21.7559 18.5 21.7958 18.5C21.8356 18.5 21.8755 18.5 21.9152 18.5C21.955 18.5 21.9947 18.5 22.0344 18.5C22.074 18.5 22.1137 18.5 22.1532 18.5C22.1928 18.5 22.2323 18.5 22.2717 18.5C22.3111 18.5 22.3505 18.5 22.3898 18.5C22.4292 18.5 22.4685 18.5 22.5077 18.5C22.5469 18.5 22.5861 18.5 22.6252 18.5C22.6643 18.5 22.7033 18.5 22.7423 18.5C22.7813 18.5 22.8203 18.5 22.8592 18.5C22.8981 18.5 22.9369 18.5 22.9757 18.5C23.0145 18.5 23.0532 18.5 23.0919 18.5C23.1305 18.5 23.1691 18.5 23.2077 18.5C23.2463 18.5 23.2848 18.5 23.3232 18.5C23.3617 18.5 23.4001 18.5 23.4384 18.5C23.4768 18.5 23.5151 18.5 23.5533 18.5C23.5915 18.5 23.6297 18.5 23.6678 18.5C23.706 18.5 23.744 18.5 23.782 18.5C23.8201 18.5 23.858 18.5 23.8959 18.5C23.9338 18.5 23.9717 18.5 24.0095 18.5C24.0473 18.5 24.085 18.5 24.1227 18.5C24.1604 18.5 24.198 18.5 24.2356 18.5C24.2732 18.5 24.3107 18.5 24.3482 18.5C24.3857 18.5 24.4231 18.5 24.4605 18.5C24.4978 18.5 24.5351 18.5 24.5724 18.5C24.6096 18.5 24.6469 18.5 24.684 18.5C24.7211 18.5 24.7582 18.5 24.7953 18.5C24.8323 18.5 24.8693 18.5 24.9062 18.5C24.9432 18.5 24.9801 18.5 25.0169 18.5C25.0537 18.5 25.0905 18.5 25.1272 18.5C25.1639 18.5 25.2006 18.5 25.2372 18.5C25.2738 18.5 25.3103 18.5 25.3468 18.5C25.3833 18.5 25.4198 18.5 25.4562 18.5C25.4926 18.5 25.5289 18.5 25.5652 18.5C25.6015 18.5 25.6377 18.5 25.6739 18.5C25.7101 18.5 25.7462 18.5 25.7823 18.5C25.8183 18.5 25.8544 18.5 25.8903 18.5C25.9263 18.5 25.9622 18.5 25.9981 18.5C26.0339 18.5 26.0697 18.5 26.1055 18.5C26.1412 18.5 26.1769 18.5 26.2126 18.5C26.2482 18.5 26.2838 18.5 26.3193 18.5C26.3549 18.5 26.3904 18.5 26.4258 18.5C26.4612 18.5 26.4966 18.5 26.5319 18.5C26.5672 18.5 26.6025 18.5 26.6377 18.5C26.673 18.5 26.7081 18.5 26.7432 18.5C26.7783 18.5 26.8134 18.5 26.8484 18.5C26.8834 18.5 26.9184 18.5 26.9533 18.5C26.9882 18.5 27.023 18.5 27.0578 18.5C27.0926 18.5 27.1273 18.5 27.162 18.5C27.1967 18.5 27.2313 18.5 27.2659 18.5C27.3005 18.5 27.335 18.5 27.3695 18.5C27.404 18.5 27.4384 18.5 27.4728 18.5C27.5072 18.5 27.5415 18.5 27.5757 18.5C27.61 18.5 27.6442 18.5 27.6784 18.5C27.7125 18.5 27.7466 18.5 27.7807 18.5C27.8147 18.5 27.8487 18.5 27.8827 18.5C27.9166 18.5 27.9505 18.5 27.9844 18.5C28.0182 18.5 28.052 18.5 28.0858 18.5C28.1195 18.5 28.1532 18.5 28.1868 18.5C28.2204 18.5 28.254 18.5 28.2876 18.5C28.3211 18.5 28.3546 18.5 28.388 18.5C28.4214 18.5 28.4548 18.5 28.4881 18.5C28.5214 18.5 28.5547 18.5 28.5879 18.5C28.6211 18.5 28.6543 18.5 28.6874 18.5C28.7205 18.5 28.7536 18.5 28.7866 18.5C28.8196 18.5 28.8525 18.5 28.8854 18.5C28.9183 18.5 28.9512 18.5 28.984 18.5C29.0168 18.5 29.0495 18.5 29.0822 18.5C29.1149 18.5 29.1475 18.5 29.1801 18.5C29.2127 18.5 29.2453 18.5 29.2777 18.5C29.3102 18.5 29.3427 18.5 29.375 18.5C29.4074 18.5 29.4398 18.5 29.472 18.5C29.5043 18.5 29.5365 18.5 29.5687 18.5C29.6009 18.5 29.633 18.5 29.6651 18.5C29.6972 18.5 29.7292 18.5 29.7611 18.5C29.7931 18.5 29.825 18.5 29.8569 18.5C29.8888 18.5 29.9206 18.5 29.9523 18.5C29.9841 18.5 30.0158 18.5 30.0475 18.5C30.0791 18.5 30.1107 18.5 30.1423 18.5C30.1738 18.5 30.2053 18.5 30.2368 18.5C30.2682 18.5 30.2996 18.5 30.331 18.5C30.3623 18.5 30.3936 18.5 30.4249 18.5C30.4561 18.5 30.4873 18.5 30.5185 18.5C30.5496 18.5 30.5807 18.5 30.6118 18.5C30.6428 18.5 30.6738 18.5 30.7047 18.5C30.7357 18.5 30.7666 18.5 30.7974 18.5C30.8282 18.5 30.859 18.5 30.8898 18.5C30.9205 18.5 30.9512 18.5 30.9818 18.5C31.0124 18.5 31.043 18.5 31.0736 18.5C31.1041 18.5 31.1346 18.5 31.165 18.5C31.1954 18.5 31.2258 18.5 31.2561 18.5C31.2865 18.5 31.3167 18.5 31.347 18.5C31.3772 18.5 31.4074 18.5 31.4375 18.5C31.4676 18.5 31.4977 18.5 31.5277 18.5C31.5577 18.5 31.5877 18.5 31.6176 18.5C31.6475 18.5 31.6774 18.5 31.7072 18.5C31.737 18.5 31.7668 18.5 31.7965 18.5C31.8263 18.5 31.8559 18.5 31.8855 18.5C31.9152 18.5 31.9447 18.5 31.9742 18.5C32.0038 18.5 32.0332 18.5 32.0626 18.5C32.0921 18.5 32.1214 18.5 32.1507 18.5C32.18 18.5 32.2093 18.5 32.2385 18.5C32.2677 18.5 32.2969 18.5 32.326 18.5C32.3551 18.5 32.3842 18.5 32.4132 18.5C32.4422 18.5 32.4712 18.5 32.5001 18.5C32.529 18.5 32.5579 18.5 32.5867 18.5C32.6155 18.5 32.6443 18.5 32.673 18.5C32.7017 18.5 32.7303 18.5 32.759 18.5C32.7876 18.5 32.8161 18.5 32.8446 18.5C32.8731 18.5 32.9016 18.5 32.93 18.5C32.9584 18.5 32.9868 18.5 33.0151 18.5C33.0434 18.5 33.0717 18.5 33.0999 18.5C33.1281 18.5 33.1563 18.5 33.1844 18.5C33.2125 18.5 33.2406 18.5 33.2686 18.5C33.2966 18.5 33.3245 18.5 33.3525 18.5C33.3804 18.5 33.4082 18.5 33.436 18.5C33.4639 18.5 33.4916 18.5 33.5193 18.5C33.5471 18.5 33.5747 18.5 33.6023 18.5C33.63 18.5 33.6575 18.5 33.685 18.5C33.7126 18.5 33.74 18.5 33.7674 18.5C33.7949 18.5 33.8222 18.5 33.8495 18.5C33.8769 18.5 33.9041 18.5 33.9314 18.5C33.9586 18.5 33.9857 18.5 34.0129 18.5C34.04 18.5 34.0671 18.5 34.0941 18.5C34.1211 18.5 34.1481 18.5 34.175 18.5C34.2019 18.5 34.2288 18.5 34.2556 18.5C34.2825 18.5 34.3092 18.5 34.336 18.5C34.3627 18.5 34.3894 18.5 34.416 18.5C34.4426 18.5 34.4692 18.5 34.4957 18.5C34.5223 18.5 34.5487 18.5 34.5752 18.5C34.6016 18.5 34.628 18.5 34.6543 18.5C34.6807 18.5 34.707 18.5 34.7332 18.5C34.7594 18.5 34.7856 18.5 34.8118 18.5C34.8379 18.5 34.864 18.5 34.89 18.5C34.9161 18.5 34.9421 18.5 34.968 18.5C34.994 18.5 35.0199 18.5 35.0457 18.5C35.0716 18.5 35.0974 18.5 35.1231 18.5C35.1489 18.5 35.1746 18.5 35.2002 18.5C35.2259 18.5 35.2515 18.5 35.277 18.5C35.3026 18.5 35.3281 18.5 35.3535 18.5C35.379 18.5 35.4044 18.5 35.4298 18.5C35.4551 18.5 35.4805 18.5 35.5057 18.5C35.531 18.5 35.5562 18.5 35.5814 18.5C35.6065 18.5 35.6317 18.5 35.6567 18.5C35.6818 18.5 35.7068 18.5 35.7318 18.5C35.7568 18.5 35.7817 18.5 35.8066 18.5C35.8315 18.5 35.8563 18.5 35.8811 18.5C35.9059 18.5 35.9306 18.5 35.9553 18.5C35.98 18.5 36.0046 18.5 36.0292 18.5C36.0538 18.5 36.0783 18.5 36.1028 18.5C36.1273 18.5 36.1518 18.5 36.1762 18.5C36.2006 18.5 36.2249 18.5 36.2492 18.5C36.2735 18.5 36.2978 18.5 36.322 18.5C36.3462 18.5 36.3704 18.5 36.3945 18.5C36.4186 18.5 36.4426 18.5 36.4667 18.5C36.4907 18.5 36.5146 18.5 36.5386 18.5C36.5625 18.5 36.5864 18.5 36.6102 18.5C36.634 18.5 36.6578 18.5 36.6815 18.5C36.7052 18.5 36.7289 18.5 36.7526 18.5C36.7762 18.5 36.7998 18.5 36.8233 18.5C36.8469 18.5 36.8703 18.5 36.8938 18.5C36.9172 18.5 36.9406 18.5 36.964 18.5C36.9873 18.5 37.0106 18.5 37.0339 18.5C37.0571 18.5 37.0804 18.5 37.1035 18.5C37.1267 18.5 37.1498 18.5 37.1729 18.5C37.1959 18.5 37.2189 18.5 37.2419 18.5C37.2649 18.5 37.2878 18.5 37.3107 18.5C37.3336 18.5 37.3564 18.5 37.3792 18.5C37.402 18.5 37.4247 18.5 37.4474 18.5C37.4701 18.5 37.4927 18.5 37.5153 18.5C37.5379 18.5 37.5605 18.5 37.583 18.5C37.6055 18.5 37.6279 18.5 37.6503 18.5C37.6727 18.5 37.6951 18.5 37.7174 18.5C37.7397 18.5 37.762 18.5 37.7842 18.5C37.8064 18.5 37.8286 18.5 37.8507 18.5C37.8728 18.5 37.8949 18.5 37.917 18.5C37.939 18.5 37.961 18.5 37.9829 18.5C38.0048 18.5 38.0267 18.5 38.0486 18.5C38.0704 18.5 38.0922 18.5 38.114 18.5C38.1357 18.5 38.1574 18.5 38.1791 18.5C38.2008 18.5 38.2224 18.5 38.2439 18.5C38.2655 18.5 38.287 18.5 38.3085 18.5C38.33 18.5 38.3514 18.5 38.3728 18.5C38.3942 18.5 38.4155 18.5 38.4368 18.5C38.4581 18.5 38.4793 18.5 38.5005 18.5C38.5217 18.5 38.5429 18.5 38.564 18.5C38.5851 18.5 38.6061 18.5 38.6271 18.5C38.6481 18.5 38.6691 18.5 38.69 18.5C38.7109 18.5 38.7318 18.5 38.7526 18.5C38.7735 18.5 38.7942 18.5 38.815 18.5C38.8357 18.5 38.8564 18.5 38.877 18.5C38.8977 18.5 38.9183 18.5 38.9388 18.5C38.9594 18.5 38.9799 18.5 39.0003 18.5C39.0208 18.5 39.0412 18.5 39.0616 18.5C39.082 18.5 39.1023 18.5 39.1226 18.5C39.1428 18.5 39.1631 18.5 39.1832 18.5C39.2034 18.5 39.2236 18.5 39.2437 18.5C39.2637 18.5 39.2838 18.5 39.3038 18.5C39.3238 18.5 39.3437 18.5 39.3637 18.5C39.3836 18.5 39.4034 18.5 39.4233 18.5C39.4431 18.5 39.4628 18.5 39.4826 18.5C39.5023 18.5 39.522 18.5 39.5416 18.5C39.5613 18.5 39.5808 18.5 39.6004 18.5C39.6199 18.5 39.6394 18.5 39.6589 18.5C39.6783 18.5 39.6978 18.5 39.7171 18.5C39.7365 18.5 39.7558 18.5 39.7751 18.5C39.7944 18.5 39.8136 18.5 39.8328 18.5C39.8519 18.5 39.8711 18.5 39.8902 18.5C39.9093 18.5 39.9283 18.5 39.9473 18.5C39.9663 18.5 39.9853 18.5 40.0042 18.5C40.0231 18.5 40.042 18.5 40.0608 18.5C40.0796 18.5 40.0984 18.5 40.1171 18.5C40.1359 18.5 40.1546 18.5 40.1732 18.5C40.1918 18.5 40.2104 18.5 40.229 18.5C40.2475 18.5 40.2661 18.5 40.2845 18.5C40.303 18.5 40.3214 18.5 40.3398 18.5C40.3581 18.5 40.3765 18.5 40.3948 18.5C40.413 18.5 40.4313 18.5 40.4495 18.5C40.4677 18.5 40.4858 18.5 40.5039 18.5C40.522 18.5 40.5401 18.5 40.5581 18.5C40.5761 18.5 40.5941 18.5 40.612 18.5C40.63 18.5 40.6478 18.5 40.6657 18.5C40.6835 18.5 40.7013 18.5 40.7191 18.5C40.7368 18.5 40.7545 18.5 40.7722 18.5C40.7898 18.5 40.8075 18.5 40.825 18.5C40.8426 18.5 40.8601 18.5 40.8776 18.5C40.8951 18.5 40.9125 18.5 40.9299 18.5C40.9473 18.5 40.9647 18.5 40.982 18.5C40.9993 18.5 41.0166 18.5 41.0338 18.5C41.051 18.5 41.0682 18.5 41.0853 18.5C41.1024 18.5 41.1195 18.5 41.1366 18.5C41.1536 18.5 41.1706 18.5 41.1876 18.5C41.2045 18.5 41.2214 18.5 41.2383 18.5C41.2552 18.5 41.272 18.5 41.2888 18.5C41.3055 18.5 41.3223 18.5 41.339 18.5C41.3557 18.5 41.3723 18.5 41.3889 18.5C41.4055 18.5 41.4221 18.5 41.4386 18.5C41.4551 18.5 41.4716 18.5 41.488 18.5C41.5044 18.5 41.5208 18.5 41.5372 18.5C41.5535 18.5 41.5698 18.5 41.586 18.5C41.6023 18.5 41.6185 18.5 41.6347 18.5C41.6508 18.5 41.667 18.5 41.6831 18.5C41.6991 18.5 41.7152 18.5 41.7312 18.5C41.7472 18.5 41.7631 18.5 41.779 18.5C41.7949 18.5 41.8108 18.5 41.8266 18.5C41.8424 18.5 41.8582 18.5 41.8739 18.5C41.8897 18.5 41.9054 18.5 41.921 18.5C41.9366 18.5 41.9522 18.5 41.9678 18.5C41.9834 18.5 41.9989 18.5 42.0144 18.5C42.0298 18.5 42.0453 18.5 42.0607 18.5C42.076 18.5 42.0914 18.5 42.1067 18.5C42.122 18.5 42.1372 18.5 42.1525 18.5C42.1677 18.5 42.1828 18.5 42.198 18.5C42.2131 18.5 42.2282 18.5 42.2432 18.5C42.2583 18.5 42.2733 18.5 42.2882 18.5C42.3032 18.5 42.3181 18.5 42.333 18.5C42.3479 18.5 42.3627 18.5 42.3775 18.5C42.3923 18.5 42.407 18.5 42.4217 18.5C42.4364 18.5 42.4511 18.5 42.4657 18.5C42.4803 18.5 42.4949 18.5 42.5094 18.5C42.5239 18.5 42.5384 18.5 42.5529 18.5C42.5673 18.5 42.5817 18.5 42.5961 18.5C42.6104 18.5 42.6248 18.5 42.639 18.5C42.6533 18.5 42.6675 18.5 42.6817 18.5C42.6959 18.5 42.7101 18.5 42.7242 18.5C42.7383 18.5 42.7523 18.5 42.7664 18.5C42.7804 18.5 42.7944 18.5 42.8083 18.5C42.8222 18.5 42.8361 18.5 42.85 18.5C42.8638 18.5 42.8777 18.5 42.8914 18.5C42.9052 18.5 42.9189 18.5 42.9326 18.5C42.9463 18.5 42.9599 18.5 42.9735 18.5C42.9871 18.5 43.0007 18.5 43.0142 18.5C43.0277 18.5 43.0412 18.5 43.0546 18.5C43.068 18.5 43.0814 18.5 43.0948 18.5C43.1081 18.5 43.1214 18.5 43.1347 18.5C43.148 18.5 43.1612 18.5 43.1744 18.5C43.1876 18.5 43.2007 18.5 43.2138 18.5C43.2269 18.5 43.2399 18.5 43.253 18.5C43.266 18.5 43.2789 18.5 43.2919 18.5C43.3048 18.5 43.3177 18.5 43.3305 18.5C43.3434 18.5 43.3562 18.5 43.3689 18.5C43.3817 18.5 43.3944 18.5 43.4071 18.5C43.4198 18.5 43.4324 18.5 43.445 18.5C43.4576 18.5 43.4702 18.5 43.4827 18.5C43.4952 18.5 43.5077 18.5 43.5201 18.5C43.5325 18.5 43.5449 18.5 43.5573 18.5C43.5696 18.5 43.5819 18.5 43.5942 18.5C43.6065 18.5 43.6187 18.5 43.6309 18.5C43.6431 18.5 43.6552 18.5 43.6673 18.5C43.6794 18.5 43.6915 18.5 43.7035 18.5C43.7155 18.5 43.7275 18.5 43.7394 18.5C43.7514 18.5 43.7633 18.5 43.7751 18.5C43.787 18.5 43.7988 18.5 43.8106 18.5C43.8223 18.5 43.8341 18.5 43.8458 18.5C43.8574 18.5 43.8691 18.5 43.8807 18.5C43.8923 18.5 43.9039 18.5 43.9154 18.5C43.9269 18.5 43.9384 18.5 43.9499 18.5C43.9613 18.5 43.9727 18.5 43.9841 18.5C43.9954 18.5 44.0068 18.5 44.0181 18.5C44.0293 18.5 44.0406 18.5 44.0518 18.5C44.063 18.5 44.0741 18.5 44.0853 18.5C44.0964 18.5 44.1075 18.5 44.1185 18.5C44.1295 18.5 44.1405 18.5 44.1515 18.5C44.1625 18.5 44.1734 18.5 44.1843 18.5C44.1951 18.5 44.206 18.5 44.2168 18.5C44.2276 18.5 44.2383 18.5 44.249 18.5C44.2597 18.5 44.2704 18.5 44.2811 18.5C44.2917 18.5 44.3023 18.5 44.3128 18.5C44.3234 18.5 44.3339 18.5 44.3444 18.5C44.3549 18.5 44.3653 18.5 44.3757 18.5C44.3861 18.5 44.3964 18.5 44.4067 18.5C44.4171 18.5 44.4273 18.5 44.4376 18.5C44.4478 18.5 44.458 18.5 44.4682 18.5C44.4783 18.5 44.4884 18.5 44.4985 18.5C44.5086 18.5 44.5186 18.5 44.5286 18.5C44.5386 18.5 44.5485 18.5 44.5585 18.5C44.5684 18.5 44.5782 18.5 44.5881 18.5C44.5979 18.5 44.6077 18.5 44.6175 18.5C44.6272 18.5 44.6369 18.5 44.6466 18.5C44.6563 18.5 44.6659 18.5 44.6755 18.5C44.6851 18.5 44.6947 18.5 44.7042 18.5C44.7137 18.5 44.7232 18.5 44.7326 18.5C44.742 18.5 44.7514 18.5 44.7608 18.5C44.7702 18.5 44.7795 18.5 44.7888 18.5C44.798 18.5 44.8073 18.5 44.8165 18.5C44.8257 18.5 44.8348 18.5 44.844 18.5C44.8531 18.5 44.8622 18.5 44.8712 18.5C44.8803 18.5 44.8893 18.5 44.8982 18.5C44.9072 18.5 44.9161 18.5 44.925 18.5C44.9339 18.5 44.9427 18.5 44.9515 18.5C44.9603 18.5 44.9691 18.5 44.9778 18.5C44.9866 18.5 44.9953 18.5 45.0039 18.5C45.0126 18.5 45.0212 18.5 45.0297 18.5C45.0383 18.5 45.0469 18.5 45.0554 18.5C45.0638 18.5 45.0723 18.5 45.0807 18.5C45.0891 18.5 45.0975 18.5 45.1059 18.5C45.1142 18.5 45.1225 18.5 45.1308 18.5C45.139 18.5 45.1472 18.5 45.1554 18.5C45.1636 18.5 45.1718 18.5 45.1799 18.5C45.188 18.5 45.196 18.5 45.2041 18.5C45.2121 18.5 45.2201 18.5 45.228 18.5C45.236 18.5 45.2439 18.5 45.2518 18.5C45.2597 18.5 45.2675 18.5 45.2753 18.5C45.2831 18.5 45.2908 18.5 45.2986 18.5C45.3063 18.5 45.314 18.5 45.3216 18.5C45.3293 18.5 45.3369 18.5 45.3444 18.5C45.352 18.5 45.3595 18.5 45.367 18.5C45.3745 18.5 45.382 18.5 45.3894 18.5C45.3968 18.5 45.4042 18.5 45.4115 18.5C45.4188 18.5 45.4261 18.5 45.4334 18.5C45.4406 18.5 45.4479 18.5 45.4551 18.5C45.4622 18.5 45.4694 18.5 45.4765 18.5C45.4836 18.5 45.4907 18.5 45.4977 18.5C45.5047 18.5 45.5117 18.5 45.5187 18.5C45.5256 18.5 45.5326 18.5 45.5394 18.5C45.5463 18.5 45.5532 18.5 45.56 18.5C45.5668 18.5 45.5735 18.5 45.5803 18.5C45.587 18.5 45.5937 18.5 45.6003 18.5C45.607 18.5 45.6136 18.5 45.6202 18.5C45.6268 18.5 45.6333 18.5 45.6398 18.5C45.6463 18.5 45.6528 18.5 45.6592 18.5C45.6656 18.5 45.672 18.5 45.6784 18.5C45.6847 18.5 45.691 18.5 45.6973 18.5C45.7036 18.5 45.7098 18.5 45.716 18.5C45.7222 18.5 45.7284 18.5 45.7345 18.5C45.7406 18.5 45.7467 18.5 45.7528 18.5C45.7588 18.5 45.7648 18.5 45.7708 18.5C45.7768 18.5 45.7827 18.5 45.7886 18.5C45.7945 18.5 45.8004 18.5 45.8062 18.5C45.8121 18.5 45.8178 18.5 45.8236 18.5C45.8293 18.5 45.8351 18.5 45.8407 18.5C45.8464 18.5 45.8521 18.5 45.8577 18.5C45.8633 18.5 45.8688 18.5 45.8744 18.5C45.8799 18.5 45.8854 18.5 45.8908 18.5C45.8963 18.5 45.9017 18.5 45.9071 18.5C45.9125 18.5 45.9178 18.5 45.9231 18.5C45.9284 18.5 45.9337 18.5 45.939 18.5C45.9442 18.5 45.9494 18.5 45.9545 18.5C45.9597 18.5 45.9648 18.5 45.9699 18.5C45.975 18.5 45.9801 18.5 45.9851 18.5C45.9901 18.5 45.9951 18.5 46 18.5V15.5C45.9951 15.5 45.9901 15.5 45.9851 15.5C45.9801 15.5 45.975 15.5 45.9699 15.5C45.9648 15.5 45.9597 15.5 45.9545 15.5C45.9494 15.5 45.9442 15.5 45.939 15.5C45.9337 15.5 45.9284 15.5 45.9231 15.5C45.9178 15.5 45.9125 15.5 45.9071 15.5C45.9017 15.5 45.8963 15.5 45.8908 15.5C45.8854 15.5 45.8799 15.5 45.8744 15.5C45.8688 15.5 45.8633 15.5 45.8577 15.5C45.8521 15.5 45.8464 15.5 45.8407 15.5C45.8351 15.5 45.8293 15.5 45.8236 15.5C45.8178 15.5 45.8121 15.5 45.8062 15.5C45.8004 15.5 45.7945 15.5 45.7886 15.5C45.7827 15.5 45.7768 15.5 45.7708 15.5C45.7648 15.5 45.7588 15.5 45.7528 15.5C45.7467 15.5 45.7406 15.5 45.7345 15.5C45.7284 15.5 45.7222 15.5 45.716 15.5C45.7098 15.5 45.7036 15.5 45.6973 15.5C45.691 15.5 45.6847 15.5 45.6784 15.5C45.672 15.5 45.6656 15.5 45.6592 15.5C45.6528 15.5 45.6463 15.5 45.6398 15.5C45.6333 15.5 45.6268 15.5 45.6202 15.5C45.6136 15.5 45.607 15.5 45.6003 15.5C45.5937 15.5 45.587 15.5 45.5803 15.5C45.5735 15.5 45.5668 15.5 45.56 15.5C45.5532 15.5 45.5463 15.5 45.5394 15.5C45.5326 15.5 45.5256 15.5 45.5187 15.5C45.5117 15.5 45.5047 15.5 45.4977 15.5C45.4907 15.5 45.4836 15.5 45.4765 15.5C45.4694 15.5 45.4622 15.5 45.4551 15.5C45.4479 15.5 45.4406 15.5 45.4334 15.5C45.4261 15.5 45.4188 15.5 45.4115 15.5C45.4042 15.5 45.3968 15.5 45.3894 15.5C45.382 15.5 45.3745 15.5 45.367 15.5C45.3595 15.5 45.352 15.5 45.3444 15.5C45.3369 15.5 45.3293 15.5 45.3216 15.5C45.314 15.5 45.3063 15.5 45.2986 15.5C45.2908 15.5 45.2831 15.5 45.2753 15.5C45.2675 15.5 45.2597 15.5 45.2518 15.5C45.2439 15.5 45.236 15.5 45.228 15.5C45.2201 15.5 45.2121 15.5 45.2041 15.5C45.196 15.5 45.188 15.5 45.1799 15.5C45.1718 15.5 45.1636 15.5 45.1554 15.5C45.1472 15.5 45.139 15.5 45.1308 15.5C45.1225 15.5 45.1142 15.5 45.1059 15.5C45.0975 15.5 45.0891 15.5 45.0807 15.5C45.0723 15.5 45.0638 15.5 45.0554 15.5C45.0469 15.5 45.0383 15.5 45.0297 15.5C45.0212 15.5 45.0126 15.5 45.0039 15.5C44.9953 15.5 44.9866 15.5 44.9778 15.5C44.9691 15.5 44.9603 15.5 44.9515 15.5C44.9427 15.5 44.9339 15.5 44.925 15.5C44.9161 15.5 44.9072 15.5 44.8982 15.5C44.8893 15.5 44.8803 15.5 44.8712 15.5C44.8622 15.5 44.8531 15.5 44.844 15.5C44.8348 15.5 44.8257 15.5 44.8165 15.5C44.8073 15.5 44.798 15.5 44.7888 15.5C44.7795 15.5 44.7702 15.5 44.7608 15.5C44.7514 15.5 44.742 15.5 44.7326 15.5C44.7232 15.5 44.7137 15.5 44.7042 15.5C44.6947 15.5 44.6851 15.5 44.6755 15.5C44.6659 15.5 44.6563 15.5 44.6466 15.5C44.6369 15.5 44.6272 15.5 44.6175 15.5C44.6077 15.5 44.5979 15.5 44.5881 15.5C44.5782 15.5 44.5684 15.5 44.5585 15.5C44.5485 15.5 44.5386 15.5 44.5286 15.5C44.5186 15.5 44.5086 15.5 44.4985 15.5C44.4884 15.5 44.4783 15.5 44.4682 15.5C44.458 15.5 44.4478 15.5 44.4376 15.5C44.4273 15.5 44.4171 15.5 44.4067 15.5C44.3964 15.5 44.3861 15.5 44.3757 15.5C44.3653 15.5 44.3549 15.5 44.3444 15.5C44.3339 15.5 44.3234 15.5 44.3128 15.5C44.3023 15.5 44.2917 15.5 44.2811 15.5C44.2704 15.5 44.2597 15.5 44.249 15.5C44.2383 15.5 44.2276 15.5 44.2168 15.5C44.206 15.5 44.1951 15.5 44.1843 15.5C44.1734 15.5 44.1625 15.5 44.1515 15.5C44.1405 15.5 44.1295 15.5 44.1185 15.5C44.1075 15.5 44.0964 15.5 44.0853 15.5C44.0741 15.5 44.063 15.5 44.0518 15.5C44.0406 15.5 44.0293 15.5 44.0181 15.5C44.0068 15.5 43.9954 15.5 43.9841 15.5C43.9727 15.5 43.9613 15.5 43.9499 15.5C43.9384 15.5 43.9269 15.5 43.9154 15.5C43.9039 15.5 43.8923 15.5 43.8807 15.5C43.8691 15.5 43.8574 15.5 43.8458 15.5C43.8341 15.5 43.8223 15.5 43.8106 15.5C43.7988 15.5 43.787 15.5 43.7751 15.5C43.7633 15.5 43.7514 15.5 43.7394 15.5C43.7275 15.5 43.7155 15.5 43.7035 15.5C43.6915 15.5 43.6794 15.5 43.6673 15.5C43.6552 15.5 43.6431 15.5 43.6309 15.5C43.6187 15.5 43.6065 15.5 43.5942 15.5C43.5819 15.5 43.5696 15.5 43.5573 15.5C43.5449 15.5 43.5325 15.5 43.5201 15.5C43.5077 15.5 43.4952 15.5 43.4827 15.5C43.4702 15.5 43.4576 15.5 43.445 15.5C43.4324 15.5 43.4198 15.5 43.4071 15.5C43.3944 15.5 43.3817 15.5 43.3689 15.5C43.3562 15.5 43.3434 15.5 43.3305 15.5C43.3177 15.5 43.3048 15.5 43.2919 15.5C43.2789 15.5 43.266 15.5 43.253 15.5C43.2399 15.5 43.2269 15.5 43.2138 15.5C43.2007 15.5 43.1876 15.5 43.1744 15.5C43.1612 15.5 43.148 15.5 43.1347 15.5C43.1214 15.5 43.1081 15.5 43.0948 15.5C43.0814 15.5 43.068 15.5 43.0546 15.5C43.0412 15.5 43.0277 15.5 43.0142 15.5C43.0007 15.5 42.9871 15.5 42.9735 15.5C42.9599 15.5 42.9463 15.5 42.9326 15.5C42.9189 15.5 42.9052 15.5 42.8914 15.5C42.8777 15.5 42.8638 15.5 42.85 15.5C42.8361 15.5 42.8222 15.5 42.8083 15.5C42.7944 15.5 42.7804 15.5 42.7664 15.5C42.7523 15.5 42.7383 15.5 42.7242 15.5C42.7101 15.5 42.6959 15.5 42.6817 15.5C42.6675 15.5 42.6533 15.5 42.639 15.5C42.6248 15.5 42.6104 15.5 42.5961 15.5C42.5817 15.5 42.5673 15.5 42.5529 15.5C42.5384 15.5 42.5239 15.5 42.5094 15.5C42.4949 15.5 42.4803 15.5 42.4657 15.5C42.4511 15.5 42.4364 15.5 42.4217 15.5C42.407 15.5 42.3923 15.5 42.3775 15.5C42.3627 15.5 42.3479 15.5 42.333 15.5C42.3181 15.5 42.3032 15.5 42.2882 15.5C42.2733 15.5 42.2583 15.5 42.2432 15.5C42.2282 15.5 42.2131 15.5 42.198 15.5C42.1828 15.5 42.1677 15.5 42.1525 15.5C42.1372 15.5 42.122 15.5 42.1067 15.5C42.0914 15.5 42.076 15.5 42.0607 15.5C42.0453 15.5 42.0298 15.5 42.0144 15.5C41.9989 15.5 41.9834 15.5 41.9678 15.5C41.9522 15.5 41.9366 15.5 41.921 15.5C41.9054 15.5 41.8897 15.5 41.8739 15.5C41.8582 15.5 41.8424 15.5 41.8266 15.5C41.8108 15.5 41.7949 15.5 41.779 15.5C41.7631 15.5 41.7472 15.5 41.7312 15.5C41.7152 15.5 41.6991 15.5 41.6831 15.5C41.667 15.5 41.6508 15.5 41.6347 15.5C41.6185 15.5 41.6023 15.5 41.586 15.5C41.5698 15.5 41.5535 15.5 41.5372 15.5C41.5208 15.5 41.5044 15.5 41.488 15.5C41.4716 15.5 41.4551 15.5 41.4386 15.5C41.4221 15.5 41.4055 15.5 41.3889 15.5C41.3723 15.5 41.3557 15.5 41.339 15.5C41.3223 15.5 41.3055 15.5 41.2888 15.5C41.272 15.5 41.2552 15.5 41.2383 15.5C41.2214 15.5 41.2045 15.5 41.1876 15.5C41.1706 15.5 41.1536 15.5 41.1366 15.5C41.1195 15.5 41.1024 15.5 41.0853 15.5C41.0682 15.5 41.051 15.5 41.0338 15.5C41.0166 15.5 40.9993 15.5 40.982 15.5C40.9647 15.5 40.9473 15.5 40.9299 15.5C40.9125 15.5 40.8951 15.5 40.8776 15.5C40.8601 15.5 40.8426 15.5 40.825 15.5C40.8075 15.5 40.7898 15.5 40.7722 15.5C40.7545 15.5 40.7368 15.5 40.7191 15.5C40.7013 15.5 40.6835 15.5 40.6657 15.5C40.6478 15.5 40.63 15.5 40.612 15.5C40.5941 15.5 40.5761 15.5 40.5581 15.5C40.5401 15.5 40.522 15.5 40.5039 15.5C40.4858 15.5 40.4677 15.5 40.4495 15.5C40.4313 15.5 40.413 15.5 40.3948 15.5C40.3765 15.5 40.3581 15.5 40.3398 15.5C40.3214 15.5 40.303 15.5 40.2845 15.5C40.2661 15.5 40.2475 15.5 40.229 15.5C40.2104 15.5 40.1918 15.5 40.1732 15.5C40.1546 15.5 40.1359 15.5 40.1171 15.5C40.0984 15.5 40.0796 15.5 40.0608 15.5C40.042 15.5 40.0231 15.5 40.0042 15.5C39.9853 15.5 39.9663 15.5 39.9473 15.5C39.9283 15.5 39.9093 15.5 39.8902 15.5C39.8711 15.5 39.8519 15.5 39.8328 15.5C39.8136 15.5 39.7944 15.5 39.7751 15.5C39.7558 15.5 39.7365 15.5 39.7171 15.5C39.6978 15.5 39.6783 15.5 39.6589 15.5C39.6394 15.5 39.6199 15.5 39.6004 15.5C39.5808 15.5 39.5613 15.5 39.5416 15.5C39.522 15.5 39.5023 15.5 39.4826 15.5C39.4628 15.5 39.4431 15.5 39.4233 15.5C39.4034 15.5 39.3836 15.5 39.3637 15.5C39.3437 15.5 39.3238 15.5 39.3038 15.5C39.2838 15.5 39.2637 15.5 39.2437 15.5C39.2236 15.5 39.2034 15.5 39.1832 15.5C39.1631 15.5 39.1428 15.5 39.1226 15.5C39.1023 15.5 39.082 15.5 39.0616 15.5C39.0412 15.5 39.0208 15.5 39.0003 15.5C38.9799 15.5 38.9594 15.5 38.9388 15.5C38.9183 15.5 38.8977 15.5 38.877 15.5C38.8564 15.5 38.8357 15.5 38.815 15.5C38.7942 15.5 38.7735 15.5 38.7526 15.5C38.7318 15.5 38.7109 15.5 38.69 15.5C38.6691 15.5 38.6481 15.5 38.6271 15.5C38.6061 15.5 38.5851 15.5 38.564 15.5C38.5429 15.5 38.5217 15.5 38.5005 15.5C38.4793 15.5 38.4581 15.5 38.4368 15.5C38.4155 15.5 38.3942 15.5 38.3728 15.5C38.3514 15.5 38.33 15.5 38.3085 15.5C38.287 15.5 38.2655 15.5 38.2439 15.5C38.2224 15.5 38.2008 15.5 38.1791 15.5C38.1574 15.5 38.1357 15.5 38.114 15.5C38.0922 15.5 38.0704 15.5 38.0486 15.5C38.0267 15.5 38.0048 15.5 37.9829 15.5C37.961 15.5 37.939 15.5 37.917 15.5C37.8949 15.5 37.8728 15.5 37.8507 15.5C37.8286 15.5 37.8064 15.5 37.7842 15.5C37.762 15.5 37.7397 15.5 37.7174 15.5C37.6951 15.5 37.6727 15.5 37.6503 15.5C37.6279 15.5 37.6055 15.5 37.583 15.5C37.5605 15.5 37.5379 15.5 37.5153 15.5C37.4927 15.5 37.4701 15.5 37.4474 15.5C37.4247 15.5 37.402 15.5 37.3792 15.5C37.3564 15.5 37.3336 15.5 37.3107 15.5C37.2878 15.5 37.2649 15.5 37.2419 15.5C37.2189 15.5 37.1959 15.5 37.1729 15.5C37.1498 15.5 37.1267 15.5 37.1035 15.5C37.0804 15.5 37.0571 15.5 37.0339 15.5C37.0106 15.5 36.9873 15.5 36.964 15.5C36.9406 15.5 36.9172 15.5 36.8938 15.5C36.8703 15.5 36.8469 15.5 36.8233 15.5C36.7998 15.5 36.7762 15.5 36.7526 15.5C36.7289 15.5 36.7052 15.5 36.6815 15.5C36.6578 15.5 36.634 15.5 36.6102 15.5C36.5864 15.5 36.5625 15.5 36.5386 15.5C36.5146 15.5 36.4907 15.5 36.4667 15.5C36.4426 15.5 36.4186 15.5 36.3945 15.5C36.3704 15.5 36.3462 15.5 36.322 15.5C36.2978 15.5 36.2735 15.5 36.2492 15.5C36.2249 15.5 36.2006 15.5 36.1762 15.5C36.1518 15.5 36.1273 15.5 36.1028 15.5C36.0783 15.5 36.0538 15.5 36.0292 15.5C36.0046 15.5 35.98 15.5 35.9553 15.5C35.9306 15.5 35.9059 15.5 35.8811 15.5C35.8563 15.5 35.8315 15.5 35.8066 15.5C35.7817 15.5 35.7568 15.5 35.7318 15.5C35.7068 15.5 35.6818 15.5 35.6567 15.5C35.6317 15.5 35.6065 15.5 35.5814 15.5C35.5562 15.5 35.531 15.5 35.5057 15.5C35.4805 15.5 35.4551 15.5 35.4298 15.5C35.4044 15.5 35.379 15.5 35.3535 15.5C35.3281 15.5 35.3026 15.5 35.277 15.5C35.2515 15.5 35.2259 15.5 35.2002 15.5C35.1746 15.5 35.1489 15.5 35.1231 15.5C35.0974 15.5 35.0716 15.5 35.0457 15.5C35.0199 15.5 34.994 15.5 34.968 15.5C34.9421 15.5 34.9161 15.5 34.89 15.5C34.864 15.5 34.8379 15.5 34.8118 15.5C34.7856 15.5 34.7594 15.5 34.7332 15.5C34.707 15.5 34.6807 15.5 34.6543 15.5C34.628 15.5 34.6016 15.5 34.5752 15.5C34.5487 15.5 34.5223 15.5 34.4957 15.5C34.4692 15.5 34.4426 15.5 34.416 15.5C34.3894 15.5 34.3627 15.5 34.336 15.5C34.3092 15.5 34.2825 15.5 34.2556 15.5C34.2288 15.5 34.2019 15.5 34.175 15.5C34.1481 15.5 34.1211 15.5 34.0941 15.5C34.0671 15.5 34.04 15.5 34.0129 15.5C33.9857 15.5 33.9586 15.5 33.9314 15.5C33.9041 15.5 33.8769 15.5 33.8495 15.5C33.8222 15.5 33.7949 15.5 33.7674 15.5C33.74 15.5 33.7126 15.5 33.685 15.5C33.6575 15.5 33.63 15.5 33.6023 15.5C33.5747 15.5 33.5471 15.5 33.5193 15.5C33.4916 15.5 33.4639 15.5 33.436 15.5C33.4082 15.5 33.3804 15.5 33.3525 15.5C33.3245 15.5 33.2966 15.5 33.2686 15.5C33.2406 15.5 33.2125 15.5 33.1844 15.5C33.1563 15.5 33.1281 15.5 33.0999 15.5C33.0717 15.5 33.0434 15.5 33.0151 15.5C32.9868 15.5 32.9584 15.5 32.93 15.5C32.9016 15.5 32.8731 15.5 32.8446 15.5C32.8161 15.5 32.7876 15.5 32.759 15.5C32.7303 15.5 32.7017 15.5 32.673 15.5C32.6443 15.5 32.6155 15.5 32.5867 15.5C32.5579 15.5 32.529 15.5 32.5001 15.5C32.4712 15.5 32.4422 15.5 32.4132 15.5C32.3842 15.5 32.3551 15.5 32.326 15.5C32.2969 15.5 32.2677 15.5 32.2385 15.5C32.2093 15.5 32.18 15.5 32.1507 15.5C32.1214 15.5 32.0921 15.5 32.0626 15.5C32.0332 15.5 32.0038 15.5 31.9742 15.5C31.9447 15.5 31.9152 15.5 31.8855 15.5C31.8559 15.5 31.8263 15.5 31.7965 15.5C31.7668 15.5 31.737 15.5 31.7072 15.5C31.6774 15.5 31.6475 15.5 31.6176 15.5C31.5877 15.5 31.5577 15.5 31.5277 15.5C31.4977 15.5 31.4676 15.5 31.4375 15.5C31.4074 15.5 31.3772 15.5 31.347 15.5C31.3167 15.5 31.2865 15.5 31.2561 15.5C31.2258 15.5 31.1954 15.5 31.165 15.5C31.1346 15.5 31.1041 15.5 31.0736 15.5C31.043 15.5 31.0124 15.5 30.9818 15.5C30.9512 15.5 30.9205 15.5 30.8898 15.5C30.859 15.5 30.8282 15.5 30.7974 15.5C30.7666 15.5 30.7357 15.5 30.7047 15.5C30.6738 15.5 30.6428 15.5 30.6118 15.5C30.5807 15.5 30.5496 15.5 30.5185 15.5C30.4873 15.5 30.4561 15.5 30.4249 15.5C30.3936 15.5 30.3623 15.5 30.331 15.5C30.2996 15.5 30.2682 15.5 30.2368 15.5C30.2053 15.5 30.1738 15.5 30.1423 15.5C30.1107 15.5 30.0791 15.5 30.0475 15.5C30.0158 15.5 29.9841 15.5 29.9523 15.5C29.9206 15.5 29.8888 15.5 29.8569 15.5C29.825 15.5 29.7931 15.5 29.7611 15.5C29.7292 15.5 29.6972 15.5 29.6651 15.5C29.633 15.5 29.6009 15.5 29.5687 15.5C29.5365 15.5 29.5043 15.5 29.472 15.5C29.4398 15.5 29.4074 15.5 29.375 15.5C29.3427 15.5 29.3102 15.5 29.2777 15.5C29.2453 15.5 29.2127 15.5 29.1801 15.5C29.1475 15.5 29.1149 15.5 29.0822 15.5C29.0495 15.5 29.0168 15.5 28.984 15.5C28.9512 15.5 28.9183 15.5 28.8854 15.5C28.8525 15.5 28.8196 15.5 28.7866 15.5C28.7536 15.5 28.7205 15.5 28.6874 15.5C28.6543 15.5 28.6211 15.5 28.5879 15.5C28.5547 15.5 28.5214 15.5 28.4881 15.5C28.4548 15.5 28.4214 15.5 28.388 15.5C28.3546 15.5 28.3211 15.5 28.2876 15.5C28.254 15.5 28.2204 15.5 28.1868 15.5C28.1532 15.5 28.1195 15.5 28.0858 15.5C28.052 15.5 28.0182 15.5 27.9844 15.5C27.9505 15.5 27.9166 15.5 27.8827 15.5C27.8487 15.5 27.8147 15.5 27.7807 15.5C27.7466 15.5 27.7125 15.5 27.6784 15.5C27.6442 15.5 27.61 15.5 27.5757 15.5C27.5415 15.5 27.5072 15.5 27.4728 15.5C27.4384 15.5 27.404 15.5 27.3695 15.5C27.335 15.5 27.3005 15.5 27.2659 15.5C27.2313 15.5 27.1967 15.5 27.162 15.5C27.1273 15.5 27.0926 15.5 27.0578 15.5C27.023 15.5 26.9882 15.5 26.9533 15.5C26.9184 15.5 26.8834 15.5 26.8484 15.5C26.8134 15.5 26.7783 15.5 26.7432 15.5C26.7081 15.5 26.673 15.5 26.6377 15.5C26.6025 15.5 26.5672 15.5 26.5319 15.5C26.4966 15.5 26.4612 15.5 26.4258 15.5C26.3904 15.5 26.3549 15.5 26.3193 15.5C26.2838 15.5 26.2482 15.5 26.2126 15.5C26.1769 15.5 26.1412 15.5 26.1055 15.5C26.0697 15.5 26.0339 15.5 25.9981 15.5C25.9622 15.5 25.9263 15.5 25.8903 15.5C25.8544 15.5 25.8183 15.5 25.7823 15.5C25.7462 15.5 25.7101 15.5 25.6739 15.5C25.6377 15.5 25.6015 15.5 25.5652 15.5C25.5289 15.5 25.4926 15.5 25.4562 15.5C25.4198 15.5 25.3833 15.5 25.3468 15.5C25.3103 15.5 25.2738 15.5 25.2372 15.5C25.2006 15.5 25.1639 15.5 25.1272 15.5C25.0905 15.5 25.0537 15.5 25.0169 15.5C24.9801 15.5 24.9432 15.5 24.9062 15.5C24.8693 15.5 24.8323 15.5 24.7953 15.5C24.7582 15.5 24.7211 15.5 24.684 15.5C24.6469 15.5 24.6096 15.5 24.5724 15.5C24.5351 15.5 24.4978 15.5 24.4605 15.5C24.4231 15.5 24.3857 15.5 24.3482 15.5C24.3107 15.5 24.2732 15.5 24.2356 15.5C24.198 15.5 24.1604 15.5 24.1227 15.5C24.085 15.5 24.0473 15.5 24.0095 15.5C23.9717 15.5 23.9338 15.5 23.8959 15.5C23.858 15.5 23.8201 15.5 23.782 15.5C23.744 15.5 23.706 15.5 23.6678 15.5C23.6297 15.5 23.5915 15.5 23.5533 15.5C23.5151 15.5 23.4768 15.5 23.4384 15.5C23.4001 15.5 23.3617 15.5 23.3232 15.5C23.2848 15.5 23.2463 15.5 23.2077 15.5C23.1691 15.5 23.1305 15.5 23.0919 15.5C23.0532 15.5 23.0145 15.5 22.9757 15.5C22.9369 15.5 22.8981 15.5 22.8592 15.5C22.8203 15.5 22.7813 15.5 22.7423 15.5C22.7033 15.5 22.6643 15.5 22.6252 15.5C22.5861 15.5 22.5469 15.5 22.5077 15.5C22.4685 15.5 22.4292 15.5 22.3898 15.5C22.3505 15.5 22.3111 15.5 22.2717 15.5C22.2323 15.5 22.1928 15.5 22.1532 15.5C22.1137 15.5 22.074 15.5 22.0344 15.5C21.9947 15.5 21.955 15.5 21.9152 15.5C21.8755 15.5 21.8356 15.5 21.7958 15.5C21.7559 15.5 21.7159 15.5 21.6759 15.5C21.636 15.5 21.5959 15.5 21.5558 15.5C21.5157 15.5 21.4755 15.5 21.4353 15.5C21.3951 15.5 21.3548 15.5 21.3145 15.5C21.2742 15.5 21.2338 15.5 21.1934 15.5C21.1529 15.5 21.1125 15.5 21.0719 15.5C21.0314 15.5 20.9908 15.5 20.9501 15.5C20.9094 15.5 20.8687 15.5 20.828 15.5C20.7872 15.5 20.7464 15.5 20.7055 15.5C20.6646 15.5 20.6237 15.5 20.5827 15.5C20.5417 15.5 20.5006 15.5 20.4595 15.5C20.4184 15.5 20.3773 15.5 20.336 15.5C20.2948 15.5 20.2536 15.5 20.2122 15.5C20.1709 15.5 20.1295 15.5 20.0881 15.5C20.0466 15.5 20.0051 15.5 19.9636 15.5C19.922 15.5 19.8804 15.5 19.8388 15.5C19.7971 15.5 19.7554 15.5 19.7136 15.5C19.6718 15.5 19.63 15.5 19.5881 15.5C19.5462 15.5 19.5043 15.5 19.4623 15.5C19.4203 15.5 19.3782 15.5 19.3361 15.5C19.294 15.5 19.2518 15.5 19.2096 15.5C19.1674 15.5 19.1251 15.5 19.0828 15.5C19.0404 15.5 18.998 15.5 18.9556 15.5C18.9131 15.5 18.8706 15.5 18.8281 15.5C18.7855 15.5 18.7429 15.5 18.7002 15.5C18.6575 15.5 18.6148 15.5 18.572 15.5C18.5292 15.5 18.4864 15.5 18.4435 15.5C18.4006 15.5 18.3576 15.5 18.3146 15.5C18.2716 15.5 18.2285 15.5 18.1854 15.5C18.1422 15.5 18.099 15.5 18.0558 15.5C18.0126 15.5 17.9693 15.5 17.9259 15.5C17.8826 15.5 17.8391 15.5 17.7957 15.5C17.7522 15.5 17.7087 15.5 17.6651 15.5C17.6215 15.5 17.5779 15.5 17.5342 15.5C17.4905 15.5 17.4467 15.5 17.4029 15.5C17.3591 15.5 17.3152 15.5 17.2713 15.5C17.2274 15.5 17.1834 15.5 17.1393 15.5C17.0953 15.5 17.0512 15.5 17.0071 15.5C16.9629 15.5 16.9187 15.5 16.8744 15.5C16.8301 15.5 16.7858 15.5 16.7414 15.5C16.6971 15.5 16.6526 15.5 16.6081 15.5C16.5636 15.5 16.5191 15.5 16.4745 15.5C16.4298 15.5 16.3852 15.5 16.3404 15.5C16.2957 15.5 16.2509 15.5 16.2061 15.5C16.1613 15.5 16.1164 15.5 16.0714 15.5C16.0264 15.5 15.9814 15.5 15.9364 15.5C15.8913 15.5 15.8462 15.5 15.801 15.5C15.7558 15.5 15.7105 15.5 15.6652 15.5C15.6199 15.5 15.5746 15.5 15.5292 15.5C15.4837 15.5 15.4383 15.5 15.3927 15.5C15.3472 15.5 15.3016 15.5 15.256 15.5C15.2103 15.5 15.1646 15.5 15.1188 15.5C15.0731 15.5 15.0273 15.5 14.9814 15.5C14.9355 15.5 14.8896 15.5 14.8436 15.5C14.7976 15.5 14.7515 15.5 14.7054 15.5C14.6593 15.5 14.6131 15.5 14.5669 15.5C14.5207 15.5 14.4744 15.5 14.428 15.5C14.3817 15.5 14.3353 15.5 14.2888 15.5C14.2424 15.5 14.1959 15.5 14.1493 15.5C14.1027 15.5 14.0561 15.5 14.0094 15.5C13.9627 15.5 13.9159 15.5 13.8691 15.5C13.8223 15.5 13.7754 15.5 13.7285 15.5C13.6816 15.5 13.6346 15.5 13.5876 15.5C13.5405 15.5 13.4934 15.5 13.4463 15.5C13.3991 15.5 13.3519 15.5 13.3046 15.5C13.2573 15.5 13.21 15.5 13.1626 15.5C13.1152 15.5 13.0678 15.5 13.0203 15.5C12.9727 15.5 12.9252 15.5 12.8776 15.5C12.8299 15.5 12.7822 15.5 12.7345 15.5C12.6867 15.5 12.6389 15.5 12.5911 15.5C12.5432 15.5 12.4953 15.5 12.4473 15.5C12.3993 15.5 12.3513 15.5 12.3032 15.5C12.2551 15.5 12.207 15.5 12.1587 15.5C12.1105 15.5 12.0623 15.5 12.0139 15.5C11.9656 15.5 11.9172 15.5 11.8687 15.5C11.8203 15.5 11.7718 15.5 11.7232 15.5C11.6747 15.5 11.626 15.5 11.5773 15.5C11.5287 15.5 11.4799 15.5 11.4311 15.5C11.3823 15.5 11.3334 15.5 11.2845 15.5C11.2356 15.5 11.1866 15.5 11.1376 15.5C11.0885 15.5 11.0394 15.5 10.9903 15.5C10.9411 15.5 10.8919 15.5 10.8426 15.5C10.7933 15.5 10.744 15.5 10.6946 15.5C10.6452 15.5 10.5957 15.5 10.5462 15.5C10.4967 15.5 10.4471 15.5 10.3975 15.5C10.3479 15.5 10.2982 15.5 10.2484 15.5C10.1987 15.5 10.1489 15.5 10.099 15.5C10.0491 15.5 9.99918 15.5 9.94919 15.5C9.8992 15.5 9.84914 15.5 9.79903 15.5C9.74892 15.5 9.69875 15.5 9.64853 15.5C9.59829 15.5 9.548 15.5 9.49765 15.5C9.4473 15.5 9.3969 15.5 9.34643 15.5C9.29596 15.5 9.24543 15.5 9.19484 15.5C9.14425 15.5 9.0936 15.5 9.0429 15.5C8.99219 15.5 8.94142 15.5 8.89059 15.5C8.83976 15.5 8.78887 15.5 8.73793 15.5C8.68698 15.5 8.63597 15.5 8.5849 15.5C8.53383 15.5 8.4827 15.5 8.43151 15.5C8.38033 15.5 8.32908 15.5 8.27777 15.5C8.22646 15.5 8.17509 15.5 8.12366 15.5C8.07224 15.5 8.02075 15.5 7.9692 15.5C7.91765 15.5 7.86604 15.5 7.81437 15.5C7.7627 15.5 7.71097 15.5 7.65918 15.5C7.60739 15.5 7.55554 15.5 7.50363 15.5C7.45171 15.5 7.39974 15.5 7.34771 15.5C7.29568 15.5 7.24359 15.5 7.19143 15.5C7.13928 15.5 7.08707 15.5 7.03479 15.5C6.98252 15.5 6.93019 15.5 6.87779 15.5C6.8254 15.5 6.77294 15.5 6.72042 15.5C6.66791 15.5 6.61533 15.5 6.56269 15.5C6.51006 15.5 6.45736 15.5 6.4046 15.5C6.35184 15.5 6.29902 15.5 6.24614 15.5C6.19326 15.5 6.14032 15.5 6.08732 15.5C6.03432 15.5 5.98125 15.5 5.92813 15.5C5.875 15.5 5.82182 15.5 5.76858 15.5C5.71533 15.5 5.66203 15.5 5.60866 15.5C5.55529 15.5 5.50186 15.5 5.44837 15.5C5.39488 15.5 5.34133 15.5 5.28772 15.5C5.23411 15.5 5.18044 15.5 5.1267 15.5C5.07297 15.5 5.01918 15.5 4.96532 15.5C4.91146 15.5 4.85755 15.5 4.80357 15.5C4.74959 15.5 4.69555 15.5 4.64145 15.5C4.58735 15.5 4.53319 15.5 4.47896 15.5C4.42474 15.5 4.37046 15.5 4.31611 15.5C4.26176 15.5 4.20736 15.5 4.15289 15.5C4.09842 15.5 4.04389 15.5 3.9893 15.5C3.9347 15.5 3.88005 15.5 3.82534 15.5C3.77062 15.5 3.71585 15.5 3.66101 15.5C3.60617 15.5 3.55127 15.5 3.49631 15.5C3.44135 15.5 3.38633 15.5 3.33125 15.5C3.27616 15.5 3.22102 15.5 3.16581 15.5C3.1106 15.5 3.05533 15.5 3 15.5V18.5Z" fill="#152C5B"/>
<path d="M20 8.5C19.1716 8.5 18.5 9.17157 18.5 10C18.5 10.8284 19.1716 11.5 20 11.5L20 8.5ZM28 11.5C28.8284 11.5 29.5 10.8284 29.5 10C29.5 9.17157 28.8284 8.5 28 8.5L28 11.5ZM20 11.5C24 11.5 27.5294 11.5 28 11.5L28 8.5C27.5294 8.5 24 8.5 20 8.5L20 11.5Z" fill="#FF498B"/>
<path d="M6 27L7.85479 29.4255C10.5967 33.0111 10.5967 37.9889 7.85479 41.5745L6 44" stroke="#152C5B" stroke-width="3" stroke-linecap="round"/>
<path d="M41.5 27L39.6452 29.4255C36.9033 33.0111 36.9033 37.9889 39.6452 41.5745L41.5 44" stroke="#152C5B" stroke-width="3" stroke-linecap="round"/>
<path d="M14 27L15.8548 29.4255C18.5967 33.0111 18.5967 37.9889 15.8548 41.5745L14 44" stroke="#152C5B" stroke-width="3" stroke-linecap="round"/>
<path d="M33.5 27L31.6452 29.4255C28.9033 33.0111 28.9033 37.9889 31.6452 41.5745L33.5 44" stroke="#152C5B" stroke-width="3" stroke-linecap="round"/>
</svg>
