<svg width="48" height="48" viewBox="0 0 48 48" fill="none" xmlns="http://www.w3.org/2000/svg">
<mask id="path-1-inside-1_6_58" fill="white">
<path fill-rule="evenodd" clip-rule="evenodd" d="M17.919 7C17.0691 7 16.312 7.53712 16.0312 8.3393L14.75 12H8C3.58172 12 0 15.5817 0 20V34C0 38.4183 3.58172 42 8 42H40C44.4183 42 48 38.4183 48 34V20C48 15.5817 44.4183 12 40 12H33L31.5029 8.25722C31.1992 7.4979 30.4637 7 29.6459 7H17.919Z"/>
</mask>
<path d="M16.0312 8.3393L18.8628 9.33035V9.33035L16.0312 8.3393ZM14.75 12V15H16.8784L17.5816 12.9911L14.75 12ZM33 12L30.2146 13.1142L30.9689 15H33V12ZM31.5029 8.25722L28.7175 9.37139V9.37139L31.5029 8.25722ZM18.8628 9.33035C18.7224 9.73144 18.3439 10 17.919 10V4C15.7942 4 13.9016 5.34281 13.1997 7.34825L18.8628 9.33035ZM17.5816 12.9911L18.8628 9.33035L13.1997 7.34825L11.9184 11.0089L17.5816 12.9911ZM8 15H14.75V9H8V15ZM3 20C3 17.2386 5.23858 15 8 15V9C1.92487 9 -3 13.9249 -3 20H3ZM3 34V20H-3V34H3ZM8 39C5.23858 39 3 36.7614 3 34H-3C-3 40.0751 1.92487 45 8 45V39ZM40 39H8V45H40V39ZM45 34C45 36.7614 42.7614 39 40 39V45C46.0751 45 51 40.0751 51 34H45ZM45 20V34H51V20H45ZM40 15C42.7614 15 45 17.2386 45 20H51C51 13.9249 46.0751 9 40 9V15ZM33 15H40V9H33V15ZM28.7175 9.37139L30.2146 13.1142L35.7854 10.8858L34.2883 7.14305L28.7175 9.37139ZM29.6459 10C29.237 10 28.8693 9.75105 28.7175 9.37139L34.2883 7.14305C33.529 5.24475 31.6905 4 29.6459 4V10ZM17.919 10H29.6459V4H17.919V10Z" fill="#152C5B" mask="url(#path-1-inside-1_6_58)"/>
<circle cx="24" cy="26" r="6.5" stroke="#FF498B" stroke-width="3"/>
<path d="M35 17.5C34.1716 17.5 33.5 18.1716 33.5 19C33.5 19.8284 34.1716 20.5 35 20.5V17.5ZM41 20.5C41.8284 20.5 42.5 19.8284 42.5 19C42.5 18.1716 41.8284 17.5 41 17.5V20.5ZM35 20.5C35.0077 20.5 35.0154 20.5 35.0231 20.5C35.0308 20.5 35.0385 20.5 35.0462 20.5C35.0539 20.5 35.0616 20.5 35.0693 20.5C35.0769 20.5 35.0846 20.5 35.0922 20.5C35.0999 20.5 35.1075 20.5 35.1152 20.5C35.1228 20.5 35.1304 20.5 35.138 20.5C35.1457 20.5 35.1533 20.5 35.1609 20.5C35.1685 20.5 35.1761 20.5 35.1836 20.5C35.1912 20.5 35.1988 20.5 35.2064 20.5C35.2139 20.5 35.2215 20.5 35.229 20.5C35.2366 20.5 35.2441 20.5 35.2517 20.5C35.2592 20.5 35.2667 20.5 35.2742 20.5C35.2817 20.5 35.2893 20.5 35.2967 20.5C35.3042 20.5 35.3117 20.5 35.3192 20.5C35.3267 20.5 35.3342 20.5 35.3416 20.5C35.3491 20.5 35.3566 20.5 35.364 20.5C35.3714 20.5 35.3789 20.5 35.3863 20.5C35.3937 20.5 35.4012 20.5 35.4086 20.5C35.416 20.5 35.4234 20.5 35.4308 20.5C35.4382 20.5 35.4456 20.5 35.453 20.5C35.4603 20.5 35.4677 20.5 35.4751 20.5C35.4824 20.5 35.4898 20.5 35.4971 20.5C35.5045 20.5 35.5118 20.5 35.5191 20.5C35.5265 20.5 35.5338 20.5 35.5411 20.5C35.5484 20.5 35.5557 20.5 35.563 20.5C35.5703 20.5 35.5776 20.5 35.5849 20.5C35.5921 20.5 35.5994 20.5 35.6067 20.5C35.6139 20.5 35.6212 20.5 35.6284 20.5C35.6357 20.5 35.6429 20.5 35.6501 20.5C35.6573 20.5 35.6646 20.5 35.6718 20.5C35.679 20.5 35.6862 20.5 35.6934 20.5C35.7006 20.5 35.7078 20.5 35.7149 20.5C35.7221 20.5 35.7293 20.5 35.7364 20.5C35.7436 20.5 35.7507 20.5 35.7579 20.5C35.765 20.5 35.7722 20.5 35.7793 20.5C35.7864 20.5 35.7935 20.5 35.8006 20.5C35.8077 20.5 35.8149 20.5 35.8219 20.5C35.829 20.5 35.8361 20.5 35.8432 20.5C35.8503 20.5 35.8573 20.5 35.8644 20.5C35.8715 20.5 35.8785 20.5 35.8855 20.5C35.8926 20.5 35.8996 20.5 35.9066 20.5C35.9137 20.5 35.9207 20.5 35.9277 20.5C35.9347 20.5 35.9417 20.5 35.9487 20.5C35.9557 20.5 35.9627 20.5 35.9697 20.5C35.9766 20.5 35.9836 20.5 35.9906 20.5C35.9975 20.5 36.0045 20.5 36.0114 20.5C36.0184 20.5 36.0253 20.5 36.0322 20.5C36.0391 20.5 36.0461 20.5 36.053 20.5C36.0599 20.5 36.0668 20.5 36.0737 20.5C36.0806 20.5 36.0874 20.5 36.0943 20.5C36.1012 20.5 36.1081 20.5 36.1149 20.5C36.1218 20.5 36.1286 20.5 36.1355 20.5C36.1423 20.5 36.1492 20.5 36.156 20.5C36.1628 20.5 36.1696 20.5 36.1764 20.5C36.1832 20.5 36.19 20.5 36.1968 20.5C36.2036 20.5 36.2104 20.5 36.2172 20.5C36.224 20.5 36.2307 20.5 36.2375 20.5C36.2443 20.5 36.251 20.5 36.2578 20.5C36.2645 20.5 36.2712 20.5 36.278 20.5C36.2847 20.5 36.2914 20.5 36.2981 20.5C36.3048 20.5 36.3115 20.5 36.3182 20.5C36.3249 20.5 36.3316 20.5 36.3383 20.5C36.345 20.5 36.3516 20.5 36.3583 20.5C36.365 20.5 36.3716 20.5 36.3783 20.5C36.3849 20.5 36.3915 20.5 36.3982 20.5C36.4048 20.5 36.4114 20.5 36.418 20.5C36.4247 20.5 36.4313 20.5 36.4379 20.5C36.4444 20.5 36.451 20.5 36.4576 20.5C36.4642 20.5 36.4708 20.5 36.4773 20.5C36.4839 20.5 36.4905 20.5 36.497 20.5C36.5036 20.5 36.5101 20.5 36.5166 20.5C36.5232 20.5 36.5297 20.5 36.5362 20.5C36.5427 20.5 36.5492 20.5 36.5557 20.5C36.5622 20.5 36.5687 20.5 36.5752 20.5C36.5817 20.5 36.5881 20.5 36.5946 20.5C36.6011 20.5 36.6075 20.5 36.614 20.5C36.6204 20.5 36.6269 20.5 36.6333 20.5C36.6397 20.5 36.6462 20.5 36.6526 20.5C36.659 20.5 36.6654 20.5 36.6718 20.5C36.6782 20.5 36.6846 20.5 36.691 20.5C36.6974 20.5 36.7038 20.5 36.7101 20.5C36.7165 20.5 36.7229 20.5 36.7292 20.5C36.7356 20.5 36.7419 20.5 36.7483 20.5C36.7546 20.5 36.7609 20.5 36.7672 20.5C36.7736 20.5 36.7799 20.5 36.7862 20.5C36.7925 20.5 36.7988 20.5 36.8051 20.5C36.8114 20.5 36.8176 20.5 36.8239 20.5C36.8302 20.5 36.8365 20.5 36.8427 20.5C36.849 20.5 36.8552 20.5 36.8615 20.5C36.8677 20.5 36.8739 20.5 36.8802 20.5C36.8864 20.5 36.8926 20.5 36.8988 20.5C36.905 20.5 36.9112 20.5 36.9174 20.5C36.9236 20.5 36.9298 20.5 36.936 20.5C36.9421 20.5 36.9483 20.5 36.9545 20.5C36.9606 20.5 36.9668 20.5 36.9729 20.5C36.9791 20.5 36.9852 20.5 36.9913 20.5C36.9975 20.5 37.0036 20.5 37.0097 20.5C37.0158 20.5 37.0219 20.5 37.028 20.5C37.0341 20.5 37.0402 20.5 37.0463 20.5C37.0524 20.5 37.0584 20.5 37.0645 20.5C37.0706 20.5 37.0766 20.5 37.0827 20.5C37.0887 20.5 37.0948 20.5 37.1008 20.5C37.1068 20.5 37.1129 20.5 37.1189 20.5C37.1249 20.5 37.1309 20.5 37.1369 20.5C37.1429 20.5 37.1489 20.5 37.1549 20.5C37.1609 20.5 37.1669 20.5 37.1728 20.5C37.1788 20.5 37.1848 20.5 37.1907 20.5C37.1967 20.5 37.2026 20.5 37.2086 20.5C37.2145 20.5 37.2204 20.5 37.2264 20.5C37.2323 20.5 37.2382 20.5 37.2441 20.5C37.25 20.5 37.2559 20.5 37.2618 20.5C37.2677 20.5 37.2736 20.5 37.2795 20.5C37.2853 20.5 37.2912 20.5 37.2971 20.5C37.3029 20.5 37.3088 20.5 37.3146 20.5C37.3205 20.5 37.3263 20.5 37.3321 20.5C37.338 20.5 37.3438 20.5 37.3496 20.5C37.3554 20.5 37.3612 20.5 37.367 20.5C37.3728 20.5 37.3786 20.5 37.3844 20.5C37.3902 20.5 37.3959 20.5 37.4017 20.5C37.4075 20.5 37.4132 20.5 37.419 20.5C37.4247 20.5 37.4305 20.5 37.4362 20.5C37.4419 20.5 37.4477 20.5 37.4534 20.5C37.4591 20.5 37.4648 20.5 37.4705 20.5C37.4762 20.5 37.4819 20.5 37.4876 20.5C37.4933 20.5 37.499 20.5 37.5047 20.5C37.5103 20.5 37.516 20.5 37.5217 20.5C37.5273 20.5 37.533 20.5 37.5386 20.5C37.5443 20.5 37.5499 20.5 37.5555 20.5C37.5611 20.5 37.5668 20.5 37.5724 20.5C37.578 20.5 37.5836 20.5 37.5892 20.5C37.5948 20.5 37.6004 20.5 37.6059 20.5C37.6115 20.5 37.6171 20.5 37.6227 20.5C37.6282 20.5 37.6338 20.5 37.6393 20.5C37.6449 20.5 37.6504 20.5 37.656 20.5C37.6615 20.5 37.667 20.5 37.6725 20.5C37.6781 20.5 37.6836 20.5 37.6891 20.5C37.6946 20.5 37.7001 20.5 37.7056 20.5C37.711 20.5 37.7165 20.5 37.722 20.5C37.7275 20.5 37.7329 20.5 37.7384 20.5C37.7439 20.5 37.7493 20.5 37.7547 20.5C37.7602 20.5 37.7656 20.5 37.771 20.5C37.7765 20.5 37.7819 20.5 37.7873 20.5C37.7927 20.5 37.7981 20.5 37.8035 20.5C37.8089 20.5 37.8143 20.5 37.8197 20.5C37.8251 20.5 37.8304 20.5 37.8358 20.5C37.8412 20.5 37.8465 20.5 37.8519 20.5C37.8572 20.5 37.8626 20.5 37.8679 20.5C37.8732 20.5 37.8786 20.5 37.8839 20.5C37.8892 20.5 37.8945 20.5 37.8998 20.5C37.9051 20.5 37.9104 20.5 37.9157 20.5C37.921 20.5 37.9263 20.5 37.9316 20.5C37.9368 20.5 37.9421 20.5 37.9474 20.5C37.9526 20.5 37.9579 20.5 37.9631 20.5C37.9684 20.5 37.9736 20.5 37.9788 20.5C37.984 20.5 37.9893 20.5 37.9945 20.5C37.9997 20.5 38.0049 20.5 38.0101 20.5C38.0153 20.5 38.0205 20.5 38.0257 20.5C38.0309 20.5 38.036 20.5 38.0412 20.5C38.0464 20.5 38.0515 20.5 38.0567 20.5C38.0618 20.5 38.067 20.5 38.0721 20.5C38.0773 20.5 38.0824 20.5 38.0875 20.5C38.0926 20.5 38.0978 20.5 38.1029 20.5C38.108 20.5 38.1131 20.5 38.1182 20.5C38.1233 20.5 38.1283 20.5 38.1334 20.5C38.1385 20.5 38.1436 20.5 38.1486 20.5C38.1537 20.5 38.1588 20.5 38.1638 20.5C38.1688 20.5 38.1739 20.5 38.1789 20.5C38.184 20.5 38.189 20.5 38.194 20.5C38.199 20.5 38.204 20.5 38.209 20.5C38.214 20.5 38.219 20.5 38.224 20.5C38.229 20.5 38.234 20.5 38.239 20.5C38.2439 20.5 38.2489 20.5 38.2539 20.5C38.2588 20.5 38.2638 20.5 38.2687 20.5C38.2737 20.5 38.2786 20.5 38.2835 20.5C38.2885 20.5 38.2934 20.5 38.2983 20.5C38.3032 20.5 38.3081 20.5 38.313 20.5C38.3179 20.5 38.3228 20.5 38.3277 20.5C38.3326 20.5 38.3374 20.5 38.3423 20.5C38.3472 20.5 38.352 20.5 38.3569 20.5C38.3618 20.5 38.3666 20.5 38.3714 20.5C38.3763 20.5 38.3811 20.5 38.3859 20.5C38.3908 20.5 38.3956 20.5 38.4004 20.5C38.4052 20.5 38.41 20.5 38.4148 20.5C38.4196 20.5 38.4244 20.5 38.4292 20.5C38.434 20.5 38.4387 20.5 38.4435 20.5C38.4483 20.5 38.453 20.5 38.4578 20.5C38.4625 20.5 38.4673 20.5 38.472 20.5C38.4767 20.5 38.4815 20.5 38.4862 20.5C38.4909 20.5 38.4956 20.5 38.5003 20.5C38.505 20.5 38.5097 20.5 38.5144 20.5C38.5191 20.5 38.5238 20.5 38.5285 20.5C38.5332 20.5 38.5378 20.5 38.5425 20.5C38.5472 20.5 38.5518 20.5 38.5565 20.5C38.5611 20.5 38.5658 20.5 38.5704 20.5C38.575 20.5 38.5797 20.5 38.5843 20.5C38.5889 20.5 38.5935 20.5 38.5981 20.5C38.6027 20.5 38.6073 20.5 38.6119 20.5C38.6165 20.5 38.6211 20.5 38.6257 20.5C38.6302 20.5 38.6348 20.5 38.6394 20.5C38.6439 20.5 38.6485 20.5 38.653 20.5C38.6576 20.5 38.6621 20.5 38.6667 20.5C38.6712 20.5 38.6757 20.5 38.6802 20.5C38.6848 20.5 38.6893 20.5 38.6938 20.5C38.6983 20.5 38.7028 20.5 38.7073 20.5C38.7118 20.5 38.7162 20.5 38.7207 20.5C38.7252 20.5 38.7297 20.5 38.7341 20.5C38.7386 20.5 38.743 20.5 38.7475 20.5C38.7519 20.5 38.7564 20.5 38.7608 20.5C38.7652 20.5 38.7696 20.5 38.7741 20.5C38.7785 20.5 38.7829 20.5 38.7873 20.5C38.7917 20.5 38.7961 20.5 38.8005 20.5C38.8049 20.5 38.8093 20.5 38.8136 20.5C38.818 20.5 38.8224 20.5 38.8267 20.5C38.8311 20.5 38.8354 20.5 38.8398 20.5C38.8441 20.5 38.8485 20.5 38.8528 20.5C38.8571 20.5 38.8615 20.5 38.8658 20.5C38.8701 20.5 38.8744 20.5 38.8787 20.5C38.883 20.5 38.8873 20.5 38.8916 20.5C38.8959 20.5 38.9002 20.5 38.9044 20.5C38.9087 20.5 38.913 20.5 38.9172 20.5C38.9215 20.5 38.9258 20.5 38.93 20.5C38.9342 20.5 38.9385 20.5 38.9427 20.5C38.9469 20.5 38.9512 20.5 38.9554 20.5C38.9596 20.5 38.9638 20.5 38.968 20.5C38.9722 20.5 38.9764 20.5 38.9806 20.5C38.9848 20.5 38.989 20.5 38.9932 20.5C38.9973 20.5 39.0015 20.5 39.0057 20.5C39.0098 20.5 39.014 20.5 39.0181 20.5C39.0223 20.5 39.0264 20.5 39.0305 20.5C39.0347 20.5 39.0388 20.5 39.0429 20.5C39.047 20.5 39.0511 20.5 39.0553 20.5C39.0594 20.5 39.0635 20.5 39.0675 20.5C39.0716 20.5 39.0757 20.5 39.0798 20.5C39.0839 20.5 39.0879 20.5 39.092 20.5C39.0961 20.5 39.1001 20.5 39.1042 20.5C39.1082 20.5 39.1123 20.5 39.1163 20.5C39.1203 20.5 39.1244 20.5 39.1284 20.5C39.1324 20.5 39.1364 20.5 39.1404 20.5C39.1444 20.5 39.1484 20.5 39.1524 20.5C39.1564 20.5 39.1604 20.5 39.1644 20.5C39.1683 20.5 39.1723 20.5 39.1763 20.5C39.1802 20.5 39.1842 20.5 39.1882 20.5C39.1921 20.5 39.196 20.5 39.2 20.5C39.2039 20.5 39.2079 20.5 39.2118 20.5C39.2157 20.5 39.2196 20.5 39.2235 20.5C39.2274 20.5 39.2313 20.5 39.2352 20.5C39.2391 20.5 39.243 20.5 39.2469 20.5C39.2508 20.5 39.2546 20.5 39.2585 20.5C39.2624 20.5 39.2662 20.5 39.2701 20.5C39.2739 20.5 39.2778 20.5 39.2816 20.5C39.2855 20.5 39.2893 20.5 39.2931 20.5C39.297 20.5 39.3008 20.5 39.3046 20.5C39.3084 20.5 39.3122 20.5 39.316 20.5C39.3198 20.5 39.3236 20.5 39.3274 20.5C39.3312 20.5 39.3349 20.5 39.3387 20.5C39.3425 20.5 39.3462 20.5 39.35 20.5C39.3538 20.5 39.3575 20.5 39.3613 20.5C39.365 20.5 39.3687 20.5 39.3725 20.5C39.3762 20.5 39.3799 20.5 39.3836 20.5C39.3873 20.5 39.3911 20.5 39.3948 20.5C39.3985 20.5 39.4022 20.5 39.4058 20.5C39.4095 20.5 39.4132 20.5 39.4169 20.5C39.4206 20.5 39.4242 20.5 39.4279 20.5C39.4315 20.5 39.4352 20.5 39.4389 20.5C39.4425 20.5 39.4461 20.5 39.4498 20.5C39.4534 20.5 39.457 20.5 39.4607 20.5C39.4643 20.5 39.4679 20.5 39.4715 20.5C39.4751 20.5 39.4787 20.5 39.4823 20.5C39.4859 20.5 39.4895 20.5 39.4931 20.5C39.4966 20.5 39.5002 20.5 39.5038 20.5C39.5073 20.5 39.5109 20.5 39.5144 20.5C39.518 20.5 39.5215 20.5 39.5251 20.5C39.5286 20.5 39.5322 20.5 39.5357 20.5C39.5392 20.5 39.5427 20.5 39.5462 20.5C39.5497 20.5 39.5533 20.5 39.5568 20.5C39.5603 20.5 39.5637 20.5 39.5672 20.5C39.5707 20.5 39.5742 20.5 39.5777 20.5C39.5811 20.5 39.5846 20.5 39.5881 20.5C39.5915 20.5 39.595 20.5 39.5984 20.5C39.6019 20.5 39.6053 20.5 39.6087 20.5C39.6122 20.5 39.6156 20.5 39.619 20.5C39.6224 20.5 39.6258 20.5 39.6292 20.5C39.6326 20.5 39.636 20.5 39.6394 20.5C39.6428 20.5 39.6462 20.5 39.6496 20.5C39.653 20.5 39.6563 20.5 39.6597 20.5C39.6631 20.5 39.6664 20.5 39.6698 20.5C39.6731 20.5 39.6765 20.5 39.6798 20.5C39.6831 20.5 39.6865 20.5 39.6898 20.5C39.6931 20.5 39.6964 20.5 39.6997 20.5C39.7031 20.5 39.7064 20.5 39.7097 20.5C39.713 20.5 39.7162 20.5 39.7195 20.5C39.7228 20.5 39.7261 20.5 39.7294 20.5C39.7326 20.5 39.7359 20.5 39.7392 20.5C39.7424 20.5 39.7457 20.5 39.7489 20.5C39.7522 20.5 39.7554 20.5 39.7586 20.5C39.7619 20.5 39.7651 20.5 39.7683 20.5C39.7715 20.5 39.7747 20.5 39.7779 20.5C39.7811 20.5 39.7843 20.5 39.7875 20.5C39.7907 20.5 39.7939 20.5 39.7971 20.5C39.8003 20.5 39.8034 20.5 39.8066 20.5C39.8098 20.5 39.8129 20.5 39.8161 20.5C39.8192 20.5 39.8224 20.5 39.8255 20.5C39.8287 20.5 39.8318 20.5 39.8349 20.5C39.8381 20.5 39.8412 20.5 39.8443 20.5C39.8474 20.5 39.8505 20.5 39.8536 20.5C39.8567 20.5 39.8598 20.5 39.8629 20.5C39.866 20.5 39.8691 20.5 39.8721 20.5C39.8752 20.5 39.8783 20.5 39.8813 20.5C39.8844 20.5 39.8875 20.5 39.8905 20.5C39.8935 20.5 39.8966 20.5 39.8996 20.5C39.9027 20.5 39.9057 20.5 39.9087 20.5C39.9117 20.5 39.9147 20.5 39.9178 20.5C39.9208 20.5 39.9238 20.5 39.9268 20.5C39.9298 20.5 39.9328 20.5 39.9357 20.5C39.9387 20.5 39.9417 20.5 39.9447 20.5C39.9476 20.5 39.9506 20.5 39.9536 20.5C39.9565 20.5 39.9595 20.5 39.9624 20.5C39.9654 20.5 39.9683 20.5 39.9712 20.5C39.9742 20.5 39.9771 20.5 39.98 20.5C39.9829 20.5 39.9858 20.5 39.9887 20.5C39.9916 20.5 39.9945 20.5 39.9974 20.5C40.0003 20.5 40.0032 20.5 40.0061 20.5C40.009 20.5 40.0119 20.5 40.0147 20.5C40.0176 20.5 40.0204 20.5 40.0233 20.5C40.0262 20.5 40.029 20.5 40.0318 20.5C40.0347 20.5 40.0375 20.5 40.0404 20.5C40.0432 20.5 40.046 20.5 40.0488 20.5C40.0516 20.5 40.0545 20.5 40.0573 20.5C40.0601 20.5 40.0629 20.5 40.0656 20.5C40.0684 20.5 40.0712 20.5 40.074 20.5C40.0768 20.5 40.0795 20.5 40.0823 20.5C40.0851 20.5 40.0878 20.5 40.0906 20.5C40.0933 20.5 40.0961 20.5 40.0988 20.5C40.1016 20.5 40.1043 20.5 40.107 20.5C40.1098 20.5 40.1125 20.5 40.1152 20.5C40.1179 20.5 40.1206 20.5 40.1233 20.5C40.126 20.5 40.1287 20.5 40.1314 20.5C40.1341 20.5 40.1368 20.5 40.1395 20.5C40.1421 20.5 40.1448 20.5 40.1475 20.5C40.1501 20.5 40.1528 20.5 40.1554 20.5C40.1581 20.5 40.1607 20.5 40.1634 20.5C40.166 20.5 40.1686 20.5 40.1713 20.5C40.1739 20.5 40.1765 20.5 40.1791 20.5C40.1817 20.5 40.1844 20.5 40.187 20.5C40.1896 20.5 40.1922 20.5 40.1947 20.5C40.1973 20.5 40.1999 20.5 40.2025 20.5C40.2051 20.5 40.2076 20.5 40.2102 20.5C40.2128 20.5 40.2153 20.5 40.2179 20.5C40.2204 20.5 40.223 20.5 40.2255 20.5C40.228 20.5 40.2306 20.5 40.2331 20.5C40.2356 20.5 40.2382 20.5 40.2407 20.5C40.2432 20.5 40.2457 20.5 40.2482 20.5C40.2507 20.5 40.2532 20.5 40.2557 20.5C40.2582 20.5 40.2606 20.5 40.2631 20.5C40.2656 20.5 40.2681 20.5 40.2705 20.5C40.273 20.5 40.2755 20.5 40.2779 20.5C40.2804 20.5 40.2828 20.5 40.2852 20.5C40.2877 20.5 40.2901 20.5 40.2925 20.5C40.295 20.5 40.2974 20.5 40.2998 20.5C40.3022 20.5 40.3046 20.5 40.307 20.5C40.3094 20.5 40.3118 20.5 40.3142 20.5C40.3166 20.5 40.319 20.5 40.3214 20.5C40.3238 20.5 40.3261 20.5 40.3285 20.5C40.3309 20.5 40.3332 20.5 40.3356 20.5C40.3379 20.5 40.3403 20.5 40.3426 20.5C40.345 20.5 40.3473 20.5 40.3496 20.5C40.352 20.5 40.3543 20.5 40.3566 20.5C40.3589 20.5 40.3612 20.5 40.3635 20.5C40.3658 20.5 40.3681 20.5 40.3704 20.5C40.3727 20.5 40.375 20.5 40.3773 20.5C40.3796 20.5 40.3818 20.5 40.3841 20.5C40.3864 20.5 40.3886 20.5 40.3909 20.5C40.3931 20.5 40.3954 20.5 40.3976 20.5C40.3999 20.5 40.4021 20.5 40.4043 20.5C40.4066 20.5 40.4088 20.5 40.411 20.5C40.4132 20.5 40.4155 20.5 40.4177 20.5C40.4199 20.5 40.4221 20.5 40.4243 20.5C40.4265 20.5 40.4287 20.5 40.4308 20.5C40.433 20.5 40.4352 20.5 40.4374 20.5C40.4395 20.5 40.4417 20.5 40.4439 20.5C40.446 20.5 40.4482 20.5 40.4503 20.5C40.4525 20.5 40.4546 20.5 40.4567 20.5C40.4589 20.5 40.461 20.5 40.4631 20.5C40.4653 20.5 40.4674 20.5 40.4695 20.5C40.4716 20.5 40.4737 20.5 40.4758 20.5C40.4779 20.5 40.48 20.5 40.4821 20.5C40.4842 20.5 40.4862 20.5 40.4883 20.5C40.4904 20.5 40.4925 20.5 40.4945 20.5C40.4966 20.5 40.4987 20.5 40.5007 20.5C40.5028 20.5 40.5048 20.5 40.5068 20.5C40.5089 20.5 40.5109 20.5 40.5129 20.5C40.515 20.5 40.517 20.5 40.519 20.5C40.521 20.5 40.523 20.5 40.525 20.5C40.527 20.5 40.529 20.5 40.531 20.5C40.533 20.5 40.535 20.5 40.537 20.5C40.539 20.5 40.5409 20.5 40.5429 20.5C40.5449 20.5 40.5468 20.5 40.5488 20.5C40.5508 20.5 40.5527 20.5 40.5546 20.5C40.5566 20.5 40.5585 20.5 40.5605 20.5C40.5624 20.5 40.5643 20.5 40.5662 20.5C40.5682 20.5 40.5701 20.5 40.572 20.5C40.5739 20.5 40.5758 20.5 40.5777 20.5C40.5796 20.5 40.5815 20.5 40.5834 20.5C40.5853 20.5 40.5871 20.5 40.589 20.5C40.5909 20.5 40.5928 20.5 40.5946 20.5C40.5965 20.5 40.5983 20.5 40.6002 20.5C40.602 20.5 40.6039 20.5 40.6057 20.5C40.6076 20.5 40.6094 20.5 40.6112 20.5C40.6131 20.5 40.6149 20.5 40.6167 20.5C40.6185 20.5 40.6203 20.5 40.6221 20.5C40.6239 20.5 40.6257 20.5 40.6275 20.5C40.6293 20.5 40.6311 20.5 40.6329 20.5C40.6347 20.5 40.6364 20.5 40.6382 20.5C40.64 20.5 40.6417 20.5 40.6435 20.5C40.6452 20.5 40.647 20.5 40.6487 20.5C40.6505 20.5 40.6522 20.5 40.654 20.5C40.6557 20.5 40.6574 20.5 40.6592 20.5C40.6609 20.5 40.6626 20.5 40.6643 20.5C40.666 20.5 40.6677 20.5 40.6694 20.5C40.6711 20.5 40.6728 20.5 40.6745 20.5C40.6762 20.5 40.6779 20.5 40.6796 20.5C40.6812 20.5 40.6829 20.5 40.6846 20.5C40.6862 20.5 40.6879 20.5 40.6896 20.5C40.6912 20.5 40.6929 20.5 40.6945 20.5C40.6961 20.5 40.6978 20.5 40.6994 20.5C40.701 20.5 40.7027 20.5 40.7043 20.5C40.7059 20.5 40.7075 20.5 40.7091 20.5C40.7107 20.5 40.7123 20.5 40.7139 20.5C40.7155 20.5 40.7171 20.5 40.7187 20.5C40.7203 20.5 40.7219 20.5 40.7234 20.5C40.725 20.5 40.7266 20.5 40.7282 20.5C40.7297 20.5 40.7313 20.5 40.7328 20.5C40.7344 20.5 40.7359 20.5 40.7375 20.5C40.739 20.5 40.7405 20.5 40.7421 20.5C40.7436 20.5 40.7451 20.5 40.7466 20.5C40.7482 20.5 40.7497 20.5 40.7512 20.5C40.7527 20.5 40.7542 20.5 40.7557 20.5C40.7572 20.5 40.7587 20.5 40.7601 20.5C40.7616 20.5 40.7631 20.5 40.7646 20.5C40.7661 20.5 40.7675 20.5 40.769 20.5C40.7704 20.5 40.7719 20.5 40.7734 20.5C40.7748 20.5 40.7762 20.5 40.7777 20.5C40.7791 20.5 40.7806 20.5 40.782 20.5C40.7834 20.5 40.7848 20.5 40.7863 20.5C40.7877 20.5 40.7891 20.5 40.7905 20.5C40.7919 20.5 40.7933 20.5 40.7947 20.5C40.7961 20.5 40.7975 20.5 40.7989 20.5C40.8002 20.5 40.8016 20.5 40.803 20.5C40.8044 20.5 40.8057 20.5 40.8071 20.5C40.8084 20.5 40.8098 20.5 40.8112 20.5C40.8125 20.5 40.8138 20.5 40.8152 20.5C40.8165 20.5 40.8179 20.5 40.8192 20.5C40.8205 20.5 40.8218 20.5 40.8232 20.5C40.8245 20.5 40.8258 20.5 40.8271 20.5C40.8284 20.5 40.8297 20.5 40.831 20.5C40.8323 20.5 40.8336 20.5 40.8349 20.5C40.8361 20.5 40.8374 20.5 40.8387 20.5C40.84 20.5 40.8412 20.5 40.8425 20.5C40.8438 20.5 40.845 20.5 40.8463 20.5C40.8475 20.5 40.8488 20.5 40.85 20.5C40.8512 20.5 40.8525 20.5 40.8537 20.5C40.8549 20.5 40.8562 20.5 40.8574 20.5C40.8586 20.5 40.8598 20.5 40.861 20.5C40.8622 20.5 40.8634 20.5 40.8646 20.5C40.8658 20.5 40.867 20.5 40.8682 20.5C40.8694 20.5 40.8706 20.5 40.8717 20.5C40.8729 20.5 40.8741 20.5 40.8752 20.5C40.8764 20.5 40.8776 20.5 40.8787 20.5C40.8799 20.5 40.881 20.5 40.8822 20.5C40.8833 20.5 40.8844 20.5 40.8856 20.5C40.8867 20.5 40.8878 20.5 40.8889 20.5C40.8901 20.5 40.8912 20.5 40.8923 20.5C40.8934 20.5 40.8945 20.5 40.8956 20.5C40.8967 20.5 40.8978 20.5 40.8989 20.5C40.9 20.5 40.901 20.5 40.9021 20.5C40.9032 20.5 40.9043 20.5 40.9053 20.5C40.9064 20.5 40.9075 20.5 40.9085 20.5C40.9096 20.5 40.9106 20.5 40.9117 20.5C40.9127 20.5 40.9138 20.5 40.9148 20.5C40.9158 20.5 40.9169 20.5 40.9179 20.5C40.9189 20.5 40.9199 20.5 40.9209 20.5C40.922 20.5 40.923 20.5 40.924 20.5C40.925 20.5 40.926 20.5 40.927 20.5C40.9279 20.5 40.9289 20.5 40.9299 20.5C40.9309 20.5 40.9319 20.5 40.9328 20.5C40.9338 20.5 40.9348 20.5 40.9357 20.5C40.9367 20.5 40.9377 20.5 40.9386 20.5C40.9395 20.5 40.9405 20.5 40.9414 20.5C40.9424 20.5 40.9433 20.5 40.9442 20.5C40.9452 20.5 40.9461 20.5 40.947 20.5C40.9479 20.5 40.9488 20.5 40.9497 20.5C40.9506 20.5 40.9515 20.5 40.9524 20.5C40.9533 20.5 40.9542 20.5 40.9551 20.5C40.956 20.5 40.9569 20.5 40.9578 20.5C40.9586 20.5 40.9595 20.5 40.9604 20.5C40.9612 20.5 40.9621 20.5 40.963 20.5C40.9638 20.5 40.9647 20.5 40.9655 20.5C40.9663 20.5 40.9672 20.5 40.968 20.5C40.9689 20.5 40.9697 20.5 40.9705 20.5C40.9713 20.5 40.9721 20.5 40.973 20.5C40.9738 20.5 40.9746 20.5 40.9754 20.5C40.9762 20.5 40.977 20.5 40.9778 20.5C40.9786 20.5 40.9794 20.5 40.9801 20.5C40.9809 20.5 40.9817 20.5 40.9825 20.5C40.9832 20.5 40.984 20.5 40.9848 20.5C40.9855 20.5 40.9863 20.5 40.987 20.5C40.9878 20.5 40.9885 20.5 40.9893 20.5C40.99 20.5 40.9908 20.5 40.9915 20.5C40.9922 20.5 40.9929 20.5 40.9937 20.5C40.9944 20.5 40.9951 20.5 40.9958 20.5C40.9965 20.5 40.9972 20.5 40.9979 20.5C40.9986 20.5 40.9993 20.5 41 20.5V17.5C40.9993 17.5 40.9986 17.5 40.9979 17.5C40.9972 17.5 40.9965 17.5 40.9958 17.5C40.9951 17.5 40.9944 17.5 40.9937 17.5C40.9929 17.5 40.9922 17.5 40.9915 17.5C40.9908 17.5 40.99 17.5 40.9893 17.5C40.9885 17.5 40.9878 17.5 40.987 17.5C40.9863 17.5 40.9855 17.5 40.9848 17.5C40.984 17.5 40.9832 17.5 40.9825 17.5C40.9817 17.5 40.9809 17.5 40.9801 17.5C40.9794 17.5 40.9786 17.5 40.9778 17.5C40.977 17.5 40.9762 17.5 40.9754 17.5C40.9746 17.5 40.9738 17.5 40.973 17.5C40.9721 17.5 40.9713 17.5 40.9705 17.5C40.9697 17.5 40.9689 17.5 40.968 17.5C40.9672 17.5 40.9663 17.5 40.9655 17.5C40.9647 17.5 40.9638 17.5 40.963 17.5C40.9621 17.5 40.9612 17.5 40.9604 17.5C40.9595 17.5 40.9586 17.5 40.9578 17.5C40.9569 17.5 40.956 17.5 40.9551 17.5C40.9542 17.5 40.9533 17.5 40.9524 17.5C40.9515 17.5 40.9506 17.5 40.9497 17.5C40.9488 17.5 40.9479 17.5 40.947 17.5C40.9461 17.5 40.9452 17.5 40.9442 17.5C40.9433 17.5 40.9424 17.5 40.9414 17.5C40.9405 17.5 40.9395 17.5 40.9386 17.5C40.9377 17.5 40.9367 17.5 40.9357 17.5C40.9348 17.5 40.9338 17.5 40.9328 17.5C40.9319 17.5 40.9309 17.5 40.9299 17.5C40.9289 17.5 40.9279 17.5 40.927 17.5C40.926 17.5 40.925 17.5 40.924 17.5C40.923 17.5 40.922 17.5 40.9209 17.5C40.9199 17.5 40.9189 17.5 40.9179 17.5C40.9169 17.5 40.9158 17.5 40.9148 17.5C40.9138 17.5 40.9127 17.5 40.9117 17.5C40.9106 17.5 40.9096 17.5 40.9085 17.5C40.9075 17.5 40.9064 17.5 40.9053 17.5C40.9043 17.5 40.9032 17.5 40.9021 17.5C40.901 17.5 40.9 17.5 40.8989 17.5C40.8978 17.5 40.8967 17.5 40.8956 17.5C40.8945 17.5 40.8934 17.5 40.8923 17.5C40.8912 17.5 40.8901 17.5 40.8889 17.5C40.8878 17.5 40.8867 17.5 40.8856 17.5C40.8844 17.5 40.8833 17.5 40.8822 17.5C40.881 17.5 40.8799 17.5 40.8787 17.5C40.8776 17.5 40.8764 17.5 40.8752 17.5C40.8741 17.5 40.8729 17.5 40.8717 17.5C40.8706 17.5 40.8694 17.5 40.8682 17.5C40.867 17.5 40.8658 17.5 40.8646 17.5C40.8634 17.5 40.8622 17.5 40.861 17.5C40.8598 17.5 40.8586 17.5 40.8574 17.5C40.8562 17.5 40.8549 17.5 40.8537 17.5C40.8525 17.5 40.8512 17.5 40.85 17.5C40.8488 17.5 40.8475 17.5 40.8463 17.5C40.845 17.5 40.8438 17.5 40.8425 17.5C40.8412 17.5 40.84 17.5 40.8387 17.5C40.8374 17.5 40.8361 17.5 40.8349 17.5C40.8336 17.5 40.8323 17.5 40.831 17.5C40.8297 17.5 40.8284 17.5 40.8271 17.5C40.8258 17.5 40.8245 17.5 40.8232 17.5C40.8218 17.5 40.8205 17.5 40.8192 17.5C40.8179 17.5 40.8165 17.5 40.8152 17.5C40.8138 17.5 40.8125 17.5 40.8112 17.5C40.8098 17.5 40.8084 17.5 40.8071 17.5C40.8057 17.5 40.8044 17.5 40.803 17.5C40.8016 17.5 40.8002 17.5 40.7989 17.5C40.7975 17.5 40.7961 17.5 40.7947 17.5C40.7933 17.5 40.7919 17.5 40.7905 17.5C40.7891 17.5 40.7877 17.5 40.7863 17.5C40.7848 17.5 40.7834 17.5 40.782 17.5C40.7806 17.5 40.7791 17.5 40.7777 17.5C40.7762 17.5 40.7748 17.5 40.7734 17.5C40.7719 17.5 40.7704 17.5 40.769 17.5C40.7675 17.5 40.7661 17.5 40.7646 17.5C40.7631 17.5 40.7616 17.5 40.7601 17.5C40.7587 17.5 40.7572 17.5 40.7557 17.5C40.7542 17.5 40.7527 17.5 40.7512 17.5C40.7497 17.5 40.7482 17.5 40.7466 17.5C40.7451 17.5 40.7436 17.5 40.7421 17.5C40.7405 17.5 40.739 17.5 40.7375 17.5C40.7359 17.5 40.7344 17.5 40.7328 17.5C40.7313 17.5 40.7297 17.5 40.7282 17.5C40.7266 17.5 40.725 17.5 40.7234 17.5C40.7219 17.5 40.7203 17.5 40.7187 17.5C40.7171 17.5 40.7155 17.5 40.7139 17.5C40.7123 17.5 40.7107 17.5 40.7091 17.5C40.7075 17.5 40.7059 17.5 40.7043 17.5C40.7027 17.5 40.701 17.5 40.6994 17.5C40.6978 17.5 40.6961 17.5 40.6945 17.5C40.6929 17.5 40.6912 17.5 40.6896 17.5C40.6879 17.5 40.6862 17.5 40.6846 17.5C40.6829 17.5 40.6812 17.5 40.6796 17.5C40.6779 17.5 40.6762 17.5 40.6745 17.5C40.6728 17.5 40.6711 17.5 40.6694 17.5C40.6677 17.5 40.666 17.5 40.6643 17.5C40.6626 17.5 40.6609 17.5 40.6592 17.5C40.6574 17.5 40.6557 17.5 40.654 17.5C40.6522 17.5 40.6505 17.5 40.6487 17.5C40.647 17.5 40.6452 17.5 40.6435 17.5C40.6417 17.5 40.64 17.5 40.6382 17.5C40.6364 17.5 40.6347 17.5 40.6329 17.5C40.6311 17.5 40.6293 17.5 40.6275 17.5C40.6257 17.5 40.6239 17.5 40.6221 17.5C40.6203 17.5 40.6185 17.5 40.6167 17.5C40.6149 17.5 40.6131 17.5 40.6112 17.5C40.6094 17.5 40.6076 17.5 40.6057 17.5C40.6039 17.5 40.602 17.5 40.6002 17.5C40.5983 17.5 40.5965 17.5 40.5946 17.5C40.5928 17.5 40.5909 17.5 40.589 17.5C40.5871 17.5 40.5853 17.5 40.5834 17.5C40.5815 17.5 40.5796 17.5 40.5777 17.5C40.5758 17.5 40.5739 17.5 40.572 17.5C40.5701 17.5 40.5682 17.5 40.5662 17.5C40.5643 17.5 40.5624 17.5 40.5605 17.5C40.5585 17.5 40.5566 17.5 40.5546 17.5C40.5527 17.5 40.5508 17.5 40.5488 17.5C40.5468 17.5 40.5449 17.5 40.5429 17.5C40.5409 17.5 40.539 17.5 40.537 17.5C40.535 17.5 40.533 17.5 40.531 17.5C40.529 17.5 40.527 17.5 40.525 17.5C40.523 17.5 40.521 17.5 40.519 17.5C40.517 17.5 40.515 17.5 40.5129 17.5C40.5109 17.5 40.5089 17.5 40.5068 17.5C40.5048 17.5 40.5028 17.5 40.5007 17.5C40.4987 17.5 40.4966 17.5 40.4945 17.5C40.4925 17.5 40.4904 17.5 40.4883 17.5C40.4862 17.5 40.4842 17.5 40.4821 17.5C40.48 17.5 40.4779 17.5 40.4758 17.5C40.4737 17.5 40.4716 17.5 40.4695 17.5C40.4674 17.5 40.4653 17.5 40.4631 17.5C40.461 17.5 40.4589 17.5 40.4567 17.5C40.4546 17.5 40.4525 17.5 40.4503 17.5C40.4482 17.5 40.446 17.5 40.4439 17.5C40.4417 17.5 40.4395 17.5 40.4374 17.5C40.4352 17.5 40.433 17.5 40.4308 17.5C40.4287 17.5 40.4265 17.5 40.4243 17.5C40.4221 17.5 40.4199 17.5 40.4177 17.5C40.4155 17.5 40.4132 17.5 40.411 17.5C40.4088 17.5 40.4066 17.5 40.4043 17.5C40.4021 17.5 40.3999 17.5 40.3976 17.5C40.3954 17.5 40.3931 17.5 40.3909 17.5C40.3886 17.5 40.3864 17.5 40.3841 17.5C40.3818 17.5 40.3796 17.5 40.3773 17.5C40.375 17.5 40.3727 17.5 40.3704 17.5C40.3681 17.5 40.3658 17.5 40.3635 17.5C40.3612 17.5 40.3589 17.5 40.3566 17.5C40.3543 17.5 40.352 17.5 40.3496 17.5C40.3473 17.5 40.345 17.5 40.3426 17.5C40.3403 17.5 40.3379 17.5 40.3356 17.5C40.3332 17.5 40.3309 17.5 40.3285 17.5C40.3261 17.5 40.3238 17.5 40.3214 17.5C40.319 17.5 40.3166 17.5 40.3142 17.5C40.3118 17.5 40.3094 17.5 40.307 17.5C40.3046 17.5 40.3022 17.5 40.2998 17.5C40.2974 17.5 40.295 17.5 40.2925 17.5C40.2901 17.5 40.2877 17.5 40.2852 17.5C40.2828 17.5 40.2804 17.5 40.2779 17.5C40.2755 17.5 40.273 17.5 40.2705 17.5C40.2681 17.5 40.2656 17.5 40.2631 17.5C40.2606 17.5 40.2582 17.5 40.2557 17.5C40.2532 17.5 40.2507 17.5 40.2482 17.5C40.2457 17.5 40.2432 17.5 40.2407 17.5C40.2382 17.5 40.2356 17.5 40.2331 17.5C40.2306 17.5 40.228 17.5 40.2255 17.5C40.223 17.5 40.2204 17.5 40.2179 17.5C40.2153 17.5 40.2128 17.5 40.2102 17.5C40.2076 17.5 40.2051 17.5 40.2025 17.5C40.1999 17.5 40.1973 17.5 40.1947 17.5C40.1922 17.5 40.1896 17.5 40.187 17.5C40.1844 17.5 40.1817 17.5 40.1791 17.5C40.1765 17.5 40.1739 17.5 40.1713 17.5C40.1686 17.5 40.166 17.5 40.1634 17.5C40.1607 17.5 40.1581 17.5 40.1554 17.5C40.1528 17.5 40.1501 17.5 40.1475 17.5C40.1448 17.5 40.1421 17.5 40.1395 17.5C40.1368 17.5 40.1341 17.5 40.1314 17.5C40.1287 17.5 40.126 17.5 40.1233 17.5C40.1206 17.5 40.1179 17.5 40.1152 17.5C40.1125 17.5 40.1098 17.5 40.107 17.5C40.1043 17.5 40.1016 17.5 40.0988 17.5C40.0961 17.5 40.0933 17.5 40.0906 17.5C40.0878 17.5 40.0851 17.5 40.0823 17.5C40.0795 17.5 40.0768 17.5 40.074 17.5C40.0712 17.5 40.0684 17.5 40.0656 17.5C40.0629 17.5 40.0601 17.5 40.0573 17.5C40.0545 17.5 40.0516 17.5 40.0488 17.5C40.046 17.5 40.0432 17.5 40.0404 17.5C40.0375 17.5 40.0347 17.5 40.0318 17.5C40.029 17.5 40.0262 17.5 40.0233 17.5C40.0204 17.5 40.0176 17.5 40.0147 17.5C40.0119 17.5 40.009 17.5 40.0061 17.5C40.0032 17.5 40.0003 17.5 39.9974 17.5C39.9945 17.5 39.9916 17.5 39.9887 17.5C39.9858 17.5 39.9829 17.5 39.98 17.5C39.9771 17.5 39.9742 17.5 39.9712 17.5C39.9683 17.5 39.9654 17.5 39.9624 17.5C39.9595 17.5 39.9565 17.5 39.9536 17.5C39.9506 17.5 39.9476 17.5 39.9447 17.5C39.9417 17.5 39.9387 17.5 39.9357 17.5C39.9328 17.5 39.9298 17.5 39.9268 17.5C39.9238 17.5 39.9208 17.5 39.9178 17.5C39.9147 17.5 39.9117 17.5 39.9087 17.5C39.9057 17.5 39.9027 17.5 39.8996 17.5C39.8966 17.5 39.8935 17.5 39.8905 17.5C39.8875 17.5 39.8844 17.5 39.8813 17.5C39.8783 17.5 39.8752 17.5 39.8721 17.5C39.8691 17.5 39.866 17.5 39.8629 17.5C39.8598 17.5 39.8567 17.5 39.8536 17.5C39.8505 17.5 39.8474 17.5 39.8443 17.5C39.8412 17.5 39.8381 17.5 39.8349 17.5C39.8318 17.5 39.8287 17.5 39.8255 17.5C39.8224 17.5 39.8192 17.5 39.8161 17.5C39.8129 17.5 39.8098 17.5 39.8066 17.5C39.8034 17.5 39.8003 17.5 39.7971 17.5C39.7939 17.5 39.7907 17.5 39.7875 17.5C39.7843 17.5 39.7811 17.5 39.7779 17.5C39.7747 17.5 39.7715 17.5 39.7683 17.5C39.7651 17.5 39.7619 17.5 39.7586 17.5C39.7554 17.5 39.7522 17.5 39.7489 17.5C39.7457 17.5 39.7424 17.5 39.7392 17.5C39.7359 17.5 39.7326 17.5 39.7294 17.5C39.7261 17.5 39.7228 17.5 39.7195 17.5C39.7162 17.5 39.713 17.5 39.7097 17.5C39.7064 17.5 39.7031 17.5 39.6997 17.5C39.6964 17.5 39.6931 17.5 39.6898 17.5C39.6865 17.5 39.6831 17.5 39.6798 17.5C39.6765 17.5 39.6731 17.5 39.6698 17.5C39.6664 17.5 39.6631 17.5 39.6597 17.5C39.6563 17.5 39.653 17.5 39.6496 17.5C39.6462 17.5 39.6428 17.5 39.6394 17.5C39.636 17.5 39.6326 17.5 39.6292 17.5C39.6258 17.5 39.6224 17.5 39.619 17.5C39.6156 17.5 39.6122 17.5 39.6087 17.5C39.6053 17.5 39.6019 17.5 39.5984 17.5C39.595 17.5 39.5915 17.5 39.5881 17.5C39.5846 17.5 39.5811 17.5 39.5777 17.5C39.5742 17.5 39.5707 17.5 39.5672 17.5C39.5637 17.5 39.5603 17.5 39.5568 17.5C39.5533 17.5 39.5497 17.5 39.5462 17.5C39.5427 17.5 39.5392 17.5 39.5357 17.5C39.5322 17.5 39.5286 17.5 39.5251 17.5C39.5215 17.5 39.518 17.5 39.5144 17.5C39.5109 17.5 39.5073 17.5 39.5038 17.5C39.5002 17.5 39.4966 17.5 39.4931 17.5C39.4895 17.5 39.4859 17.5 39.4823 17.5C39.4787 17.5 39.4751 17.5 39.4715 17.5C39.4679 17.5 39.4643 17.5 39.4607 17.5C39.457 17.5 39.4534 17.5 39.4498 17.5C39.4461 17.5 39.4425 17.5 39.4389 17.5C39.4352 17.5 39.4315 17.5 39.4279 17.5C39.4242 17.5 39.4206 17.5 39.4169 17.5C39.4132 17.5 39.4095 17.5 39.4058 17.5C39.4022 17.5 39.3985 17.5 39.3948 17.5C39.3911 17.5 39.3873 17.5 39.3836 17.5C39.3799 17.5 39.3762 17.5 39.3725 17.5C39.3687 17.5 39.365 17.5 39.3613 17.5C39.3575 17.5 39.3538 17.5 39.35 17.5C39.3462 17.5 39.3425 17.5 39.3387 17.5C39.3349 17.5 39.3312 17.5 39.3274 17.5C39.3236 17.5 39.3198 17.5 39.316 17.5C39.3122 17.5 39.3084 17.5 39.3046 17.5C39.3008 17.5 39.297 17.5 39.2931 17.5C39.2893 17.5 39.2855 17.5 39.2816 17.5C39.2778 17.5 39.2739 17.5 39.2701 17.5C39.2662 17.5 39.2624 17.5 39.2585 17.5C39.2546 17.5 39.2508 17.5 39.2469 17.5C39.243 17.5 39.2391 17.5 39.2352 17.5C39.2313 17.5 39.2274 17.5 39.2235 17.5C39.2196 17.5 39.2157 17.5 39.2118 17.5C39.2079 17.5 39.2039 17.5 39.2 17.5C39.196 17.5 39.1921 17.5 39.1882 17.5C39.1842 17.5 39.1802 17.5 39.1763 17.5C39.1723 17.5 39.1683 17.5 39.1644 17.5C39.1604 17.5 39.1564 17.5 39.1524 17.5C39.1484 17.5 39.1444 17.5 39.1404 17.5C39.1364 17.5 39.1324 17.5 39.1284 17.5C39.1244 17.5 39.1203 17.5 39.1163 17.5C39.1123 17.5 39.1082 17.5 39.1042 17.5C39.1001 17.5 39.0961 17.5 39.092 17.5C39.0879 17.5 39.0839 17.5 39.0798 17.5C39.0757 17.5 39.0716 17.5 39.0675 17.5C39.0635 17.5 39.0594 17.5 39.0553 17.5C39.0511 17.5 39.047 17.5 39.0429 17.5C39.0388 17.5 39.0347 17.5 39.0305 17.5C39.0264 17.5 39.0223 17.5 39.0181 17.5C39.014 17.5 39.0098 17.5 39.0057 17.5C39.0015 17.5 38.9973 17.5 38.9932 17.5C38.989 17.5 38.9848 17.5 38.9806 17.5C38.9764 17.5 38.9722 17.5 38.968 17.5C38.9638 17.5 38.9596 17.5 38.9554 17.5C38.9512 17.5 38.9469 17.5 38.9427 17.5C38.9385 17.5 38.9342 17.5 38.93 17.5C38.9258 17.5 38.9215 17.5 38.9172 17.5C38.913 17.5 38.9087 17.5 38.9044 17.5C38.9002 17.5 38.8959 17.5 38.8916 17.5C38.8873 17.5 38.883 17.5 38.8787 17.5C38.8744 17.5 38.8701 17.5 38.8658 17.5C38.8615 17.5 38.8571 17.5 38.8528 17.5C38.8485 17.5 38.8441 17.5 38.8398 17.5C38.8354 17.5 38.8311 17.5 38.8267 17.5C38.8224 17.5 38.818 17.5 38.8136 17.5C38.8093 17.5 38.8049 17.5 38.8005 17.5C38.7961 17.5 38.7917 17.5 38.7873 17.5C38.7829 17.5 38.7785 17.5 38.7741 17.5C38.7696 17.5 38.7652 17.5 38.7608 17.5C38.7564 17.5 38.7519 17.5 38.7475 17.5C38.743 17.5 38.7386 17.5 38.7341 17.5C38.7297 17.5 38.7252 17.5 38.7207 17.5C38.7162 17.5 38.7118 17.5 38.7073 17.5C38.7028 17.5 38.6983 17.5 38.6938 17.5C38.6893 17.5 38.6848 17.5 38.6802 17.5C38.6757 17.5 38.6712 17.5 38.6667 17.5C38.6621 17.5 38.6576 17.5 38.653 17.5C38.6485 17.5 38.6439 17.5 38.6394 17.5C38.6348 17.5 38.6302 17.5 38.6257 17.5C38.6211 17.5 38.6165 17.5 38.6119 17.5C38.6073 17.5 38.6027 17.5 38.5981 17.5C38.5935 17.5 38.5889 17.5 38.5843 17.5C38.5797 17.5 38.575 17.5 38.5704 17.5C38.5658 17.5 38.5611 17.5 38.5565 17.5C38.5518 17.5 38.5472 17.5 38.5425 17.5C38.5378 17.5 38.5332 17.5 38.5285 17.5C38.5238 17.5 38.5191 17.5 38.5144 17.5C38.5097 17.5 38.505 17.5 38.5003 17.5C38.4956 17.5 38.4909 17.5 38.4862 17.5C38.4815 17.5 38.4767 17.5 38.472 17.5C38.4673 17.5 38.4625 17.5 38.4578 17.5C38.453 17.5 38.4483 17.5 38.4435 17.5C38.4387 17.5 38.434 17.5 38.4292 17.5C38.4244 17.5 38.4196 17.5 38.4148 17.5C38.41 17.5 38.4052 17.5 38.4004 17.5C38.3956 17.5 38.3908 17.5 38.3859 17.5C38.3811 17.5 38.3763 17.5 38.3714 17.5C38.3666 17.5 38.3618 17.5 38.3569 17.5C38.352 17.5 38.3472 17.5 38.3423 17.5C38.3374 17.5 38.3326 17.5 38.3277 17.5C38.3228 17.5 38.3179 17.5 38.313 17.5C38.3081 17.5 38.3032 17.5 38.2983 17.5C38.2934 17.5 38.2885 17.5 38.2835 17.5C38.2786 17.5 38.2737 17.5 38.2687 17.5C38.2638 17.5 38.2588 17.5 38.2539 17.5C38.2489 17.5 38.2439 17.5 38.239 17.5C38.234 17.5 38.229 17.5 38.224 17.5C38.219 17.5 38.214 17.5 38.209 17.5C38.204 17.5 38.199 17.5 38.194 17.5C38.189 17.5 38.184 17.5 38.1789 17.5C38.1739 17.5 38.1688 17.5 38.1638 17.5C38.1588 17.5 38.1537 17.5 38.1486 17.5C38.1436 17.5 38.1385 17.5 38.1334 17.5C38.1283 17.5 38.1233 17.5 38.1182 17.5C38.1131 17.5 38.108 17.5 38.1029 17.5C38.0978 17.5 38.0926 17.5 38.0875 17.5C38.0824 17.5 38.0773 17.5 38.0721 17.5C38.067 17.5 38.0618 17.5 38.0567 17.5C38.0515 17.5 38.0464 17.5 38.0412 17.5C38.036 17.5 38.0309 17.5 38.0257 17.5C38.0205 17.5 38.0153 17.5 38.0101 17.5C38.0049 17.5 37.9997 17.5 37.9945 17.5C37.9893 17.5 37.984 17.5 37.9788 17.5C37.9736 17.5 37.9684 17.5 37.9631 17.5C37.9579 17.5 37.9526 17.5 37.9474 17.5C37.9421 17.5 37.9368 17.5 37.9316 17.5C37.9263 17.5 37.921 17.5 37.9157 17.5C37.9104 17.5 37.9051 17.5 37.8998 17.5C37.8945 17.5 37.8892 17.5 37.8839 17.5C37.8786 17.5 37.8732 17.5 37.8679 17.5C37.8626 17.5 37.8572 17.5 37.8519 17.5C37.8465 17.5 37.8412 17.5 37.8358 17.5C37.8304 17.5 37.8251 17.5 37.8197 17.5C37.8143 17.5 37.8089 17.5 37.8035 17.5C37.7981 17.5 37.7927 17.5 37.7873 17.5C37.7819 17.5 37.7765 17.5 37.771 17.5C37.7656 17.5 37.7602 17.5 37.7547 17.5C37.7493 17.5 37.7439 17.5 37.7384 17.5C37.7329 17.5 37.7275 17.5 37.722 17.5C37.7165 17.5 37.711 17.5 37.7056 17.5C37.7001 17.5 37.6946 17.5 37.6891 17.5C37.6836 17.5 37.6781 17.5 37.6725 17.5C37.667 17.5 37.6615 17.5 37.656 17.5C37.6504 17.5 37.6449 17.5 37.6393 17.5C37.6338 17.5 37.6282 17.5 37.6227 17.5C37.6171 17.5 37.6115 17.5 37.6059 17.5C37.6004 17.5 37.5948 17.5 37.5892 17.5C37.5836 17.5 37.578 17.5 37.5724 17.5C37.5668 17.5 37.5611 17.5 37.5555 17.5C37.5499 17.5 37.5443 17.5 37.5386 17.5C37.533 17.5 37.5273 17.5 37.5217 17.5C37.516 17.5 37.5103 17.5 37.5047 17.5C37.499 17.5 37.4933 17.5 37.4876 17.5C37.4819 17.5 37.4762 17.5 37.4705 17.5C37.4648 17.5 37.4591 17.5 37.4534 17.5C37.4477 17.5 37.4419 17.5 37.4362 17.5C37.4305 17.5 37.4247 17.5 37.419 17.5C37.4132 17.5 37.4075 17.5 37.4017 17.5C37.3959 17.5 37.3902 17.5 37.3844 17.5C37.3786 17.5 37.3728 17.5 37.367 17.5C37.3612 17.5 37.3554 17.5 37.3496 17.5C37.3438 17.5 37.338 17.5 37.3321 17.5C37.3263 17.5 37.3205 17.5 37.3146 17.5C37.3088 17.5 37.3029 17.5 37.2971 17.5C37.2912 17.5 37.2853 17.5 37.2795 17.5C37.2736 17.5 37.2677 17.5 37.2618 17.5C37.2559 17.5 37.25 17.5 37.2441 17.5C37.2382 17.5 37.2323 17.5 37.2264 17.5C37.2204 17.5 37.2145 17.5 37.2086 17.5C37.2026 17.5 37.1967 17.5 37.1907 17.5C37.1848 17.5 37.1788 17.5 37.1728 17.5C37.1669 17.5 37.1609 17.5 37.1549 17.5C37.1489 17.5 37.1429 17.5 37.1369 17.5C37.1309 17.5 37.1249 17.5 37.1189 17.5C37.1129 17.5 37.1068 17.5 37.1008 17.5C37.0948 17.5 37.0887 17.5 37.0827 17.5C37.0766 17.5 37.0706 17.5 37.0645 17.5C37.0584 17.5 37.0524 17.5 37.0463 17.5C37.0402 17.5 37.0341 17.5 37.028 17.5C37.0219 17.5 37.0158 17.5 37.0097 17.5C37.0036 17.5 36.9975 17.5 36.9913 17.5C36.9852 17.5 36.9791 17.5 36.9729 17.5C36.9668 17.5 36.9606 17.5 36.9545 17.5C36.9483 17.5 36.9421 17.5 36.936 17.5C36.9298 17.5 36.9236 17.5 36.9174 17.5C36.9112 17.5 36.905 17.5 36.8988 17.5C36.8926 17.5 36.8864 17.5 36.8802 17.5C36.8739 17.5 36.8677 17.5 36.8615 17.5C36.8552 17.5 36.849 17.5 36.8427 17.5C36.8365 17.5 36.8302 17.5 36.8239 17.5C36.8176 17.5 36.8114 17.5 36.8051 17.5C36.7988 17.5 36.7925 17.5 36.7862 17.5C36.7799 17.5 36.7736 17.5 36.7672 17.5C36.7609 17.5 36.7546 17.5 36.7483 17.5C36.7419 17.5 36.7356 17.5 36.7292 17.5C36.7229 17.5 36.7165 17.5 36.7101 17.5C36.7038 17.5 36.6974 17.5 36.691 17.5C36.6846 17.5 36.6782 17.5 36.6718 17.5C36.6654 17.5 36.659 17.5 36.6526 17.5C36.6462 17.5 36.6397 17.5 36.6333 17.5C36.6269 17.5 36.6204 17.5 36.614 17.5C36.6075 17.5 36.6011 17.5 36.5946 17.5C36.5881 17.5 36.5817 17.5 36.5752 17.5C36.5687 17.5 36.5622 17.5 36.5557 17.5C36.5492 17.5 36.5427 17.5 36.5362 17.5C36.5297 17.5 36.5232 17.5 36.5166 17.5C36.5101 17.5 36.5036 17.5 36.497 17.5C36.4905 17.5 36.4839 17.5 36.4773 17.5C36.4708 17.5 36.4642 17.5 36.4576 17.5C36.451 17.5 36.4444 17.5 36.4379 17.5C36.4313 17.5 36.4247 17.5 36.418 17.5C36.4114 17.5 36.4048 17.5 36.3982 17.5C36.3915 17.5 36.3849 17.5 36.3783 17.5C36.3716 17.5 36.365 17.5 36.3583 17.5C36.3516 17.5 36.345 17.5 36.3383 17.5C36.3316 17.5 36.3249 17.5 36.3182 17.5C36.3115 17.5 36.3048 17.5 36.2981 17.5C36.2914 17.5 36.2847 17.5 36.278 17.5C36.2712 17.5 36.2645 17.5 36.2578 17.5C36.251 17.5 36.2443 17.5 36.2375 17.5C36.2307 17.5 36.224 17.5 36.2172 17.5C36.2104 17.5 36.2036 17.5 36.1968 17.5C36.19 17.5 36.1832 17.5 36.1764 17.5C36.1696 17.5 36.1628 17.5 36.156 17.5C36.1492 17.5 36.1423 17.5 36.1355 17.5C36.1286 17.5 36.1218 17.5 36.1149 17.5C36.1081 17.5 36.1012 17.5 36.0943 17.5C36.0874 17.5 36.0806 17.5 36.0737 17.5C36.0668 17.5 36.0599 17.5 36.053 17.5C36.0461 17.5 36.0391 17.5 36.0322 17.5C36.0253 17.5 36.0184 17.5 36.0114 17.5C36.0045 17.5 35.9975 17.5 35.9906 17.5C35.9836 17.5 35.9766 17.5 35.9697 17.5C35.9627 17.5 35.9557 17.5 35.9487 17.5C35.9417 17.5 35.9347 17.5 35.9277 17.5C35.9207 17.5 35.9137 17.5 35.9066 17.5C35.8996 17.5 35.8926 17.5 35.8855 17.5C35.8785 17.5 35.8715 17.5 35.8644 17.5C35.8573 17.5 35.8503 17.5 35.8432 17.5C35.8361 17.5 35.829 17.5 35.8219 17.5C35.8149 17.5 35.8077 17.5 35.8006 17.5C35.7935 17.5 35.7864 17.5 35.7793 17.5C35.7722 17.5 35.765 17.5 35.7579 17.5C35.7507 17.5 35.7436 17.5 35.7364 17.5C35.7293 17.5 35.7221 17.5 35.7149 17.5C35.7078 17.5 35.7006 17.5 35.6934 17.5C35.6862 17.5 35.679 17.5 35.6718 17.5C35.6646 17.5 35.6573 17.5 35.6501 17.5C35.6429 17.5 35.6357 17.5 35.6284 17.5C35.6212 17.5 35.6139 17.5 35.6067 17.5C35.5994 17.5 35.5921 17.5 35.5849 17.5C35.5776 17.5 35.5703 17.5 35.563 17.5C35.5557 17.5 35.5484 17.5 35.5411 17.5C35.5338 17.5 35.5265 17.5 35.5191 17.5C35.5118 17.5 35.5045 17.5 35.4971 17.5C35.4898 17.5 35.4824 17.5 35.4751 17.5C35.4677 17.5 35.4603 17.5 35.453 17.5C35.4456 17.5 35.4382 17.5 35.4308 17.5C35.4234 17.5 35.416 17.5 35.4086 17.5C35.4012 17.5 35.3937 17.5 35.3863 17.5C35.3789 17.5 35.3714 17.5 35.364 17.5C35.3566 17.5 35.3491 17.5 35.3416 17.5C35.3342 17.5 35.3267 17.5 35.3192 17.5C35.3117 17.5 35.3042 17.5 35.2967 17.5C35.2893 17.5 35.2817 17.5 35.2742 17.5C35.2667 17.5 35.2592 17.5 35.2517 17.5C35.2441 17.5 35.2366 17.5 35.229 17.5C35.2215 17.5 35.2139 17.5 35.2064 17.5C35.1988 17.5 35.1912 17.5 35.1836 17.5C35.1761 17.5 35.1685 17.5 35.1609 17.5C35.1533 17.5 35.1457 17.5 35.138 17.5C35.1304 17.5 35.1228 17.5 35.1152 17.5C35.1075 17.5 35.0999 17.5 35.0922 17.5C35.0846 17.5 35.0769 17.5 35.0693 17.5C35.0616 17.5 35.0539 17.5 35.0462 17.5C35.0385 17.5 35.0308 17.5 35.0231 17.5C35.0154 17.5 35.0077 17.5 35 17.5V20.5Z" fill="#152C5B"/>
</svg>
