<svg width="48" height="48" viewBox="0 0 48 48" fill="none" xmlns="http://www.w3.org/2000/svg">
<path d="M43 37.5L5 37.5C3.61929 37.5 2.5 36.3807 2.5 35L2.5 13C2.5 11.6193 3.61929 10.5 5 10.5L43 10.5C44.3807 10.5 45.5 11.6193 45.5 13L45.5 35C45.5 36.3807 44.3807 37.5 43 37.5Z" stroke="#152C5B" stroke-width="3"/>
<path d="M37 20.5C37.8284 20.5 38.5 19.8284 38.5 19C38.5 18.1716 37.8284 17.5 37 17.5L37 20.5ZM3 17.5C2.17157 17.5 1.5 18.1716 1.5 19C1.5 19.8284 2.17157 20.5 3 20.5L3 17.5ZM37 17.5C36.9562 17.5 36.9125 17.5 36.8689 17.5C36.8252 17.5 36.7816 17.5 36.7381 17.5C36.6945 17.5 36.651 17.5 36.6076 17.5C36.5641 17.5 36.5207 17.5 36.4773 17.5C36.434 17.5 36.3907 17.5 36.3474 17.5C36.3041 17.5 36.2609 17.5 36.2178 17.5C36.1746 17.5 36.1315 17.5 36.0884 17.5C36.0453 17.5 36.0023 17.5 35.9594 17.5C35.9164 17.5 35.8735 17.5 35.8306 17.5C35.7877 17.5 35.7449 17.5 35.7021 17.5C35.6593 17.5 35.6166 17.5 35.5739 17.5C35.5312 17.5 35.4886 17.5 35.446 17.5C35.4034 17.5 35.3609 17.5 35.3184 17.5C35.2759 17.5 35.2335 17.5 35.1911 17.5C35.1487 17.5 35.1064 17.5 35.0641 17.5C35.0218 17.5 34.9795 17.5 34.9373 17.5C34.8951 17.5 34.853 17.5 34.8109 17.5C34.7688 17.5 34.7267 17.5 34.6847 17.5C34.6427 17.5 34.6008 17.5 34.5589 17.5C34.517 17.5 34.4751 17.5 34.4333 17.5C34.3915 17.5 34.3497 17.5 34.308 17.5C34.2663 17.5 34.2246 17.5 34.183 17.5C34.1414 17.5 34.0998 17.5 34.0583 17.5C34.0167 17.5 33.9753 17.5 33.9338 17.5C33.8924 17.5 33.851 17.5 33.8097 17.5C33.7684 17.5 33.7271 17.5 33.6858 17.5C33.6446 17.5 33.6034 17.5 33.5623 17.5C33.5211 17.5 33.48 17.5 33.439 17.5C33.3979 17.5 33.3569 17.5 33.316 17.5C33.275 17.5 33.2341 17.5 33.1933 17.5C33.1524 17.5 33.1116 17.5 33.0709 17.5C33.0301 17.5 32.9894 17.5 32.9487 17.5C32.9081 17.5 32.8674 17.5 32.8269 17.5C32.7863 17.5 32.7458 17.5 32.7053 17.5C32.6648 17.5 32.6244 17.5 32.584 17.5C32.5437 17.5 32.5033 17.5 32.463 17.5C32.4228 17.5 32.3825 17.5 32.3423 17.5C32.3021 17.5 32.262 17.5 32.2219 17.5C32.1818 17.5 32.1418 17.5 32.1018 17.5C32.0618 17.5 32.0218 17.5 31.9819 17.5C31.942 17.5 31.9021 17.5 31.8623 17.5C31.8225 17.5 31.7827 17.5 31.743 17.5C31.7033 17.5 31.6636 17.5 31.624 17.5C31.5844 17.5 31.5448 17.5 31.5053 17.5C31.4658 17.5 31.4263 17.5 31.3869 17.5C31.3474 17.5 31.308 17.5 31.2687 17.5C31.2293 17.5 31.1901 17.5 31.1508 17.5C31.1116 17.5 31.0724 17.5 31.0332 17.5C30.9941 17.5 30.955 17.5 30.9159 17.5C30.8768 17.5 30.8378 17.5 30.7989 17.5C30.7599 17.5 30.721 17.5 30.6821 17.5C30.6432 17.5 30.6044 17.5 30.5656 17.5C30.5269 17.5 30.4881 17.5 30.4495 17.5C30.4108 17.5 30.3721 17.5 30.3335 17.5C30.295 17.5 30.2564 17.5 30.2179 17.5C30.1794 17.5 30.141 17.5 30.1026 17.5C30.0642 17.5 30.0258 17.5 29.9875 17.5C29.9492 17.5 29.9109 17.5 29.8727 17.5C29.8345 17.5 29.7963 17.5 29.7582 17.5C29.7201 17.5 29.682 17.5 29.644 17.5C29.6059 17.5 29.568 17.5 29.53 17.5C29.4921 17.5 29.4542 17.5 29.4164 17.5C29.3785 17.5 29.3407 17.5 29.303 17.5C29.2652 17.5 29.2275 17.5 29.1898 17.5C29.1522 17.5 29.1146 17.5 29.077 17.5C29.0394 17.5 29.0019 17.5 28.9644 17.5C28.927 17.5 28.8895 17.5 28.8522 17.5C28.8148 17.5 28.7775 17.5 28.7402 17.5C28.7029 17.5 28.6656 17.5 28.6284 17.5C28.5912 17.5 28.5541 17.5 28.517 17.5C28.4799 17.5 28.4428 17.5 28.4058 17.5C28.3688 17.5 28.3318 17.5 28.2949 17.5C28.258 17.5 28.2211 17.5 28.1843 17.5C28.1475 17.5 28.1107 17.5 28.0739 17.5C28.0372 17.5 28.0005 17.5 27.9639 17.5C27.9272 17.5 27.8906 17.5 27.8541 17.5C27.8175 17.5 27.781 17.5 27.7446 17.5C27.7081 17.5 27.6717 17.5 27.6353 17.5C27.599 17.5 27.5626 17.5 27.5264 17.5C27.4901 17.5 27.4538 17.5 27.4177 17.5C27.3815 17.5 27.3453 17.5 27.3092 17.5C27.2731 17.5 27.2371 17.5 27.2011 17.5C27.1651 17.5 27.1291 17.5 27.0932 17.5C27.0573 17.5 27.0215 17.5 26.9856 17.5C26.9498 17.5 26.914 17.5 26.8783 17.5C26.8426 17.5 26.8069 17.5 26.7713 17.5C26.7356 17.5 26.7 17.5 26.6645 17.5C26.6289 17.5 26.5934 17.5 26.558 17.5C26.5225 17.5 26.4871 17.5 26.4517 17.5C26.4164 17.5 26.3811 17.5 26.3458 17.5C26.3105 17.5 26.2753 17.5 26.2401 17.5C26.2049 17.5 26.1698 17.5 26.1347 17.5C26.0996 17.5 26.0645 17.5 26.0295 17.5C25.9945 17.5 25.9596 17.5 25.9247 17.5C25.8897 17.5 25.8549 17.5 25.8201 17.5C25.7852 17.5 25.7505 17.5 25.7157 17.5C25.681 17.5 25.6463 17.5 25.6117 17.5C25.577 17.5 25.5424 17.5 25.5079 17.5C25.4733 17.5 25.4388 17.5 25.4044 17.5C25.3699 17.5 25.3355 17.5 25.3011 17.5C25.2667 17.5 25.2324 17.5 25.1981 17.5C25.1638 17.5 25.1296 17.5 25.0954 17.5C25.0612 17.5 25.0271 17.5 24.993 17.5C24.9589 17.5 24.9248 17.5 24.8908 17.5C24.8568 17.5 24.8228 17.5 24.7889 17.5C24.755 17.5 24.7211 17.5 24.6873 17.5C24.6534 17.5 24.6196 17.5 24.5859 17.5C24.5521 17.5 24.5184 17.5 24.4848 17.5C24.4511 17.5 24.4175 17.5 24.384 17.5C24.3504 17.5 24.3169 17.5 24.2834 17.5C24.2499 17.5 24.2165 17.5 24.1831 17.5C24.1497 17.5 24.1164 17.5 24.0831 17.5C24.0498 17.5 24.0165 17.5 23.9833 17.5C23.9501 17.5 23.9169 17.5 23.8838 17.5C23.8507 17.5 23.8176 17.5 23.7846 17.5C23.7516 17.5 23.7186 17.5 23.6856 17.5C23.6527 17.5 23.6198 17.5 23.5869 17.5C23.5541 17.5 23.5213 17.5 23.4885 17.5C23.4557 17.5 23.423 17.5 23.3903 17.5C23.3576 17.5 23.325 17.5 23.2924 17.5C23.2598 17.5 23.2273 17.5 23.1948 17.5C23.1623 17.5 23.1298 17.5 23.0974 17.5C23.065 17.5 23.0326 17.5 23.0003 17.5C22.968 17.5 22.9357 17.5 22.9035 17.5C22.8712 17.5 22.839 17.5 22.8069 17.5C22.7747 17.5 22.7426 17.5 22.7106 17.5C22.6785 17.5 22.6465 17.5 22.6145 17.5C22.5826 17.5 22.5506 17.5 22.5187 17.5C22.4869 17.5 22.455 17.5 22.4232 17.5C22.3914 17.5 22.3597 17.5 22.328 17.5C22.2963 17.5 22.2646 17.5 22.233 17.5C22.2013 17.5 22.1698 17.5 22.1382 17.5C22.1067 17.5 22.0752 17.5 22.0438 17.5C22.0123 17.5 21.9809 17.5 21.9496 17.5C21.9182 17.5 21.8869 17.5 21.8556 17.5C21.8243 17.5 21.7931 17.5 21.7619 17.5C21.7307 17.5 21.6996 17.5 21.6685 17.5C21.6374 17.5 21.6063 17.5 21.5753 17.5C21.5443 17.5 21.5133 17.5 21.4824 17.5C21.4515 17.5 21.4206 17.5 21.3898 17.5C21.3589 17.5 21.3282 17.5 21.2974 17.5C21.2666 17.5 21.2359 17.5 21.2053 17.5C21.1746 17.5 21.144 17.5 21.1134 17.5C21.0828 17.5 21.0523 17.5 21.0218 17.5C20.9913 17.5 20.9609 17.5 20.9305 17.5C20.9001 17.5 20.8697 17.5 20.8394 17.5C20.8091 17.5 20.7788 17.5 20.7486 17.5C20.7183 17.5 20.6881 17.5 20.658 17.5C20.6279 17.5 20.5977 17.5 20.5677 17.5C20.5376 17.5 20.5076 17.5 20.4776 17.5C20.4477 17.5 20.4177 17.5 20.3878 17.5C20.358 17.5 20.3281 17.5 20.2983 17.5C20.2685 17.5 20.2388 17.5 20.209 17.5C20.1793 17.5 20.1497 17.5 20.12 17.5C20.0904 17.5 20.0608 17.5 20.0313 17.5C20.0017 17.5 19.9722 17.5 19.9428 17.5C19.9133 17.5 19.8839 17.5 19.8545 17.5C19.8251 17.5 19.7958 17.5 19.7665 17.5C19.7372 17.5 19.708 17.5 19.6788 17.5C19.6496 17.5 19.6204 17.5 19.5913 17.5C19.5622 17.5 19.5331 17.5 19.5041 17.5C19.4751 17.5 19.4461 17.5 19.4171 17.5C19.3882 17.5 19.3593 17.5 19.3304 17.5C19.3015 17.5 19.2727 17.5 19.2439 17.5C19.2152 17.5 19.1864 17.5 19.1577 17.5C19.1291 17.5 19.1004 17.5 19.0718 17.5C19.0432 17.5 19.0146 17.5 18.9861 17.5C18.9576 17.5 18.9291 17.5 18.9007 17.5C18.8722 17.5 18.8438 17.5 18.8155 17.5C18.7871 17.5 18.7588 17.5 18.7306 17.5C18.7023 17.5 18.6741 17.5 18.6459 17.5C18.6177 17.5 18.5896 17.5 18.5615 17.5C18.5334 17.5 18.5053 17.5 18.4773 17.5C18.4493 17.5 18.4213 17.5 18.3934 17.5C18.3654 17.5 18.3375 17.5 18.3097 17.5C18.2818 17.5 18.254 17.5 18.2263 17.5C18.1985 17.5 18.1708 17.5 18.1431 17.5C18.1154 17.5 18.0878 17.5 18.0602 17.5C18.0326 17.5 18.0051 17.5 17.9776 17.5C17.95 17.5 17.9226 17.5 17.8951 17.5C17.8677 17.5 17.8403 17.5 17.813 17.5C17.7856 17.5 17.7583 17.5 17.7311 17.5C17.7038 17.5 17.6766 17.5 17.6494 17.5C17.6223 17.5 17.5951 17.5 17.568 17.5C17.5409 17.5 17.5139 17.5 17.4869 17.5C17.4599 17.5 17.4329 17.5 17.406 17.5C17.379 17.5 17.3522 17.5 17.3253 17.5C17.2985 17.5 17.2717 17.5 17.2449 17.5C17.2181 17.5 17.1914 17.5 17.1648 17.5C17.1381 17.5 17.1114 17.5 17.0848 17.5C17.0583 17.5 17.0317 17.5 17.0052 17.5C16.9787 17.5 16.9522 17.5 16.9258 17.5C16.8994 17.5 16.873 17.5 16.8466 17.5C16.8203 17.5 16.794 17.5 16.7677 17.5C16.7414 17.5 16.7152 17.5 16.689 17.5C16.6629 17.5 16.6367 17.5 16.6106 17.5C16.5845 17.5 16.5585 17.5 16.5325 17.5C16.5064 17.5 16.4805 17.5 16.4545 17.5C16.4286 17.5 16.4027 17.5 16.3769 17.5C16.351 17.5 16.3252 17.5 16.2994 17.5C16.2737 17.5 16.2479 17.5 16.2222 17.5C16.1966 17.5 16.1709 17.5 16.1453 17.5C16.1197 17.5 16.0941 17.5 16.0686 17.5C16.0431 17.5 16.0176 17.5 15.9922 17.5C15.9667 17.5 15.9413 17.5 15.916 17.5C15.8906 17.5 15.8653 17.5 15.84 17.5C15.8147 17.5 15.7895 17.5 15.7643 17.5C15.7391 17.5 15.714 17.5 15.6889 17.5C15.6637 17.5 15.6387 17.5 15.6136 17.5C15.5886 17.5 15.5636 17.5 15.5387 17.5C15.5137 17.5 15.4888 17.5 15.4639 17.5C15.4391 17.5 15.4142 17.5 15.3894 17.5C15.3647 17.5 15.3399 17.5 15.3152 17.5C15.2905 17.5 15.2658 17.5 15.2412 17.5C15.2166 17.5 15.192 17.5 15.1674 17.5C15.1429 17.5 15.1184 17.5 15.0939 17.5C15.0695 17.5 15.045 17.5 15.0207 17.5C14.9963 17.5 14.9719 17.5 14.9476 17.5C14.9233 17.5 14.8991 17.5 14.8749 17.5C14.8506 17.5 14.8264 17.5 14.8023 17.5C14.7782 17.5 14.7541 17.5 14.73 17.5C14.7059 17.5 14.6819 17.5 14.6579 17.5C14.634 17.5 14.61 17.5 14.5861 17.5C14.5622 17.5 14.5384 17.5 14.5146 17.5C14.4907 17.5 14.467 17.5 14.4432 17.5C14.4195 17.5 14.3958 17.5 14.3721 17.5C14.3485 17.5 14.3248 17.5 14.3013 17.5C14.2777 17.5 14.2541 17.5 14.2306 17.5C14.2071 17.5 14.1837 17.5 14.1603 17.5C14.1369 17.5 14.1135 17.5 14.0901 17.5C14.0668 17.5 14.0435 17.5 14.0202 17.5C13.997 17.5 13.9738 17.5 13.9506 17.5C13.9274 17.5 13.9043 17.5 13.8812 17.5C13.8581 17.5 13.835 17.5 13.812 17.5C13.789 17.5 13.766 17.5 13.743 17.5C13.7201 17.5 13.6972 17.5 13.6743 17.5C13.6515 17.5 13.6287 17.5 13.6059 17.5C13.5831 17.5 13.5604 17.5 13.5377 17.5C13.515 17.5 13.4923 17.5 13.4697 17.5C13.447 17.5 13.4245 17.5 13.4019 17.5C13.3794 17.5 13.3569 17.5 13.3344 17.5C13.3119 17.5 13.2895 17.5 13.2671 17.5C13.2447 17.5 13.2224 17.5 13.2001 17.5C13.1778 17.5 13.1555 17.5 13.1333 17.5C13.1111 17.5 13.0889 17.5 13.0667 17.5C13.0446 17.5 13.0225 17.5 13.0004 17.5C12.9783 17.5 12.9563 17.5 12.9343 17.5C12.9123 17.5 12.8903 17.5 12.8684 17.5C12.8465 17.5 12.8246 17.5 12.8028 17.5C12.781 17.5 12.7592 17.5 12.7374 17.5C12.7157 17.5 12.6939 17.5 12.6723 17.5C12.6506 17.5 12.6289 17.5 12.6073 17.5C12.5857 17.5 12.5642 17.5 12.5427 17.5C12.5211 17.5 12.4996 17.5 12.4782 17.5C12.4568 17.5 12.4354 17.5 12.414 17.5C12.3926 17.5 12.3713 17.5 12.35 17.5C12.3287 17.5 12.3075 17.5 12.2862 17.5C12.265 17.5 12.2439 17.5 12.2227 17.5C12.2016 17.5 12.1805 17.5 12.1594 17.5C12.1384 17.5 12.1174 17.5 12.0964 17.5C12.0754 17.5 12.0545 17.5 12.0336 17.5C12.0127 17.5 11.9918 17.5 11.971 17.5C11.9502 17.5 11.9294 17.5 11.9086 17.5C11.8879 17.5 11.8672 17.5 11.8465 17.5C11.8258 17.5 11.8052 17.5 11.7846 17.5C11.764 17.5 11.7435 17.5 11.723 17.5C11.7024 17.5 11.682 17.5 11.6615 17.5C11.6411 17.5 11.6207 17.5 11.6003 17.5C11.58 17.5 11.5597 17.5 11.5394 17.5C11.5191 17.5 11.4988 17.5 11.4786 17.5C11.4584 17.5 11.4383 17.5 11.4181 17.5C11.398 17.5 11.3779 17.5 11.3578 17.5C11.3378 17.5 11.3178 17.5 11.2978 17.5C11.2778 17.5 11.2579 17.5 11.238 17.5C11.2181 17.5 11.1982 17.5 11.1784 17.5C11.1586 17.5 11.1388 17.5 11.119 17.5C11.0993 17.5 11.0796 17.5 11.0599 17.5C11.0402 17.5 11.0206 17.5 11.001 17.5C10.9814 17.5 10.9619 17.5 10.9423 17.5C10.9228 17.5 10.9033 17.5 10.8839 17.5C10.8644 17.5 10.845 17.5 10.8257 17.5C10.8063 17.5 10.787 17.5 10.7677 17.5C10.7484 17.5 10.7291 17.5 10.7099 17.5C10.6907 17.5 10.6715 17.5 10.6524 17.5C10.6332 17.5 10.6141 17.5 10.5951 17.5C10.576 17.5 10.557 17.5 10.538 17.5C10.519 17.5 10.5001 17.5 10.4811 17.5C10.4622 17.5 10.4433 17.5 10.4245 17.5C10.4057 17.5 10.3869 17.5 10.3681 17.5C10.3493 17.5 10.3306 17.5 10.3119 17.5C10.2932 17.5 10.2746 17.5 10.256 17.5C10.2374 17.5 10.2188 17.5 10.2003 17.5C10.1817 17.5 10.1632 17.5 10.1448 17.5C10.1263 17.5 10.1079 17.5 10.0895 17.5C10.0711 17.5 10.0527 17.5 10.0344 17.5C10.0161 17.5 9.99784 17.5 9.9796 17.5C9.96136 17.5 9.94316 17.5 9.925 17.5C9.90683 17.5 9.88871 17.5 9.87062 17.5C9.85253 17.5 9.83448 17.5 9.81646 17.5C9.79845 17.5 9.78047 17.5 9.76253 17.5C9.74459 17.5 9.72669 17.5 9.70882 17.5C9.69096 17.5 9.67313 17.5 9.65534 17.5C9.63755 17.5 9.61979 17.5 9.60208 17.5C9.58436 17.5 9.56668 17.5 9.54904 17.5C9.53139 17.5 9.51379 17.5 9.49622 17.5C9.47865 17.5 9.46112 17.5 9.44362 17.5C9.42613 17.5 9.40867 17.5 9.39125 17.5C9.37383 17.5 9.35644 17.5 9.3391 17.5C9.32175 17.5 9.30444 17.5 9.28716 17.5C9.26989 17.5 9.25265 17.5 9.23546 17.5C9.21826 17.5 9.20109 17.5 9.18397 17.5C9.16684 17.5 9.14975 17.5 9.1327 17.5C9.11565 17.5 9.09863 17.5 9.08165 17.5C9.06467 17.5 9.04773 17.5 9.03082 17.5C9.01392 17.5 8.99705 17.5 8.98022 17.5C8.96338 17.5 8.94659 17.5 8.92983 17.5C8.91307 17.5 8.89635 17.5 8.87966 17.5C8.86297 17.5 8.84632 17.5 8.82971 17.5C8.8131 17.5 8.79652 17.5 8.77998 17.5C8.76344 17.5 8.74694 17.5 8.73047 17.5C8.714 17.5 8.69757 17.5 8.68118 17.5C8.66478 17.5 8.64842 17.5 8.6321 17.5C8.61578 17.5 8.59949 17.5 8.58325 17.5C8.567 17.5 8.55078 17.5 8.53461 17.5C8.51843 17.5 8.50229 17.5 8.48619 17.5C8.47008 17.5 8.45402 17.5 8.43798 17.5C8.42195 17.5 8.40596 17.5 8.39 17.5C8.37404 17.5 8.35812 17.5 8.34223 17.5C8.32634 17.5 8.31049 17.5 8.29468 17.5C8.27886 17.5 8.26308 17.5 8.24734 17.5C8.2316 17.5 8.21589 17.5 8.20022 17.5C8.18455 17.5 8.16892 17.5 8.15332 17.5C8.13772 17.5 8.12216 17.5 8.10663 17.5C8.0911 17.5 8.07561 17.5 8.06016 17.5C8.0447 17.5 8.02928 17.5 8.0139 17.5C7.99852 17.5 7.98317 17.5 7.96786 17.5C7.95255 17.5 7.93727 17.5 7.92203 17.5C7.90679 17.5 7.89159 17.5 7.87642 17.5C7.86125 17.5 7.84612 17.5 7.83102 17.5C7.81592 17.5 7.80086 17.5 7.78584 17.5C7.77081 17.5 7.75582 17.5 7.74087 17.5C7.72591 17.5 7.711 17.5 7.69611 17.5C7.68123 17.5 7.66638 17.5 7.65157 17.5C7.63676 17.5 7.62198 17.5 7.60724 17.5C7.5925 17.5 7.57779 17.5 7.56312 17.5C7.54845 17.5 7.53382 17.5 7.51922 17.5C7.50462 17.5 7.49006 17.5 7.47553 17.5C7.461 17.5 7.44651 17.5 7.43205 17.5C7.41759 17.5 7.40317 17.5 7.38878 17.5C7.3744 17.5 7.36004 17.5 7.34573 17.5C7.33141 17.5 7.31713 17.5 7.30289 17.5C7.28864 17.5 7.27443 17.5 7.26025 17.5C7.24608 17.5 7.23194 17.5 7.21783 17.5C7.20373 17.5 7.18966 17.5 7.17562 17.5C7.16159 17.5 7.14759 17.5 7.13362 17.5C7.11966 17.5 7.10573 17.5 7.09184 17.5C7.07794 17.5 7.06408 17.5 7.05026 17.5C7.03643 17.5 7.02264 17.5 7.00889 17.5C6.99513 17.5 6.98141 17.5 6.96773 17.5C6.95405 17.5 6.9404 17.5 6.92678 17.5C6.91317 17.5 6.89959 17.5 6.88604 17.5C6.8725 17.5 6.85899 17.5 6.84551 17.5C6.83203 17.5 6.81859 17.5 6.80519 17.5C6.79178 17.5 6.77841 17.5 6.76507 17.5C6.75174 17.5 6.73844 17.5 6.72517 17.5C6.7119 17.5 6.69867 17.5 6.68547 17.5C6.67227 17.5 6.65911 17.5 6.64598 17.5C6.63285 17.5 6.61976 17.5 6.6067 17.5C6.59364 17.5 6.58062 17.5 6.56763 17.5C6.55464 17.5 6.54168 17.5 6.52876 17.5C6.51584 17.5 6.50295 17.5 6.4901 17.5C6.47725 17.5 6.46443 17.5 6.45165 17.5C6.43886 17.5 6.42612 17.5 6.4134 17.5C6.40069 17.5 6.38801 17.5 6.37536 17.5C6.36271 17.5 6.3501 17.5 6.33753 17.5C6.32495 17.5 6.31241 17.5 6.2999 17.5C6.28739 17.5 6.27491 17.5 6.26247 17.5C6.25003 17.5 6.23763 17.5 6.22526 17.5C6.21289 17.5 6.20055 17.5 6.18824 17.5C6.17594 17.5 6.16367 17.5 6.15144 17.5C6.1392 17.5 6.127 17.5 6.11483 17.5C6.10267 17.5 6.09053 17.5 6.07843 17.5C6.06634 17.5 6.05427 17.5 6.04224 17.5C6.03021 17.5 6.01821 17.5 6.00625 17.5C5.99429 17.5 5.98236 17.5 5.97046 17.5C5.95857 17.5 5.94671 17.5 5.93488 17.5C5.92305 17.5 5.91126 17.5 5.8995 17.5C5.88774 17.5 5.87601 17.5 5.86432 17.5C5.85263 17.5 5.84097 17.5 5.82935 17.5C5.81772 17.5 5.80613 17.5 5.79458 17.5C5.78302 17.5 5.7715 17.5 5.76001 17.5C5.74852 17.5 5.73706 17.5 5.72564 17.5C5.71422 17.5 5.70283 17.5 5.69147 17.5C5.68012 17.5 5.6688 17.5 5.65751 17.5C5.64622 17.5 5.63497 17.5 5.62375 17.5C5.61253 17.5 5.60134 17.5 5.59019 17.5C5.57903 17.5 5.56791 17.5 5.55683 17.5C5.54574 17.5 5.53469 17.5 5.52367 17.5C5.51265 17.5 5.50166 17.5 5.49071 17.5C5.47975 17.5 5.46883 17.5 5.45795 17.5C5.44706 17.5 5.43621 17.5 5.42539 17.5C5.41457 17.5 5.40378 17.5 5.39303 17.5C5.38227 17.5 5.37155 17.5 5.36087 17.5C5.35018 17.5 5.33953 17.5 5.32891 17.5C5.31829 17.5 5.3077 17.5 5.29715 17.5C5.28659 17.5 5.27607 17.5 5.26558 17.5C5.2551 17.5 5.24464 17.5 5.23422 17.5C5.2238 17.5 5.21341 17.5 5.20305 17.5C5.1927 17.5 5.18238 17.5 5.17209 17.5C5.1618 17.5 5.15154 17.5 5.14132 17.5C5.13109 17.5 5.1209 17.5 5.11074 17.5C5.10059 17.5 5.09046 17.5 5.08037 17.5C5.07028 17.5 5.06022 17.5 5.05019 17.5C5.04017 17.5 5.03017 17.5 5.02021 17.5C5.01025 17.5 5.00032 17.5 4.99043 17.5C4.98053 17.5 4.97067 17.5 4.96084 17.5C4.95101 17.5 4.94121 17.5 4.93145 17.5C4.92168 17.5 4.91195 17.5 4.90225 17.5C4.89255 17.5 4.88289 17.5 4.87325 17.5C4.86362 17.5 4.85402 17.5 4.84445 17.5C4.83488 17.5 4.82535 17.5 4.81584 17.5C4.80634 17.5 4.79687 17.5 4.78743 17.5C4.77799 17.5 4.76858 17.5 4.75921 17.5C4.74984 17.5 4.7405 17.5 4.73119 17.5C4.72188 17.5 4.7126 17.5 4.70336 17.5C4.69411 17.5 4.6849 17.5 4.67572 17.5C4.66654 17.5 4.6574 17.5 4.64828 17.5C4.63917 17.5 4.63008 17.5 4.62103 17.5C4.61198 17.5 4.60297 17.5 4.59398 17.5C4.58499 17.5 4.57604 17.5 4.56712 17.5C4.5582 17.5 4.54931 17.5 4.54045 17.5C4.53159 17.5 4.52277 17.5 4.51398 17.5C4.50518 17.5 4.49642 17.5 4.48769 17.5C4.47897 17.5 4.47027 17.5 4.4616 17.5C4.45294 17.5 4.44431 17.5 4.43571 17.5C4.42711 17.5 4.41854 17.5 4.41 17.5C4.40146 17.5 4.39296 17.5 4.38449 17.5C4.37601 17.5 4.36757 17.5 4.35916 17.5C4.35075 17.5 4.34238 17.5 4.33403 17.5C4.32569 17.5 4.31737 17.5 4.30909 17.5C4.30081 17.5 4.29256 17.5 4.28434 17.5C4.27612 17.5 4.26793 17.5 4.25978 17.5C4.25162 17.5 4.2435 17.5 4.23541 17.5C4.22732 17.5 4.21926 17.5 4.21123 17.5C4.2032 17.5 4.19521 17.5 4.18724 17.5C4.17927 17.5 4.17134 17.5 4.16344 17.5C4.15554 17.5 4.14767 17.5 4.13983 17.5C4.13199 17.5 4.12418 17.5 4.11641 17.5C4.10863 17.5 4.10089 17.5 4.09317 17.5C4.08546 17.5 4.07778 17.5 4.07013 17.5C4.06248 17.5 4.05486 17.5 4.04727 17.5C4.03968 17.5 4.03213 17.5 4.0246 17.5C4.01708 17.5 4.00959 17.5 4.00212 17.5C3.99466 17.5 3.98723 17.5 3.97983 17.5C3.97243 17.5 3.96506 17.5 3.95773 17.5C3.95039 17.5 3.94308 17.5 3.93581 17.5C3.92853 17.5 3.92129 17.5 3.91408 17.5C3.90686 17.5 3.89968 17.5 3.89253 17.5C3.88538 17.5 3.87826 17.5 3.87117 17.5C3.86409 17.5 3.85703 17.5 3.85 17.5C3.84298 17.5 3.83598 17.5 3.82902 17.5C3.82205 17.5 3.81512 17.5 3.80822 17.5C3.80132 17.5 3.79444 17.5 3.7876 17.5C3.78076 17.5 3.77395 17.5 3.76718 17.5C3.7604 17.5 3.75365 17.5 3.74693 17.5C3.74021 17.5 3.73353 17.5 3.72687 17.5C3.72022 17.5 3.71359 17.5 3.707 17.5C3.7004 17.5 3.69384 17.5 3.68731 17.5C3.68078 17.5 3.67427 17.5 3.6678 17.5C3.66133 17.5 3.65489 17.5 3.64848 17.5C3.64207 17.5 3.63569 17.5 3.62934 17.5C3.623 17.5 3.61668 17.5 3.61039 17.5C3.6041 17.5 3.59785 17.5 3.59162 17.5C3.58539 17.5 3.5792 17.5 3.57303 17.5C3.56686 17.5 3.56073 17.5 3.55463 17.5C3.54852 17.5 3.54245 17.5 3.5364 17.5C3.53036 17.5 3.52435 17.5 3.51836 17.5C3.51238 17.5 3.50643 17.5 3.5005 17.5C3.49458 17.5 3.48869 17.5 3.48283 17.5C3.47697 17.5 3.47113 17.5 3.46533 17.5C3.45953 17.5 3.45376 17.5 3.44802 17.5C3.44228 17.5 3.43657 17.5 3.43089 17.5C3.42521 17.5 3.41956 17.5 3.41393 17.5C3.40831 17.5 3.40272 17.5 3.39716 17.5C3.3916 17.5 3.38607 17.5 3.38057 17.5C3.37507 17.5 3.3696 17.5 3.36416 17.5C3.35872 17.5 3.35331 17.5 3.34793 17.5C3.34255 17.5 3.3372 17.5 3.33188 17.5C3.32656 17.5 3.32127 17.5 3.31601 17.5C3.31075 17.5 3.30552 17.5 3.30032 17.5C3.29512 17.5 3.28995 17.5 3.28481 17.5C3.27967 17.5 3.27456 17.5 3.26948 17.5C3.26439 17.5 3.25934 17.5 3.25432 17.5C3.2493 17.5 3.24431 17.5 3.23934 17.5C3.23438 17.5 3.22945 17.5 3.22454 17.5C3.21964 17.5 3.21477 17.5 3.20992 17.5C3.20508 17.5 3.20027 17.5 3.19548 17.5C3.1907 17.5 3.18594 17.5 3.18122 17.5C3.17649 17.5 3.17179 17.5 3.16713 17.5C3.16246 17.5 3.15782 17.5 3.15322 17.5C3.14861 17.5 3.14403 17.5 3.13948 17.5C3.13493 17.5 3.13041 17.5 3.12592 17.5C3.12143 17.5 3.11697 17.5 3.11254 17.5C3.10811 17.5 3.10371 17.5 3.09934 17.5C3.09496 17.5 3.09062 17.5 3.08631 17.5C3.08199 17.5 3.07771 17.5 3.07345 17.5C3.0692 17.5 3.06497 17.5 3.06077 17.5C3.05658 17.5 3.05241 17.5 3.04827 17.5C3.04413 17.5 3.04002 17.5 3.03594 17.5C3.03186 17.5 3.02781 17.5 3.02379 17.5C3.01976 17.5 3.01577 17.5 3.01181 17.5C3.00784 17.5 3.00391 17.5 3 17.5L3 20.5C3.00391 20.5 3.00784 20.5 3.01181 20.5C3.01577 20.5 3.01976 20.5 3.02379 20.5C3.02781 20.5 3.03186 20.5 3.03594 20.5C3.04002 20.5 3.04413 20.5 3.04827 20.5C3.05241 20.5 3.05658 20.5 3.06077 20.5C3.06497 20.5 3.0692 20.5 3.07345 20.5C3.07771 20.5 3.08199 20.5 3.08631 20.5C3.09062 20.5 3.09496 20.5 3.09934 20.5C3.10371 20.5 3.10811 20.5 3.11254 20.5C3.11697 20.5 3.12143 20.5 3.12592 20.5C3.13041 20.5 3.13493 20.5 3.13948 20.5C3.14403 20.5 3.14861 20.5 3.15322 20.5C3.15782 20.5 3.16246 20.5 3.16713 20.5C3.17179 20.5 3.17649 20.5 3.18122 20.5C3.18594 20.5 3.1907 20.5 3.19548 20.5C3.20027 20.5 3.20508 20.5 3.20992 20.5C3.21477 20.5 3.21964 20.5 3.22454 20.5C3.22945 20.5 3.23438 20.5 3.23934 20.5C3.24431 20.5 3.2493 20.5 3.25432 20.5C3.25934 20.5 3.26439 20.5 3.26947 20.5C3.27456 20.5 3.27967 20.5 3.28481 20.5C3.28995 20.5 3.29512 20.5 3.30032 20.5C3.30552 20.5 3.31075 20.5 3.31601 20.5C3.32127 20.5 3.32656 20.5 3.33188 20.5C3.3372 20.5 3.34255 20.5 3.34793 20.5C3.35331 20.5 3.35872 20.5 3.36416 20.5C3.3696 20.5 3.37507 20.5 3.38057 20.5C3.38607 20.5 3.3916 20.5 3.39716 20.5C3.40272 20.5 3.40831 20.5 3.41393 20.5C3.41956 20.5 3.42521 20.5 3.43089 20.5C3.43657 20.5 3.44228 20.5 3.44802 20.5C3.45376 20.5 3.45953 20.5 3.46533 20.5C3.47113 20.5 3.47697 20.5 3.48283 20.5C3.48869 20.5 3.49458 20.5 3.5005 20.5C3.50643 20.5 3.51238 20.5 3.51836 20.5C3.52434 20.5 3.53036 20.5 3.5364 20.5C3.54245 20.5 3.54852 20.5 3.55463 20.5C3.56073 20.5 3.56686 20.5 3.57303 20.5C3.5792 20.5 3.58539 20.5 3.59162 20.5C3.59785 20.5 3.6041 20.5 3.61039 20.5C3.61668 20.5 3.623 20.5 3.62934 20.5C3.63569 20.5 3.64207 20.5 3.64848 20.5C3.65489 20.5 3.66133 20.5 3.6678 20.5C3.67427 20.5 3.68078 20.5 3.68731 20.5C3.69384 20.5 3.7004 20.5 3.707 20.5C3.71359 20.5 3.72022 20.5 3.72687 20.5C3.73353 20.5 3.74021 20.5 3.74693 20.5C3.75365 20.5 3.7604 20.5 3.76718 20.5C3.77395 20.5 3.78076 20.5 3.7876 20.5C3.79444 20.5 3.80132 20.5 3.80822 20.5C3.81512 20.5 3.82205 20.5 3.82902 20.5C3.83598 20.5 3.84298 20.5 3.85 20.5C3.85703 20.5 3.86409 20.5 3.87117 20.5C3.87826 20.5 3.88538 20.5 3.89253 20.5C3.89968 20.5 3.90686 20.5 3.91408 20.5C3.92129 20.5 3.92853 20.5 3.93581 20.5C3.94308 20.5 3.95039 20.5 3.95773 20.5C3.96506 20.5 3.97243 20.5 3.97983 20.5C3.98723 20.5 3.99466 20.5 4.00212 20.5C4.00959 20.5 4.01708 20.5 4.0246 20.5C4.03213 20.5 4.03968 20.5 4.04727 20.5C4.05486 20.5 4.06248 20.5 4.07013 20.5C4.07778 20.5 4.08546 20.5 4.09317 20.5C4.10089 20.5 4.10863 20.5 4.11641 20.5C4.12418 20.5 4.13199 20.5 4.13983 20.5C4.14767 20.5 4.15554 20.5 4.16344 20.5C4.17134 20.5 4.17927 20.5 4.18724 20.5C4.1952 20.5 4.2032 20.5 4.21123 20.5C4.21926 20.5 4.22732 20.5 4.23541 20.5C4.2435 20.5 4.25162 20.5 4.25978 20.5C4.26793 20.5 4.27612 20.5 4.28434 20.5C4.29256 20.5 4.30081 20.5 4.30909 20.5C4.31737 20.5 4.32569 20.5 4.33403 20.5C4.34238 20.5 4.35075 20.5 4.35916 20.5C4.36757 20.5 4.37601 20.5 4.38449 20.5C4.39296 20.5 4.40146 20.5 4.41 20.5C4.41854 20.5 4.42711 20.5 4.43571 20.5C4.44431 20.5 4.45294 20.5 4.4616 20.5C4.47027 20.5 4.47897 20.5 4.48769 20.5C4.49642 20.5 4.50518 20.5 4.51398 20.5C4.52277 20.5 4.53159 20.5 4.54045 20.5C4.54931 20.5 4.5582 20.5 4.56712 20.5C4.57604 20.5 4.58499 20.5 4.59398 20.5C4.60297 20.5 4.61198 20.5 4.62103 20.5C4.63008 20.5 4.63917 20.5 4.64828 20.5C4.6574 20.5 4.66654 20.5 4.67572 20.5C4.6849 20.5 4.69411 20.5 4.70336 20.5C4.7126 20.5 4.72188 20.5 4.73119 20.5C4.7405 20.5 4.74984 20.5 4.75921 20.5C4.76858 20.5 4.77799 20.5 4.78743 20.5C4.79687 20.5 4.80634 20.5 4.81584 20.5C4.82535 20.5 4.83488 20.5 4.84445 20.5C4.85402 20.5 4.86362 20.5 4.87325 20.5C4.88289 20.5 4.89255 20.5 4.90225 20.5C4.91195 20.5 4.92168 20.5 4.93145 20.5C4.94121 20.5 4.95101 20.5 4.96084 20.5C4.97067 20.5 4.98053 20.5 4.99043 20.5C5.00032 20.5 5.01025 20.5 5.02021 20.5C5.03017 20.5 5.04017 20.5 5.05019 20.5C5.06022 20.5 5.07028 20.5 5.08037 20.5C5.09046 20.5 5.10059 20.5 5.11074 20.5C5.1209 20.5 5.13109 20.5 5.14132 20.5C5.15154 20.5 5.1618 20.5 5.17209 20.5C5.18238 20.5 5.1927 20.5 5.20305 20.5C5.21341 20.5 5.2238 20.5 5.23422 20.5C5.24464 20.5 5.2551 20.5 5.26558 20.5C5.27607 20.5 5.28659 20.5 5.29715 20.5C5.3077 20.5 5.31829 20.5 5.32891 20.5C5.33953 20.5 5.35018 20.5 5.36087 20.5C5.37155 20.5 5.38227 20.5 5.39303 20.5C5.40378 20.5 5.41457 20.5 5.42539 20.5C5.43621 20.5 5.44706 20.5 5.45795 20.5C5.46883 20.5 5.47975 20.5 5.49071 20.5C5.50166 20.5 5.51265 20.5 5.52367 20.5C5.53469 20.5 5.54574 20.5 5.55683 20.5C5.56791 20.5 5.57903 20.5 5.59019 20.5C5.60134 20.5 5.61253 20.5 5.62375 20.5C5.63497 20.5 5.64622 20.5 5.65751 20.5C5.6688 20.5 5.68012 20.5 5.69147 20.5C5.70283 20.5 5.71422 20.5 5.72564 20.5C5.73706 20.5 5.74852 20.5 5.76001 20.5C5.7715 20.5 5.78302 20.5 5.79458 20.5C5.80613 20.5 5.81772 20.5 5.82935 20.5C5.84097 20.5 5.85263 20.5 5.86432 20.5C5.87601 20.5 5.88774 20.5 5.8995 20.5C5.91126 20.5 5.92305 20.5 5.93488 20.5C5.94671 20.5 5.95857 20.5 5.97046 20.5C5.98236 20.5 5.99429 20.5 6.00625 20.5C6.01821 20.5 6.03021 20.5 6.04224 20.5C6.05427 20.5 6.06634 20.5 6.07843 20.5C6.09053 20.5 6.10267 20.5 6.11483 20.5C6.127 20.5 6.1392 20.5 6.15144 20.5C6.16367 20.5 6.17594 20.5 6.18824 20.5C6.20055 20.5 6.21289 20.5 6.22526 20.5C6.23763 20.5 6.25003 20.5 6.26247 20.5C6.27491 20.5 6.28739 20.5 6.2999 20.5C6.31241 20.5 6.32495 20.5 6.33753 20.5C6.3501 20.5 6.36271 20.5 6.37536 20.5C6.38801 20.5 6.40069 20.5 6.4134 20.5C6.42612 20.5 6.43886 20.5 6.45165 20.5C6.46443 20.5 6.47725 20.5 6.4901 20.5C6.50295 20.5 6.51584 20.5 6.52876 20.5C6.54168 20.5 6.55464 20.5 6.56763 20.5C6.58062 20.5 6.59364 20.5 6.6067 20.5C6.61976 20.5 6.63285 20.5 6.64598 20.5C6.65911 20.5 6.67227 20.5 6.68547 20.5C6.69867 20.5 6.7119 20.5 6.72517 20.5C6.73844 20.5 6.75174 20.5 6.76507 20.5C6.77841 20.5 6.79178 20.5 6.80519 20.5C6.81859 20.5 6.83203 20.5 6.84551 20.5C6.85899 20.5 6.8725 20.5 6.88604 20.5C6.89959 20.5 6.91317 20.5 6.92678 20.5C6.9404 20.5 6.95405 20.5 6.96773 20.5C6.98141 20.5 6.99513 20.5 7.00889 20.5C7.02264 20.5 7.03643 20.5 7.05026 20.5C7.06408 20.5 7.07794 20.5 7.09184 20.5C7.10573 20.5 7.11966 20.5 7.13362 20.5C7.14759 20.5 7.16159 20.5 7.17562 20.5C7.18966 20.5 7.20373 20.5 7.21783 20.5C7.23194 20.5 7.24608 20.5 7.26025 20.5C7.27443 20.5 7.28864 20.5 7.30289 20.5C7.31713 20.5 7.33141 20.5 7.34573 20.5C7.36004 20.5 7.3744 20.5 7.38878 20.5C7.40317 20.5 7.41759 20.5 7.43205 20.5C7.44651 20.5 7.461 20.5 7.47553 20.5C7.49006 20.5 7.50462 20.5 7.51922 20.5C7.53382 20.5 7.54845 20.5 7.56312 20.5C7.57779 20.5 7.5925 20.5 7.60724 20.5C7.62198 20.5 7.63676 20.5 7.65157 20.5C7.66638 20.5 7.68123 20.5 7.69611 20.5C7.711 20.5 7.72591 20.5 7.74087 20.5C7.75582 20.5 7.77081 20.5 7.78584 20.5C7.80086 20.5 7.81592 20.5 7.83102 20.5C7.84612 20.5 7.86125 20.5 7.87642 20.5C7.89159 20.5 7.90679 20.5 7.92203 20.5C7.93727 20.5 7.95255 20.5 7.96786 20.5C7.98317 20.5 7.99852 20.5 8.0139 20.5C8.02928 20.5 8.0447 20.5 8.06016 20.5C8.07561 20.5 8.0911 20.5 8.10663 20.5C8.12216 20.5 8.13772 20.5 8.15332 20.5C8.16892 20.5 8.18455 20.5 8.20022 20.5C8.21589 20.5 8.2316 20.5 8.24734 20.5C8.26308 20.5 8.27886 20.5 8.29468 20.5C8.31049 20.5 8.32634 20.5 8.34223 20.5C8.35812 20.5 8.37404 20.5 8.39 20.5C8.40596 20.5 8.42195 20.5 8.43798 20.5C8.45402 20.5 8.47008 20.5 8.48619 20.5C8.50229 20.5 8.51843 20.5 8.53461 20.5C8.55078 20.5 8.567 20.5 8.58325 20.5C8.59949 20.5 8.61578 20.5 8.6321 20.5C8.64842 20.5 8.66478 20.5 8.68118 20.5C8.69757 20.5 8.714 20.5 8.73047 20.5C8.74694 20.5 8.76344 20.5 8.77998 20.5C8.79652 20.5 8.8131 20.5 8.82971 20.5C8.84632 20.5 8.86297 20.5 8.87966 20.5C8.89635 20.5 8.91307 20.5 8.92983 20.5C8.94659 20.5 8.96338 20.5 8.98022 20.5C8.99705 20.5 9.01392 20.5 9.03082 20.5C9.04773 20.5 9.06467 20.5 9.08165 20.5C9.09863 20.5 9.11565 20.5 9.1327 20.5C9.14975 20.5 9.16684 20.5 9.18397 20.5C9.20109 20.5 9.21826 20.5 9.23546 20.5C9.25265 20.5 9.26989 20.5 9.28716 20.5C9.30444 20.5 9.32175 20.5 9.3391 20.5C9.35644 20.5 9.37383 20.5 9.39125 20.5C9.40867 20.5 9.42613 20.5 9.44362 20.5C9.46112 20.5 9.47865 20.5 9.49622 20.5C9.51379 20.5 9.53139 20.5 9.54904 20.5C9.56668 20.5 9.58436 20.5 9.60208 20.5C9.61979 20.5 9.63755 20.5 9.65534 20.5C9.67313 20.5 9.69096 20.5 9.70882 20.5C9.72669 20.5 9.74459 20.5 9.76253 20.5C9.78047 20.5 9.79845 20.5 9.81646 20.5C9.83448 20.5 9.85253 20.5 9.87062 20.5C9.88871 20.5 9.90683 20.5 9.925 20.5C9.94316 20.5 9.96136 20.5 9.9796 20.5C9.99784 20.5 10.0161 20.5 10.0344 20.5C10.0527 20.5 10.0711 20.5 10.0895 20.5C10.1079 20.5 10.1263 20.5 10.1448 20.5C10.1632 20.5 10.1817 20.5 10.2003 20.5C10.2188 20.5 10.2374 20.5 10.256 20.5C10.2746 20.5 10.2932 20.5 10.3119 20.5C10.3306 20.5 10.3493 20.5 10.3681 20.5C10.3869 20.5 10.4057 20.5 10.4245 20.5C10.4433 20.5 10.4622 20.5 10.4811 20.5C10.5001 20.5 10.519 20.5 10.538 20.5C10.557 20.5 10.576 20.5 10.5951 20.5C10.6141 20.5 10.6332 20.5 10.6524 20.5C10.6715 20.5 10.6907 20.5 10.7099 20.5C10.7291 20.5 10.7484 20.5 10.7677 20.5C10.787 20.5 10.8063 20.5 10.8257 20.5C10.845 20.5 10.8644 20.5 10.8839 20.5C10.9033 20.5 10.9228 20.5 10.9423 20.5C10.9619 20.5 10.9814 20.5 11.001 20.5C11.0206 20.5 11.0402 20.5 11.0599 20.5C11.0796 20.5 11.0993 20.5 11.119 20.5C11.1388 20.5 11.1586 20.5 11.1784 20.5C11.1982 20.5 11.2181 20.5 11.238 20.5C11.2579 20.5 11.2778 20.5 11.2978 20.5C11.3178 20.5 11.3378 20.5 11.3578 20.5C11.3779 20.5 11.398 20.5 11.4181 20.5C11.4383 20.5 11.4584 20.5 11.4786 20.5C11.4988 20.5 11.5191 20.5 11.5394 20.5C11.5597 20.5 11.58 20.5 11.6003 20.5C11.6207 20.5 11.6411 20.5 11.6615 20.5C11.682 20.5 11.7024 20.5 11.723 20.5C11.7435 20.5 11.764 20.5 11.7846 20.5C11.8052 20.5 11.8258 20.5 11.8465 20.5C11.8672 20.5 11.8879 20.5 11.9086 20.5C11.9294 20.5 11.9502 20.5 11.971 20.5C11.9918 20.5 12.0127 20.5 12.0336 20.5C12.0545 20.5 12.0754 20.5 12.0964 20.5C12.1174 20.5 12.1384 20.5 12.1594 20.5C12.1805 20.5 12.2016 20.5 12.2227 20.5C12.2439 20.5 12.265 20.5 12.2862 20.5C12.3075 20.5 12.3287 20.5 12.35 20.5C12.3713 20.5 12.3926 20.5 12.414 20.5C12.4354 20.5 12.4568 20.5 12.4782 20.5C12.4996 20.5 12.5211 20.5 12.5427 20.5C12.5642 20.5 12.5857 20.5 12.6073 20.5C12.6289 20.5 12.6506 20.5 12.6723 20.5C12.6939 20.5 12.7157 20.5 12.7374 20.5C12.7592 20.5 12.781 20.5 12.8028 20.5C12.8246 20.5 12.8465 20.5 12.8684 20.5C12.8903 20.5 12.9123 20.5 12.9343 20.5C12.9563 20.5 12.9783 20.5 13.0004 20.5C13.0225 20.5 13.0446 20.5 13.0667 20.5C13.0889 20.5 13.1111 20.5 13.1333 20.5C13.1555 20.5 13.1778 20.5 13.2001 20.5C13.2224 20.5 13.2447 20.5 13.2671 20.5C13.2895 20.5 13.3119 20.5 13.3344 20.5C13.3569 20.5 13.3794 20.5 13.4019 20.5C13.4245 20.5 13.447 20.5 13.4697 20.5C13.4923 20.5 13.515 20.5 13.5377 20.5C13.5604 20.5 13.5831 20.5 13.6059 20.5C13.6287 20.5 13.6515 20.5 13.6743 20.5C13.6972 20.5 13.7201 20.5 13.743 20.5C13.766 20.5 13.789 20.5 13.812 20.5C13.835 20.5 13.8581 20.5 13.8812 20.5C13.9043 20.5 13.9274 20.5 13.9506 20.5C13.9738 20.5 13.997 20.5 14.0202 20.5C14.0435 20.5 14.0668 20.5 14.0901 20.5C14.1135 20.5 14.1369 20.5 14.1603 20.5C14.1837 20.5 14.2071 20.5 14.2306 20.5C14.2541 20.5 14.2777 20.5 14.3013 20.5C14.3248 20.5 14.3485 20.5 14.3721 20.5C14.3958 20.5 14.4195 20.5 14.4432 20.5C14.467 20.5 14.4907 20.5 14.5146 20.5C14.5384 20.5 14.5622 20.5 14.5861 20.5C14.61 20.5 14.634 20.5 14.6579 20.5C14.6819 20.5 14.7059 20.5 14.73 20.5C14.7541 20.5 14.7782 20.5 14.8023 20.5C14.8264 20.5 14.8506 20.5 14.8749 20.5C14.8991 20.5 14.9233 20.5 14.9476 20.5C14.9719 20.5 14.9963 20.5 15.0207 20.5C15.045 20.5 15.0695 20.5 15.0939 20.5C15.1184 20.5 15.1429 20.5 15.1674 20.5C15.192 20.5 15.2166 20.5 15.2412 20.5C15.2658 20.5 15.2905 20.5 15.3152 20.5C15.3399 20.5 15.3647 20.5 15.3894 20.5C15.4142 20.5 15.4391 20.5 15.4639 20.5C15.4888 20.5 15.5137 20.5 15.5387 20.5C15.5636 20.5 15.5886 20.5 15.6136 20.5C15.6387 20.5 15.6637 20.5 15.6889 20.5C15.714 20.5 15.7391 20.5 15.7643 20.5C15.7895 20.5 15.8147 20.5 15.84 20.5C15.8653 20.5 15.8906 20.5 15.916 20.5C15.9413 20.5 15.9667 20.5 15.9922 20.5C16.0176 20.5 16.0431 20.5 16.0686 20.5C16.0941 20.5 16.1197 20.5 16.1453 20.5C16.1709 20.5 16.1966 20.5 16.2222 20.5C16.2479 20.5 16.2737 20.5 16.2994 20.5C16.3252 20.5 16.351 20.5 16.3769 20.5C16.4027 20.5 16.4286 20.5 16.4545 20.5C16.4805 20.5 16.5064 20.5 16.5325 20.5C16.5585 20.5 16.5845 20.5 16.6106 20.5C16.6367 20.5 16.6629 20.5 16.689 20.5C16.7152 20.5 16.7414 20.5 16.7677 20.5C16.794 20.5 16.8203 20.5 16.8466 20.5C16.873 20.5 16.8994 20.5 16.9258 20.5C16.9522 20.5 16.9787 20.5 17.0052 20.5C17.0317 20.5 17.0583 20.5 17.0848 20.5C17.1114 20.5 17.1381 20.5 17.1648 20.5C17.1914 20.5 17.2181 20.5 17.2449 20.5C17.2717 20.5 17.2985 20.5 17.3253 20.5C17.3522 20.5 17.379 20.5 17.406 20.5C17.4329 20.5 17.4599 20.5 17.4869 20.5C17.5139 20.5 17.5409 20.5 17.568 20.5C17.5951 20.5 17.6223 20.5 17.6494 20.5C17.6766 20.5 17.7038 20.5 17.7311 20.5C17.7583 20.5 17.7856 20.5 17.813 20.5C17.8403 20.5 17.8677 20.5 17.8951 20.5C17.9226 20.5 17.95 20.5 17.9776 20.5C18.0051 20.5 18.0326 20.5 18.0602 20.5C18.0878 20.5 18.1154 20.5 18.1431 20.5C18.1708 20.5 18.1985 20.5 18.2263 20.5C18.254 20.5 18.2818 20.5 18.3097 20.5C18.3375 20.5 18.3654 20.5 18.3934 20.5C18.4213 20.5 18.4493 20.5 18.4773 20.5C18.5053 20.5 18.5334 20.5 18.5615 20.5C18.5896 20.5 18.6177 20.5 18.6459 20.5C18.6741 20.5 18.7023 20.5 18.7306 20.5C18.7588 20.5 18.7871 20.5 18.8155 20.5C18.8438 20.5 18.8722 20.5 18.9007 20.5C18.9291 20.5 18.9576 20.5 18.9861 20.5C19.0146 20.5 19.0432 20.5 19.0718 20.5C19.1004 20.5 19.1291 20.5 19.1577 20.5C19.1864 20.5 19.2152 20.5 19.2439 20.5C19.2727 20.5 19.3015 20.5 19.3304 20.5C19.3593 20.5 19.3882 20.5 19.4171 20.5C19.4461 20.5 19.4751 20.5 19.5041 20.5C19.5331 20.5 19.5622 20.5 19.5913 20.5C19.6204 20.5 19.6496 20.5 19.6788 20.5C19.708 20.5 19.7372 20.5 19.7665 20.5C19.7958 20.5 19.8251 20.5 19.8545 20.5C19.8839 20.5 19.9133 20.5 19.9428 20.5C19.9722 20.5 20.0017 20.5 20.0313 20.5C20.0608 20.5 20.0904 20.5 20.12 20.5C20.1497 20.5 20.1793 20.5 20.209 20.5C20.2388 20.5 20.2685 20.5 20.2983 20.5C20.3281 20.5 20.358 20.5 20.3878 20.5C20.4177 20.5 20.4477 20.5 20.4776 20.5C20.5076 20.5 20.5376 20.5 20.5677 20.5C20.5977 20.5 20.6279 20.5 20.658 20.5C20.6881 20.5 20.7183 20.5 20.7486 20.5C20.7788 20.5 20.8091 20.5 20.8394 20.5C20.8697 20.5 20.9001 20.5 20.9305 20.5C20.9609 20.5 20.9913 20.5 21.0218 20.5C21.0523 20.5 21.0828 20.5 21.1134 20.5C21.144 20.5 21.1746 20.5 21.2053 20.5C21.2359 20.5 21.2666 20.5 21.2974 20.5C21.3282 20.5 21.3589 20.5 21.3898 20.5C21.4206 20.5 21.4515 20.5 21.4824 20.5C21.5133 20.5 21.5443 20.5 21.5753 20.5C21.6063 20.5 21.6374 20.5 21.6685 20.5C21.6996 20.5 21.7307 20.5 21.7619 20.5C21.7931 20.5 21.8243 20.5 21.8556 20.5C21.8869 20.5 21.9182 20.5 21.9496 20.5C21.9809 20.5 22.0123 20.5 22.0438 20.5C22.0752 20.5 22.1067 20.5 22.1382 20.5C22.1698 20.5 22.2013 20.5 22.233 20.5C22.2646 20.5 22.2963 20.5 22.328 20.5C22.3597 20.5 22.3914 20.5 22.4232 20.5C22.455 20.5 22.4869 20.5 22.5187 20.5C22.5506 20.5 22.5826 20.5 22.6145 20.5C22.6465 20.5 22.6785 20.5 22.7106 20.5C22.7426 20.5 22.7747 20.5 22.8069 20.5C22.839 20.5 22.8712 20.5 22.9035 20.5C22.9357 20.5 22.968 20.5 23.0003 20.5C23.0326 20.5 23.065 20.5 23.0974 20.5C23.1298 20.5 23.1623 20.5 23.1948 20.5C23.2273 20.5 23.2598 20.5 23.2924 20.5C23.325 20.5 23.3576 20.5 23.3903 20.5C23.423 20.5 23.4557 20.5 23.4885 20.5C23.5213 20.5 23.5541 20.5 23.5869 20.5C23.6198 20.5 23.6527 20.5 23.6856 20.5C23.7186 20.5 23.7516 20.5 23.7846 20.5C23.8176 20.5 23.8507 20.5 23.8838 20.5C23.9169 20.5 23.9501 20.5 23.9833 20.5C24.0165 20.5 24.0498 20.5 24.0831 20.5C24.1164 20.5 24.1497 20.5 24.1831 20.5C24.2165 20.5 24.2499 20.5 24.2834 20.5C24.3169 20.5 24.3504 20.5 24.384 20.5C24.4175 20.5 24.4511 20.5 24.4848 20.5C24.5184 20.5 24.5521 20.5 24.5859 20.5C24.6196 20.5 24.6534 20.5 24.6873 20.5C24.7211 20.5 24.755 20.5 24.7889 20.5C24.8228 20.5 24.8568 20.5 24.8908 20.5C24.9248 20.5 24.9589 20.5 24.993 20.5C25.0271 20.5 25.0612 20.5 25.0954 20.5C25.1296 20.5 25.1638 20.5 25.1981 20.5C25.2324 20.5 25.2667 20.5 25.3011 20.5C25.3355 20.5 25.3699 20.5 25.4044 20.5C25.4388 20.5 25.4733 20.5 25.5079 20.5C25.5424 20.5 25.577 20.5 25.6117 20.5C25.6463 20.5 25.681 20.5 25.7157 20.5C25.7505 20.5 25.7852 20.5 25.8201 20.5C25.8549 20.5 25.8897 20.5 25.9247 20.5C25.9596 20.5 25.9945 20.5 26.0295 20.5C26.0645 20.5 26.0996 20.5 26.1347 20.5C26.1698 20.5 26.2049 20.5 26.2401 20.5C26.2753 20.5 26.3105 20.5 26.3458 20.5C26.3811 20.5 26.4164 20.5 26.4517 20.5C26.4871 20.5 26.5225 20.5 26.558 20.5C26.5934 20.5 26.6289 20.5 26.6645 20.5C26.7 20.5 26.7356 20.5 26.7713 20.5C26.8069 20.5 26.8426 20.5 26.8783 20.5C26.914 20.5 26.9498 20.5 26.9856 20.5C27.0215 20.5 27.0573 20.5 27.0932 20.5C27.1291 20.5 27.1651 20.5 27.2011 20.5C27.2371 20.5 27.2731 20.5 27.3092 20.5C27.3453 20.5 27.3815 20.5 27.4177 20.5C27.4538 20.5 27.4901 20.5 27.5264 20.5C27.5626 20.5 27.599 20.5 27.6353 20.5C27.6717 20.5 27.7081 20.5 27.7446 20.5C27.781 20.5 27.8175 20.5 27.8541 20.5C27.8906 20.5 27.9272 20.5 27.9639 20.5C28.0005 20.5 28.0372 20.5 28.0739 20.5C28.1107 20.5 28.1475 20.5 28.1843 20.5C28.2211 20.5 28.258 20.5 28.2949 20.5C28.3318 20.5 28.3688 20.5 28.4058 20.5C28.4428 20.5 28.4799 20.5 28.517 20.5C28.5541 20.5 28.5912 20.5 28.6284 20.5C28.6656 20.5 28.7029 20.5 28.7402 20.5C28.7775 20.5 28.8148 20.5 28.8522 20.5C28.8895 20.5 28.927 20.5 28.9644 20.5C29.0019 20.5 29.0394 20.5 29.077 20.5C29.1146 20.5 29.1522 20.5 29.1898 20.5C29.2275 20.5 29.2652 20.5 29.303 20.5C29.3407 20.5 29.3785 20.5 29.4164 20.5C29.4542 20.5 29.4921 20.5 29.53 20.5C29.568 20.5 29.6059 20.5 29.644 20.5C29.682 20.5 29.7201 20.5 29.7582 20.5C29.7963 20.5 29.8345 20.5 29.8727 20.5C29.9109 20.5 29.9492 20.5 29.9875 20.5C30.0258 20.5 30.0642 20.5 30.1026 20.5C30.141 20.5 30.1794 20.5 30.2179 20.5C30.2564 20.5 30.295 20.5 30.3335 20.5C30.3721 20.5 30.4108 20.5 30.4495 20.5C30.4881 20.5 30.5269 20.5 30.5656 20.5C30.6044 20.5 30.6432 20.5 30.6821 20.5C30.721 20.5 30.7599 20.5 30.7989 20.5C30.8378 20.5 30.8768 20.5 30.9159 20.5C30.955 20.5 30.9941 20.5 31.0332 20.5C31.0724 20.5 31.1116 20.5 31.1508 20.5C31.1901 20.5 31.2293 20.5 31.2687 20.5C31.308 20.5 31.3474 20.5 31.3869 20.5C31.4263 20.5 31.4658 20.5 31.5053 20.5C31.5448 20.5 31.5844 20.5 31.624 20.5C31.6636 20.5 31.7033 20.5 31.743 20.5C31.7827 20.5 31.8225 20.5 31.8623 20.5C31.9021 20.5 31.942 20.5 31.9819 20.5C32.0218 20.5 32.0618 20.5 32.1018 20.5C32.1418 20.5 32.1818 20.5 32.2219 20.5C32.262 20.5 32.3021 20.5 32.3423 20.5C32.3825 20.5 32.4228 20.5 32.463 20.5C32.5033 20.5 32.5437 20.5 32.584 20.5C32.6244 20.5 32.6648 20.5 32.7053 20.5C32.7458 20.5 32.7863 20.5 32.8269 20.5C32.8674 20.5 32.9081 20.5 32.9487 20.5C32.9894 20.5 33.0301 20.5 33.0709 20.5C33.1116 20.5 33.1524 20.5 33.1933 20.5C33.2341 20.5 33.275 20.5 33.316 20.5C33.3569 20.5 33.3979 20.5 33.439 20.5C33.48 20.5 33.5211 20.5 33.5623 20.5C33.6034 20.5 33.6446 20.5 33.6858 20.5C33.7271 20.5 33.7684 20.5 33.8097 20.5C33.851 20.5 33.8924 20.5 33.9338 20.5C33.9753 20.5 34.0167 20.5 34.0583 20.5C34.0998 20.5 34.1414 20.5 34.183 20.5C34.2246 20.5 34.2663 20.5 34.308 20.5C34.3497 20.5 34.3915 20.5 34.4333 20.5C34.4751 20.5 34.517 20.5 34.5589 20.5C34.6008 20.5 34.6427 20.5 34.6847 20.5C34.7267 20.5 34.7688 20.5 34.8109 20.5C34.853 20.5 34.8951 20.5 34.9373 20.5C34.9795 20.5 35.0218 20.5 35.0641 20.5C35.1064 20.5 35.1487 20.5 35.1911 20.5C35.2335 20.5 35.2759 20.5 35.3184 20.5C35.3609 20.5 35.4034 20.5 35.446 20.5C35.4886 20.5 35.5312 20.5 35.5739 20.5C35.6166 20.5 35.6593 20.5 35.7021 20.5C35.7449 20.5 35.7877 20.5 35.8306 20.5C35.8735 20.5 35.9164 20.5 35.9594 20.5C36.0023 20.5 36.0453 20.5 36.0884 20.5C36.1315 20.5 36.1746 20.5 36.2178 20.5C36.2609 20.5 36.3041 20.5 36.3474 20.5C36.3907 20.5 36.434 20.5 36.4773 20.5C36.5207 20.5 36.5641 20.5 36.6076 20.5C36.651 20.5 36.6945 20.5 36.7381 20.5C36.7816 20.5 36.8252 20.5 36.8689 20.5C36.9125 20.5 36.9562 20.5 37 20.5L37 17.5Z" fill="#152C5B"/>
<path d="M19 32.5C19.8284 32.5 20.5 31.8284 20.5 31C20.5 30.1716 19.8284 29.5 19 29.5L19 32.5ZM11 29.5C10.1716 29.5 9.5 30.1716 9.5 31C9.5 31.8284 10.1716 32.5 11 32.5L11 29.5ZM19 29.5C15 29.5 11.4706 29.5 11 29.5L11 32.5C11.4706 32.5 15 32.5 19 32.5L19 29.5Z" fill="#FF498B"/>
</svg>
