<svg width="48" height="48" viewBox="0 0 48 48" fill="none" xmlns="http://www.w3.org/2000/svg">
<path d="M30.5 40.5C30.5 41.6457 29.4516 43.1445 26.6771 44.4451C24.0221 45.6896 20.2488 46.5 16 46.5C11.7512 46.5 7.97793 45.6896 5.32294 44.4451C2.54839 43.1445 1.5 41.6457 1.5 40.5C1.5 39.3543 2.54839 37.8555 5.32294 36.5549C7.97793 35.3104 11.7512 34.5 16 34.5C20.2488 34.5 24.0221 35.3104 26.6771 36.5549C29.4516 37.8555 30.5 39.3543 30.5 40.5Z" stroke="#152C5B" stroke-width="3"/>
<path d="M27.5 13.5C27.5 16.4145 26.2396 23.1045 23.9951 29.0875C22.8771 32.0677 21.5544 34.7625 20.0979 36.6835C18.6043 38.6536 17.2138 39.5 16 39.5C14.7862 39.5 13.3957 38.6536 11.9021 36.6835C10.4456 34.7625 9.12294 32.0677 8.00493 29.0875C5.76038 23.1045 4.5 16.4145 4.5 13.5C4.5 7.84205 9.26681 1.5 16 1.5C22.7332 1.5 27.5 7.84205 27.5 13.5Z" fill="white" stroke="#152C5B" stroke-width="3"/>
<circle cx="16" cy="14" r="4.5" stroke="#FF498B" stroke-width="3"/>
</svg>
