<svg width="48" height="48" viewBox="0 0 48 48" fill="none" xmlns="http://www.w3.org/2000/svg">
<path d="M6.83489 19.7859C7.27581 18.9922 8.11236 18.5 9.02028 18.5H38.9797C39.8876 18.5 40.7242 18.9922 41.1651 19.7859L43.3873 23.7859C44.3131 25.4522 43.1082 27.5 41.2019 27.5H6.79806C4.89185 27.5 3.68693 25.4522 4.61266 23.7859L6.83489 19.7859Z" stroke="#152C5B" stroke-width="3"/>
<path d="M13.5 17C13.5 17.8284 14.1716 18.5 15 18.5C15.8284 18.5 16.5 17.8284 16.5 17H13.5ZM16.5 11C16.5 10.1716 15.8284 9.5 15 9.5C14.1716 9.5 13.5 10.1716 13.5 11H16.5ZM16.5 17C16.5 16.9923 16.5 16.9846 16.5 16.9769C16.5 16.9692 16.5 16.9615 16.5 16.9538C16.5 16.9461 16.5 16.9384 16.5 16.9307C16.5 16.9231 16.5 16.9154 16.5 16.9078C16.5 16.9001 16.5 16.8925 16.5 16.8848C16.5 16.8772 16.5 16.8696 16.5 16.862C16.5 16.8543 16.5 16.8467 16.5 16.8391C16.5 16.8315 16.5 16.8239 16.5 16.8164C16.5 16.8088 16.5 16.8012 16.5 16.7936C16.5 16.7861 16.5 16.7785 16.5 16.771C16.5 16.7634 16.5 16.7559 16.5 16.7483C16.5 16.7408 16.5 16.7333 16.5 16.7258C16.5 16.7183 16.5 16.7107 16.5 16.7033C16.5 16.6958 16.5 16.6883 16.5 16.6808C16.5 16.6733 16.5 16.6658 16.5 16.6584C16.5 16.6509 16.5 16.6434 16.5 16.636C16.5 16.6286 16.5 16.6211 16.5 16.6137C16.5 16.6063 16.5 16.5988 16.5 16.5914C16.5 16.584 16.5 16.5766 16.5 16.5692C16.5 16.5618 16.5 16.5544 16.5 16.547C16.5 16.5397 16.5 16.5323 16.5 16.5249C16.5 16.5176 16.5 16.5102 16.5 16.5029C16.5 16.4955 16.5 16.4882 16.5 16.4809C16.5 16.4735 16.5 16.4662 16.5 16.4589C16.5 16.4516 16.5 16.4443 16.5 16.437C16.5 16.4297 16.5 16.4224 16.5 16.4151C16.5 16.4079 16.5 16.4006 16.5 16.3933C16.5 16.3861 16.5 16.3788 16.5 16.3716C16.5 16.3643 16.5 16.3571 16.5 16.3499C16.5 16.3427 16.5 16.3354 16.5 16.3282C16.5 16.321 16.5 16.3138 16.5 16.3066C16.5 16.2994 16.5 16.2922 16.5 16.2851C16.5 16.2779 16.5 16.2707 16.5 16.2636C16.5 16.2564 16.5 16.2493 16.5 16.2421C16.5 16.235 16.5 16.2278 16.5 16.2207C16.5 16.2136 16.5 16.2065 16.5 16.1994C16.5 16.1923 16.5 16.1851 16.5 16.1781C16.5 16.171 16.5 16.1639 16.5 16.1568C16.5 16.1497 16.5 16.1427 16.5 16.1356C16.5 16.1285 16.5 16.1215 16.5 16.1145C16.5 16.1074 16.5 16.1004 16.5 16.0934C16.5 16.0863 16.5 16.0793 16.5 16.0723C16.5 16.0653 16.5 16.0583 16.5 16.0513C16.5 16.0443 16.5 16.0373 16.5 16.0303C16.5 16.0234 16.5 16.0164 16.5 16.0094C16.5 16.0025 16.5 15.9955 16.5 15.9886C16.5 15.9816 16.5 15.9747 16.5 15.9678C16.5 15.9609 16.5 15.9539 16.5 15.947C16.5 15.9401 16.5 15.9332 16.5 15.9263C16.5 15.9194 16.5 15.9126 16.5 15.9057C16.5 15.8988 16.5 15.8919 16.5 15.8851C16.5 15.8782 16.5 15.8714 16.5 15.8645C16.5 15.8577 16.5 15.8508 16.5 15.844C16.5 15.8372 16.5 15.8304 16.5 15.8236C16.5 15.8168 16.5 15.81 16.5 15.8032C16.5 15.7964 16.5 15.7896 16.5 15.7828C16.5 15.776 16.5 15.7693 16.5 15.7625C16.5 15.7557 16.5 15.749 16.5 15.7422C16.5 15.7355 16.5 15.7288 16.5 15.722C16.5 15.7153 16.5 15.7086 16.5 15.7019C16.5 15.6952 16.5 15.6885 16.5 15.6818C16.5 15.6751 16.5 15.6684 16.5 15.6617C16.5 15.655 16.5 15.6484 16.5 15.6417C16.5 15.635 16.5 15.6284 16.5 15.6217C16.5 15.6151 16.5 15.6085 16.5 15.6018C16.5 15.5952 16.5 15.5886 16.5 15.582C16.5 15.5753 16.5 15.5687 16.5 15.5621C16.5 15.5556 16.5 15.549 16.5 15.5424C16.5 15.5358 16.5 15.5292 16.5 15.5227C16.5 15.5161 16.5 15.5095 16.5 15.503C16.5 15.4964 16.5 15.4899 16.5 15.4834C16.5 15.4768 16.5 15.4703 16.5 15.4638C16.5 15.4573 16.5 15.4508 16.5 15.4443C16.5 15.4378 16.5 15.4313 16.5 15.4248C16.5 15.4183 16.5 15.4119 16.5 15.4054C16.5 15.3989 16.5 15.3925 16.5 15.386C16.5 15.3796 16.5 15.3731 16.5 15.3667C16.5 15.3603 16.5 15.3538 16.5 15.3474C16.5 15.341 16.5 15.3346 16.5 15.3282C16.5 15.3218 16.5 15.3154 16.5 15.309C16.5 15.3026 16.5 15.2962 16.5 15.2899C16.5 15.2835 16.5 15.2771 16.5 15.2708C16.5 15.2644 16.5 15.2581 16.5 15.2517C16.5 15.2454 16.5 15.2391 16.5 15.2328C16.5 15.2264 16.5 15.2201 16.5 15.2138C16.5 15.2075 16.5 15.2012 16.5 15.1949C16.5 15.1886 16.5 15.1824 16.5 15.1761C16.5 15.1698 16.5 15.1635 16.5 15.1573C16.5 15.151 16.5 15.1448 16.5 15.1385C16.5 15.1323 16.5 15.1261 16.5 15.1198C16.5 15.1136 16.5 15.1074 16.5 15.1012C16.5 15.095 16.5 15.0888 16.5 15.0826C16.5 15.0764 16.5 15.0702 16.5 15.064C16.5 15.0579 16.5 15.0517 16.5 15.0455C16.5 15.0394 16.5 15.0332 16.5 15.0271C16.5 15.0209 16.5 15.0148 16.5 15.0087C16.5 15.0025 16.5 14.9964 16.5 14.9903C16.5 14.9842 16.5 14.9781 16.5 14.972C16.5 14.9659 16.5 14.9598 16.5 14.9537C16.5 14.9476 16.5 14.9416 16.5 14.9355C16.5 14.9294 16.5 14.9234 16.5 14.9173C16.5 14.9113 16.5 14.9052 16.5 14.8992C16.5 14.8932 16.5 14.8871 16.5 14.8811C16.5 14.8751 16.5 14.8691 16.5 14.8631C16.5 14.8571 16.5 14.8511 16.5 14.8451C16.5 14.8391 16.5 14.8331 16.5 14.8272C16.5 14.8212 16.5 14.8152 16.5 14.8093C16.5 14.8033 16.5 14.7974 16.5 14.7914C16.5 14.7855 16.5 14.7796 16.5 14.7736C16.5 14.7677 16.5 14.7618 16.5 14.7559C16.5 14.75 16.5 14.7441 16.5 14.7382C16.5 14.7323 16.5 14.7264 16.5 14.7205C16.5 14.7147 16.5 14.7088 16.5 14.7029C16.5 14.6971 16.5 14.6912 16.5 14.6854C16.5 14.6795 16.5 14.6737 16.5 14.6679C16.5 14.662 16.5 14.6562 16.5 14.6504C16.5 14.6446 16.5 14.6388 16.5 14.633C16.5 14.6272 16.5 14.6214 16.5 14.6156C16.5 14.6098 16.5 14.6041 16.5 14.5983C16.5 14.5925 16.5 14.5868 16.5 14.581C16.5 14.5753 16.5 14.5695 16.5 14.5638C16.5 14.5581 16.5 14.5523 16.5 14.5466C16.5 14.5409 16.5 14.5352 16.5 14.5295C16.5 14.5238 16.5 14.5181 16.5 14.5124C16.5 14.5067 16.5 14.501 16.5 14.4953C16.5 14.4897 16.5 14.484 16.5 14.4783C16.5 14.4727 16.5 14.467 16.5 14.4614C16.5 14.4557 16.5 14.4501 16.5 14.4445C16.5 14.4389 16.5 14.4332 16.5 14.4276C16.5 14.422 16.5 14.4164 16.5 14.4108C16.5 14.4052 16.5 14.3996 16.5 14.3941C16.5 14.3885 16.5 14.3829 16.5 14.3773C16.5 14.3718 16.5 14.3662 16.5 14.3607C16.5 14.3551 16.5 14.3496 16.5 14.344C16.5 14.3385 16.5 14.333 16.5 14.3275C16.5 14.3219 16.5 14.3164 16.5 14.3109C16.5 14.3054 16.5 14.2999 16.5 14.2944C16.5 14.289 16.5 14.2835 16.5 14.278C16.5 14.2725 16.5 14.2671 16.5 14.2616C16.5 14.2561 16.5 14.2507 16.5 14.2453C16.5 14.2398 16.5 14.2344 16.5 14.229C16.5 14.2235 16.5 14.2181 16.5 14.2127C16.5 14.2073 16.5 14.2019 16.5 14.1965C16.5 14.1911 16.5 14.1857 16.5 14.1803C16.5 14.1749 16.5 14.1696 16.5 14.1642C16.5 14.1588 16.5 14.1535 16.5 14.1481C16.5 14.1428 16.5 14.1374 16.5 14.1321C16.5 14.1268 16.5 14.1214 16.5 14.1161C16.5 14.1108 16.5 14.1055 16.5 14.1002C16.5 14.0949 16.5 14.0896 16.5 14.0843C16.5 14.079 16.5 14.0737 16.5 14.0684C16.5 14.0632 16.5 14.0579 16.5 14.0526C16.5 14.0474 16.5 14.0421 16.5 14.0369C16.5 14.0316 16.5 14.0264 16.5 14.0212C16.5 14.016 16.5 14.0107 16.5 14.0055C16.5 14.0003 16.5 13.9951 16.5 13.9899C16.5 13.9847 16.5 13.9795 16.5 13.9743C16.5 13.9691 16.5 13.964 16.5 13.9588C16.5 13.9536 16.5 13.9485 16.5 13.9433C16.5 13.9382 16.5 13.933 16.5 13.9279C16.5 13.9227 16.5 13.9176 16.5 13.9125C16.5 13.9074 16.5 13.9022 16.5 13.8971C16.5 13.892 16.5 13.8869 16.5 13.8818C16.5 13.8767 16.5 13.8717 16.5 13.8666C16.5 13.8615 16.5 13.8564 16.5 13.8514C16.5 13.8463 16.5 13.8412 16.5 13.8362C16.5 13.8312 16.5 13.8261 16.5 13.8211C16.5 13.816 16.5 13.811 16.5 13.806C16.5 13.801 16.5 13.796 16.5 13.791C16.5 13.786 16.5 13.781 16.5 13.776C16.5 13.771 16.5 13.766 16.5 13.761C16.5 13.7561 16.5 13.7511 16.5 13.7461C16.5 13.7412 16.5 13.7362 16.5 13.7313C16.5 13.7263 16.5 13.7214 16.5 13.7165C16.5 13.7115 16.5 13.7066 16.5 13.7017C16.5 13.6968 16.5 13.6919 16.5 13.687C16.5 13.6821 16.5 13.6772 16.5 13.6723C16.5 13.6674 16.5 13.6626 16.5 13.6577C16.5 13.6528 16.5 13.648 16.5 13.6431C16.5 13.6382 16.5 13.6334 16.5 13.6286C16.5 13.6237 16.5 13.6189 16.5 13.6141C16.5 13.6092 16.5 13.6044 16.5 13.5996C16.5 13.5948 16.5 13.59 16.5 13.5852C16.5 13.5804 16.5 13.5756 16.5 13.5708C16.5 13.566 16.5 13.5613 16.5 13.5565C16.5 13.5517 16.5 13.547 16.5 13.5422C16.5 13.5375 16.5 13.5327 16.5 13.528C16.5 13.5233 16.5 13.5185 16.5 13.5138C16.5 13.5091 16.5 13.5044 16.5 13.4997C16.5 13.495 16.5 13.4903 16.5 13.4856C16.5 13.4809 16.5 13.4762 16.5 13.4715C16.5 13.4668 16.5 13.4622 16.5 13.4575C16.5 13.4528 16.5 13.4482 16.5 13.4435C16.5 13.4389 16.5 13.4342 16.5 13.4296C16.5 13.425 16.5 13.4203 16.5 13.4157C16.5 13.4111 16.5 13.4065 16.5 13.4019C16.5 13.3973 16.5 13.3927 16.5 13.3881C16.5 13.3835 16.5 13.3789 16.5 13.3743C16.5 13.3698 16.5 13.3652 16.5 13.3606C16.5 13.3561 16.5 13.3515 16.5 13.347C16.5 13.3424 16.5 13.3379 16.5 13.3333C16.5 13.3288 16.5 13.3243 16.5 13.3198C16.5 13.3152 16.5 13.3107 16.5 13.3062C16.5 13.3017 16.5 13.2972 16.5 13.2927C16.5 13.2882 16.5 13.2838 16.5 13.2793C16.5 13.2748 16.5 13.2703 16.5 13.2659C16.5 13.2614 16.5 13.257 16.5 13.2525C16.5 13.2481 16.5 13.2436 16.5 13.2392C16.5 13.2348 16.5 13.2304 16.5 13.2259C16.5 13.2215 16.5 13.2171 16.5 13.2127C16.5 13.2083 16.5 13.2039 16.5 13.1995C16.5 13.1951 16.5 13.1907 16.5 13.1864C16.5 13.182 16.5 13.1776 16.5 13.1733C16.5 13.1689 16.5 13.1646 16.5 13.1602C16.5 13.1559 16.5 13.1515 16.5 13.1472C16.5 13.1429 16.5 13.1385 16.5 13.1342C16.5 13.1299 16.5 13.1256 16.5 13.1213C16.5 13.117 16.5 13.1127 16.5 13.1084C16.5 13.1041 16.5 13.0998 16.5 13.0956C16.5 13.0913 16.5 13.087 16.5 13.0828C16.5 13.0785 16.5 13.0742 16.5 13.07C16.5 13.0658 16.5 13.0615 16.5 13.0573C16.5 13.0531 16.5 13.0488 16.5 13.0446C16.5 13.0404 16.5 13.0362 16.5 13.032C16.5 13.0278 16.5 13.0236 16.5 13.0194C16.5 13.0152 16.5 13.011 16.5 13.0068C16.5 13.0027 16.5 12.9985 16.5 12.9943C16.5 12.9902 16.5 12.986 16.5 12.9819C16.5 12.9777 16.5 12.9736 16.5 12.9695C16.5 12.9653 16.5 12.9612 16.5 12.9571C16.5 12.953 16.5 12.9489 16.5 12.9447C16.5 12.9406 16.5 12.9365 16.5 12.9325C16.5 12.9284 16.5 12.9243 16.5 12.9202C16.5 12.9161 16.5 12.9121 16.5 12.908C16.5 12.9039 16.5 12.8999 16.5 12.8958C16.5 12.8918 16.5 12.8877 16.5 12.8837C16.5 12.8797 16.5 12.8756 16.5 12.8716C16.5 12.8676 16.5 12.8636 16.5 12.8596C16.5 12.8556 16.5 12.8516 16.5 12.8476C16.5 12.8436 16.5 12.8396 16.5 12.8356C16.5 12.8317 16.5 12.8277 16.5 12.8237C16.5 12.8198 16.5 12.8158 16.5 12.8118C16.5 12.8079 16.5 12.804 16.5 12.8C16.5 12.7961 16.5 12.7921 16.5 12.7882C16.5 12.7843 16.5 12.7804 16.5 12.7765C16.5 12.7726 16.5 12.7687 16.5 12.7648C16.5 12.7609 16.5 12.757 16.5 12.7531C16.5 12.7492 16.5 12.7454 16.5 12.7415C16.5 12.7376 16.5 12.7338 16.5 12.7299C16.5 12.7261 16.5 12.7222 16.5 12.7184C16.5 12.7145 16.5 12.7107 16.5 12.7069C16.5 12.703 16.5 12.6992 16.5 12.6954C16.5 12.6916 16.5 12.6878 16.5 12.684C16.5 12.6802 16.5 12.6764 16.5 12.6726C16.5 12.6688 16.5 12.6651 16.5 12.6613C16.5 12.6575 16.5 12.6538 16.5 12.65C16.5 12.6462 16.5 12.6425 16.5 12.6387C16.5 12.635 16.5 12.6313 16.5 12.6275C16.5 12.6238 16.5 12.6201 16.5 12.6164C16.5 12.6127 16.5 12.6089 16.5 12.6052C16.5 12.6015 16.5 12.5978 16.5 12.5942C16.5 12.5905 16.5 12.5868 16.5 12.5831C16.5 12.5794 16.5 12.5758 16.5 12.5721C16.5 12.5685 16.5 12.5648 16.5 12.5611C16.5 12.5575 16.5 12.5539 16.5 12.5502C16.5 12.5466 16.5 12.543 16.5 12.5393C16.5 12.5357 16.5 12.5321 16.5 12.5285C16.5 12.5249 16.5 12.5213 16.5 12.5177C16.5 12.5141 16.5 12.5105 16.5 12.5069C16.5 12.5034 16.5 12.4998 16.5 12.4962C16.5 12.4927 16.5 12.4891 16.5 12.4856C16.5 12.482 16.5 12.4785 16.5 12.4749C16.5 12.4714 16.5 12.4678 16.5 12.4643C16.5 12.4608 16.5 12.4573 16.5 12.4538C16.5 12.4503 16.5 12.4467 16.5 12.4432C16.5 12.4397 16.5 12.4363 16.5 12.4328C16.5 12.4293 16.5 12.4258 16.5 12.4223C16.5 12.4189 16.5 12.4154 16.5 12.4119C16.5 12.4085 16.5 12.405 16.5 12.4016C16.5 12.3981 16.5 12.3947 16.5 12.3913C16.5 12.3878 16.5 12.3844 16.5 12.381C16.5 12.3776 16.5 12.3742 16.5 12.3708C16.5 12.3674 16.5 12.364 16.5 12.3606C16.5 12.3572 16.5 12.3538 16.5 12.3504C16.5 12.347 16.5 12.3437 16.5 12.3403C16.5 12.3369 16.5 12.3336 16.5 12.3302C16.5 12.3269 16.5 12.3235 16.5 12.3202C16.5 12.3169 16.5 12.3135 16.5 12.3102C16.5 12.3069 16.5 12.3036 16.5 12.3003C16.5 12.2969 16.5 12.2936 16.5 12.2903C16.5 12.287 16.5 12.2838 16.5 12.2805C16.5 12.2772 16.5 12.2739 16.5 12.2706C16.5 12.2674 16.5 12.2641 16.5 12.2608C16.5 12.2576 16.5 12.2543 16.5 12.2511C16.5 12.2478 16.5 12.2446 16.5 12.2414C16.5 12.2381 16.5 12.2349 16.5 12.2317C16.5 12.2285 16.5 12.2253 16.5 12.2221C16.5 12.2189 16.5 12.2157 16.5 12.2125C16.5 12.2093 16.5 12.2061 16.5 12.2029C16.5 12.1997 16.5 12.1966 16.5 12.1934C16.5 12.1902 16.5 12.1871 16.5 12.1839C16.5 12.1808 16.5 12.1776 16.5 12.1745C16.5 12.1713 16.5 12.1682 16.5 12.1651C16.5 12.1619 16.5 12.1588 16.5 12.1557C16.5 12.1526 16.5 12.1495 16.5 12.1464C16.5 12.1433 16.5 12.1402 16.5 12.1371C16.5 12.134 16.5 12.1309 16.5 12.1279C16.5 12.1248 16.5 12.1217 16.5 12.1187C16.5 12.1156 16.5 12.1125 16.5 12.1095C16.5 12.1065 16.5 12.1034 16.5 12.1004C16.5 12.0973 16.5 12.0943 16.5 12.0913C16.5 12.0883 16.5 12.0853 16.5 12.0822C16.5 12.0792 16.5 12.0762 16.5 12.0732C16.5 12.0702 16.5 12.0672 16.5 12.0643C16.5 12.0613 16.5 12.0583 16.5 12.0553C16.5 12.0524 16.5 12.0494 16.5 12.0464C16.5 12.0435 16.5 12.0405 16.5 12.0376C16.5 12.0346 16.5 12.0317 16.5 12.0288C16.5 12.0258 16.5 12.0229 16.5 12.02C16.5 12.0171 16.5 12.0142 16.5 12.0113C16.5 12.0084 16.5 12.0055 16.5 12.0026C16.5 11.9997 16.5 11.9968 16.5 11.9939C16.5 11.991 16.5 11.9881 16.5 11.9853C16.5 11.9824 16.5 11.9796 16.5 11.9767C16.5 11.9738 16.5 11.971 16.5 11.9682C16.5 11.9653 16.5 11.9625 16.5 11.9596C16.5 11.9568 16.5 11.954 16.5 11.9512C16.5 11.9484 16.5 11.9455 16.5 11.9427C16.5 11.9399 16.5 11.9371 16.5 11.9344C16.5 11.9316 16.5 11.9288 16.5 11.926C16.5 11.9232 16.5 11.9205 16.5 11.9177C16.5 11.9149 16.5 11.9122 16.5 11.9094C16.5 11.9067 16.5 11.9039 16.5 11.9012C16.5 11.8984 16.5 11.8957 16.5 11.893C16.5 11.8902 16.5 11.8875 16.5 11.8848C16.5 11.8821 16.5 11.8794 16.5 11.8767C16.5 11.874 16.5 11.8713 16.5 11.8686C16.5 11.8659 16.5 11.8632 16.5 11.8605C16.5 11.8579 16.5 11.8552 16.5 11.8525C16.5 11.8499 16.5 11.8472 16.5 11.8446C16.5 11.8419 16.5 11.8393 16.5 11.8366C16.5 11.834 16.5 11.8314 16.5 11.8287C16.5 11.8261 16.5 11.8235 16.5 11.8209C16.5 11.8183 16.5 11.8156 16.5 11.813C16.5 11.8104 16.5 11.8078 16.5 11.8053C16.5 11.8027 16.5 11.8001 16.5 11.7975C16.5 11.7949 16.5 11.7924 16.5 11.7898C16.5 11.7872 16.5 11.7847 16.5 11.7821C16.5 11.7796 16.5 11.777 16.5 11.7745C16.5 11.772 16.5 11.7694 16.5 11.7669C16.5 11.7644 16.5 11.7618 16.5 11.7593C16.5 11.7568 16.5 11.7543 16.5 11.7518C16.5 11.7493 16.5 11.7468 16.5 11.7443C16.5 11.7418 16.5 11.7394 16.5 11.7369C16.5 11.7344 16.5 11.7319 16.5 11.7295C16.5 11.727 16.5 11.7245 16.5 11.7221C16.5 11.7196 16.5 11.7172 16.5 11.7148C16.5 11.7123 16.5 11.7099 16.5 11.7075C16.5 11.705 16.5 11.7026 16.5 11.7002C16.5 11.6978 16.5 11.6954 16.5 11.693C16.5 11.6906 16.5 11.6882 16.5 11.6858C16.5 11.6834 16.5 11.681 16.5 11.6786C16.5 11.6762 16.5 11.6739 16.5 11.6715C16.5 11.6691 16.5 11.6668 16.5 11.6644C16.5 11.6621 16.5 11.6597 16.5 11.6574C16.5 11.655 16.5 11.6527 16.5 11.6504C16.5 11.648 16.5 11.6457 16.5 11.6434C16.5 11.6411 16.5 11.6388 16.5 11.6365C16.5 11.6342 16.5 11.6319 16.5 11.6296C16.5 11.6273 16.5 11.625 16.5 11.6227C16.5 11.6204 16.5 11.6182 16.5 11.6159C16.5 11.6136 16.5 11.6114 16.5 11.6091C16.5 11.6069 16.5 11.6046 16.5 11.6024C16.5 11.6001 16.5 11.5979 16.5 11.5957C16.5 11.5934 16.5 11.5912 16.5 11.589C16.5 11.5868 16.5 11.5845 16.5 11.5823C16.5 11.5801 16.5 11.5779 16.5 11.5757C16.5 11.5735 16.5 11.5713 16.5 11.5692C16.5 11.567 16.5 11.5648 16.5 11.5626C16.5 11.5605 16.5 11.5583 16.5 11.5561C16.5 11.554 16.5 11.5518 16.5 11.5497C16.5 11.5475 16.5 11.5454 16.5 11.5433C16.5 11.5411 16.5 11.539 16.5 11.5369C16.5 11.5347 16.5 11.5326 16.5 11.5305C16.5 11.5284 16.5 11.5263 16.5 11.5242C16.5 11.5221 16.5 11.52 16.5 11.5179C16.5 11.5158 16.5 11.5138 16.5 11.5117C16.5 11.5096 16.5 11.5075 16.5 11.5055C16.5 11.5034 16.5 11.5013 16.5 11.4993C16.5 11.4972 16.5 11.4952 16.5 11.4932C16.5 11.4911 16.5 11.4891 16.5 11.4871C16.5 11.485 16.5 11.483 16.5 11.481C16.5 11.479 16.5 11.477 16.5 11.475C16.5 11.473 16.5 11.471 16.5 11.469C16.5 11.467 16.5 11.465 16.5 11.463C16.5 11.461 16.5 11.4591 16.5 11.4571C16.5 11.4551 16.5 11.4532 16.5 11.4512C16.5 11.4492 16.5 11.4473 16.5 11.4454C16.5 11.4434 16.5 11.4415 16.5 11.4395C16.5 11.4376 16.5 11.4357 16.5 11.4338C16.5 11.4318 16.5 11.4299 16.5 11.428C16.5 11.4261 16.5 11.4242 16.5 11.4223C16.5 11.4204 16.5 11.4185 16.5 11.4166C16.5 11.4147 16.5 11.4129 16.5 11.411C16.5 11.4091 16.5 11.4072 16.5 11.4054C16.5 11.4035 16.5 11.4017 16.5 11.3998C16.5 11.398 16.5 11.3961 16.5 11.3943C16.5 11.3924 16.5 11.3906 16.5 11.3888C16.5 11.3869 16.5 11.3851 16.5 11.3833C16.5 11.3815 16.5 11.3797 16.5 11.3779C16.5 11.3761 16.5 11.3743 16.5 11.3725C16.5 11.3707 16.5 11.3689 16.5 11.3671C16.5 11.3653 16.5 11.3636 16.5 11.3618C16.5 11.36 16.5 11.3583 16.5 11.3565C16.5 11.3548 16.5 11.353 16.5 11.3513C16.5 11.3495 16.5 11.3478 16.5 11.346C16.5 11.3443 16.5 11.3426 16.5 11.3408C16.5 11.3391 16.5 11.3374 16.5 11.3357C16.5 11.334 16.5 11.3323 16.5 11.3306C16.5 11.3289 16.5 11.3272 16.5 11.3255C16.5 11.3238 16.5 11.3221 16.5 11.3204C16.5 11.3188 16.5 11.3171 16.5 11.3154C16.5 11.3138 16.5 11.3121 16.5 11.3104C16.5 11.3088 16.5 11.3071 16.5 11.3055C16.5 11.3039 16.5 11.3022 16.5 11.3006C16.5 11.299 16.5 11.2973 16.5 11.2957C16.5 11.2941 16.5 11.2925 16.5 11.2909C16.5 11.2893 16.5 11.2877 16.5 11.2861C16.5 11.2845 16.5 11.2829 16.5 11.2813C16.5 11.2797 16.5 11.2781 16.5 11.2766C16.5 11.275 16.5 11.2734 16.5 11.2718C16.5 11.2703 16.5 11.2687 16.5 11.2672C16.5 11.2656 16.5 11.2641 16.5 11.2625C16.5 11.261 16.5 11.2595 16.5 11.2579C16.5 11.2564 16.5 11.2549 16.5 11.2534C16.5 11.2518 16.5 11.2503 16.5 11.2488C16.5 11.2473 16.5 11.2458 16.5 11.2443C16.5 11.2428 16.5 11.2413 16.5 11.2399C16.5 11.2384 16.5 11.2369 16.5 11.2354C16.5 11.2339 16.5 11.2325 16.5 11.231C16.5 11.2296 16.5 11.2281 16.5 11.2266C16.5 11.2252 16.5 11.2238 16.5 11.2223C16.5 11.2209 16.5 11.2194 16.5 11.218C16.5 11.2166 16.5 11.2152 16.5 11.2137C16.5 11.2123 16.5 11.2109 16.5 11.2095C16.5 11.2081 16.5 11.2067 16.5 11.2053C16.5 11.2039 16.5 11.2025 16.5 11.2011C16.5 11.1998 16.5 11.1984 16.5 11.197C16.5 11.1956 16.5 11.1943 16.5 11.1929C16.5 11.1916 16.5 11.1902 16.5 11.1888C16.5 11.1875 16.5 11.1862 16.5 11.1848C16.5 11.1835 16.5 11.1821 16.5 11.1808C16.5 11.1795 16.5 11.1782 16.5 11.1768C16.5 11.1755 16.5 11.1742 16.5 11.1729C16.5 11.1716 16.5 11.1703 16.5 11.169C16.5 11.1677 16.5 11.1664 16.5 11.1651C16.5 11.1639 16.5 11.1626 16.5 11.1613C16.5 11.16 16.5 11.1588 16.5 11.1575C16.5 11.1562 16.5 11.155 16.5 11.1537C16.5 11.1525 16.5 11.1512 16.5 11.15C16.5 11.1488 16.5 11.1475 16.5 11.1463C16.5 11.1451 16.5 11.1438 16.5 11.1426C16.5 11.1414 16.5 11.1402 16.5 11.139C16.5 11.1378 16.5 11.1366 16.5 11.1354C16.5 11.1342 16.5 11.133 16.5 11.1318C16.5 11.1306 16.5 11.1294 16.5 11.1283C16.5 11.1271 16.5 11.1259 16.5 11.1248C16.5 11.1236 16.5 11.1224 16.5 11.1213C16.5 11.1201 16.5 11.119 16.5 11.1178C16.5 11.1167 16.5 11.1156 16.5 11.1144C16.5 11.1133 16.5 11.1122 16.5 11.1111C16.5 11.1099 16.5 11.1088 16.5 11.1077C16.5 11.1066 16.5 11.1055 16.5 11.1044C16.5 11.1033 16.5 11.1022 16.5 11.1011C16.5 11.1 16.5 11.099 16.5 11.0979C16.5 11.0968 16.5 11.0957 16.5 11.0947C16.5 11.0936 16.5 11.0925 16.5 11.0915C16.5 11.0904 16.5 11.0894 16.5 11.0883C16.5 11.0873 16.5 11.0862 16.5 11.0852C16.5 11.0842 16.5 11.0831 16.5 11.0821C16.5 11.0811 16.5 11.0801 16.5 11.0791C16.5 11.078 16.5 11.077 16.5 11.076C16.5 11.075 16.5 11.074 16.5 11.073C16.5 11.0721 16.5 11.0711 16.5 11.0701C16.5 11.0691 16.5 11.0681 16.5 11.0672C16.5 11.0662 16.5 11.0652 16.5 11.0643C16.5 11.0633 16.5 11.0623 16.5 11.0614C16.5 11.0605 16.5 11.0595 16.5 11.0586C16.5 11.0576 16.5 11.0567 16.5 11.0558C16.5 11.0548 16.5 11.0539 16.5 11.053C16.5 11.0521 16.5 11.0512 16.5 11.0503C16.5 11.0494 16.5 11.0485 16.5 11.0476C16.5 11.0467 16.5 11.0458 16.5 11.0449C16.5 11.044 16.5 11.0431 16.5 11.0422C16.5 11.0414 16.5 11.0405 16.5 11.0396C16.5 11.0388 16.5 11.0379 16.5 11.037C16.5 11.0362 16.5 11.0353 16.5 11.0345C16.5 11.0337 16.5 11.0328 16.5 11.032C16.5 11.0311 16.5 11.0303 16.5 11.0295C16.5 11.0287 16.5 11.0279 16.5 11.027C16.5 11.0262 16.5 11.0254 16.5 11.0246C16.5 11.0238 16.5 11.023 16.5 11.0222C16.5 11.0214 16.5 11.0206 16.5 11.0199C16.5 11.0191 16.5 11.0183 16.5 11.0175C16.5 11.0168 16.5 11.016 16.5 11.0152C16.5 11.0145 16.5 11.0137 16.5 11.013C16.5 11.0122 16.5 11.0115 16.5 11.0107C16.5 11.01 16.5 11.0092 16.5 11.0085C16.5 11.0078 16.5 11.0071 16.5 11.0063C16.5 11.0056 16.5 11.0049 16.5 11.0042C16.5 11.0035 16.5 11.0028 16.5 11.0021C16.5 11.0014 16.5 11.0007 16.5 11H13.5C13.5 11.0007 13.5 11.0014 13.5 11.0021C13.5 11.0028 13.5 11.0035 13.5 11.0042C13.5 11.0049 13.5 11.0056 13.5 11.0063C13.5 11.0071 13.5 11.0078 13.5 11.0085C13.5 11.0092 13.5 11.01 13.5 11.0107C13.5 11.0115 13.5 11.0122 13.5 11.013C13.5 11.0137 13.5 11.0145 13.5 11.0152C13.5 11.016 13.5 11.0168 13.5 11.0175C13.5 11.0183 13.5 11.0191 13.5 11.0199C13.5 11.0206 13.5 11.0214 13.5 11.0222C13.5 11.023 13.5 11.0238 13.5 11.0246C13.5 11.0254 13.5 11.0262 13.5 11.027C13.5 11.0279 13.5 11.0287 13.5 11.0295C13.5 11.0303 13.5 11.0311 13.5 11.032C13.5 11.0328 13.5 11.0337 13.5 11.0345C13.5 11.0353 13.5 11.0362 13.5 11.037C13.5 11.0379 13.5 11.0388 13.5 11.0396C13.5 11.0405 13.5 11.0414 13.5 11.0422C13.5 11.0431 13.5 11.044 13.5 11.0449C13.5 11.0458 13.5 11.0467 13.5 11.0476C13.5 11.0485 13.5 11.0494 13.5 11.0503C13.5 11.0512 13.5 11.0521 13.5 11.053C13.5 11.0539 13.5 11.0548 13.5 11.0558C13.5 11.0567 13.5 11.0576 13.5 11.0586C13.5 11.0595 13.5 11.0605 13.5 11.0614C13.5 11.0623 13.5 11.0633 13.5 11.0643C13.5 11.0652 13.5 11.0662 13.5 11.0672C13.5 11.0681 13.5 11.0691 13.5 11.0701C13.5 11.0711 13.5 11.0721 13.5 11.073C13.5 11.074 13.5 11.075 13.5 11.076C13.5 11.077 13.5 11.078 13.5 11.0791C13.5 11.0801 13.5 11.0811 13.5 11.0821C13.5 11.0831 13.5 11.0842 13.5 11.0852C13.5 11.0862 13.5 11.0873 13.5 11.0883C13.5 11.0894 13.5 11.0904 13.5 11.0915C13.5 11.0925 13.5 11.0936 13.5 11.0947C13.5 11.0957 13.5 11.0968 13.5 11.0979C13.5 11.099 13.5 11.1 13.5 11.1011C13.5 11.1022 13.5 11.1033 13.5 11.1044C13.5 11.1055 13.5 11.1066 13.5 11.1077C13.5 11.1088 13.5 11.1099 13.5 11.1111C13.5 11.1122 13.5 11.1133 13.5 11.1144C13.5 11.1156 13.5 11.1167 13.5 11.1178C13.5 11.119 13.5 11.1201 13.5 11.1213C13.5 11.1224 13.5 11.1236 13.5 11.1248C13.5 11.1259 13.5 11.1271 13.5 11.1283C13.5 11.1294 13.5 11.1306 13.5 11.1318C13.5 11.133 13.5 11.1342 13.5 11.1354C13.5 11.1366 13.5 11.1378 13.5 11.139C13.5 11.1402 13.5 11.1414 13.5 11.1426C13.5 11.1438 13.5 11.1451 13.5 11.1463C13.5 11.1475 13.5 11.1488 13.5 11.15C13.5 11.1512 13.5 11.1525 13.5 11.1537C13.5 11.155 13.5 11.1562 13.5 11.1575C13.5 11.1588 13.5 11.16 13.5 11.1613C13.5 11.1626 13.5 11.1639 13.5 11.1651C13.5 11.1664 13.5 11.1677 13.5 11.169C13.5 11.1703 13.5 11.1716 13.5 11.1729C13.5 11.1742 13.5 11.1755 13.5 11.1768C13.5 11.1782 13.5 11.1795 13.5 11.1808C13.5 11.1821 13.5 11.1835 13.5 11.1848C13.5 11.1862 13.5 11.1875 13.5 11.1888C13.5 11.1902 13.5 11.1916 13.5 11.1929C13.5 11.1943 13.5 11.1956 13.5 11.197C13.5 11.1984 13.5 11.1998 13.5 11.2011C13.5 11.2025 13.5 11.2039 13.5 11.2053C13.5 11.2067 13.5 11.2081 13.5 11.2095C13.5 11.2109 13.5 11.2123 13.5 11.2137C13.5 11.2152 13.5 11.2166 13.5 11.218C13.5 11.2194 13.5 11.2209 13.5 11.2223C13.5 11.2238 13.5 11.2252 13.5 11.2266C13.5 11.2281 13.5 11.2296 13.5 11.231C13.5 11.2325 13.5 11.2339 13.5 11.2354C13.5 11.2369 13.5 11.2384 13.5 11.2399C13.5 11.2413 13.5 11.2428 13.5 11.2443C13.5 11.2458 13.5 11.2473 13.5 11.2488C13.5 11.2503 13.5 11.2518 13.5 11.2534C13.5 11.2549 13.5 11.2564 13.5 11.2579C13.5 11.2595 13.5 11.261 13.5 11.2625C13.5 11.2641 13.5 11.2656 13.5 11.2672C13.5 11.2687 13.5 11.2703 13.5 11.2718C13.5 11.2734 13.5 11.275 13.5 11.2766C13.5 11.2781 13.5 11.2797 13.5 11.2813C13.5 11.2829 13.5 11.2845 13.5 11.2861C13.5 11.2877 13.5 11.2893 13.5 11.2909C13.5 11.2925 13.5 11.2941 13.5 11.2957C13.5 11.2973 13.5 11.299 13.5 11.3006C13.5 11.3022 13.5 11.3039 13.5 11.3055C13.5 11.3071 13.5 11.3088 13.5 11.3104C13.5 11.3121 13.5 11.3138 13.5 11.3154C13.5 11.3171 13.5 11.3188 13.5 11.3204C13.5 11.3221 13.5 11.3238 13.5 11.3255C13.5 11.3272 13.5 11.3289 13.5 11.3306C13.5 11.3323 13.5 11.334 13.5 11.3357C13.5 11.3374 13.5 11.3391 13.5 11.3408C13.5 11.3426 13.5 11.3443 13.5 11.346C13.5 11.3478 13.5 11.3495 13.5 11.3513C13.5 11.353 13.5 11.3548 13.5 11.3565C13.5 11.3583 13.5 11.36 13.5 11.3618C13.5 11.3636 13.5 11.3653 13.5 11.3671C13.5 11.3689 13.5 11.3707 13.5 11.3725C13.5 11.3743 13.5 11.3761 13.5 11.3779C13.5 11.3797 13.5 11.3815 13.5 11.3833C13.5 11.3851 13.5 11.3869 13.5 11.3888C13.5 11.3906 13.5 11.3924 13.5 11.3943C13.5 11.3961 13.5 11.398 13.5 11.3998C13.5 11.4017 13.5 11.4035 13.5 11.4054C13.5 11.4072 13.5 11.4091 13.5 11.411C13.5 11.4129 13.5 11.4147 13.5 11.4166C13.5 11.4185 13.5 11.4204 13.5 11.4223C13.5 11.4242 13.5 11.4261 13.5 11.428C13.5 11.4299 13.5 11.4318 13.5 11.4338C13.5 11.4357 13.5 11.4376 13.5 11.4395C13.5 11.4415 13.5 11.4434 13.5 11.4454C13.5 11.4473 13.5 11.4492 13.5 11.4512C13.5 11.4532 13.5 11.4551 13.5 11.4571C13.5 11.4591 13.5 11.461 13.5 11.463C13.5 11.465 13.5 11.467 13.5 11.469C13.5 11.471 13.5 11.473 13.5 11.475C13.5 11.477 13.5 11.479 13.5 11.481C13.5 11.483 13.5 11.485 13.5 11.4871C13.5 11.4891 13.5 11.4911 13.5 11.4932C13.5 11.4952 13.5 11.4972 13.5 11.4993C13.5 11.5013 13.5 11.5034 13.5 11.5055C13.5 11.5075 13.5 11.5096 13.5 11.5117C13.5 11.5138 13.5 11.5158 13.5 11.5179C13.5 11.52 13.5 11.5221 13.5 11.5242C13.5 11.5263 13.5 11.5284 13.5 11.5305C13.5 11.5326 13.5 11.5347 13.5 11.5369C13.5 11.539 13.5 11.5411 13.5 11.5433C13.5 11.5454 13.5 11.5475 13.5 11.5497C13.5 11.5518 13.5 11.554 13.5 11.5561C13.5 11.5583 13.5 11.5605 13.5 11.5626C13.5 11.5648 13.5 11.567 13.5 11.5692C13.5 11.5713 13.5 11.5735 13.5 11.5757C13.5 11.5779 13.5 11.5801 13.5 11.5823C13.5 11.5845 13.5 11.5868 13.5 11.589C13.5 11.5912 13.5 11.5934 13.5 11.5957C13.5 11.5979 13.5 11.6001 13.5 11.6024C13.5 11.6046 13.5 11.6069 13.5 11.6091C13.5 11.6114 13.5 11.6136 13.5 11.6159C13.5 11.6182 13.5 11.6204 13.5 11.6227C13.5 11.625 13.5 11.6273 13.5 11.6296C13.5 11.6319 13.5 11.6342 13.5 11.6365C13.5 11.6388 13.5 11.6411 13.5 11.6434C13.5 11.6457 13.5 11.648 13.5 11.6504C13.5 11.6527 13.5 11.655 13.5 11.6574C13.5 11.6597 13.5 11.6621 13.5 11.6644C13.5 11.6668 13.5 11.6691 13.5 11.6715C13.5 11.6739 13.5 11.6762 13.5 11.6786C13.5 11.681 13.5 11.6834 13.5 11.6858C13.5 11.6882 13.5 11.6906 13.5 11.693C13.5 11.6954 13.5 11.6978 13.5 11.7002C13.5 11.7026 13.5 11.705 13.5 11.7075C13.5 11.7099 13.5 11.7123 13.5 11.7148C13.5 11.7172 13.5 11.7196 13.5 11.7221C13.5 11.7245 13.5 11.727 13.5 11.7295C13.5 11.7319 13.5 11.7344 13.5 11.7369C13.5 11.7394 13.5 11.7418 13.5 11.7443C13.5 11.7468 13.5 11.7493 13.5 11.7518C13.5 11.7543 13.5 11.7568 13.5 11.7593C13.5 11.7618 13.5 11.7644 13.5 11.7669C13.5 11.7694 13.5 11.772 13.5 11.7745C13.5 11.777 13.5 11.7796 13.5 11.7821C13.5 11.7847 13.5 11.7872 13.5 11.7898C13.5 11.7924 13.5 11.7949 13.5 11.7975C13.5 11.8001 13.5 11.8027 13.5 11.8053C13.5 11.8078 13.5 11.8104 13.5 11.813C13.5 11.8156 13.5 11.8183 13.5 11.8209C13.5 11.8235 13.5 11.8261 13.5 11.8287C13.5 11.8314 13.5 11.834 13.5 11.8366C13.5 11.8393 13.5 11.8419 13.5 11.8446C13.5 11.8472 13.5 11.8499 13.5 11.8525C13.5 11.8552 13.5 11.8579 13.5 11.8605C13.5 11.8632 13.5 11.8659 13.5 11.8686C13.5 11.8713 13.5 11.874 13.5 11.8767C13.5 11.8794 13.5 11.8821 13.5 11.8848C13.5 11.8875 13.5 11.8902 13.5 11.893C13.5 11.8957 13.5 11.8984 13.5 11.9012C13.5 11.9039 13.5 11.9067 13.5 11.9094C13.5 11.9122 13.5 11.9149 13.5 11.9177C13.5 11.9205 13.5 11.9232 13.5 11.926C13.5 11.9288 13.5 11.9316 13.5 11.9344C13.5 11.9371 13.5 11.9399 13.5 11.9427C13.5 11.9455 13.5 11.9484 13.5 11.9512C13.5 11.954 13.5 11.9568 13.5 11.9596C13.5 11.9625 13.5 11.9653 13.5 11.9682C13.5 11.971 13.5 11.9738 13.5 11.9767C13.5 11.9796 13.5 11.9824 13.5 11.9853C13.5 11.9881 13.5 11.991 13.5 11.9939C13.5 11.9968 13.5 11.9997 13.5 12.0026C13.5 12.0055 13.5 12.0084 13.5 12.0113C13.5 12.0142 13.5 12.0171 13.5 12.02C13.5 12.0229 13.5 12.0258 13.5 12.0288C13.5 12.0317 13.5 12.0346 13.5 12.0376C13.5 12.0405 13.5 12.0435 13.5 12.0464C13.5 12.0494 13.5 12.0524 13.5 12.0553C13.5 12.0583 13.5 12.0613 13.5 12.0643C13.5 12.0672 13.5 12.0702 13.5 12.0732C13.5 12.0762 13.5 12.0792 13.5 12.0822C13.5 12.0853 13.5 12.0883 13.5 12.0913C13.5 12.0943 13.5 12.0973 13.5 12.1004C13.5 12.1034 13.5 12.1065 13.5 12.1095C13.5 12.1125 13.5 12.1156 13.5 12.1187C13.5 12.1217 13.5 12.1248 13.5 12.1279C13.5 12.1309 13.5 12.134 13.5 12.1371C13.5 12.1402 13.5 12.1433 13.5 12.1464C13.5 12.1495 13.5 12.1526 13.5 12.1557C13.5 12.1588 13.5 12.1619 13.5 12.1651C13.5 12.1682 13.5 12.1713 13.5 12.1745C13.5 12.1776 13.5 12.1808 13.5 12.1839C13.5 12.1871 13.5 12.1902 13.5 12.1934C13.5 12.1966 13.5 12.1997 13.5 12.2029C13.5 12.2061 13.5 12.2093 13.5 12.2125C13.5 12.2157 13.5 12.2189 13.5 12.2221C13.5 12.2253 13.5 12.2285 13.5 12.2317C13.5 12.2349 13.5 12.2381 13.5 12.2414C13.5 12.2446 13.5 12.2478 13.5 12.2511C13.5 12.2543 13.5 12.2576 13.5 12.2608C13.5 12.2641 13.5 12.2674 13.5 12.2706C13.5 12.2739 13.5 12.2772 13.5 12.2805C13.5 12.2838 13.5 12.287 13.5 12.2903C13.5 12.2936 13.5 12.2969 13.5 12.3003C13.5 12.3036 13.5 12.3069 13.5 12.3102C13.5 12.3135 13.5 12.3169 13.5 12.3202C13.5 12.3235 13.5 12.3269 13.5 12.3302C13.5 12.3336 13.5 12.3369 13.5 12.3403C13.5 12.3437 13.5 12.347 13.5 12.3504C13.5 12.3538 13.5 12.3572 13.5 12.3606C13.5 12.364 13.5 12.3674 13.5 12.3708C13.5 12.3742 13.5 12.3776 13.5 12.381C13.5 12.3844 13.5 12.3878 13.5 12.3913C13.5 12.3947 13.5 12.3981 13.5 12.4016C13.5 12.405 13.5 12.4085 13.5 12.4119C13.5 12.4154 13.5 12.4189 13.5 12.4223C13.5 12.4258 13.5 12.4293 13.5 12.4328C13.5 12.4363 13.5 12.4397 13.5 12.4432C13.5 12.4467 13.5 12.4503 13.5 12.4538C13.5 12.4573 13.5 12.4608 13.5 12.4643C13.5 12.4678 13.5 12.4714 13.5 12.4749C13.5 12.4785 13.5 12.482 13.5 12.4856C13.5 12.4891 13.5 12.4927 13.5 12.4962C13.5 12.4998 13.5 12.5034 13.5 12.5069C13.5 12.5105 13.5 12.5141 13.5 12.5177C13.5 12.5213 13.5 12.5249 13.5 12.5285C13.5 12.5321 13.5 12.5357 13.5 12.5393C13.5 12.543 13.5 12.5466 13.5 12.5502C13.5 12.5539 13.5 12.5575 13.5 12.5611C13.5 12.5648 13.5 12.5685 13.5 12.5721C13.5 12.5758 13.5 12.5794 13.5 12.5831C13.5 12.5868 13.5 12.5905 13.5 12.5942C13.5 12.5978 13.5 12.6015 13.5 12.6052C13.5 12.6089 13.5 12.6127 13.5 12.6164C13.5 12.6201 13.5 12.6238 13.5 12.6275C13.5 12.6313 13.5 12.635 13.5 12.6387C13.5 12.6425 13.5 12.6462 13.5 12.65C13.5 12.6538 13.5 12.6575 13.5 12.6613C13.5 12.6651 13.5 12.6688 13.5 12.6726C13.5 12.6764 13.5 12.6802 13.5 12.684C13.5 12.6878 13.5 12.6916 13.5 12.6954C13.5 12.6992 13.5 12.703 13.5 12.7069C13.5 12.7107 13.5 12.7145 13.5 12.7184C13.5 12.7222 13.5 12.7261 13.5 12.7299C13.5 12.7338 13.5 12.7376 13.5 12.7415C13.5 12.7454 13.5 12.7492 13.5 12.7531C13.5 12.757 13.5 12.7609 13.5 12.7648C13.5 12.7687 13.5 12.7726 13.5 12.7765C13.5 12.7804 13.5 12.7843 13.5 12.7882C13.5 12.7921 13.5 12.7961 13.5 12.8C13.5 12.804 13.5 12.8079 13.5 12.8118C13.5 12.8158 13.5 12.8198 13.5 12.8237C13.5 12.8277 13.5 12.8317 13.5 12.8356C13.5 12.8396 13.5 12.8436 13.5 12.8476C13.5 12.8516 13.5 12.8556 13.5 12.8596C13.5 12.8636 13.5 12.8676 13.5 12.8716C13.5 12.8756 13.5 12.8797 13.5 12.8837C13.5 12.8877 13.5 12.8918 13.5 12.8958C13.5 12.8999 13.5 12.9039 13.5 12.908C13.5 12.9121 13.5 12.9161 13.5 12.9202C13.5 12.9243 13.5 12.9284 13.5 12.9325C13.5 12.9365 13.5 12.9406 13.5 12.9447C13.5 12.9489 13.5 12.953 13.5 12.9571C13.5 12.9612 13.5 12.9653 13.5 12.9695C13.5 12.9736 13.5 12.9777 13.5 12.9819C13.5 12.986 13.5 12.9902 13.5 12.9943C13.5 12.9985 13.5 13.0027 13.5 13.0068C13.5 13.011 13.5 13.0152 13.5 13.0194C13.5 13.0236 13.5 13.0278 13.5 13.032C13.5 13.0362 13.5 13.0404 13.5 13.0446C13.5 13.0488 13.5 13.0531 13.5 13.0573C13.5 13.0615 13.5 13.0658 13.5 13.07C13.5 13.0742 13.5 13.0785 13.5 13.0828C13.5 13.087 13.5 13.0913 13.5 13.0956C13.5 13.0998 13.5 13.1041 13.5 13.1084C13.5 13.1127 13.5 13.117 13.5 13.1213C13.5 13.1256 13.5 13.1299 13.5 13.1342C13.5 13.1385 13.5 13.1429 13.5 13.1472C13.5 13.1515 13.5 13.1559 13.5 13.1602C13.5 13.1646 13.5 13.1689 13.5 13.1733C13.5 13.1776 13.5 13.182 13.5 13.1864C13.5 13.1907 13.5 13.1951 13.5 13.1995C13.5 13.2039 13.5 13.2083 13.5 13.2127C13.5 13.2171 13.5 13.2215 13.5 13.2259C13.5 13.2304 13.5 13.2348 13.5 13.2392C13.5 13.2436 13.5 13.2481 13.5 13.2525C13.5 13.257 13.5 13.2614 13.5 13.2659C13.5 13.2703 13.5 13.2748 13.5 13.2793C13.5 13.2838 13.5 13.2882 13.5 13.2927C13.5 13.2972 13.5 13.3017 13.5 13.3062C13.5 13.3107 13.5 13.3152 13.5 13.3198C13.5 13.3243 13.5 13.3288 13.5 13.3333C13.5 13.3379 13.5 13.3424 13.5 13.347C13.5 13.3515 13.5 13.3561 13.5 13.3606C13.5 13.3652 13.5 13.3698 13.5 13.3743C13.5 13.3789 13.5 13.3835 13.5 13.3881C13.5 13.3927 13.5 13.3973 13.5 13.4019C13.5 13.4065 13.5 13.4111 13.5 13.4157C13.5 13.4203 13.5 13.425 13.5 13.4296C13.5 13.4342 13.5 13.4389 13.5 13.4435C13.5 13.4482 13.5 13.4528 13.5 13.4575C13.5 13.4622 13.5 13.4668 13.5 13.4715C13.5 13.4762 13.5 13.4809 13.5 13.4856C13.5 13.4903 13.5 13.495 13.5 13.4997C13.5 13.5044 13.5 13.5091 13.5 13.5138C13.5 13.5185 13.5 13.5233 13.5 13.528C13.5 13.5327 13.5 13.5375 13.5 13.5422C13.5 13.547 13.5 13.5517 13.5 13.5565C13.5 13.5613 13.5 13.566 13.5 13.5708C13.5 13.5756 13.5 13.5804 13.5 13.5852C13.5 13.59 13.5 13.5948 13.5 13.5996C13.5 13.6044 13.5 13.6092 13.5 13.6141C13.5 13.6189 13.5 13.6237 13.5 13.6286C13.5 13.6334 13.5 13.6382 13.5 13.6431C13.5 13.648 13.5 13.6528 13.5 13.6577C13.5 13.6626 13.5 13.6674 13.5 13.6723C13.5 13.6772 13.5 13.6821 13.5 13.687C13.5 13.6919 13.5 13.6968 13.5 13.7017C13.5 13.7066 13.5 13.7115 13.5 13.7165C13.5 13.7214 13.5 13.7263 13.5 13.7313C13.5 13.7362 13.5 13.7412 13.5 13.7461C13.5 13.7511 13.5 13.7561 13.5 13.761C13.5 13.766 13.5 13.771 13.5 13.776C13.5 13.781 13.5 13.786 13.5 13.791C13.5 13.796 13.5 13.801 13.5 13.806C13.5 13.811 13.5 13.816 13.5 13.8211C13.5 13.8261 13.5 13.8312 13.5 13.8362C13.5 13.8412 13.5 13.8463 13.5 13.8514C13.5 13.8564 13.5 13.8615 13.5 13.8666C13.5 13.8717 13.5 13.8767 13.5 13.8818C13.5 13.8869 13.5 13.892 13.5 13.8971C13.5 13.9022 13.5 13.9074 13.5 13.9125C13.5 13.9176 13.5 13.9227 13.5 13.9279C13.5 13.933 13.5 13.9382 13.5 13.9433C13.5 13.9485 13.5 13.9536 13.5 13.9588C13.5 13.964 13.5 13.9691 13.5 13.9743C13.5 13.9795 13.5 13.9847 13.5 13.9899C13.5 13.9951 13.5 14.0003 13.5 14.0055C13.5 14.0107 13.5 14.016 13.5 14.0212C13.5 14.0264 13.5 14.0316 13.5 14.0369C13.5 14.0421 13.5 14.0474 13.5 14.0526C13.5 14.0579 13.5 14.0632 13.5 14.0684C13.5 14.0737 13.5 14.079 13.5 14.0843C13.5 14.0896 13.5 14.0949 13.5 14.1002C13.5 14.1055 13.5 14.1108 13.5 14.1161C13.5 14.1214 13.5 14.1268 13.5 14.1321C13.5 14.1374 13.5 14.1428 13.5 14.1481C13.5 14.1535 13.5 14.1588 13.5 14.1642C13.5 14.1696 13.5 14.1749 13.5 14.1803C13.5 14.1857 13.5 14.1911 13.5 14.1965C13.5 14.2019 13.5 14.2073 13.5 14.2127C13.5 14.2181 13.5 14.2235 13.5 14.229C13.5 14.2344 13.5 14.2398 13.5 14.2453C13.5 14.2507 13.5 14.2561 13.5 14.2616C13.5 14.2671 13.5 14.2725 13.5 14.278C13.5 14.2835 13.5 14.289 13.5 14.2944C13.5 14.2999 13.5 14.3054 13.5 14.3109C13.5 14.3164 13.5 14.3219 13.5 14.3275C13.5 14.333 13.5 14.3385 13.5 14.344C13.5 14.3496 13.5 14.3551 13.5 14.3607C13.5 14.3662 13.5 14.3718 13.5 14.3773C13.5 14.3829 13.5 14.3885 13.5 14.3941C13.5 14.3996 13.5 14.4052 13.5 14.4108C13.5 14.4164 13.5 14.422 13.5 14.4276C13.5 14.4332 13.5 14.4389 13.5 14.4445C13.5 14.4501 13.5 14.4557 13.5 14.4614C13.5 14.467 13.5 14.4727 13.5 14.4783C13.5 14.484 13.5 14.4897 13.5 14.4953C13.5 14.501 13.5 14.5067 13.5 14.5124C13.5 14.5181 13.5 14.5238 13.5 14.5295C13.5 14.5352 13.5 14.5409 13.5 14.5466C13.5 14.5523 13.5 14.5581 13.5 14.5638C13.5 14.5695 13.5 14.5753 13.5 14.581C13.5 14.5868 13.5 14.5925 13.5 14.5983C13.5 14.6041 13.5 14.6098 13.5 14.6156C13.5 14.6214 13.5 14.6272 13.5 14.633C13.5 14.6388 13.5 14.6446 13.5 14.6504C13.5 14.6562 13.5 14.662 13.5 14.6679C13.5 14.6737 13.5 14.6795 13.5 14.6854C13.5 14.6912 13.5 14.6971 13.5 14.7029C13.5 14.7088 13.5 14.7147 13.5 14.7205C13.5 14.7264 13.5 14.7323 13.5 14.7382C13.5 14.7441 13.5 14.75 13.5 14.7559C13.5 14.7618 13.5 14.7677 13.5 14.7736C13.5 14.7796 13.5 14.7855 13.5 14.7914C13.5 14.7974 13.5 14.8033 13.5 14.8093C13.5 14.8152 13.5 14.8212 13.5 14.8272C13.5 14.8331 13.5 14.8391 13.5 14.8451C13.5 14.8511 13.5 14.8571 13.5 14.8631C13.5 14.8691 13.5 14.8751 13.5 14.8811C13.5 14.8871 13.5 14.8932 13.5 14.8992C13.5 14.9052 13.5 14.9113 13.5 14.9173C13.5 14.9234 13.5 14.9294 13.5 14.9355C13.5 14.9416 13.5 14.9476 13.5 14.9537C13.5 14.9598 13.5 14.9659 13.5 14.972C13.5 14.9781 13.5 14.9842 13.5 14.9903C13.5 14.9964 13.5 15.0025 13.5 15.0087C13.5 15.0148 13.5 15.0209 13.5 15.0271C13.5 15.0332 13.5 15.0394 13.5 15.0455C13.5 15.0517 13.5 15.0579 13.5 15.064C13.5 15.0702 13.5 15.0764 13.5 15.0826C13.5 15.0888 13.5 15.095 13.5 15.1012C13.5 15.1074 13.5 15.1136 13.5 15.1198C13.5 15.1261 13.5 15.1323 13.5 15.1385C13.5 15.1448 13.5 15.151 13.5 15.1573C13.5 15.1635 13.5 15.1698 13.5 15.1761C13.5 15.1824 13.5 15.1886 13.5 15.1949C13.5 15.2012 13.5 15.2075 13.5 15.2138C13.5 15.2201 13.5 15.2264 13.5 15.2328C13.5 15.2391 13.5 15.2454 13.5 15.2517C13.5 15.2581 13.5 15.2644 13.5 15.2708C13.5 15.2771 13.5 15.2835 13.5 15.2899C13.5 15.2962 13.5 15.3026 13.5 15.309C13.5 15.3154 13.5 15.3218 13.5 15.3282C13.5 15.3346 13.5 15.341 13.5 15.3474C13.5 15.3538 13.5 15.3603 13.5 15.3667C13.5 15.3731 13.5 15.3796 13.5 15.386C13.5 15.3925 13.5 15.3989 13.5 15.4054C13.5 15.4119 13.5 15.4183 13.5 15.4248C13.5 15.4313 13.5 15.4378 13.5 15.4443C13.5 15.4508 13.5 15.4573 13.5 15.4638C13.5 15.4703 13.5 15.4768 13.5 15.4834C13.5 15.4899 13.5 15.4964 13.5 15.503C13.5 15.5095 13.5 15.5161 13.5 15.5227C13.5 15.5292 13.5 15.5358 13.5 15.5424C13.5 15.549 13.5 15.5556 13.5 15.5621C13.5 15.5687 13.5 15.5753 13.5 15.582C13.5 15.5886 13.5 15.5952 13.5 15.6018C13.5 15.6085 13.5 15.6151 13.5 15.6217C13.5 15.6284 13.5 15.635 13.5 15.6417C13.5 15.6484 13.5 15.655 13.5 15.6617C13.5 15.6684 13.5 15.6751 13.5 15.6818C13.5 15.6885 13.5 15.6952 13.5 15.7019C13.5 15.7086 13.5 15.7153 13.5 15.722C13.5 15.7288 13.5 15.7355 13.5 15.7422C13.5 15.749 13.5 15.7557 13.5 15.7625C13.5 15.7693 13.5 15.776 13.5 15.7828C13.5 15.7896 13.5 15.7964 13.5 15.8032C13.5 15.81 13.5 15.8168 13.5 15.8236C13.5 15.8304 13.5 15.8372 13.5 15.844C13.5 15.8508 13.5 15.8577 13.5 15.8645C13.5 15.8714 13.5 15.8782 13.5 15.8851C13.5 15.8919 13.5 15.8988 13.5 15.9057C13.5 15.9126 13.5 15.9194 13.5 15.9263C13.5 15.9332 13.5 15.9401 13.5 15.947C13.5 15.9539 13.5 15.9609 13.5 15.9678C13.5 15.9747 13.5 15.9816 13.5 15.9886C13.5 15.9955 13.5 16.0025 13.5 16.0094C13.5 16.0164 13.5 16.0234 13.5 16.0303C13.5 16.0373 13.5 16.0443 13.5 16.0513C13.5 16.0583 13.5 16.0653 13.5 16.0723C13.5 16.0793 13.5 16.0863 13.5 16.0934C13.5 16.1004 13.5 16.1074 13.5 16.1145C13.5 16.1215 13.5 16.1285 13.5 16.1356C13.5 16.1427 13.5 16.1497 13.5 16.1568C13.5 16.1639 13.5 16.171 13.5 16.1781C13.5 16.1851 13.5 16.1923 13.5 16.1994C13.5 16.2065 13.5 16.2136 13.5 16.2207C13.5 16.2278 13.5 16.235 13.5 16.2421C13.5 16.2493 13.5 16.2564 13.5 16.2636C13.5 16.2707 13.5 16.2779 13.5 16.2851C13.5 16.2922 13.5 16.2994 13.5 16.3066C13.5 16.3138 13.5 16.321 13.5 16.3282C13.5 16.3354 13.5 16.3427 13.5 16.3499C13.5 16.3571 13.5 16.3643 13.5 16.3716C13.5 16.3788 13.5 16.3861 13.5 16.3933C13.5 16.4006 13.5 16.4079 13.5 16.4151C13.5 16.4224 13.5 16.4297 13.5 16.437C13.5 16.4443 13.5 16.4516 13.5 16.4589C13.5 16.4662 13.5 16.4735 13.5 16.4809C13.5 16.4882 13.5 16.4955 13.5 16.5029C13.5 16.5102 13.5 16.5176 13.5 16.5249C13.5 16.5323 13.5 16.5397 13.5 16.547C13.5 16.5544 13.5 16.5618 13.5 16.5692C13.5 16.5766 13.5 16.584 13.5 16.5914C13.5 16.5988 13.5 16.6063 13.5 16.6137C13.5 16.6211 13.5 16.6286 13.5 16.636C13.5 16.6434 13.5 16.6509 13.5 16.6584C13.5 16.6658 13.5 16.6733 13.5 16.6808C13.5 16.6883 13.5 16.6958 13.5 16.7033C13.5 16.7107 13.5 16.7183 13.5 16.7258C13.5 16.7333 13.5 16.7408 13.5 16.7483C13.5 16.7559 13.5 16.7634 13.5 16.771C13.5 16.7785 13.5 16.7861 13.5 16.7936C13.5 16.8012 13.5 16.8088 13.5 16.8164C13.5 16.8239 13.5 16.8315 13.5 16.8391C13.5 16.8467 13.5 16.8543 13.5 16.862C13.5 16.8696 13.5 16.8772 13.5 16.8848C13.5 16.8925 13.5 16.9001 13.5 16.9078C13.5 16.9154 13.5 16.9231 13.5 16.9307C13.5 16.9384 13.5 16.9461 13.5 16.9538C13.5 16.9615 13.5 16.9692 13.5 16.9769C13.5 16.9846 13.5 16.9923 13.5 17H16.5Z" fill="#152C5B"/>
<path d="M31.5 17C31.5 17.8284 32.1716 18.5 33 18.5C33.8284 18.5 34.5 17.8284 34.5 17H31.5ZM34.5 11C34.5 10.1716 33.8284 9.5 33 9.5C32.1716 9.5 31.5 10.1716 31.5 11H34.5ZM34.5 17C34.5 16.9923 34.5 16.9846 34.5 16.9769C34.5 16.9692 34.5 16.9615 34.5 16.9538C34.5 16.9461 34.5 16.9384 34.5 16.9307C34.5 16.9231 34.5 16.9154 34.5 16.9078C34.5 16.9001 34.5 16.8925 34.5 16.8848C34.5 16.8772 34.5 16.8696 34.5 16.862C34.5 16.8543 34.5 16.8467 34.5 16.8391C34.5 16.8315 34.5 16.8239 34.5 16.8164C34.5 16.8088 34.5 16.8012 34.5 16.7936C34.5 16.7861 34.5 16.7785 34.5 16.771C34.5 16.7634 34.5 16.7559 34.5 16.7483C34.5 16.7408 34.5 16.7333 34.5 16.7258C34.5 16.7183 34.5 16.7107 34.5 16.7033C34.5 16.6958 34.5 16.6883 34.5 16.6808C34.5 16.6733 34.5 16.6658 34.5 16.6584C34.5 16.6509 34.5 16.6434 34.5 16.636C34.5 16.6286 34.5 16.6211 34.5 16.6137C34.5 16.6063 34.5 16.5988 34.5 16.5914C34.5 16.584 34.5 16.5766 34.5 16.5692C34.5 16.5618 34.5 16.5544 34.5 16.547C34.5 16.5397 34.5 16.5323 34.5 16.5249C34.5 16.5176 34.5 16.5102 34.5 16.5029C34.5 16.4955 34.5 16.4882 34.5 16.4809C34.5 16.4735 34.5 16.4662 34.5 16.4589C34.5 16.4516 34.5 16.4443 34.5 16.437C34.5 16.4297 34.5 16.4224 34.5 16.4151C34.5 16.4079 34.5 16.4006 34.5 16.3933C34.5 16.3861 34.5 16.3788 34.5 16.3716C34.5 16.3643 34.5 16.3571 34.5 16.3499C34.5 16.3427 34.5 16.3354 34.5 16.3282C34.5 16.321 34.5 16.3138 34.5 16.3066C34.5 16.2994 34.5 16.2922 34.5 16.2851C34.5 16.2779 34.5 16.2707 34.5 16.2636C34.5 16.2564 34.5 16.2493 34.5 16.2421C34.5 16.235 34.5 16.2278 34.5 16.2207C34.5 16.2136 34.5 16.2065 34.5 16.1994C34.5 16.1923 34.5 16.1851 34.5 16.1781C34.5 16.171 34.5 16.1639 34.5 16.1568C34.5 16.1497 34.5 16.1427 34.5 16.1356C34.5 16.1285 34.5 16.1215 34.5 16.1145C34.5 16.1074 34.5 16.1004 34.5 16.0934C34.5 16.0863 34.5 16.0793 34.5 16.0723C34.5 16.0653 34.5 16.0583 34.5 16.0513C34.5 16.0443 34.5 16.0373 34.5 16.0303C34.5 16.0234 34.5 16.0164 34.5 16.0094C34.5 16.0025 34.5 15.9955 34.5 15.9886C34.5 15.9816 34.5 15.9747 34.5 15.9678C34.5 15.9609 34.5 15.9539 34.5 15.947C34.5 15.9401 34.5 15.9332 34.5 15.9263C34.5 15.9194 34.5 15.9126 34.5 15.9057C34.5 15.8988 34.5 15.8919 34.5 15.8851C34.5 15.8782 34.5 15.8714 34.5 15.8645C34.5 15.8577 34.5 15.8508 34.5 15.844C34.5 15.8372 34.5 15.8304 34.5 15.8236C34.5 15.8168 34.5 15.81 34.5 15.8032C34.5 15.7964 34.5 15.7896 34.5 15.7828C34.5 15.776 34.5 15.7693 34.5 15.7625C34.5 15.7557 34.5 15.749 34.5 15.7422C34.5 15.7355 34.5 15.7288 34.5 15.722C34.5 15.7153 34.5 15.7086 34.5 15.7019C34.5 15.6952 34.5 15.6885 34.5 15.6818C34.5 15.6751 34.5 15.6684 34.5 15.6617C34.5 15.655 34.5 15.6484 34.5 15.6417C34.5 15.635 34.5 15.6284 34.5 15.6217C34.5 15.6151 34.5 15.6085 34.5 15.6018C34.5 15.5952 34.5 15.5886 34.5 15.582C34.5 15.5753 34.5 15.5687 34.5 15.5621C34.5 15.5556 34.5 15.549 34.5 15.5424C34.5 15.5358 34.5 15.5292 34.5 15.5227C34.5 15.5161 34.5 15.5095 34.5 15.503C34.5 15.4964 34.5 15.4899 34.5 15.4834C34.5 15.4768 34.5 15.4703 34.5 15.4638C34.5 15.4573 34.5 15.4508 34.5 15.4443C34.5 15.4378 34.5 15.4313 34.5 15.4248C34.5 15.4183 34.5 15.4119 34.5 15.4054C34.5 15.3989 34.5 15.3925 34.5 15.386C34.5 15.3796 34.5 15.3731 34.5 15.3667C34.5 15.3603 34.5 15.3538 34.5 15.3474C34.5 15.341 34.5 15.3346 34.5 15.3282C34.5 15.3218 34.5 15.3154 34.5 15.309C34.5 15.3026 34.5 15.2962 34.5 15.2899C34.5 15.2835 34.5 15.2771 34.5 15.2708C34.5 15.2644 34.5 15.2581 34.5 15.2517C34.5 15.2454 34.5 15.2391 34.5 15.2328C34.5 15.2264 34.5 15.2201 34.5 15.2138C34.5 15.2075 34.5 15.2012 34.5 15.1949C34.5 15.1886 34.5 15.1824 34.5 15.1761C34.5 15.1698 34.5 15.1635 34.5 15.1573C34.5 15.151 34.5 15.1448 34.5 15.1385C34.5 15.1323 34.5 15.1261 34.5 15.1198C34.5 15.1136 34.5 15.1074 34.5 15.1012C34.5 15.095 34.5 15.0888 34.5 15.0826C34.5 15.0764 34.5 15.0702 34.5 15.064C34.5 15.0579 34.5 15.0517 34.5 15.0455C34.5 15.0394 34.5 15.0332 34.5 15.0271C34.5 15.0209 34.5 15.0148 34.5 15.0087C34.5 15.0025 34.5 14.9964 34.5 14.9903C34.5 14.9842 34.5 14.9781 34.5 14.972C34.5 14.9659 34.5 14.9598 34.5 14.9537C34.5 14.9476 34.5 14.9416 34.5 14.9355C34.5 14.9294 34.5 14.9234 34.5 14.9173C34.5 14.9113 34.5 14.9052 34.5 14.8992C34.5 14.8932 34.5 14.8871 34.5 14.8811C34.5 14.8751 34.5 14.8691 34.5 14.8631C34.5 14.8571 34.5 14.8511 34.5 14.8451C34.5 14.8391 34.5 14.8331 34.5 14.8272C34.5 14.8212 34.5 14.8152 34.5 14.8093C34.5 14.8033 34.5 14.7974 34.5 14.7914C34.5 14.7855 34.5 14.7796 34.5 14.7736C34.5 14.7677 34.5 14.7618 34.5 14.7559C34.5 14.75 34.5 14.7441 34.5 14.7382C34.5 14.7323 34.5 14.7264 34.5 14.7205C34.5 14.7147 34.5 14.7088 34.5 14.7029C34.5 14.6971 34.5 14.6912 34.5 14.6854C34.5 14.6795 34.5 14.6737 34.5 14.6679C34.5 14.662 34.5 14.6562 34.5 14.6504C34.5 14.6446 34.5 14.6388 34.5 14.633C34.5 14.6272 34.5 14.6214 34.5 14.6156C34.5 14.6098 34.5 14.6041 34.5 14.5983C34.5 14.5925 34.5 14.5868 34.5 14.581C34.5 14.5753 34.5 14.5695 34.5 14.5638C34.5 14.5581 34.5 14.5523 34.5 14.5466C34.5 14.5409 34.5 14.5352 34.5 14.5295C34.5 14.5238 34.5 14.5181 34.5 14.5124C34.5 14.5067 34.5 14.501 34.5 14.4953C34.5 14.4897 34.5 14.484 34.5 14.4783C34.5 14.4727 34.5 14.467 34.5 14.4614C34.5 14.4557 34.5 14.4501 34.5 14.4445C34.5 14.4389 34.5 14.4332 34.5 14.4276C34.5 14.422 34.5 14.4164 34.5 14.4108C34.5 14.4052 34.5 14.3996 34.5 14.3941C34.5 14.3885 34.5 14.3829 34.5 14.3773C34.5 14.3718 34.5 14.3662 34.5 14.3607C34.5 14.3551 34.5 14.3496 34.5 14.344C34.5 14.3385 34.5 14.333 34.5 14.3275C34.5 14.3219 34.5 14.3164 34.5 14.3109C34.5 14.3054 34.5 14.2999 34.5 14.2944C34.5 14.289 34.5 14.2835 34.5 14.278C34.5 14.2725 34.5 14.2671 34.5 14.2616C34.5 14.2561 34.5 14.2507 34.5 14.2453C34.5 14.2398 34.5 14.2344 34.5 14.229C34.5 14.2235 34.5 14.2181 34.5 14.2127C34.5 14.2073 34.5 14.2019 34.5 14.1965C34.5 14.1911 34.5 14.1857 34.5 14.1803C34.5 14.1749 34.5 14.1696 34.5 14.1642C34.5 14.1588 34.5 14.1535 34.5 14.1481C34.5 14.1428 34.5 14.1374 34.5 14.1321C34.5 14.1268 34.5 14.1214 34.5 14.1161C34.5 14.1108 34.5 14.1055 34.5 14.1002C34.5 14.0949 34.5 14.0896 34.5 14.0843C34.5 14.079 34.5 14.0737 34.5 14.0684C34.5 14.0632 34.5 14.0579 34.5 14.0526C34.5 14.0474 34.5 14.0421 34.5 14.0369C34.5 14.0316 34.5 14.0264 34.5 14.0212C34.5 14.016 34.5 14.0107 34.5 14.0055C34.5 14.0003 34.5 13.9951 34.5 13.9899C34.5 13.9847 34.5 13.9795 34.5 13.9743C34.5 13.9691 34.5 13.964 34.5 13.9588C34.5 13.9536 34.5 13.9485 34.5 13.9433C34.5 13.9382 34.5 13.933 34.5 13.9279C34.5 13.9227 34.5 13.9176 34.5 13.9125C34.5 13.9074 34.5 13.9022 34.5 13.8971C34.5 13.892 34.5 13.8869 34.5 13.8818C34.5 13.8767 34.5 13.8717 34.5 13.8666C34.5 13.8615 34.5 13.8564 34.5 13.8514C34.5 13.8463 34.5 13.8412 34.5 13.8362C34.5 13.8312 34.5 13.8261 34.5 13.8211C34.5 13.816 34.5 13.811 34.5 13.806C34.5 13.801 34.5 13.796 34.5 13.791C34.5 13.786 34.5 13.781 34.5 13.776C34.5 13.771 34.5 13.766 34.5 13.761C34.5 13.7561 34.5 13.7511 34.5 13.7461C34.5 13.7412 34.5 13.7362 34.5 13.7313C34.5 13.7263 34.5 13.7214 34.5 13.7165C34.5 13.7115 34.5 13.7066 34.5 13.7017C34.5 13.6968 34.5 13.6919 34.5 13.687C34.5 13.6821 34.5 13.6772 34.5 13.6723C34.5 13.6674 34.5 13.6626 34.5 13.6577C34.5 13.6528 34.5 13.648 34.5 13.6431C34.5 13.6382 34.5 13.6334 34.5 13.6286C34.5 13.6237 34.5 13.6189 34.5 13.6141C34.5 13.6092 34.5 13.6044 34.5 13.5996C34.5 13.5948 34.5 13.59 34.5 13.5852C34.5 13.5804 34.5 13.5756 34.5 13.5708C34.5 13.566 34.5 13.5613 34.5 13.5565C34.5 13.5517 34.5 13.547 34.5 13.5422C34.5 13.5375 34.5 13.5327 34.5 13.528C34.5 13.5233 34.5 13.5185 34.5 13.5138C34.5 13.5091 34.5 13.5044 34.5 13.4997C34.5 13.495 34.5 13.4903 34.5 13.4856C34.5 13.4809 34.5 13.4762 34.5 13.4715C34.5 13.4668 34.5 13.4622 34.5 13.4575C34.5 13.4528 34.5 13.4482 34.5 13.4435C34.5 13.4389 34.5 13.4342 34.5 13.4296C34.5 13.425 34.5 13.4203 34.5 13.4157C34.5 13.4111 34.5 13.4065 34.5 13.4019C34.5 13.3973 34.5 13.3927 34.5 13.3881C34.5 13.3835 34.5 13.3789 34.5 13.3743C34.5 13.3698 34.5 13.3652 34.5 13.3606C34.5 13.3561 34.5 13.3515 34.5 13.347C34.5 13.3424 34.5 13.3379 34.5 13.3333C34.5 13.3288 34.5 13.3243 34.5 13.3198C34.5 13.3152 34.5 13.3107 34.5 13.3062C34.5 13.3017 34.5 13.2972 34.5 13.2927C34.5 13.2882 34.5 13.2838 34.5 13.2793C34.5 13.2748 34.5 13.2703 34.5 13.2659C34.5 13.2614 34.5 13.257 34.5 13.2525C34.5 13.2481 34.5 13.2436 34.5 13.2392C34.5 13.2348 34.5 13.2304 34.5 13.2259C34.5 13.2215 34.5 13.2171 34.5 13.2127C34.5 13.2083 34.5 13.2039 34.5 13.1995C34.5 13.1951 34.5 13.1907 34.5 13.1864C34.5 13.182 34.5 13.1776 34.5 13.1733C34.5 13.1689 34.5 13.1646 34.5 13.1602C34.5 13.1559 34.5 13.1515 34.5 13.1472C34.5 13.1429 34.5 13.1385 34.5 13.1342C34.5 13.1299 34.5 13.1256 34.5 13.1213C34.5 13.117 34.5 13.1127 34.5 13.1084C34.5 13.1041 34.5 13.0998 34.5 13.0956C34.5 13.0913 34.5 13.087 34.5 13.0828C34.5 13.0785 34.5 13.0742 34.5 13.07C34.5 13.0658 34.5 13.0615 34.5 13.0573C34.5 13.0531 34.5 13.0488 34.5 13.0446C34.5 13.0404 34.5 13.0362 34.5 13.032C34.5 13.0278 34.5 13.0236 34.5 13.0194C34.5 13.0152 34.5 13.011 34.5 13.0068C34.5 13.0027 34.5 12.9985 34.5 12.9943C34.5 12.9902 34.5 12.986 34.5 12.9819C34.5 12.9777 34.5 12.9736 34.5 12.9695C34.5 12.9653 34.5 12.9612 34.5 12.9571C34.5 12.953 34.5 12.9489 34.5 12.9447C34.5 12.9406 34.5 12.9365 34.5 12.9325C34.5 12.9284 34.5 12.9243 34.5 12.9202C34.5 12.9161 34.5 12.9121 34.5 12.908C34.5 12.9039 34.5 12.8999 34.5 12.8958C34.5 12.8918 34.5 12.8877 34.5 12.8837C34.5 12.8797 34.5 12.8756 34.5 12.8716C34.5 12.8676 34.5 12.8636 34.5 12.8596C34.5 12.8556 34.5 12.8516 34.5 12.8476C34.5 12.8436 34.5 12.8396 34.5 12.8356C34.5 12.8317 34.5 12.8277 34.5 12.8237C34.5 12.8198 34.5 12.8158 34.5 12.8118C34.5 12.8079 34.5 12.804 34.5 12.8C34.5 12.7961 34.5 12.7921 34.5 12.7882C34.5 12.7843 34.5 12.7804 34.5 12.7765C34.5 12.7726 34.5 12.7687 34.5 12.7648C34.5 12.7609 34.5 12.757 34.5 12.7531C34.5 12.7492 34.5 12.7454 34.5 12.7415C34.5 12.7376 34.5 12.7338 34.5 12.7299C34.5 12.7261 34.5 12.7222 34.5 12.7184C34.5 12.7145 34.5 12.7107 34.5 12.7069C34.5 12.703 34.5 12.6992 34.5 12.6954C34.5 12.6916 34.5 12.6878 34.5 12.684C34.5 12.6802 34.5 12.6764 34.5 12.6726C34.5 12.6688 34.5 12.6651 34.5 12.6613C34.5 12.6575 34.5 12.6538 34.5 12.65C34.5 12.6462 34.5 12.6425 34.5 12.6387C34.5 12.635 34.5 12.6313 34.5 12.6275C34.5 12.6238 34.5 12.6201 34.5 12.6164C34.5 12.6127 34.5 12.6089 34.5 12.6052C34.5 12.6015 34.5 12.5978 34.5 12.5942C34.5 12.5905 34.5 12.5868 34.5 12.5831C34.5 12.5794 34.5 12.5758 34.5 12.5721C34.5 12.5685 34.5 12.5648 34.5 12.5611C34.5 12.5575 34.5 12.5539 34.5 12.5502C34.5 12.5466 34.5 12.543 34.5 12.5393C34.5 12.5357 34.5 12.5321 34.5 12.5285C34.5 12.5249 34.5 12.5213 34.5 12.5177C34.5 12.5141 34.5 12.5105 34.5 12.5069C34.5 12.5034 34.5 12.4998 34.5 12.4962C34.5 12.4927 34.5 12.4891 34.5 12.4856C34.5 12.482 34.5 12.4785 34.5 12.4749C34.5 12.4714 34.5 12.4678 34.5 12.4643C34.5 12.4608 34.5 12.4573 34.5 12.4538C34.5 12.4503 34.5 12.4467 34.5 12.4432C34.5 12.4397 34.5 12.4363 34.5 12.4328C34.5 12.4293 34.5 12.4258 34.5 12.4223C34.5 12.4189 34.5 12.4154 34.5 12.4119C34.5 12.4085 34.5 12.405 34.5 12.4016C34.5 12.3981 34.5 12.3947 34.5 12.3913C34.5 12.3878 34.5 12.3844 34.5 12.381C34.5 12.3776 34.5 12.3742 34.5 12.3708C34.5 12.3674 34.5 12.364 34.5 12.3606C34.5 12.3572 34.5 12.3538 34.5 12.3504C34.5 12.347 34.5 12.3437 34.5 12.3403C34.5 12.3369 34.5 12.3336 34.5 12.3302C34.5 12.3269 34.5 12.3235 34.5 12.3202C34.5 12.3169 34.5 12.3135 34.5 12.3102C34.5 12.3069 34.5 12.3036 34.5 12.3003C34.5 12.2969 34.5 12.2936 34.5 12.2903C34.5 12.287 34.5 12.2838 34.5 12.2805C34.5 12.2772 34.5 12.2739 34.5 12.2706C34.5 12.2674 34.5 12.2641 34.5 12.2608C34.5 12.2576 34.5 12.2543 34.5 12.2511C34.5 12.2478 34.5 12.2446 34.5 12.2414C34.5 12.2381 34.5 12.2349 34.5 12.2317C34.5 12.2285 34.5 12.2253 34.5 12.2221C34.5 12.2189 34.5 12.2157 34.5 12.2125C34.5 12.2093 34.5 12.2061 34.5 12.2029C34.5 12.1997 34.5 12.1966 34.5 12.1934C34.5 12.1902 34.5 12.1871 34.5 12.1839C34.5 12.1808 34.5 12.1776 34.5 12.1745C34.5 12.1713 34.5 12.1682 34.5 12.1651C34.5 12.1619 34.5 12.1588 34.5 12.1557C34.5 12.1526 34.5 12.1495 34.5 12.1464C34.5 12.1433 34.5 12.1402 34.5 12.1371C34.5 12.134 34.5 12.1309 34.5 12.1279C34.5 12.1248 34.5 12.1217 34.5 12.1187C34.5 12.1156 34.5 12.1125 34.5 12.1095C34.5 12.1065 34.5 12.1034 34.5 12.1004C34.5 12.0973 34.5 12.0943 34.5 12.0913C34.5 12.0883 34.5 12.0853 34.5 12.0822C34.5 12.0792 34.5 12.0762 34.5 12.0732C34.5 12.0702 34.5 12.0672 34.5 12.0643C34.5 12.0613 34.5 12.0583 34.5 12.0553C34.5 12.0524 34.5 12.0494 34.5 12.0464C34.5 12.0435 34.5 12.0405 34.5 12.0376C34.5 12.0346 34.5 12.0317 34.5 12.0288C34.5 12.0258 34.5 12.0229 34.5 12.02C34.5 12.0171 34.5 12.0142 34.5 12.0113C34.5 12.0084 34.5 12.0055 34.5 12.0026C34.5 11.9997 34.5 11.9968 34.5 11.9939C34.5 11.991 34.5 11.9881 34.5 11.9853C34.5 11.9824 34.5 11.9796 34.5 11.9767C34.5 11.9738 34.5 11.971 34.5 11.9682C34.5 11.9653 34.5 11.9625 34.5 11.9596C34.5 11.9568 34.5 11.954 34.5 11.9512C34.5 11.9484 34.5 11.9455 34.5 11.9427C34.5 11.9399 34.5 11.9371 34.5 11.9344C34.5 11.9316 34.5 11.9288 34.5 11.926C34.5 11.9232 34.5 11.9205 34.5 11.9177C34.5 11.9149 34.5 11.9122 34.5 11.9094C34.5 11.9067 34.5 11.9039 34.5 11.9012C34.5 11.8984 34.5 11.8957 34.5 11.893C34.5 11.8902 34.5 11.8875 34.5 11.8848C34.5 11.8821 34.5 11.8794 34.5 11.8767C34.5 11.874 34.5 11.8713 34.5 11.8686C34.5 11.8659 34.5 11.8632 34.5 11.8605C34.5 11.8579 34.5 11.8552 34.5 11.8525C34.5 11.8499 34.5 11.8472 34.5 11.8446C34.5 11.8419 34.5 11.8393 34.5 11.8366C34.5 11.834 34.5 11.8314 34.5 11.8287C34.5 11.8261 34.5 11.8235 34.5 11.8209C34.5 11.8183 34.5 11.8156 34.5 11.813C34.5 11.8104 34.5 11.8078 34.5 11.8053C34.5 11.8027 34.5 11.8001 34.5 11.7975C34.5 11.7949 34.5 11.7924 34.5 11.7898C34.5 11.7872 34.5 11.7847 34.5 11.7821C34.5 11.7796 34.5 11.777 34.5 11.7745C34.5 11.772 34.5 11.7694 34.5 11.7669C34.5 11.7644 34.5 11.7618 34.5 11.7593C34.5 11.7568 34.5 11.7543 34.5 11.7518C34.5 11.7493 34.5 11.7468 34.5 11.7443C34.5 11.7418 34.5 11.7394 34.5 11.7369C34.5 11.7344 34.5 11.7319 34.5 11.7295C34.5 11.727 34.5 11.7245 34.5 11.7221C34.5 11.7196 34.5 11.7172 34.5 11.7148C34.5 11.7123 34.5 11.7099 34.5 11.7075C34.5 11.705 34.5 11.7026 34.5 11.7002C34.5 11.6978 34.5 11.6954 34.5 11.693C34.5 11.6906 34.5 11.6882 34.5 11.6858C34.5 11.6834 34.5 11.681 34.5 11.6786C34.5 11.6762 34.5 11.6739 34.5 11.6715C34.5 11.6691 34.5 11.6668 34.5 11.6644C34.5 11.6621 34.5 11.6597 34.5 11.6574C34.5 11.655 34.5 11.6527 34.5 11.6504C34.5 11.648 34.5 11.6457 34.5 11.6434C34.5 11.6411 34.5 11.6388 34.5 11.6365C34.5 11.6342 34.5 11.6319 34.5 11.6296C34.5 11.6273 34.5 11.625 34.5 11.6227C34.5 11.6204 34.5 11.6182 34.5 11.6159C34.5 11.6136 34.5 11.6114 34.5 11.6091C34.5 11.6069 34.5 11.6046 34.5 11.6024C34.5 11.6001 34.5 11.5979 34.5 11.5957C34.5 11.5934 34.5 11.5912 34.5 11.589C34.5 11.5868 34.5 11.5845 34.5 11.5823C34.5 11.5801 34.5 11.5779 34.5 11.5757C34.5 11.5735 34.5 11.5713 34.5 11.5692C34.5 11.567 34.5 11.5648 34.5 11.5626C34.5 11.5605 34.5 11.5583 34.5 11.5561C34.5 11.554 34.5 11.5518 34.5 11.5497C34.5 11.5475 34.5 11.5454 34.5 11.5433C34.5 11.5411 34.5 11.539 34.5 11.5369C34.5 11.5347 34.5 11.5326 34.5 11.5305C34.5 11.5284 34.5 11.5263 34.5 11.5242C34.5 11.5221 34.5 11.52 34.5 11.5179C34.5 11.5158 34.5 11.5138 34.5 11.5117C34.5 11.5096 34.5 11.5075 34.5 11.5055C34.5 11.5034 34.5 11.5013 34.5 11.4993C34.5 11.4972 34.5 11.4952 34.5 11.4932C34.5 11.4911 34.5 11.4891 34.5 11.4871C34.5 11.485 34.5 11.483 34.5 11.481C34.5 11.479 34.5 11.477 34.5 11.475C34.5 11.473 34.5 11.471 34.5 11.469C34.5 11.467 34.5 11.465 34.5 11.463C34.5 11.461 34.5 11.4591 34.5 11.4571C34.5 11.4551 34.5 11.4532 34.5 11.4512C34.5 11.4492 34.5 11.4473 34.5 11.4454C34.5 11.4434 34.5 11.4415 34.5 11.4395C34.5 11.4376 34.5 11.4357 34.5 11.4338C34.5 11.4318 34.5 11.4299 34.5 11.428C34.5 11.4261 34.5 11.4242 34.5 11.4223C34.5 11.4204 34.5 11.4185 34.5 11.4166C34.5 11.4147 34.5 11.4129 34.5 11.411C34.5 11.4091 34.5 11.4072 34.5 11.4054C34.5 11.4035 34.5 11.4017 34.5 11.3998C34.5 11.398 34.5 11.3961 34.5 11.3943C34.5 11.3924 34.5 11.3906 34.5 11.3888C34.5 11.3869 34.5 11.3851 34.5 11.3833C34.5 11.3815 34.5 11.3797 34.5 11.3779C34.5 11.3761 34.5 11.3743 34.5 11.3725C34.5 11.3707 34.5 11.3689 34.5 11.3671C34.5 11.3653 34.5 11.3636 34.5 11.3618C34.5 11.36 34.5 11.3583 34.5 11.3565C34.5 11.3548 34.5 11.353 34.5 11.3513C34.5 11.3495 34.5 11.3478 34.5 11.346C34.5 11.3443 34.5 11.3426 34.5 11.3408C34.5 11.3391 34.5 11.3374 34.5 11.3357C34.5 11.334 34.5 11.3323 34.5 11.3306C34.5 11.3289 34.5 11.3272 34.5 11.3255C34.5 11.3238 34.5 11.3221 34.5 11.3204C34.5 11.3188 34.5 11.3171 34.5 11.3154C34.5 11.3138 34.5 11.3121 34.5 11.3104C34.5 11.3088 34.5 11.3071 34.5 11.3055C34.5 11.3039 34.5 11.3022 34.5 11.3006C34.5 11.299 34.5 11.2973 34.5 11.2957C34.5 11.2941 34.5 11.2925 34.5 11.2909C34.5 11.2893 34.5 11.2877 34.5 11.2861C34.5 11.2845 34.5 11.2829 34.5 11.2813C34.5 11.2797 34.5 11.2781 34.5 11.2766C34.5 11.275 34.5 11.2734 34.5 11.2718C34.5 11.2703 34.5 11.2687 34.5 11.2672C34.5 11.2656 34.5 11.2641 34.5 11.2625C34.5 11.261 34.5 11.2595 34.5 11.2579C34.5 11.2564 34.5 11.2549 34.5 11.2534C34.5 11.2518 34.5 11.2503 34.5 11.2488C34.5 11.2473 34.5 11.2458 34.5 11.2443C34.5 11.2428 34.5 11.2413 34.5 11.2399C34.5 11.2384 34.5 11.2369 34.5 11.2354C34.5 11.2339 34.5 11.2325 34.5 11.231C34.5 11.2296 34.5 11.2281 34.5 11.2266C34.5 11.2252 34.5 11.2238 34.5 11.2223C34.5 11.2209 34.5 11.2194 34.5 11.218C34.5 11.2166 34.5 11.2152 34.5 11.2137C34.5 11.2123 34.5 11.2109 34.5 11.2095C34.5 11.2081 34.5 11.2067 34.5 11.2053C34.5 11.2039 34.5 11.2025 34.5 11.2011C34.5 11.1998 34.5 11.1984 34.5 11.197C34.5 11.1956 34.5 11.1943 34.5 11.1929C34.5 11.1916 34.5 11.1902 34.5 11.1888C34.5 11.1875 34.5 11.1862 34.5 11.1848C34.5 11.1835 34.5 11.1821 34.5 11.1808C34.5 11.1795 34.5 11.1782 34.5 11.1768C34.5 11.1755 34.5 11.1742 34.5 11.1729C34.5 11.1716 34.5 11.1703 34.5 11.169C34.5 11.1677 34.5 11.1664 34.5 11.1651C34.5 11.1639 34.5 11.1626 34.5 11.1613C34.5 11.16 34.5 11.1588 34.5 11.1575C34.5 11.1562 34.5 11.155 34.5 11.1537C34.5 11.1525 34.5 11.1512 34.5 11.15C34.5 11.1488 34.5 11.1475 34.5 11.1463C34.5 11.1451 34.5 11.1438 34.5 11.1426C34.5 11.1414 34.5 11.1402 34.5 11.139C34.5 11.1378 34.5 11.1366 34.5 11.1354C34.5 11.1342 34.5 11.133 34.5 11.1318C34.5 11.1306 34.5 11.1294 34.5 11.1283C34.5 11.1271 34.5 11.1259 34.5 11.1248C34.5 11.1236 34.5 11.1224 34.5 11.1213C34.5 11.1201 34.5 11.119 34.5 11.1178C34.5 11.1167 34.5 11.1156 34.5 11.1144C34.5 11.1133 34.5 11.1122 34.5 11.1111C34.5 11.1099 34.5 11.1088 34.5 11.1077C34.5 11.1066 34.5 11.1055 34.5 11.1044C34.5 11.1033 34.5 11.1022 34.5 11.1011C34.5 11.1 34.5 11.099 34.5 11.0979C34.5 11.0968 34.5 11.0957 34.5 11.0947C34.5 11.0936 34.5 11.0925 34.5 11.0915C34.5 11.0904 34.5 11.0894 34.5 11.0883C34.5 11.0873 34.5 11.0862 34.5 11.0852C34.5 11.0842 34.5 11.0831 34.5 11.0821C34.5 11.0811 34.5 11.0801 34.5 11.0791C34.5 11.078 34.5 11.077 34.5 11.076C34.5 11.075 34.5 11.074 34.5 11.073C34.5 11.0721 34.5 11.0711 34.5 11.0701C34.5 11.0691 34.5 11.0681 34.5 11.0672C34.5 11.0662 34.5 11.0652 34.5 11.0643C34.5 11.0633 34.5 11.0623 34.5 11.0614C34.5 11.0605 34.5 11.0595 34.5 11.0586C34.5 11.0576 34.5 11.0567 34.5 11.0558C34.5 11.0548 34.5 11.0539 34.5 11.053C34.5 11.0521 34.5 11.0512 34.5 11.0503C34.5 11.0494 34.5 11.0485 34.5 11.0476C34.5 11.0467 34.5 11.0458 34.5 11.0449C34.5 11.044 34.5 11.0431 34.5 11.0422C34.5 11.0414 34.5 11.0405 34.5 11.0396C34.5 11.0388 34.5 11.0379 34.5 11.037C34.5 11.0362 34.5 11.0353 34.5 11.0345C34.5 11.0337 34.5 11.0328 34.5 11.032C34.5 11.0311 34.5 11.0303 34.5 11.0295C34.5 11.0287 34.5 11.0279 34.5 11.027C34.5 11.0262 34.5 11.0254 34.5 11.0246C34.5 11.0238 34.5 11.023 34.5 11.0222C34.5 11.0214 34.5 11.0206 34.5 11.0199C34.5 11.0191 34.5 11.0183 34.5 11.0175C34.5 11.0168 34.5 11.016 34.5 11.0152C34.5 11.0145 34.5 11.0137 34.5 11.013C34.5 11.0122 34.5 11.0115 34.5 11.0107C34.5 11.01 34.5 11.0092 34.5 11.0085C34.5 11.0078 34.5 11.0071 34.5 11.0063C34.5 11.0056 34.5 11.0049 34.5 11.0042C34.5 11.0035 34.5 11.0028 34.5 11.0021C34.5 11.0014 34.5 11.0007 34.5 11H31.5C31.5 11.0007 31.5 11.0014 31.5 11.0021C31.5 11.0028 31.5 11.0035 31.5 11.0042C31.5 11.0049 31.5 11.0056 31.5 11.0063C31.5 11.0071 31.5 11.0078 31.5 11.0085C31.5 11.0092 31.5 11.01 31.5 11.0107C31.5 11.0115 31.5 11.0122 31.5 11.013C31.5 11.0137 31.5 11.0145 31.5 11.0152C31.5 11.016 31.5 11.0168 31.5 11.0175C31.5 11.0183 31.5 11.0191 31.5 11.0199C31.5 11.0206 31.5 11.0214 31.5 11.0222C31.5 11.023 31.5 11.0238 31.5 11.0246C31.5 11.0254 31.5 11.0262 31.5 11.027C31.5 11.0279 31.5 11.0287 31.5 11.0295C31.5 11.0303 31.5 11.0311 31.5 11.032C31.5 11.0328 31.5 11.0337 31.5 11.0345C31.5 11.0353 31.5 11.0362 31.5 11.037C31.5 11.0379 31.5 11.0388 31.5 11.0396C31.5 11.0405 31.5 11.0414 31.5 11.0422C31.5 11.0431 31.5 11.044 31.5 11.0449C31.5 11.0458 31.5 11.0467 31.5 11.0476C31.5 11.0485 31.5 11.0494 31.5 11.0503C31.5 11.0512 31.5 11.0521 31.5 11.053C31.5 11.0539 31.5 11.0548 31.5 11.0558C31.5 11.0567 31.5 11.0576 31.5 11.0586C31.5 11.0595 31.5 11.0605 31.5 11.0614C31.5 11.0623 31.5 11.0633 31.5 11.0643C31.5 11.0652 31.5 11.0662 31.5 11.0672C31.5 11.0681 31.5 11.0691 31.5 11.0701C31.5 11.0711 31.5 11.0721 31.5 11.073C31.5 11.074 31.5 11.075 31.5 11.076C31.5 11.077 31.5 11.078 31.5 11.0791C31.5 11.0801 31.5 11.0811 31.5 11.0821C31.5 11.0831 31.5 11.0842 31.5 11.0852C31.5 11.0862 31.5 11.0873 31.5 11.0883C31.5 11.0894 31.5 11.0904 31.5 11.0915C31.5 11.0925 31.5 11.0936 31.5 11.0947C31.5 11.0957 31.5 11.0968 31.5 11.0979C31.5 11.099 31.5 11.1 31.5 11.1011C31.5 11.1022 31.5 11.1033 31.5 11.1044C31.5 11.1055 31.5 11.1066 31.5 11.1077C31.5 11.1088 31.5 11.1099 31.5 11.1111C31.5 11.1122 31.5 11.1133 31.5 11.1144C31.5 11.1156 31.5 11.1167 31.5 11.1178C31.5 11.119 31.5 11.1201 31.5 11.1213C31.5 11.1224 31.5 11.1236 31.5 11.1248C31.5 11.1259 31.5 11.1271 31.5 11.1283C31.5 11.1294 31.5 11.1306 31.5 11.1318C31.5 11.133 31.5 11.1342 31.5 11.1354C31.5 11.1366 31.5 11.1378 31.5 11.139C31.5 11.1402 31.5 11.1414 31.5 11.1426C31.5 11.1438 31.5 11.1451 31.5 11.1463C31.5 11.1475 31.5 11.1488 31.5 11.15C31.5 11.1512 31.5 11.1525 31.5 11.1537C31.5 11.155 31.5 11.1562 31.5 11.1575C31.5 11.1588 31.5 11.16 31.5 11.1613C31.5 11.1626 31.5 11.1639 31.5 11.1651C31.5 11.1664 31.5 11.1677 31.5 11.169C31.5 11.1703 31.5 11.1716 31.5 11.1729C31.5 11.1742 31.5 11.1755 31.5 11.1768C31.5 11.1782 31.5 11.1795 31.5 11.1808C31.5 11.1821 31.5 11.1835 31.5 11.1848C31.5 11.1862 31.5 11.1875 31.5 11.1888C31.5 11.1902 31.5 11.1916 31.5 11.1929C31.5 11.1943 31.5 11.1956 31.5 11.197C31.5 11.1984 31.5 11.1998 31.5 11.2011C31.5 11.2025 31.5 11.2039 31.5 11.2053C31.5 11.2067 31.5 11.2081 31.5 11.2095C31.5 11.2109 31.5 11.2123 31.5 11.2137C31.5 11.2152 31.5 11.2166 31.5 11.218C31.5 11.2194 31.5 11.2209 31.5 11.2223C31.5 11.2238 31.5 11.2252 31.5 11.2266C31.5 11.2281 31.5 11.2296 31.5 11.231C31.5 11.2325 31.5 11.2339 31.5 11.2354C31.5 11.2369 31.5 11.2384 31.5 11.2399C31.5 11.2413 31.5 11.2428 31.5 11.2443C31.5 11.2458 31.5 11.2473 31.5 11.2488C31.5 11.2503 31.5 11.2518 31.5 11.2534C31.5 11.2549 31.5 11.2564 31.5 11.2579C31.5 11.2595 31.5 11.261 31.5 11.2625C31.5 11.2641 31.5 11.2656 31.5 11.2672C31.5 11.2687 31.5 11.2703 31.5 11.2718C31.5 11.2734 31.5 11.275 31.5 11.2766C31.5 11.2781 31.5 11.2797 31.5 11.2813C31.5 11.2829 31.5 11.2845 31.5 11.2861C31.5 11.2877 31.5 11.2893 31.5 11.2909C31.5 11.2925 31.5 11.2941 31.5 11.2957C31.5 11.2973 31.5 11.299 31.5 11.3006C31.5 11.3022 31.5 11.3039 31.5 11.3055C31.5 11.3071 31.5 11.3088 31.5 11.3104C31.5 11.3121 31.5 11.3138 31.5 11.3154C31.5 11.3171 31.5 11.3188 31.5 11.3204C31.5 11.3221 31.5 11.3238 31.5 11.3255C31.5 11.3272 31.5 11.3289 31.5 11.3306C31.5 11.3323 31.5 11.334 31.5 11.3357C31.5 11.3374 31.5 11.3391 31.5 11.3408C31.5 11.3426 31.5 11.3443 31.5 11.346C31.5 11.3478 31.5 11.3495 31.5 11.3513C31.5 11.353 31.5 11.3548 31.5 11.3565C31.5 11.3583 31.5 11.36 31.5 11.3618C31.5 11.3636 31.5 11.3653 31.5 11.3671C31.5 11.3689 31.5 11.3707 31.5 11.3725C31.5 11.3743 31.5 11.3761 31.5 11.3779C31.5 11.3797 31.5 11.3815 31.5 11.3833C31.5 11.3851 31.5 11.3869 31.5 11.3888C31.5 11.3906 31.5 11.3924 31.5 11.3943C31.5 11.3961 31.5 11.398 31.5 11.3998C31.5 11.4017 31.5 11.4035 31.5 11.4054C31.5 11.4072 31.5 11.4091 31.5 11.411C31.5 11.4129 31.5 11.4147 31.5 11.4166C31.5 11.4185 31.5 11.4204 31.5 11.4223C31.5 11.4242 31.5 11.4261 31.5 11.428C31.5 11.4299 31.5 11.4318 31.5 11.4338C31.5 11.4357 31.5 11.4376 31.5 11.4395C31.5 11.4415 31.5 11.4434 31.5 11.4454C31.5 11.4473 31.5 11.4492 31.5 11.4512C31.5 11.4532 31.5 11.4551 31.5 11.4571C31.5 11.4591 31.5 11.461 31.5 11.463C31.5 11.465 31.5 11.467 31.5 11.469C31.5 11.471 31.5 11.473 31.5 11.475C31.5 11.477 31.5 11.479 31.5 11.481C31.5 11.483 31.5 11.485 31.5 11.4871C31.5 11.4891 31.5 11.4911 31.5 11.4932C31.5 11.4952 31.5 11.4972 31.5 11.4993C31.5 11.5013 31.5 11.5034 31.5 11.5055C31.5 11.5075 31.5 11.5096 31.5 11.5117C31.5 11.5138 31.5 11.5158 31.5 11.5179C31.5 11.52 31.5 11.5221 31.5 11.5242C31.5 11.5263 31.5 11.5284 31.5 11.5305C31.5 11.5326 31.5 11.5347 31.5 11.5369C31.5 11.539 31.5 11.5411 31.5 11.5433C31.5 11.5454 31.5 11.5475 31.5 11.5497C31.5 11.5518 31.5 11.554 31.5 11.5561C31.5 11.5583 31.5 11.5605 31.5 11.5626C31.5 11.5648 31.5 11.567 31.5 11.5692C31.5 11.5713 31.5 11.5735 31.5 11.5757C31.5 11.5779 31.5 11.5801 31.5 11.5823C31.5 11.5845 31.5 11.5868 31.5 11.589C31.5 11.5912 31.5 11.5934 31.5 11.5957C31.5 11.5979 31.5 11.6001 31.5 11.6024C31.5 11.6046 31.5 11.6069 31.5 11.6091C31.5 11.6114 31.5 11.6136 31.5 11.6159C31.5 11.6182 31.5 11.6204 31.5 11.6227C31.5 11.625 31.5 11.6273 31.5 11.6296C31.5 11.6319 31.5 11.6342 31.5 11.6365C31.5 11.6388 31.5 11.6411 31.5 11.6434C31.5 11.6457 31.5 11.648 31.5 11.6504C31.5 11.6527 31.5 11.655 31.5 11.6574C31.5 11.6597 31.5 11.6621 31.5 11.6644C31.5 11.6668 31.5 11.6691 31.5 11.6715C31.5 11.6739 31.5 11.6762 31.5 11.6786C31.5 11.681 31.5 11.6834 31.5 11.6858C31.5 11.6882 31.5 11.6906 31.5 11.693C31.5 11.6954 31.5 11.6978 31.5 11.7002C31.5 11.7026 31.5 11.705 31.5 11.7075C31.5 11.7099 31.5 11.7123 31.5 11.7148C31.5 11.7172 31.5 11.7196 31.5 11.7221C31.5 11.7245 31.5 11.727 31.5 11.7295C31.5 11.7319 31.5 11.7344 31.5 11.7369C31.5 11.7394 31.5 11.7418 31.5 11.7443C31.5 11.7468 31.5 11.7493 31.5 11.7518C31.5 11.7543 31.5 11.7568 31.5 11.7593C31.5 11.7618 31.5 11.7644 31.5 11.7669C31.5 11.7694 31.5 11.772 31.5 11.7745C31.5 11.777 31.5 11.7796 31.5 11.7821C31.5 11.7847 31.5 11.7872 31.5 11.7898C31.5 11.7924 31.5 11.7949 31.5 11.7975C31.5 11.8001 31.5 11.8027 31.5 11.8053C31.5 11.8078 31.5 11.8104 31.5 11.813C31.5 11.8156 31.5 11.8183 31.5 11.8209C31.5 11.8235 31.5 11.8261 31.5 11.8287C31.5 11.8314 31.5 11.834 31.5 11.8366C31.5 11.8393 31.5 11.8419 31.5 11.8446C31.5 11.8472 31.5 11.8499 31.5 11.8525C31.5 11.8552 31.5 11.8579 31.5 11.8605C31.5 11.8632 31.5 11.8659 31.5 11.8686C31.5 11.8713 31.5 11.874 31.5 11.8767C31.5 11.8794 31.5 11.8821 31.5 11.8848C31.5 11.8875 31.5 11.8902 31.5 11.893C31.5 11.8957 31.5 11.8984 31.5 11.9012C31.5 11.9039 31.5 11.9067 31.5 11.9094C31.5 11.9122 31.5 11.9149 31.5 11.9177C31.5 11.9205 31.5 11.9232 31.5 11.926C31.5 11.9288 31.5 11.9316 31.5 11.9344C31.5 11.9371 31.5 11.9399 31.5 11.9427C31.5 11.9455 31.5 11.9484 31.5 11.9512C31.5 11.954 31.5 11.9568 31.5 11.9596C31.5 11.9625 31.5 11.9653 31.5 11.9682C31.5 11.971 31.5 11.9738 31.5 11.9767C31.5 11.9796 31.5 11.9824 31.5 11.9853C31.5 11.9881 31.5 11.991 31.5 11.9939C31.5 11.9968 31.5 11.9997 31.5 12.0026C31.5 12.0055 31.5 12.0084 31.5 12.0113C31.5 12.0142 31.5 12.0171 31.5 12.02C31.5 12.0229 31.5 12.0258 31.5 12.0288C31.5 12.0317 31.5 12.0346 31.5 12.0376C31.5 12.0405 31.5 12.0435 31.5 12.0464C31.5 12.0494 31.5 12.0524 31.5 12.0553C31.5 12.0583 31.5 12.0613 31.5 12.0643C31.5 12.0672 31.5 12.0702 31.5 12.0732C31.5 12.0762 31.5 12.0792 31.5 12.0822C31.5 12.0853 31.5 12.0883 31.5 12.0913C31.5 12.0943 31.5 12.0973 31.5 12.1004C31.5 12.1034 31.5 12.1065 31.5 12.1095C31.5 12.1125 31.5 12.1156 31.5 12.1187C31.5 12.1217 31.5 12.1248 31.5 12.1279C31.5 12.1309 31.5 12.134 31.5 12.1371C31.5 12.1402 31.5 12.1433 31.5 12.1464C31.5 12.1495 31.5 12.1526 31.5 12.1557C31.5 12.1588 31.5 12.1619 31.5 12.1651C31.5 12.1682 31.5 12.1713 31.5 12.1745C31.5 12.1776 31.5 12.1808 31.5 12.1839C31.5 12.1871 31.5 12.1902 31.5 12.1934C31.5 12.1966 31.5 12.1997 31.5 12.2029C31.5 12.2061 31.5 12.2093 31.5 12.2125C31.5 12.2157 31.5 12.2189 31.5 12.2221C31.5 12.2253 31.5 12.2285 31.5 12.2317C31.5 12.2349 31.5 12.2381 31.5 12.2414C31.5 12.2446 31.5 12.2478 31.5 12.2511C31.5 12.2543 31.5 12.2576 31.5 12.2608C31.5 12.2641 31.5 12.2674 31.5 12.2706C31.5 12.2739 31.5 12.2772 31.5 12.2805C31.5 12.2838 31.5 12.287 31.5 12.2903C31.5 12.2936 31.5 12.2969 31.5 12.3003C31.5 12.3036 31.5 12.3069 31.5 12.3102C31.5 12.3135 31.5 12.3169 31.5 12.3202C31.5 12.3235 31.5 12.3269 31.5 12.3302C31.5 12.3336 31.5 12.3369 31.5 12.3403C31.5 12.3437 31.5 12.347 31.5 12.3504C31.5 12.3538 31.5 12.3572 31.5 12.3606C31.5 12.364 31.5 12.3674 31.5 12.3708C31.5 12.3742 31.5 12.3776 31.5 12.381C31.5 12.3844 31.5 12.3878 31.5 12.3913C31.5 12.3947 31.5 12.3981 31.5 12.4016C31.5 12.405 31.5 12.4085 31.5 12.4119C31.5 12.4154 31.5 12.4189 31.5 12.4223C31.5 12.4258 31.5 12.4293 31.5 12.4328C31.5 12.4363 31.5 12.4397 31.5 12.4432C31.5 12.4467 31.5 12.4503 31.5 12.4538C31.5 12.4573 31.5 12.4608 31.5 12.4643C31.5 12.4678 31.5 12.4714 31.5 12.4749C31.5 12.4785 31.5 12.482 31.5 12.4856C31.5 12.4891 31.5 12.4927 31.5 12.4962C31.5 12.4998 31.5 12.5034 31.5 12.5069C31.5 12.5105 31.5 12.5141 31.5 12.5177C31.5 12.5213 31.5 12.5249 31.5 12.5285C31.5 12.5321 31.5 12.5357 31.5 12.5393C31.5 12.543 31.5 12.5466 31.5 12.5502C31.5 12.5539 31.5 12.5575 31.5 12.5611C31.5 12.5648 31.5 12.5685 31.5 12.5721C31.5 12.5758 31.5 12.5794 31.5 12.5831C31.5 12.5868 31.5 12.5905 31.5 12.5942C31.5 12.5978 31.5 12.6015 31.5 12.6052C31.5 12.6089 31.5 12.6127 31.5 12.6164C31.5 12.6201 31.5 12.6238 31.5 12.6275C31.5 12.6313 31.5 12.635 31.5 12.6387C31.5 12.6425 31.5 12.6462 31.5 12.65C31.5 12.6538 31.5 12.6575 31.5 12.6613C31.5 12.6651 31.5 12.6688 31.5 12.6726C31.5 12.6764 31.5 12.6802 31.5 12.684C31.5 12.6878 31.5 12.6916 31.5 12.6954C31.5 12.6992 31.5 12.703 31.5 12.7069C31.5 12.7107 31.5 12.7145 31.5 12.7184C31.5 12.7222 31.5 12.7261 31.5 12.7299C31.5 12.7338 31.5 12.7376 31.5 12.7415C31.5 12.7454 31.5 12.7492 31.5 12.7531C31.5 12.757 31.5 12.7609 31.5 12.7648C31.5 12.7687 31.5 12.7726 31.5 12.7765C31.5 12.7804 31.5 12.7843 31.5 12.7882C31.5 12.7921 31.5 12.7961 31.5 12.8C31.5 12.804 31.5 12.8079 31.5 12.8118C31.5 12.8158 31.5 12.8198 31.5 12.8237C31.5 12.8277 31.5 12.8317 31.5 12.8356C31.5 12.8396 31.5 12.8436 31.5 12.8476C31.5 12.8516 31.5 12.8556 31.5 12.8596C31.5 12.8636 31.5 12.8676 31.5 12.8716C31.5 12.8756 31.5 12.8797 31.5 12.8837C31.5 12.8877 31.5 12.8918 31.5 12.8958C31.5 12.8999 31.5 12.9039 31.5 12.908C31.5 12.9121 31.5 12.9161 31.5 12.9202C31.5 12.9243 31.5 12.9284 31.5 12.9325C31.5 12.9365 31.5 12.9406 31.5 12.9447C31.5 12.9489 31.5 12.953 31.5 12.9571C31.5 12.9612 31.5 12.9653 31.5 12.9695C31.5 12.9736 31.5 12.9777 31.5 12.9819C31.5 12.986 31.5 12.9902 31.5 12.9943C31.5 12.9985 31.5 13.0027 31.5 13.0068C31.5 13.011 31.5 13.0152 31.5 13.0194C31.5 13.0236 31.5 13.0278 31.5 13.032C31.5 13.0362 31.5 13.0404 31.5 13.0446C31.5 13.0488 31.5 13.0531 31.5 13.0573C31.5 13.0615 31.5 13.0658 31.5 13.07C31.5 13.0742 31.5 13.0785 31.5 13.0828C31.5 13.087 31.5 13.0913 31.5 13.0956C31.5 13.0998 31.5 13.1041 31.5 13.1084C31.5 13.1127 31.5 13.117 31.5 13.1213C31.5 13.1256 31.5 13.1299 31.5 13.1342C31.5 13.1385 31.5 13.1429 31.5 13.1472C31.5 13.1515 31.5 13.1559 31.5 13.1602C31.5 13.1646 31.5 13.1689 31.5 13.1733C31.5 13.1776 31.5 13.182 31.5 13.1864C31.5 13.1907 31.5 13.1951 31.5 13.1995C31.5 13.2039 31.5 13.2083 31.5 13.2127C31.5 13.2171 31.5 13.2215 31.5 13.2259C31.5 13.2304 31.5 13.2348 31.5 13.2392C31.5 13.2436 31.5 13.2481 31.5 13.2525C31.5 13.257 31.5 13.2614 31.5 13.2659C31.5 13.2703 31.5 13.2748 31.5 13.2793C31.5 13.2838 31.5 13.2882 31.5 13.2927C31.5 13.2972 31.5 13.3017 31.5 13.3062C31.5 13.3107 31.5 13.3152 31.5 13.3198C31.5 13.3243 31.5 13.3288 31.5 13.3333C31.5 13.3379 31.5 13.3424 31.5 13.347C31.5 13.3515 31.5 13.3561 31.5 13.3606C31.5 13.3652 31.5 13.3698 31.5 13.3743C31.5 13.3789 31.5 13.3835 31.5 13.3881C31.5 13.3927 31.5 13.3973 31.5 13.4019C31.5 13.4065 31.5 13.4111 31.5 13.4157C31.5 13.4203 31.5 13.425 31.5 13.4296C31.5 13.4342 31.5 13.4389 31.5 13.4435C31.5 13.4482 31.5 13.4528 31.5 13.4575C31.5 13.4622 31.5 13.4668 31.5 13.4715C31.5 13.4762 31.5 13.4809 31.5 13.4856C31.5 13.4903 31.5 13.495 31.5 13.4997C31.5 13.5044 31.5 13.5091 31.5 13.5138C31.5 13.5185 31.5 13.5233 31.5 13.528C31.5 13.5327 31.5 13.5375 31.5 13.5422C31.5 13.547 31.5 13.5517 31.5 13.5565C31.5 13.5613 31.5 13.566 31.5 13.5708C31.5 13.5756 31.5 13.5804 31.5 13.5852C31.5 13.59 31.5 13.5948 31.5 13.5996C31.5 13.6044 31.5 13.6092 31.5 13.6141C31.5 13.6189 31.5 13.6237 31.5 13.6286C31.5 13.6334 31.5 13.6382 31.5 13.6431C31.5 13.648 31.5 13.6528 31.5 13.6577C31.5 13.6626 31.5 13.6674 31.5 13.6723C31.5 13.6772 31.5 13.6821 31.5 13.687C31.5 13.6919 31.5 13.6968 31.5 13.7017C31.5 13.7066 31.5 13.7115 31.5 13.7165C31.5 13.7214 31.5 13.7263 31.5 13.7313C31.5 13.7362 31.5 13.7412 31.5 13.7461C31.5 13.7511 31.5 13.7561 31.5 13.761C31.5 13.766 31.5 13.771 31.5 13.776C31.5 13.781 31.5 13.786 31.5 13.791C31.5 13.796 31.5 13.801 31.5 13.806C31.5 13.811 31.5 13.816 31.5 13.8211C31.5 13.8261 31.5 13.8312 31.5 13.8362C31.5 13.8412 31.5 13.8463 31.5 13.8514C31.5 13.8564 31.5 13.8615 31.5 13.8666C31.5 13.8717 31.5 13.8767 31.5 13.8818C31.5 13.8869 31.5 13.892 31.5 13.8971C31.5 13.9022 31.5 13.9074 31.5 13.9125C31.5 13.9176 31.5 13.9227 31.5 13.9279C31.5 13.933 31.5 13.9382 31.5 13.9433C31.5 13.9485 31.5 13.9536 31.5 13.9588C31.5 13.964 31.5 13.9691 31.5 13.9743C31.5 13.9795 31.5 13.9847 31.5 13.9899C31.5 13.9951 31.5 14.0003 31.5 14.0055C31.5 14.0107 31.5 14.016 31.5 14.0212C31.5 14.0264 31.5 14.0316 31.5 14.0369C31.5 14.0421 31.5 14.0474 31.5 14.0526C31.5 14.0579 31.5 14.0632 31.5 14.0684C31.5 14.0737 31.5 14.079 31.5 14.0843C31.5 14.0896 31.5 14.0949 31.5 14.1002C31.5 14.1055 31.5 14.1108 31.5 14.1161C31.5 14.1214 31.5 14.1268 31.5 14.1321C31.5 14.1374 31.5 14.1428 31.5 14.1481C31.5 14.1535 31.5 14.1588 31.5 14.1642C31.5 14.1696 31.5 14.1749 31.5 14.1803C31.5 14.1857 31.5 14.1911 31.5 14.1965C31.5 14.2019 31.5 14.2073 31.5 14.2127C31.5 14.2181 31.5 14.2235 31.5 14.229C31.5 14.2344 31.5 14.2398 31.5 14.2453C31.5 14.2507 31.5 14.2561 31.5 14.2616C31.5 14.2671 31.5 14.2725 31.5 14.278C31.5 14.2835 31.5 14.289 31.5 14.2944C31.5 14.2999 31.5 14.3054 31.5 14.3109C31.5 14.3164 31.5 14.3219 31.5 14.3275C31.5 14.333 31.5 14.3385 31.5 14.344C31.5 14.3496 31.5 14.3551 31.5 14.3607C31.5 14.3662 31.5 14.3718 31.5 14.3773C31.5 14.3829 31.5 14.3885 31.5 14.3941C31.5 14.3996 31.5 14.4052 31.5 14.4108C31.5 14.4164 31.5 14.422 31.5 14.4276C31.5 14.4332 31.5 14.4389 31.5 14.4445C31.5 14.4501 31.5 14.4557 31.5 14.4614C31.5 14.467 31.5 14.4727 31.5 14.4783C31.5 14.484 31.5 14.4897 31.5 14.4953C31.5 14.501 31.5 14.5067 31.5 14.5124C31.5 14.5181 31.5 14.5238 31.5 14.5295C31.5 14.5352 31.5 14.5409 31.5 14.5466C31.5 14.5523 31.5 14.5581 31.5 14.5638C31.5 14.5695 31.5 14.5753 31.5 14.581C31.5 14.5868 31.5 14.5925 31.5 14.5983C31.5 14.6041 31.5 14.6098 31.5 14.6156C31.5 14.6214 31.5 14.6272 31.5 14.633C31.5 14.6388 31.5 14.6446 31.5 14.6504C31.5 14.6562 31.5 14.662 31.5 14.6679C31.5 14.6737 31.5 14.6795 31.5 14.6854C31.5 14.6912 31.5 14.6971 31.5 14.7029C31.5 14.7088 31.5 14.7147 31.5 14.7205C31.5 14.7264 31.5 14.7323 31.5 14.7382C31.5 14.7441 31.5 14.75 31.5 14.7559C31.5 14.7618 31.5 14.7677 31.5 14.7736C31.5 14.7796 31.5 14.7855 31.5 14.7914C31.5 14.7974 31.5 14.8033 31.5 14.8093C31.5 14.8152 31.5 14.8212 31.5 14.8272C31.5 14.8331 31.5 14.8391 31.5 14.8451C31.5 14.8511 31.5 14.8571 31.5 14.8631C31.5 14.8691 31.5 14.8751 31.5 14.8811C31.5 14.8871 31.5 14.8932 31.5 14.8992C31.5 14.9052 31.5 14.9113 31.5 14.9173C31.5 14.9234 31.5 14.9294 31.5 14.9355C31.5 14.9416 31.5 14.9476 31.5 14.9537C31.5 14.9598 31.5 14.9659 31.5 14.972C31.5 14.9781 31.5 14.9842 31.5 14.9903C31.5 14.9964 31.5 15.0025 31.5 15.0087C31.5 15.0148 31.5 15.0209 31.5 15.0271C31.5 15.0332 31.5 15.0394 31.5 15.0455C31.5 15.0517 31.5 15.0579 31.5 15.064C31.5 15.0702 31.5 15.0764 31.5 15.0826C31.5 15.0888 31.5 15.095 31.5 15.1012C31.5 15.1074 31.5 15.1136 31.5 15.1198C31.5 15.1261 31.5 15.1323 31.5 15.1385C31.5 15.1448 31.5 15.151 31.5 15.1573C31.5 15.1635 31.5 15.1698 31.5 15.1761C31.5 15.1824 31.5 15.1886 31.5 15.1949C31.5 15.2012 31.5 15.2075 31.5 15.2138C31.5 15.2201 31.5 15.2264 31.5 15.2328C31.5 15.2391 31.5 15.2454 31.5 15.2517C31.5 15.2581 31.5 15.2644 31.5 15.2708C31.5 15.2771 31.5 15.2835 31.5 15.2899C31.5 15.2962 31.5 15.3026 31.5 15.309C31.5 15.3154 31.5 15.3218 31.5 15.3282C31.5 15.3346 31.5 15.341 31.5 15.3474C31.5 15.3538 31.5 15.3603 31.5 15.3667C31.5 15.3731 31.5 15.3796 31.5 15.386C31.5 15.3925 31.5 15.3989 31.5 15.4054C31.5 15.4119 31.5 15.4183 31.5 15.4248C31.5 15.4313 31.5 15.4378 31.5 15.4443C31.5 15.4508 31.5 15.4573 31.5 15.4638C31.5 15.4703 31.5 15.4768 31.5 15.4834C31.5 15.4899 31.5 15.4964 31.5 15.503C31.5 15.5095 31.5 15.5161 31.5 15.5227C31.5 15.5292 31.5 15.5358 31.5 15.5424C31.5 15.549 31.5 15.5556 31.5 15.5621C31.5 15.5687 31.5 15.5753 31.5 15.582C31.5 15.5886 31.5 15.5952 31.5 15.6018C31.5 15.6085 31.5 15.6151 31.5 15.6217C31.5 15.6284 31.5 15.635 31.5 15.6417C31.5 15.6484 31.5 15.655 31.5 15.6617C31.5 15.6684 31.5 15.6751 31.5 15.6818C31.5 15.6885 31.5 15.6952 31.5 15.7019C31.5 15.7086 31.5 15.7153 31.5 15.722C31.5 15.7288 31.5 15.7355 31.5 15.7422C31.5 15.749 31.5 15.7557 31.5 15.7625C31.5 15.7693 31.5 15.776 31.5 15.7828C31.5 15.7896 31.5 15.7964 31.5 15.8032C31.5 15.81 31.5 15.8168 31.5 15.8236C31.5 15.8304 31.5 15.8372 31.5 15.844C31.5 15.8508 31.5 15.8577 31.5 15.8645C31.5 15.8714 31.5 15.8782 31.5 15.8851C31.5 15.8919 31.5 15.8988 31.5 15.9057C31.5 15.9126 31.5 15.9194 31.5 15.9263C31.5 15.9332 31.5 15.9401 31.5 15.947C31.5 15.9539 31.5 15.9609 31.5 15.9678C31.5 15.9747 31.5 15.9816 31.5 15.9886C31.5 15.9955 31.5 16.0025 31.5 16.0094C31.5 16.0164 31.5 16.0234 31.5 16.0303C31.5 16.0373 31.5 16.0443 31.5 16.0513C31.5 16.0583 31.5 16.0653 31.5 16.0723C31.5 16.0793 31.5 16.0863 31.5 16.0934C31.5 16.1004 31.5 16.1074 31.5 16.1145C31.5 16.1215 31.5 16.1285 31.5 16.1356C31.5 16.1427 31.5 16.1497 31.5 16.1568C31.5 16.1639 31.5 16.171 31.5 16.1781C31.5 16.1851 31.5 16.1923 31.5 16.1994C31.5 16.2065 31.5 16.2136 31.5 16.2207C31.5 16.2278 31.5 16.235 31.5 16.2421C31.5 16.2493 31.5 16.2564 31.5 16.2636C31.5 16.2707 31.5 16.2779 31.5 16.2851C31.5 16.2922 31.5 16.2994 31.5 16.3066C31.5 16.3138 31.5 16.321 31.5 16.3282C31.5 16.3354 31.5 16.3427 31.5 16.3499C31.5 16.3571 31.5 16.3643 31.5 16.3716C31.5 16.3788 31.5 16.3861 31.5 16.3933C31.5 16.4006 31.5 16.4079 31.5 16.4151C31.5 16.4224 31.5 16.4297 31.5 16.437C31.5 16.4443 31.5 16.4516 31.5 16.4589C31.5 16.4662 31.5 16.4735 31.5 16.4809C31.5 16.4882 31.5 16.4955 31.5 16.5029C31.5 16.5102 31.5 16.5176 31.5 16.5249C31.5 16.5323 31.5 16.5397 31.5 16.547C31.5 16.5544 31.5 16.5618 31.5 16.5692C31.5 16.5766 31.5 16.584 31.5 16.5914C31.5 16.5988 31.5 16.6063 31.5 16.6137C31.5 16.6211 31.5 16.6286 31.5 16.636C31.5 16.6434 31.5 16.6509 31.5 16.6584C31.5 16.6658 31.5 16.6733 31.5 16.6808C31.5 16.6883 31.5 16.6958 31.5 16.7033C31.5 16.7107 31.5 16.7183 31.5 16.7258C31.5 16.7333 31.5 16.7408 31.5 16.7483C31.5 16.7559 31.5 16.7634 31.5 16.771C31.5 16.7785 31.5 16.7861 31.5 16.7936C31.5 16.8012 31.5 16.8088 31.5 16.8164C31.5 16.8239 31.5 16.8315 31.5 16.8391C31.5 16.8467 31.5 16.8543 31.5 16.862C31.5 16.8696 31.5 16.8772 31.5 16.8848C31.5 16.8925 31.5 16.9001 31.5 16.9078C31.5 16.9154 31.5 16.9231 31.5 16.9307C31.5 16.9384 31.5 16.9461 31.5 16.9538C31.5 16.9615 31.5 16.9692 31.5 16.9769C31.5 16.9846 31.5 16.9923 31.5 17H34.5Z" fill="#152C5B"/>
<mask id="path-4-inside-1_27_78" fill="white">
<path d="M9 46C11.2091 46 13 44.2091 13 42L13 27C13 26.4477 12.5523 26 12 26L6 26C5.44771 26 5 26.4477 5 27L5 42C5 44.2091 6.79086 46 9 46Z"/>
</mask>
<path d="M9 46C11.2091 46 13 44.2091 13 42L13 27C13 26.4477 12.5523 26 12 26L6 26C5.44771 26 5 26.4477 5 27L5 42C5 44.2091 6.79086 46 9 46Z" stroke="#152C5B" stroke-width="6" mask="url(#path-4-inside-1_27_78)"/>
<mask id="path-5-inside-2_27_78" fill="white">
<path d="M39 46C41.2091 46 43 44.2091 43 42L43 27C43 26.4477 42.5523 26 42 26L36 26C35.4477 26 35 26.4477 35 27L35 42C35 44.2091 36.7909 46 39 46Z"/>
</mask>
<path d="M39 46C41.2091 46 43 44.2091 43 42L43 27C43 26.4477 42.5523 26 42 26L36 26C35.4477 26 35 26.4477 35 27L35 42C35 44.2091 36.7909 46 39 46Z" stroke="#152C5B" stroke-width="6" mask="url(#path-5-inside-2_27_78)"/>
<mask id="path-6-inside-3_27_78" fill="white">
<path d="M15 12C17.2091 12 19 10.2091 19 8L19 3C19 2.44772 18.5523 2 18 2L12 2C11.4477 2 11 2.44772 11 3L11 8C11 10.2091 12.7909 12 15 12Z"/>
</mask>
<path d="M15 12C17.2091 12 19 10.2091 19 8L19 3C19 2.44772 18.5523 2 18 2L12 2C11.4477 2 11 2.44772 11 3L11 8C11 10.2091 12.7909 12 15 12Z" stroke="#FF498B" stroke-width="6" mask="url(#path-6-inside-3_27_78)"/>
<mask id="path-7-inside-4_27_78" fill="white">
<path d="M33 12C35.2091 12 37 10.2091 37 8L37 3C37 2.44772 36.5523 2 36 2L30 2C29.4477 2 29 2.44772 29 3L29 8C29 10.2091 30.7909 12 33 12Z"/>
</mask>
<path d="M33 12C35.2091 12 37 10.2091 37 8L37 3C37 2.44772 36.5523 2 36 2L30 2C29.4477 2 29 2.44772 29 3L29 8C29 10.2091 30.7909 12 33 12Z" stroke="#FF498B" stroke-width="6" mask="url(#path-7-inside-4_27_78)"/>
</svg>
